<svg width="70" height="70" viewBox="0 0 70 70" fill="none" xmlns="http://www.w3.org/2000/svg">
<g clip-path="url(#clip0_243_12861)">
<path d="M35.0001 1.03125C28.2841 1.04278 21.7222 3.04485 16.1436 6.78447C10.5651 10.5241 6.22019 15.8334 3.65806 22.0415C1.09594 28.2496 0.431547 35.0779 1.74885 41.6635C3.06614 48.2491 6.30601 54.2964 11.059 59.0413C15.8121 63.7861 21.8649 67.0156 28.4528 68.3216C35.0406 69.6276 41.8677 68.9515 48.0714 66.3788C54.2751 63.806 59.577 59.452 63.307 53.867C67.0371 48.2821 69.0279 41.7167 69.0279 35.0007C69.0124 25.9861 65.4206 17.346 59.0408 10.9771C52.661 4.60829 44.0147 1.03124 35.0001 1.03125Z" stroke="url(#paint0_linear_243_12861)" stroke-width="1.3125" stroke-miterlimit="10" stroke-linecap="round"/>
<path d="M35 44.2359C40.101 44.2359 44.2361 40.1007 44.2361 34.9998C44.2361 29.8988 40.101 25.7637 35 25.7637C29.8991 25.7637 25.7639 29.8988 25.7639 34.9998C25.7639 40.1007 29.8991 44.2359 35 44.2359Z" stroke="url(#paint1_linear_243_12861)" stroke-width="1.45833" stroke-linecap="round" stroke-linejoin="round"/>
<path d="M45.0719 47.328C45.0159 47.2559 44.9461 47.1958 44.8665 47.1512C44.7869 47.1066 44.6991 47.0785 44.6084 47.0685C44.5177 47.0586 44.4259 47.0669 44.3385 47.0931C44.2511 47.1193 44.1699 47.1629 44.0996 47.2211C43.9584 47.3371 43.8682 47.5038 43.8482 47.6854C43.8282 47.8671 43.8801 48.0494 43.9927 48.1933C44.1101 48.3331 44.2774 48.4215 44.459 48.4396C44.6406 48.4578 44.8222 48.4043 44.9649 48.2905C45.0352 48.2331 45.0935 48.1624 45.1364 48.0825C45.1794 48.0025 45.2061 47.9149 45.2151 47.8246C45.2242 47.7343 45.2153 47.6431 45.189 47.5562C45.1628 47.4693 45.1197 47.3885 45.0621 47.3183L45.0719 47.328Z" fill="url(#paint2_linear_243_12861)"/>
<path d="M47.0067 46.1614C47.0611 46.0877 47.1003 46.0038 47.1219 45.9147C47.1436 45.8257 47.1472 45.7332 47.1328 45.6427C47.1183 45.5522 47.0859 45.4655 47.0376 45.3876C46.9892 45.3098 46.9259 45.2423 46.8512 45.1892C46.726 45.1024 46.5758 45.0588 46.4236 45.065C46.2714 45.0713 46.1254 45.127 46.0077 45.2238C45.89 45.3206 45.8071 45.4531 45.7716 45.6013C45.7361 45.7494 45.7499 45.9051 45.8109 46.0448C45.8634 46.1489 45.94 46.2389 46.0345 46.3073C46.1832 46.4156 46.3686 46.461 46.5505 46.4337C46.7325 46.4064 46.8963 46.3086 47.0067 46.1614Z" fill="url(#paint3_linear_243_12861)"/>
<path d="M47.1335 43.6131C47.1705 43.6935 47.2231 43.7659 47.2881 43.826C47.3532 43.886 47.4295 43.9326 47.5127 43.9631C47.6855 44.0297 47.8777 44.0252 48.0471 43.9505C48.2166 43.8758 48.3496 43.737 48.4169 43.5644C48.4806 43.3928 48.4745 43.2031 48.4 43.0359C48.3255 42.8687 48.1885 42.7374 48.0183 42.67C47.8455 42.6033 47.6533 42.6078 47.4838 42.6825C47.3144 42.7572 47.1814 42.8961 47.1141 43.0686C47.0808 43.1561 47.0653 43.2493 47.0687 43.3428C47.072 43.4363 47.0941 43.5282 47.1335 43.6131Z" fill="url(#paint4_linear_243_12861)"/>
<path d="M47.6972 40.5604C47.6872 40.6873 47.7107 40.8147 47.7652 40.9298C47.852 41.0837 47.9937 41.1991 48.1619 41.2528C48.3301 41.3066 48.5125 41.2948 48.6724 41.2198C48.8323 41.1448 48.9579 41.012 49.0241 40.8483C49.0902 40.6845 49.092 40.5018 49.0291 40.3367C48.9908 40.2479 48.9344 40.1679 48.8636 40.1019C48.7928 40.0359 48.709 39.9853 48.6177 39.9534C48.5263 39.9214 48.4293 39.9087 48.3328 39.9161C48.2362 39.9235 48.1423 39.9509 48.0569 39.9965C47.9552 40.0536 47.8692 40.135 47.8065 40.2334C47.7437 40.3317 47.7062 40.444 47.6972 40.5604Z" fill="url(#paint5_linear_243_12861)"/>
<path d="M35.0005 15.5547C32.7771 17.1106 30.3747 18.3934 27.8449 19.3755C25.2159 20.1188 22.5191 20.5976 19.7949 20.8047C19.7949 20.8047 18.9296 37.8477 22.8282 44.6436C25.7838 49.7964 33.513 54.4436 35.0005 54.4436" stroke="url(#paint6_linear_243_12861)" stroke-width="1.45833" stroke-linecap="round" stroke-linejoin="round"/>
<path d="M49.2917 38.0422C50.1539 32.3395 50.46 26.5666 50.2056 20.8047C47.4813 20.5976 44.7846 20.1188 42.1556 19.3755C39.6258 18.3934 37.2234 17.1106 35 15.5547L34.5139 15.8755" stroke="url(#paint7_linear_243_12861)" stroke-width="1.45833" stroke-linecap="round" stroke-linejoin="round"/>
<path d="M35 54.4451C35.9722 54.4451 39.2875 52.6368 42.3986 50.0215" stroke="url(#paint8_linear_243_12861)" stroke-width="1.45833" stroke-linecap="round" stroke-linejoin="round"/>
<path d="M28.8268 35.7002L33.0559 39.9294L41.174 31.8211L40.0073 30.6738L33.0559 37.6155L29.974 34.5433L28.8268 35.7002Z" fill="url(#paint9_linear_243_12861)"/>
</g>
<defs>
<linearGradient id="paint0_linear_243_12861" x1="-20.8066" y1="51.1957" x2="133.428" y2="-18.8066" gradientUnits="userSpaceOnUse">
<stop stop-color="#2378DA"/>
<stop offset="0.951841" stop-color="#042F61"/>
</linearGradient>
<linearGradient id="paint1_linear_243_12861" x1="19.8106" y1="39.4031" x2="61.7462" y2="20.3699" gradientUnits="userSpaceOnUse">
<stop stop-color="#2378DA"/>
<stop offset="0.951841" stop-color="#042F61"/>
</linearGradient>
<linearGradient id="paint2_linear_243_12861" x1="43.401" y1="48.0824" x2="46.5247" y2="46.6689" gradientUnits="userSpaceOnUse">
<stop stop-color="#2378DA"/>
<stop offset="0.951841" stop-color="#042F61"/>
</linearGradient>
<linearGradient id="paint3_linear_243_12861" x1="45.3046" y1="46.0812" x2="48.4487" y2="44.6417" gradientUnits="userSpaceOnUse">
<stop stop-color="#2378DA"/>
<stop offset="0.951841" stop-color="#042F61"/>
</linearGradient>
<linearGradient id="paint4_linear_243_12861" x1="46.6195" y1="43.6471" x2="49.7763" y2="42.2088" gradientUnits="userSpaceOnUse">
<stop stop-color="#2378DA"/>
<stop offset="0.951841" stop-color="#042F61"/>
</linearGradient>
<linearGradient id="paint5_linear_243_12861" x1="47.2502" y1="40.9271" x2="50.3769" y2="39.4996" gradientUnits="userSpaceOnUse">
<stop stop-color="#2378DA"/>
<stop offset="0.951841" stop-color="#042F61"/>
</linearGradient>
<linearGradient id="paint6_linear_243_12861" x1="14.7863" y1="44.2693" x2="55.3495" y2="37.0322" gradientUnits="userSpaceOnUse">
<stop stop-color="#2378DA"/>
<stop offset="0.951841" stop-color="#042F61"/>
</linearGradient>
<linearGradient id="paint7_linear_243_12861" x1="29.4288" y1="32.1589" x2="68.6499" y2="19.6687" gradientUnits="userSpaceOnUse">
<stop stop-color="#2378DA"/>
<stop offset="0.951841" stop-color="#042F61"/>
</linearGradient>
<linearGradient id="paint8_linear_243_12861" x1="32.6155" y1="53.2878" x2="45.4665" y2="43.5325" gradientUnits="userSpaceOnUse">
<stop stop-color="#2378DA"/>
<stop offset="0.951841" stop-color="#042F61"/>
</linearGradient>
<linearGradient id="paint9_linear_243_12861" x1="24.8475" y1="37.5079" x2="49.5839" y2="22.5306" gradientUnits="userSpaceOnUse">
<stop stop-color="#2378DA"/>
<stop offset="0.951841" stop-color="#042F61"/>
</linearGradient>
<clipPath id="clip0_243_12861">
<rect width="70" height="70" fill="white"/>
</clipPath>
</defs>
</svg>
