<svg width="52" height="52" viewBox="0 0 52 52" fill="none" xmlns="http://www.w3.org/2000/svg">
<g clip-path="url(#clip0_243_13381)">
<path d="M0.011971 22.6546C-0.100967 23.5635 0.607838 24.3659 1.52373 24.3659H7.72168C8.08197 24.3659 8.43059 24.2382 8.70563 24.0055C8.98067 23.7728 9.16433 23.4501 9.22399 23.0948C10.4168 15.991 15.991 10.4167 23.0948 9.22397C23.4501 9.16431 23.7728 8.98063 24.0055 8.70557C24.2382 8.43051 24.3659 8.08186 24.3659 7.72156V1.52361C24.3659 0.607716 23.5636 -0.101089 22.6546 0.0118489C16.9397 0.722075 11.5408 3.36463 7.45274 7.45262C3.36475 11.5407 0.722198 16.9396 0.011971 22.6546ZM35.707 39.6784C32.8155 41.743 29.4251 42.8342 25.9022 42.8342C17.6125 42.8342 10.5984 36.8938 9.2241 28.709C9.16443 28.3537 8.98077 28.0311 8.70573 27.7983C8.43069 27.5656 8.08207 27.4379 7.72178 27.4379H1.52373C0.607838 27.4379 -0.100967 28.2402 0.011971 29.1491V29.1492C1.63098 42.1762 12.7613 52 25.9022 52C31.7562 52 37.2924 50.0998 41.9123 46.505C42.6354 45.9424 42.7018 44.8733 42.054 44.2255L37.6695 39.841C37.4146 39.586 37.0774 39.4298 36.7181 39.4C36.3587 39.3702 36.0005 39.4689 35.707 39.6784ZM28.7092 9.22397C36.8938 10.5983 42.8344 17.6124 42.8344 25.9021C42.8344 29.425 41.7431 32.8153 39.6786 35.7069C39.4691 36.0003 39.3705 36.3586 39.4003 36.7179C39.43 37.0772 39.5863 37.4143 39.8412 37.6693L44.2259 42.054C44.8738 42.7018 45.9427 42.6353 46.5054 41.9123L46.5055 41.9122C50.1001 37.2925 52.0001 31.7562 52.0001 25.9021C52.0001 12.7612 42.1764 1.63086 29.1493 0.0118489H29.1492C28.2404 -0.101089 27.4379 0.607716 27.4379 1.52361V7.72156C27.4379 8.08187 27.5657 8.43052 27.7984 8.70558C28.0311 8.98064 28.3538 9.16431 28.7092 9.22397Z" fill="white"/>
<path d="M26.9165 15.4336H24.8841C24.0427 15.4336 23.3606 16.1157 23.3606 16.957V34.7303H28.44V16.957C28.44 16.1157 27.7579 15.4336 26.9165 15.4336ZM31.4869 34.7303H35.0428C35.8841 34.7303 36.5662 34.0482 36.5662 33.2068V21.0194C36.5662 20.1781 35.8841 19.496 35.0428 19.496H31.4869V34.7303ZM20.3138 23.5585H16.7617C15.9204 23.5585 15.2383 24.2406 15.2383 25.0819V33.2068C15.2383 34.0482 15.9204 34.7303 16.7617 34.7303H20.3138V23.5585Z" fill="white"/>
</g>
<defs>
<clipPath id="clip0_243_13381">
<rect width="52" height="52" fill="white"/>
</clipPath>
</defs>
</svg>
