<svg width="90" height="90" viewBox="0 0 90 90" fill="none" xmlns="http://www.w3.org/2000/svg">
<circle cx="45" cy="45" r="45" fill="white"/>
<path d="M35.9467 32.8965H53.8651V47.6413C53.8651 47.6413 53.5916 48.9539 52.5525 48.9539H50.556V53.6869C50.556 53.6869 50.4729 55.6834 48.5582 55.6834C46.6436 55.6834 46.5604 53.6869 46.5604 53.6869V49.0907H43.2782V53.8237C43.2782 53.8237 43.305 55.6284 41.2254 55.6016C41.2254 55.6016 39.3107 55.5748 39.3107 53.6869V49.0089H37.3679C37.3679 49.0089 35.9453 49.0907 35.9453 47.585V32.8965H35.9467Z" fill="#9AC243"/>
<path d="M55.0532 34.838C55.0532 34.838 55.0532 32.8965 56.996 32.8965C58.9389 32.8965 58.9523 34.5644 58.9523 34.8527V43.3199C58.9523 43.3199 59.144 45.146 57.1261 45.146C55.1082 45.146 55.0532 43.8133 55.0532 43.2381V34.8393V34.838Z" fill="#9AC243"/>
<path d="M30.7485 34.838C30.7485 34.838 30.7485 32.8965 32.6914 32.8965C34.6342 32.8965 34.6476 34.5644 34.6476 34.8527V43.3199C34.6476 43.3199 34.8393 45.146 32.8214 45.146C30.8035 45.146 30.7499 43.8133 30.7499 43.2381V34.8393L30.7485 34.838Z" fill="#9AC243"/>
<path d="M49.2408 25.2964L50.7908 23.0023C51.0522 22.6322 50.7237 22.5437 50.7237 22.5437C50.5065 22.3694 50.3309 22.6751 50.3309 22.6751L48.7246 25.0658C47.5983 24.6059 46.3433 24.3444 45.0146 24.3324C43.6416 24.3189 42.337 24.5737 41.1638 25.0443C40.6811 24.3471 39.4328 22.5531 39.3443 22.5008C39.2357 22.4351 39.0815 22.5665 39.0815 22.5665C38.7986 22.7851 38.9287 22.8937 38.9287 22.8937L40.5645 25.3071C38.0598 26.5205 36.2712 28.7717 35.9253 31.5257H53.8585C53.5233 28.7624 51.7521 26.5058 49.2408 25.2964ZM41.0887 29.119C40.5363 29.119 40.0898 28.6712 40.0898 28.1201C40.0898 27.569 40.5363 27.1212 41.0887 27.1212C41.6411 27.1212 42.0863 27.569 42.0863 28.1201C42.0863 28.6712 41.6398 29.119 41.0887 29.119ZM48.7635 29.119C48.2124 29.119 47.7646 28.6712 47.7646 28.1201C47.7646 27.569 48.2124 27.1212 48.7635 27.1212C49.3145 27.1212 49.7624 27.569 49.7624 28.1201C49.7624 28.6712 49.3159 29.119 48.7635 29.119Z" fill="#9AC243"/>
<path d="M24.7187 67.5198V66.0503H22.808C22.808 66.0503 21.2688 65.467 21.3573 64.1034C21.3573 64.1034 21.4284 62.6353 22.6498 62.3001H25.8691V67.4662H27.3198V60.8145H22.9153C22.9153 60.8145 20.1372 60.974 20.0312 64.1584C20.0312 64.1584 20.0849 67.0425 23.1285 67.501L24.72 67.5198H24.7187Z" fill="#9AC243"/>
<path d="M63.4109 66.1173V67.4621L67.2281 67.4098C67.2281 67.4098 70.0009 67.2154 69.9674 64.1007C69.9674 64.1007 70.1337 61.0584 67.2456 60.793H63.4431V62.2263H66.8474C66.8474 62.2263 68.64 62.3845 68.4577 64.2254C68.4577 64.2254 68.6561 66.065 66.7642 66.1012L63.4109 66.1186V66.1173Z" fill="#9AC243"/>
<path d="M36.9864 66.0372V67.382L40.8037 67.3284C40.8037 67.3284 43.5765 67.134 43.543 64.0206C43.543 64.0206 43.7092 60.977 40.8198 60.7129H37.0186V62.1449H40.4216C40.4216 62.1449 42.2142 62.3044 42.0319 64.144C42.0319 64.144 42.2317 65.9836 40.3384 66.0184L36.9851 66.0372H36.9864Z" fill="#9AC243"/>
<path d="M30.2208 67.4647H28.876L28.9283 63.3954C28.9283 63.3954 29.1227 60.4416 32.236 60.4765C32.236 60.4765 35.2783 60.2995 35.5438 63.378V67.4285H34.1118V63.803C34.1118 63.803 33.9522 61.891 32.1127 62.0868C32.1127 62.0868 30.2731 61.8736 30.2369 63.8915L30.2195 67.4647H30.2208Z" fill="#9AC243"/>
<path d="M45.0604 62.217V60.7891H48.8119C48.8119 60.7891 50.8754 60.8186 50.8754 63.1556C50.8754 63.1556 50.9331 64.3811 49.8363 65.1467C49.8363 65.1467 49.7196 65.2043 49.8014 65.3009C49.8108 65.3102 49.8229 65.3223 49.8363 65.333C49.9811 65.4483 50.673 65.9257 50.673 67.4823H49.2303C49.2303 67.4823 49.1431 65.6508 47.687 65.6508H45.0188V64.0633H48.5974C48.5974 64.0633 49.4341 64.0204 49.4046 63.0818C49.4046 63.0818 49.5051 62.2023 48.4244 62.2023L45.063 62.217H45.0604Z" fill="#9AC243"/>
<path d="M55.6354 60.5723C53.7154 60.5723 52.1587 62.1249 52.1587 64.0409C52.1587 65.9569 53.7154 67.5109 55.6354 67.5109C57.5554 67.5109 59.1121 65.9583 59.1121 64.0409C59.1121 62.1236 57.5554 60.5723 55.6354 60.5723ZM55.6354 66.0387C54.5292 66.0387 53.6322 65.1444 53.6322 64.0409C53.6322 62.9374 54.5292 62.0431 55.6354 62.0431C56.7415 62.0431 57.6372 62.9374 57.6372 64.0409C57.6372 65.1444 56.7415 66.0387 55.6354 66.0387Z" fill="#9AC243"/>
<path d="M62.0263 60.8027H60.5112V67.496H62.0263V60.8027Z" fill="#9AC243"/>
</svg>
