<svg width="58" height="56" viewBox="0 0 58 56" fill="none" xmlns="http://www.w3.org/2000/svg">
<path d="M2.43845 28.2784V53.9057H0.959624C0.703906 53.9092 0.459856 54.0133 0.28027 54.1954C0.100683 54.3774 0 54.6229 0 54.8786C0 55.1344 0.100683 55.3798 0.28027 55.5619C0.459856 55.744 0.703906 55.8481 0.959624 55.8516H14.6683V28.2784C13.2632 28.263 3.57451 28.2894 2.43845 28.2784ZM5.57136 35.5949C5.57213 35.3371 5.67489 35.0901 5.85718 34.9078C6.03948 34.7255 6.2865 34.6228 6.5443 34.622H10.5626C10.6904 34.6216 10.8172 34.6464 10.9354 34.6952C11.0536 34.7439 11.1611 34.8156 11.2515 34.906C11.3419 34.9964 11.4136 35.1038 11.4623 35.2221C11.5111 35.3403 11.5359 35.467 11.5355 35.5949V39.623C11.5359 39.7508 11.5111 39.8776 11.4623 39.9958C11.4136 40.1141 11.342 40.2215 11.2515 40.3119C11.1611 40.4024 11.0537 40.474 10.9354 40.5227C10.8172 40.5715 10.6905 40.5963 10.5626 40.5959H6.5443C6.28649 40.5951 6.03946 40.4924 5.85717 40.3101C5.67487 40.1278 5.57212 39.8808 5.57136 39.623V35.5949ZM5.57136 44.0789C5.57092 43.951 5.59578 43.8243 5.64452 43.7061C5.69326 43.5878 5.76491 43.4804 5.85534 43.39C5.94577 43.2995 6.05321 43.2279 6.17145 43.1792C6.28969 43.1304 6.41641 43.1056 6.5443 43.106H10.5626C10.6907 43.1047 10.8178 43.129 10.9364 43.1775C11.055 43.2259 11.1627 43.2976 11.2533 43.3881C11.3439 43.4787 11.4156 43.5865 11.464 43.7051C11.5125 43.8237 11.5368 43.9508 11.5355 44.0789V48.0973C11.5359 48.2251 11.5111 48.3519 11.4623 48.4701C11.4136 48.5883 11.3419 48.6958 11.2515 48.7862C11.1611 48.8766 11.0536 48.9483 10.9354 48.997C10.8172 49.0457 10.6904 49.0706 10.5626 49.0701H6.5443C6.2865 49.0694 6.03948 48.9666 5.85718 48.7844C5.67489 48.6021 5.57213 48.3551 5.57136 48.0973V44.0789Z" fill="#2378DA"/>
<path d="M42.8067 26.3325H55.2604C55.7901 26.3322 56.2983 26.1222 56.6738 25.7485C57.0493 25.3749 57.2617 24.8678 57.2646 24.338V22.1586C57.2617 21.6288 57.0493 21.1217 56.6738 20.748C56.2983 20.3743 55.7901 20.1644 55.2604 20.1641H42.8067C42.8067 20.1641 42.7977 25.2199 42.8067 26.3325Z" fill="#2378DA"/>
<path d="M0.210938 22.1586V24.338C0.211567 24.6005 0.26391 24.8604 0.364977 25.1027C0.466044 25.3451 0.613855 25.5651 0.799971 25.7503C0.986086 25.9356 1.20686 26.0823 1.44969 26.1822C1.69252 26.2821 1.95264 26.3331 2.21521 26.3325H14.6689C14.6706 24.4785 14.6676 22.0227 14.6689 20.1641H2.2152C1.95263 20.1634 1.69251 20.2145 1.44968 20.3144C1.20685 20.4143 0.986082 20.561 0.799967 20.7462C0.613853 20.9314 0.466042 21.1515 0.364976 21.3938C0.26391 21.6362 0.211567 21.896 0.210938 22.1586Z" fill="#2378DA"/>
<path d="M43.4956 15.8243V13.6449C43.4949 13.1162 43.2845 12.6093 42.9106 12.2354C42.5367 11.8615 42.0299 11.6511 41.5011 11.6504H35.4494C34.6631 12.6873 33.6474 13.5281 32.4818 14.107C31.3163 14.6859 30.0326 14.9871 28.7313 14.9871C27.4299 14.9871 26.1462 14.6859 24.9807 14.107C23.8151 13.5281 22.7994 12.6873 22.0131 11.6504H15.9711C15.4423 11.6511 14.9354 11.8615 14.5615 12.2354C14.1877 12.6093 13.9773 13.1162 13.9766 13.6449V15.8243C13.976 16.3543 14.1857 16.863 14.5596 17.2387C14.9335 17.6144 15.4411 17.8265 15.9711 17.8286H41.5011C42.0311 17.8265 42.5387 17.6144 42.9126 17.2387C43.2865 16.863 43.4961 16.3543 43.4956 15.8243Z" fill="#2378DA"/>
<path d="M56.5154 53.9047H55.0462V28.2773H42.8066V55.8506H56.5154C56.7706 55.8463 57.0139 55.7419 57.1928 55.5599C57.3718 55.3779 57.472 55.1329 57.472 54.8776C57.472 54.6224 57.3718 54.3774 57.1928 54.1954C57.0139 54.0134 56.7706 53.909 56.5154 53.9047ZM45.9395 35.5939C45.9403 35.3361 46.043 35.0891 46.2253 34.9068C46.4076 34.7245 46.6546 34.6218 46.9124 34.621H50.9405C51.1983 34.6218 51.4453 34.7245 51.6276 34.9068C51.8099 35.0891 51.9126 35.3361 51.9134 35.5939V39.6219C51.9126 39.8797 51.8099 40.1268 51.6276 40.3091C51.4453 40.4914 51.1983 40.5941 50.9405 40.5949H46.9124C46.6546 40.5941 46.4076 40.4914 46.2253 40.3091C46.043 40.1268 45.9402 39.8797 45.9395 39.6219V35.5939ZM45.9395 44.0779C45.939 43.95 45.9639 43.8233 46.0126 43.7051C46.0614 43.5868 46.133 43.4794 46.2235 43.389C46.3139 43.2985 46.4213 43.2269 46.5396 43.1781C46.6578 43.1294 46.7845 43.1045 46.9124 43.105H50.9405C51.0684 43.1045 51.1951 43.1294 51.3133 43.1781C51.4316 43.2269 51.539 43.2985 51.6294 43.389C51.7199 43.4794 51.7915 43.5868 51.8402 43.7051C51.889 43.8233 51.9138 43.95 51.9134 44.0779V48.0962C51.9126 48.354 51.8099 48.601 51.6276 48.7833C51.4453 48.9656 51.1983 49.0684 50.9405 49.0691H46.9124C46.6546 49.0684 46.4076 48.9656 46.2253 48.7833C46.043 48.601 45.9403 48.354 45.9395 48.0962V44.0779Z" fill="#2378DA"/>
<path d="M16.6146 19.7734C16.6159 26.7015 16.6138 48.6441 16.6147 55.8502C18.0407 55.84 20.0999 55.8575 21.5184 55.8502V40.8766C21.5179 40.7487 21.5428 40.622 21.5915 40.5038C21.6403 40.3855 21.7119 40.2781 21.8023 40.1877C21.8928 40.0972 22.0002 40.0256 22.1184 39.9768C22.2367 39.9281 22.3634 39.9032 22.4913 39.9037H34.9838C35.1117 39.9032 35.2384 39.9281 35.3567 39.9768C35.4749 40.0256 35.5823 40.0972 35.6728 40.1877C35.7632 40.2781 35.8348 40.3855 35.8836 40.5038C35.9323 40.622 35.9572 40.7487 35.9567 40.8766C35.9586 42.0829 35.9553 55.077 35.9567 55.8502C37.3719 55.856 39.441 55.846 40.8604 55.8502V19.7735C40.5824 19.7892 16.4069 19.7862 16.6146 19.7734ZM35.9665 23.568V27.5862C35.967 27.7141 35.9421 27.8408 35.8934 27.9591C35.8447 28.0773 35.773 28.1847 35.6826 28.2752C35.5921 28.3656 35.4847 28.4373 35.3665 28.486C35.2482 28.5347 35.1215 28.5596 34.9936 28.5592H30.9656C30.8377 28.5596 30.711 28.5348 30.5928 28.486C30.4745 28.4373 30.3671 28.3656 30.2766 28.2752C30.1862 28.1848 30.1146 28.0773 30.0658 27.9591C30.0171 27.8408 29.9922 27.7141 29.9927 27.5862V23.568C29.9934 23.3102 30.0962 23.0631 30.2785 22.8808C30.4608 22.6985 30.7078 22.5958 30.9656 22.595H34.9936C35.2514 22.5958 35.4985 22.6985 35.6808 22.8808C35.863 23.0631 35.9658 23.3102 35.9665 23.568ZM27.4922 36.1092C27.4915 36.367 27.3887 36.614 27.2064 36.7963C27.0241 36.9786 26.7771 37.0814 26.5192 37.0821H22.4913C22.2335 37.0813 21.9865 36.9786 21.8042 36.7963C21.6219 36.614 21.5192 36.367 21.5184 36.1092V32.0812C21.5192 31.8234 21.6219 31.5764 21.8042 31.3941C21.9865 31.2118 22.2335 31.109 22.4913 31.1083H26.5192C26.7771 31.109 27.0241 31.2117 27.2064 31.394C27.3887 31.5764 27.4915 31.8234 27.4922 32.0812V36.1092ZM27.4922 27.5862C27.4926 27.7141 27.4678 27.8408 27.419 27.9591C27.3703 28.0773 27.2987 28.1848 27.2082 28.2752C27.1178 28.3656 27.0103 28.4373 26.8921 28.486C26.7739 28.5348 26.6471 28.5596 26.5192 28.5592H22.4913C22.3634 28.5596 22.2367 28.5347 22.1185 28.486C22.0002 28.4373 21.8928 28.3656 21.8024 28.2752C21.7119 28.1847 21.6403 28.0773 21.5916 27.9591C21.5428 27.8408 21.518 27.7141 21.5184 27.5862V23.568C21.5192 23.3102 21.6219 23.0631 21.8042 22.8808C21.9865 22.6985 22.2335 22.5958 22.4913 22.595H26.5192C26.7771 22.5958 27.0241 22.6985 27.2064 22.8808C27.3887 23.0631 27.4915 23.3102 27.4922 23.568V27.5862ZM34.9936 37.0821H30.9656C30.7077 37.0814 30.4607 36.9786 30.2784 36.7963C30.0961 36.614 29.9934 36.367 29.9926 36.1092V32.0812C29.9934 31.8234 30.0961 31.5764 30.2784 31.3941C30.4607 31.2118 30.7077 31.109 30.9656 31.1083H34.9936C35.2514 31.109 35.4984 31.2118 35.6807 31.3941C35.863 31.5764 35.9657 31.8234 35.9665 32.0812V36.1091C35.9657 36.367 35.863 36.614 35.6807 36.7963C35.4984 36.9786 35.2514 37.0814 34.9936 37.0821Z" fill="#2378DA"/>
<path d="M41.0147 9.70336V8.07851C41.0141 7.81594 40.9617 7.55607 40.8607 7.31373C40.7596 7.0714 40.6118 6.85134 40.4257 6.66613C40.2396 6.48092 40.0188 6.33418 39.776 6.2343C39.5331 6.13441 39.273 6.08334 39.0104 6.08399H37.1813C37.2458 7.32086 37.0365 8.55671 36.5684 9.70336C37.6637 9.7008 39.9314 9.70522 41.0147 9.70336Z" fill="#2378DA"/>
<path d="M47.8828 45.0508H49.9651V47.1228H47.8828V45.0508Z" fill="#2378DA"/>
<path d="M47.8828 36.5664H49.9651V38.6487H47.8828V36.5664Z" fill="#2378DA"/>
<path d="M7.51562 45.0508H9.58763V47.1228H7.51562V45.0508Z" fill="#2378DA"/>
<path d="M7.51562 36.5664H9.58763V38.6487H7.51562V36.5664Z" fill="#2378DA"/>
<path d="M23.4629 24.541H25.5452V26.613H23.4629V24.541Z" fill="#2378DA"/>
<path d="M31.9375 24.541H34.0198V26.613H31.9375V24.541Z" fill="#2378DA"/>
<path d="M31.9375 33.0547H34.0198V35.137H31.9375V33.0547Z" fill="#2378DA"/>
<path d="M23.4629 33.0547H25.5452V35.137H23.4629V33.0547Z" fill="#2378DA"/>
<path d="M29.709 41.8496H34.009V55.8508H29.709V41.8496Z" fill="#2378DA"/>
<path d="M23.4629 41.8496H27.7629V55.8508H23.4629V41.8496Z" fill="#2378DA"/>
<path d="M32.2114 5.02439C33.1206 4.89631 34.0207 4.71109 34.9065 4.46983C34.6157 3.59852 34.1437 2.79865 33.5215 2.12285C32.8994 1.44704 32.1412 0.910608 31.2969 0.548828C31.7855 1.99715 32.0927 3.50047 32.2114 5.02439Z" fill="#2378DA"/>
<path d="M27.7634 10.9878C28.9895 16.6517 30.2386 8.95911 30.2932 7.18359C29.2563 7.24693 28.2165 7.24693 27.1797 7.18359C27.2166 8.4709 27.4126 9.74868 27.7634 10.9878Z" fill="#2378DA"/>
<path d="M25.2732 5.02425C25.4021 3.48651 25.719 1.97037 26.2169 0.509766C25.3622 0.872539 24.5947 1.41338 23.9656 2.09621C23.3364 2.77905 22.8601 3.58818 22.5684 4.46965C23.4563 4.71571 24.36 4.901 25.2732 5.02425Z" fill="#2378DA"/>
<path d="M24.7371 11.6504C25.1743 12.0023 25.6591 12.2906 26.1771 12.5066C25.5785 10.7271 25.2537 8.86701 25.2139 6.98997C24.2103 6.85314 23.216 6.65494 22.2367 6.39648C22.2286 6.43155 22.2254 6.46755 22.227 6.50349C22.2237 7.49627 22.4482 8.47657 22.8834 9.36889C23.3186 10.2612 23.9528 11.0417 24.7371 11.6504Z" fill="#2378DA"/>
<path d="M32.7541 11.6504C33.528 11.0445 34.1543 10.2708 34.5857 9.38767C35.0171 8.50454 35.2425 7.535 35.2448 6.55213C35.2464 6.50005 35.2431 6.44795 35.2351 6.39648C34.5832 6.5716 33.9313 6.70783 33.2794 6.82458C32.9389 6.89269 32.5984 6.94132 32.2579 6.98996C32.2629 7.9308 32.1519 8.86868 31.9272 9.78232C31.808 10.7257 31.5828 11.6526 31.2559 12.5455C31.7881 12.3059 32.2909 12.0056 32.7541 11.6504Z" fill="#2378DA"/>
<path d="M30.2647 5.22819C30.0638 3.40698 29.0345 -3.35015 27.7838 2.0564C27.0052 5.58508 26.5091 5.43553 30.2647 5.22819Z" fill="#2378DA"/>
<path d="M20.9054 9.70336C20.4353 8.55724 20.226 7.32097 20.2924 6.08399H18.4633C18.2007 6.08334 17.9406 6.13441 17.6977 6.2343C17.4549 6.33418 17.2341 6.48092 17.048 6.66613C16.8619 6.85134 16.7141 7.0714 16.613 7.31373C16.512 7.55607 16.4596 7.81594 16.459 8.07851V9.70336C17.542 9.70435 19.8116 9.70266 20.9054 9.70336Z" fill="#2378DA"/>
</svg>
