<svg width="55" height="56" viewBox="0 0 55 56" fill="none" xmlns="http://www.w3.org/2000/svg">
<path fill-rule="evenodd" clip-rule="evenodd" d="M42.4666 55.3281H34.2358V43.1037C34.2358 42.7156 33.9212 42.4012 33.5332 42.4012H20.872C20.4839 42.4012 20.1694 42.7156 20.1694 43.1037V55.3281H11.9388C11.5509 55.3281 11.2363 55.0135 11.2363 54.6256V9.66149C11.2363 9.27343 11.5509 8.95898 11.9388 8.95898H33.9194C33.9731 9.1658 34.0323 9.37212 34.0967 9.57755C35.289 13.3775 38.259 17.1295 40.9159 20.0158C40.9411 20.0436 40.9662 20.071 40.9928 20.0977C41.58 20.6879 42.4339 20.851 43.1691 20.5881V54.6256C43.1691 55.0135 42.8546 55.3281 42.4666 55.3281ZM32.8307 55.3281H21.5745V43.8061H32.8307V55.3281ZM36.3141 37.6161H29.451C29.063 37.6161 28.7485 37.3015 28.7485 36.9136V29.932C28.7485 29.544 29.063 29.2294 29.451 29.2294H36.3141C36.7021 29.2294 37.0166 29.544 37.0166 29.932V36.9136C37.0166 37.3015 36.7021 37.6161 36.3141 37.6161ZM30.1535 36.2109H35.6116V30.6345H30.1535V36.2109ZM24.9546 37.6161H18.0916C17.7036 37.6161 17.389 37.3015 17.389 36.9136V29.932C17.389 29.544 17.7036 29.2294 18.0916 29.2294H24.9546C25.3425 29.2294 25.6571 29.544 25.6571 29.932V36.9136C25.6571 37.3015 25.3425 37.6161 24.9546 37.6161ZM18.7941 36.2109H24.2519V30.6345H18.7941V36.2109ZM36.3141 23.535H29.451C29.063 23.535 28.7485 23.2204 28.7485 22.8324V15.8508C28.7485 15.4629 29.063 15.1483 29.451 15.1483L36.3141 15.1485C36.7021 15.1485 37.0166 15.4629 37.0166 15.851V22.8325C37.0166 23.2204 36.7021 23.535 36.3141 23.535ZM30.1535 22.1299H35.6116V16.5535H30.1535V22.1299ZM24.9546 23.535H18.0916C17.7036 23.535 17.389 23.2204 17.389 22.8324V15.8508C17.389 15.4629 17.7036 15.1483 18.0916 15.1483L24.9546 15.1485C25.3425 15.1485 25.6571 15.4629 25.6571 15.851V22.8325C25.6571 23.2204 25.3425 23.535 24.9546 23.535ZM18.7941 22.1299H24.2519V16.5535H18.7941V22.1299Z" fill="#2378DA"/>
<path fill-rule="evenodd" clip-rule="evenodd" d="M51.6344 55.3284H44.4355C44.5139 55.1087 44.5569 54.8724 44.5569 54.6258V28.8379H49.9948C51.2861 28.8379 52.3369 29.8885 52.3369 31.1798V54.6259C52.3369 55.0138 52.0223 55.3284 51.6344 55.3284Z" fill="#2378DA"/>
<path fill-rule="evenodd" clip-rule="evenodd" d="M9.96956 55.3284H2.77086C2.38281 55.3284 2.06836 55.0138 2.06836 54.6259V31.1798C2.06836 29.8885 3.11896 28.8379 4.41029 28.8379H9.8482V54.6258C9.8482 54.8722 9.89104 55.1088 9.96956 55.3284Z" fill="#2378DA"/>
<path fill-rule="evenodd" clip-rule="evenodd" d="M53.7052 55.327H0.702502C0.314449 55.327 0 55.0124 0 54.6245C0 54.2365 0.31445 53.9219 0.702502 53.9219H53.7052C54.0932 53.9219 54.4077 54.2365 54.4077 54.6245C54.4077 55.0124 54.0932 55.327 53.7052 55.327Z" fill="#2378DA"/>
<path d="M42.4658 0C44.6319 8.37069e-05 46.8101 0.733815 48.2764 2.20117C51.1761 5.10294 51.2948 10.7831 42.9541 19.1182L42.9551 19.1191C42.6842 19.3896 42.2453 19.3899 41.9746 19.1191C41.9614 19.1059 41.9484 19.0922 41.9365 19.0781C33.6368 10.7648 33.7591 5.09826 36.6543 2.20117C38.119 0.735415 40.2981 0.00280164 42.4658 0.00292969V0ZM42.4648 2.9834C40.3035 2.98344 38.5451 4.74207 38.5449 6.90332C38.5449 9.06487 40.3034 10.8242 42.4648 10.8242C44.6264 10.8242 46.3846 9.06502 46.3848 6.90332C46.3846 4.74204 44.6263 2.9834 42.4648 2.9834ZM42.4648 4.38867C43.8516 4.38867 44.9803 5.51744 44.9805 6.9043C44.9802 8.29094 43.8515 9.41895 42.4648 9.41895C41.0783 9.4189 39.9505 8.29091 39.9502 6.9043C39.9502 5.51746 41.0783 4.38871 42.4648 4.38867Z" fill="#2378DA"/>
</svg>
