<svg width="51" height="59" viewBox="0 0 51 59" fill="none" xmlns="http://www.w3.org/2000/svg">
<path d="M36.0802 12.2495C36.1564 11.6892 36.1962 11.1266 36.1962 10.5698C36.1962 10.5335 36.1962 10.496 36.195 10.4597C36.6486 10.6812 37.0753 10.9144 37.4669 11.1559C40.8579 13.2306 43.0101 15.6138 44.044 18.4411C44.8341 20.6015 44.9408 22.9786 44.3675 25.6864C43.8587 25.493 43.3289 25.3442 42.7828 25.2433C43.8799 19.8396 41.9036 15.792 36.6089 12.5555C36.44 12.4511 36.2631 12.3491 36.0802 12.2495ZM23.2504 44.1627C22.8742 43.9092 22.3644 44.0089 22.1111 44.3848C20.2711 47.1155 17.518 48.859 14.8557 50.4109C14.8163 50.4339 14.7803 50.4602 14.7464 50.4883C14.7455 50.4888 14.7447 50.4893 14.7439 50.4897C14.7428 50.4897 14.7428 50.4897 14.7428 50.4897C12.6059 51.6712 7.87487 53.2608 6.30769 52.0264C5.37702 51.2938 5.80369 49.4476 6.32642 48.0281C6.41084 47.7995 6.38971 47.5451 6.26782 47.3341C6.14593 47.1231 5.93734 46.9778 5.69813 46.9355C4.58572 46.741 4.39929 46.4538 4.37347 46.3986C4.32892 46.3037 4.28437 45.9813 4.83418 45.0213C5.04631 44.6497 4.93733 44.1773 4.58446 43.9359C3.90339 43.4717 3.5447 43.093 3.5166 42.8129C3.48141 42.4683 3.8553 41.8904 4.62661 41.0956C4.81065 40.9069 4.89152 40.642 4.84697 40.3829C4.80128 40.1239 4.63484 39.9024 4.39803 39.7863C2.78275 38.9962 1.86956 38.1957 1.68325 37.4079C1.40657 36.2358 2.62454 34.6392 4.03465 32.7907C4.68522 31.9385 5.42374 30.9715 6.10709 29.9247C6.24075 29.7207 6.27707 29.4675 6.20556 29.2354C3.8858 21.663 5.82231 16.108 11.961 12.7063C11.8579 12.1214 11.7969 11.5306 11.7806 10.9445C8.23585 12.7602 5.81408 15.2534 4.57738 18.3609C3.33131 21.4883 3.31383 25.1807 4.52346 29.3419C3.93618 30.214 3.32308 31.017 2.72884 31.7954C1.06661 33.9745 -0.370462 35.857 0.0855626 37.7852C0.34933 38.8999 1.19798 39.8588 2.73226 40.7567C2.19776 41.4331 1.80274 42.1821 1.88247 42.9769C1.96335 43.768 2.47215 44.3694 3.06994 44.857C2.74529 45.5674 2.5448 46.368 2.88705 47.0959C3.20005 47.7617 3.84468 48.1228 4.49524 48.3326C3.80253 50.6794 4.06972 52.3532 5.29237 53.3157C6.01091 53.8818 6.98499 54.1034 8.05879 54.1034C10.7114 54.1034 13.976 52.7554 15.5362 51.916C16.9452 53.6989 17.4458 55.7503 17.8326 57.7114C17.9099 58.1029 18.2534 58.3737 18.6379 58.3737C18.6906 58.3737 18.7434 58.3679 18.7973 58.3573C19.2416 58.2706 19.5311 57.838 19.4432 57.3937C19.0282 55.2872 18.4867 53.0801 16.9569 51.0698C16.9565 51.0693 16.9562 51.069 16.9559 51.0687C19.305 49.6285 21.7529 47.8535 23.4723 45.3018C23.7257 44.9262 23.6263 44.4161 23.2504 44.1627ZM50.3176 51.8108H29.1314C28.8817 51.8108 28.6696 52.0207 28.6696 52.2691V56.2733C28.6696 56.5218 28.8817 56.7316 29.1314 56.7316H50.3176C50.5708 56.7316 50.7759 56.5264 50.7759 56.2733V52.2691C50.7759 52.0172 50.5707 51.8108 50.3176 51.8108ZM29.3834 40.0164C29.5124 40.0246 29.6026 39.9836 29.6893 39.8851L31.1088 38.2229C31.2647 38.04 31.4933 37.9357 31.7336 37.9357H31.7347L37.2616 37.9486C39.1875 37.6204 40.1803 36.6029 40.3878 34.7544C40.4382 34.3043 40.8426 33.9795 41.294 34.03C41.7453 34.0804 42.0688 34.486 42.0184 34.9361C41.7477 37.3602 40.3633 38.9204 38.0014 39.4736C37.3778 41.886 36.4775 43.8658 35.3241 45.3604C34.0991 46.9487 32.5554 48.047 30.7268 48.6331V50.1699H48.7223V34.3663C48.7223 30.9025 46.4037 27.9685 43.2364 27.0366C43.1965 27.0249 43.1568 27.0132 43.1169 27.0026C42.4698 26.8233 41.7876 26.7272 41.0832 26.7272H39.8946C39.5711 26.7272 39.2781 26.5385 39.1455 26.2442C37.8433 23.3478 37.0755 22.2096 34.2212 22.0138L35.2011 25.7062C35.2703 25.9676 35.207 26.2465 35.0312 26.4517L31.9718 30.0163C30.1808 32.1028 28.3908 34.1904 26.6009 36.2781L29.107 39.8603C29.1784 39.9659 29.2615 40.0104 29.3834 40.0164ZM26.7285 18.4809C26.4952 18.5641 26.3112 18.7469 26.2279 18.9802L25.5023 21.0292C24.5024 21.1758 23.4663 21.1745 22.4675 21.0292L21.7408 18.9802C21.6588 18.7469 21.4747 18.564 21.2415 18.4809C20.9168 18.3672 20.6132 18.2406 20.3389 18.1057C20.1127 17.9956 19.8501 17.9943 19.6239 18.1022L17.6617 19.0399C16.8435 18.4281 16.1237 17.7072 15.513 16.8901L16.4484 14.9302C16.5551 14.7063 16.5551 14.4461 16.4484 14.2222C16.3007 13.9139 16.1753 13.6104 16.0757 13.3196C15.9936 13.0828 15.8096 12.8965 15.5728 12.8121L13.5239 12.0876C13.491 11.8566 13.4653 11.6246 13.4477 11.3925C13.4465 11.3784 13.4453 11.3644 13.4441 11.3491C13.4243 11.0889 13.4148 10.8286 13.4148 10.5695C13.4148 10.0643 13.4523 9.55446 13.5238 9.04806L15.5715 8.32598C15.8095 8.24271 15.9947 8.05399 16.0755 7.81604C16.1729 7.53 16.2948 7.23584 16.4483 6.91702C16.555 6.69312 16.555 6.43289 16.4483 6.20899L15.5141 4.24678C16.1248 3.42978 16.8446 2.70884 17.6616 2.09815L19.625 3.03361C19.8489 3.14031 20.1092 3.13916 20.3318 3.03247C20.6401 2.88476 20.9425 2.75934 21.2344 2.65972C21.4712 2.57884 21.6575 2.39367 21.7408 2.158L22.4675 0.10898C23.4733 -0.0363266 24.4954 -0.0363266 25.5023 0.10898L26.2279 2.158C26.3123 2.39367 26.4986 2.57884 26.7355 2.65972C27.0261 2.75934 27.3297 2.88476 27.6369 3.03247C27.8608 3.13916 28.121 3.14031 28.3448 3.03361L30.3071 2.09815C31.1241 2.70884 31.845 3.42863 32.4557 4.24678L31.5204 6.20899C31.4137 6.43289 31.415 6.69312 31.5215 6.91702C31.6739 7.23584 31.7958 7.53011 31.8931 7.81604C31.974 8.05399 32.1603 8.24271 32.3971 8.32598L34.4449 9.04806C34.5176 9.55446 34.5539 10.0644 34.5539 10.5695C34.5539 11.0724 34.5176 11.5812 34.4449 12.0875L32.396 12.812C32.1603 12.8964 31.9752 13.0827 31.8943 13.3195C31.7947 13.6114 31.6692 13.9138 31.5215 14.2221C31.415 14.446 31.4137 14.7062 31.5204 14.9301L32.4557 16.89C31.8462 17.707 31.1253 18.428 30.3083 19.0398L28.346 18.1021C28.1197 17.9942 27.8561 17.9954 27.6311 18.1056C27.3556 18.2405 27.052 18.3672 26.7285 18.4809ZM28.6825 10.5698C28.6825 7.97928 26.5748 5.87051 23.9843 5.87051C21.3938 5.87051 19.2862 7.97928 19.2862 10.5698C19.2862 13.1603 21.3938 15.2679 23.9843 15.2679C26.5748 15.2679 28.6825 13.1603 28.6825 10.5698Z" fill="#2378DA"/>
</svg>
