<svg width="70" height="70" viewBox="0 0 70 70" fill="none" xmlns="http://www.w3.org/2000/svg">
<path d="M62.5283 69.1162C62.2043 69.1162 61.9883 69.0082 61.7723 68.7922L56.4806 63.3926H31.2101C30.0221 63.3926 28.8342 62.9606 27.9702 62.0966C27.1063 61.2327 26.6743 60.1527 26.6743 58.8568V38.878C26.6743 38.23 27.1063 37.798 27.7543 37.798C28.4022 37.798 28.8342 38.23 28.8342 38.878V58.9648C28.8342 59.6128 29.0502 60.1527 29.4822 60.5847C29.9141 61.0167 30.4541 61.2327 31.1021 61.2327H56.9126C57.2366 61.2327 57.4525 61.3407 57.6685 61.5567L61.4483 65.4444V62.3126C61.4483 61.7726 61.9883 61.2327 62.5283 61.2327H64.5801C65.2281 61.2327 65.7681 61.0167 66.2 60.5847C66.632 60.1527 66.848 59.5048 66.848 58.9648V37.69C66.848 36.3941 65.7681 35.3142 64.4721 35.3142H33.9099C33.2619 35.3142 32.83 34.8822 32.83 34.2342C32.83 33.5863 33.2619 33.1543 33.9099 33.1543H64.6881C67.172 33.1543 69.2239 35.2062 69.2239 37.69V58.8568C69.2239 60.0447 68.7919 61.2327 67.9279 62.0966C67.064 62.9606 65.9841 63.3926 64.6881 63.3926H63.7162L63.6082 68.0363C63.6082 68.4683 63.2842 68.9002 62.9602 69.0082C62.7442 69.0082 62.6362 69.1162 62.5283 69.1162Z" fill="#2378DA"/>
<path d="M2.48386 40.8216C2.15988 40.8216 1.94389 40.7137 1.7279 40.4977C1.51191 40.2817 1.40392 39.8497 1.40392 39.5257L3.02383 30.9942C1.07994 27.8624 0 24.1906 0 20.4108C0 9.17947 9.17947 0 20.4108 0C31.6422 0 40.8216 9.17947 40.8216 20.4108C40.8216 31.6422 31.6422 40.8216 20.4108 40.8216C17.603 40.8216 14.7951 40.2817 12.2033 39.0938L2.69984 40.8216C2.59185 40.8216 2.59185 40.8216 2.48386 40.8216ZM12.3113 36.8259C12.4193 36.8259 12.6353 36.8259 12.7433 36.9339C15.2271 38.0138 17.711 38.6618 20.4108 38.6618C30.4542 38.6618 38.6618 30.4542 38.6618 20.4108C38.6618 10.3674 30.4542 2.15988 20.4108 2.15988C10.3674 2.15988 2.15988 10.3674 2.15988 20.4108C2.15988 23.8666 3.13182 27.3224 5.07571 30.2383C5.1837 30.4542 5.2917 30.7782 5.1837 30.9942L3.77978 38.3378L11.9873 36.8259H12.3113Z" fill="#2378DA"/>
<path d="M13.6075 61.2326C13.4995 61.2326 13.2835 61.2326 13.1755 61.2326C11.7716 61.0166 10.7996 59.7207 10.7996 58.3167V57.6688C10.7996 55.5089 12.2036 53.565 14.1475 53.025C15.1194 52.8091 15.6594 51.8371 15.4434 50.8652C15.2274 50.1092 14.5794 49.5693 13.8235 49.5693C12.9595 49.5693 12.3116 50.1092 12.0956 50.5412C11.5556 51.7291 10.1517 52.4851 8.85576 52.1611C7.99181 51.9451 7.23585 51.4051 6.91187 50.6492C6.4799 49.8932 6.4799 48.9213 6.91187 48.1653C7.77582 46.3294 9.39573 44.9255 11.3396 44.2776C13.2835 43.6296 15.4434 43.7376 17.3873 44.7095C18.8992 45.4655 20.0871 46.7614 20.7351 48.3813C21.599 50.4332 21.491 52.7011 20.6271 54.645C19.7631 56.3729 18.4672 57.6688 16.6313 58.4247V58.3167C16.6313 59.1807 16.3073 59.9367 15.6594 60.4766C14.9034 61.0166 14.2554 61.2326 13.6075 61.2326ZM13.4995 59.0727C13.8235 59.0727 14.0395 58.9647 14.1475 58.9647C14.3634 58.8567 14.3634 58.6407 14.3634 58.4247C14.3634 57.3448 14.3634 56.5888 15.2274 56.4809C16.7393 56.0489 17.8192 54.9689 18.4672 53.673C19.1152 52.2691 19.1152 50.6492 18.5752 49.1373C18.1432 48.0573 17.2793 47.0854 16.1993 46.5454C14.7954 45.7895 13.2835 45.6815 11.8796 46.2214C10.4757 46.6534 9.28774 47.7334 8.74777 49.0293C8.63977 49.2453 8.63977 49.4613 8.74777 49.6772C8.85576 49.7852 8.96375 50.0012 9.28774 50.1092C9.61172 50.2172 9.9357 50.0012 10.1517 49.6772C10.7996 48.2733 12.3116 47.3014 13.9315 47.4094C15.6594 47.5174 17.1713 48.7053 17.6033 50.4332C18.1432 52.5931 16.8473 54.645 14.7954 55.1849C13.8235 55.5089 13.0675 56.4809 13.0675 57.7768V58.4247C12.8515 58.6407 13.1755 58.9647 13.4995 59.0727Z" fill="#2378DA"/>
<path d="M13.6076 69.1155C11.7717 69.1155 10.2598 67.6036 10.2598 65.7677C10.2598 63.9318 11.7717 62.4199 13.6076 62.4199C15.4435 62.4199 16.9554 63.9318 16.9554 65.7677C16.9554 67.6036 15.4435 69.1155 13.6076 69.1155ZM13.6076 64.4718C12.9596 64.4718 12.4196 65.0118 12.4196 65.6597C12.4196 66.3077 12.9596 66.8477 13.6076 66.8477C14.2555 66.8477 14.7955 66.3077 14.7955 65.6597C14.7955 65.0118 14.2555 64.4718 13.6076 64.4718Z" fill="#2378DA"/>
<path d="M58.3167 23.8658C57.6687 23.8658 57.2367 23.4338 57.2367 22.7858V21.4899C57.2367 19.33 58.1007 17.3862 59.7206 15.7662C61.2325 14.2543 62.0965 12.3104 62.0965 10.1506C62.0965 7.9907 61.2325 5.93881 59.6126 4.4269C57.9927 2.91499 55.9408 2.15903 53.7809 2.26703C49.6772 2.48301 46.4374 5.83082 46.3294 9.82659C46.2214 12.0945 47.0853 14.2543 48.7052 15.7662C50.3251 17.2782 51.1891 19.33 51.1891 21.4899V22.8938C51.1891 23.5418 50.7571 23.9738 50.1091 23.9738C49.4612 23.9738 49.0292 23.5418 49.0292 22.8938V21.4899C49.0292 19.978 48.3812 18.4661 47.1933 17.3862C45.1414 15.4423 44.0615 12.6344 44.1695 9.82659C44.3855 4.64289 48.5972 0.431132 53.7809 0.215144C56.5888 0.107151 59.1806 1.07909 61.2325 3.02298C63.2844 4.96687 64.3643 7.55872 64.3643 10.2586C64.3643 12.9584 63.2844 15.5503 61.3405 17.3862C60.1526 18.5741 59.5046 20.086 59.5046 21.5979V22.8938C59.3966 23.4338 58.8566 23.8658 58.3167 23.8658Z" fill="#2378DA"/>
<path d="M58.1003 27.3213H50.3248C48.9208 27.3213 47.7329 26.1334 47.7329 24.7295V24.1895C47.7329 22.7856 48.9208 21.5977 50.3248 21.5977H58.1003C59.5042 21.5977 60.6922 22.7856 60.6922 24.1895V24.7295C60.5842 26.1334 59.5042 27.3213 58.1003 27.3213ZM50.3248 23.8655C50.1088 23.8655 49.8928 24.0815 49.8928 24.2975V24.8375C49.8928 25.0535 50.1088 25.2694 50.3248 25.2694H58.1003C58.3163 25.2694 58.5323 25.0535 58.5323 24.8375V24.2975C58.5323 24.0815 58.3163 23.8655 58.1003 23.8655H50.3248Z" fill="#2378DA"/>
<path d="M54.1044 30.8838C51.7286 30.8838 49.7847 29.0479 49.7847 26.6721V26.2401C49.7847 25.5921 50.2166 25.1602 50.8646 25.1602C51.5126 25.1602 51.9445 25.5921 51.9445 26.2401V26.6721C51.9445 27.752 52.8085 28.724 53.9964 28.724C55.1844 28.724 56.1563 27.86 56.1563 26.6721V26.2401C56.1563 25.5921 56.5883 25.1602 57.2362 25.1602C57.8842 25.1602 58.3162 25.5921 58.3162 26.2401V26.6721C58.3162 29.0479 56.3723 30.8838 54.1044 30.8838Z" fill="#2378DA"/>
<path d="M54.2128 23.8651C53.5648 23.8651 53.1328 23.4331 53.1328 22.7851V15.3336C53.1328 15.0096 53.2408 14.7936 53.4568 14.5776L55.6167 12.4177C56.0486 11.9858 56.6966 11.9858 57.1286 12.4177C57.5606 12.8497 57.5606 13.4977 57.1286 13.9296L55.2927 15.7655V22.7851C55.2927 23.4331 54.7527 23.8651 54.2128 23.8651Z" fill="#2378DA"/>
<path d="M54.2125 16.4135C53.8885 16.4135 53.6725 16.3055 53.4565 16.0895L51.2966 13.9296C50.8647 13.4977 50.8647 12.8497 51.2966 12.4177C51.7286 11.9858 52.3766 11.9858 52.8086 12.4177L54.9684 14.5776C55.4004 15.0096 55.4004 15.6575 54.9684 16.0895C54.7524 16.3055 54.5365 16.4135 54.2125 16.4135Z" fill="#2378DA"/>
<path d="M20.4111 23.9738C18.2512 23.9738 16.5233 22.3539 16.3073 20.3021L15.5514 11.4466C15.4434 10.0426 15.8753 8.74672 16.8473 7.66678C17.8192 6.58684 19.1152 6.04688 20.5191 6.04688C21.923 6.04688 23.1109 6.47885 23.9749 7.55879C24.9468 8.53073 25.3788 9.93465 25.2708 11.3386L24.5148 20.1941C24.2989 22.3539 22.571 23.9738 20.4111 23.9738ZM20.4111 8.09876C19.6551 8.09876 18.8992 8.42274 18.3592 8.96271C17.8192 9.50268 17.6032 10.2586 17.6032 11.0146L18.3592 19.8701C18.4672 20.842 19.3311 21.598 20.3031 21.598C21.275 21.598 22.139 20.842 22.247 19.8701L23.0029 11.0146C23.1109 10.2586 22.7869 9.50268 22.247 8.96271C21.923 8.42274 21.167 8.09876 20.4111 8.09876Z" fill="#2378DA"/>
<path d="M20.4108 34.8802C18.2509 34.8802 16.415 33.0443 16.415 30.8844C16.415 28.7246 18.2509 26.8887 20.4108 26.8887C22.5707 26.8887 24.4066 28.7246 24.4066 30.8844C24.4066 33.0443 22.5707 34.8802 20.4108 34.8802ZM20.4108 29.0485C19.4389 29.0485 18.5749 29.9125 18.5749 30.8844C18.5749 31.8564 19.4389 32.7203 20.4108 32.7203C21.3828 32.7203 22.2467 31.8564 22.2467 30.8844C22.2467 29.9125 21.3828 29.0485 20.4108 29.0485Z" fill="#2378DA"/>
<path d="M47.8414 40.822H33.6942C33.0462 40.822 32.6143 40.39 32.6143 39.742C32.6143 39.0941 33.0462 38.6621 33.6942 38.6621H47.8414C48.4893 38.6621 48.9213 39.0941 48.9213 39.742C48.9213 40.39 48.4893 40.822 47.8414 40.822Z" fill="#2378DA"/>
<path d="M61.9886 46.5446H33.6942C33.0462 46.5446 32.6143 46.1127 32.6143 45.4647C32.6143 44.8167 33.0462 44.3848 33.6942 44.3848H61.9886C62.6365 44.3848 63.0685 44.8167 63.0685 45.4647C63.0685 46.1127 62.6365 46.5446 61.9886 46.5446Z" fill="#2378DA"/>
<path d="M61.9886 52.2693H33.6942C33.0462 52.2693 32.6143 51.8373 32.6143 51.1893C32.6143 50.5414 33.0462 50.1094 33.6942 50.1094H61.9886C62.6365 50.1094 63.0685 50.5414 63.0685 51.1893C63.0685 51.8373 62.6365 52.2693 61.9886 52.2693Z" fill="#2378DA"/>
<path d="M61.9886 57.8845H33.6942C33.0462 57.8845 32.6143 57.4525 32.6143 56.8045C32.6143 56.1566 33.0462 55.7246 33.6942 55.7246H61.9886C62.6365 55.7246 63.0685 56.1566 63.0685 56.8045C63.0685 57.4525 62.6365 57.8845 61.9886 57.8845Z" fill="#2378DA"/>
</svg>
