<svg width="56" height="53" viewBox="0 0 56 53" fill="none" xmlns="http://www.w3.org/2000/svg">
<path fill-rule="evenodd" clip-rule="evenodd" d="M9.05145 37.9145L18.2409 25.191C18.6122 24.6771 19.1107 24.2566 19.6933 23.966C20.2758 23.6753 20.9248 23.5234 21.5836 23.5234C22.2425 23.5234 22.8914 23.6753 23.474 23.966C24.0565 24.2566 24.5551 24.6771 24.9264 25.191L32.8196 36.124C32.9643 36.3229 33.0633 36.5482 33.1103 36.7853C33.1573 37.0225 33.1513 37.2663 33.0926 37.5011C32.8708 38.3935 32.3361 39.189 31.5753 39.7585C30.8145 40.328 29.8722 40.6381 28.9013 40.6384H10.5765C10.2403 40.6395 9.91027 40.5538 9.62205 40.3905C9.33383 40.2271 9.09844 39.9925 8.94136 39.7119C8.78427 39.4313 8.7115 39.1155 8.7309 38.7987C8.75031 38.4819 8.86116 38.1761 9.05145 37.9145Z" fill="#1E6CC6"/>
<path fill-rule="evenodd" clip-rule="evenodd" d="M9.97146 40.6384H4.3043C3.33338 40.6381 2.39107 40.328 1.63026 39.7585C0.869448 39.189 0.334769 38.3935 0.112971 37.5011C0.0542549 37.2663 0.0482129 37.0225 0.0952329 36.7853C0.142253 36.5481 0.241295 36.3229 0.385998 36.124L5.54153 28.9832C5.85317 28.5531 6.27119 28.2012 6.75938 27.9581C7.24756 27.715 7.79119 27.5879 8.34314 27.5879C8.89509 27.5879 9.43871 27.715 9.9269 27.9581C10.4151 28.2012 10.8331 28.5531 11.1447 28.9832L14.544 33.6927C14.7529 33.9819 14.8646 34.3238 14.8646 34.6738C14.8646 35.0238 14.7529 35.3657 14.544 35.6549L11.494 39.8791C11.3248 40.113 11.0977 40.3044 10.8323 40.4367C10.567 40.5691 10.2715 40.6383 9.97146 40.6384Z" fill="#1E6CC6"/>
<path d="M11.6835 24.9648C13.042 24.9648 14.1432 23.9251 14.1432 22.6425C14.1432 21.36 13.042 20.3203 11.6835 20.3203C10.3251 20.3203 9.22382 21.36 9.22382 22.6425C9.22382 23.9251 10.3251 24.9648 11.6835 24.9648Z" fill="#1E6CC6"/>
<path fill-rule="evenodd" clip-rule="evenodd" d="M55.3433 2.90278V7.54722C55.342 8.31671 55.0177 9.05433 54.4413 9.59844C53.865 10.1426 53.0837 10.4488 52.2687 10.45H3.07463C2.25959 10.4488 1.4783 10.1426 0.901975 9.59844C0.325652 9.05433 0.00130095 8.31671 0 7.54722V2.90278C0.00130095 2.13329 0.325652 1.39567 0.901975 0.851561C1.4783 0.30745 2.25959 0.00122823 3.07463 0H52.2687C53.0837 0.00122823 53.865 0.30745 54.4413 0.851561C55.0177 1.39567 55.342 2.13329 55.3433 2.90278ZM55.3433 44.7028V49.3472C55.342 50.1167 55.0177 50.8543 54.4413 51.3984C53.865 51.9425 53.0837 52.2488 52.2687 52.25H19.0627C18.2477 52.2488 17.4664 51.9425 16.89 51.3984C16.3137 50.8543 15.9894 50.1167 15.9881 49.3472V44.7028C15.9894 43.9333 16.3137 43.1957 16.89 42.6516C17.4664 42.1075 18.2477 41.8012 19.0627 41.8H52.2687C53.0837 41.8012 53.865 42.1075 54.4413 42.6516C55.0177 43.1957 55.342 43.9333 55.3433 44.7028ZM14.7582 44.7028V49.3472C14.7569 50.1167 14.4326 50.8543 13.8562 51.3984C13.2799 51.9425 12.4986 52.2488 11.6836 52.25H3.07463C2.25959 52.2488 1.4783 51.9425 0.901975 51.3984C0.325652 50.8543 0.00130095 50.1167 0 49.3472V44.7028C0.00130095 43.9333 0.325652 43.1957 0.901975 42.6516C1.4783 42.1075 2.25959 41.8012 3.07463 41.8H11.6836C12.4986 41.8012 13.2799 42.1075 13.8562 42.6516C14.4326 43.1957 14.7569 43.9333 14.7582 44.7028ZM3.68955 48.7667H11.0687V45.2833H3.68955V48.7667ZM33.206 15.675V36.575C33.206 37.6528 32.7525 38.6865 31.9452 39.4486C31.138 40.2107 30.0431 40.6389 28.9015 40.6389H4.30448C3.16286 40.6389 2.068 40.2107 1.26075 39.4486C0.453506 38.6865 0 37.6528 0 36.575V15.675C0 13.4294 1.92841 11.6111 4.30448 11.6111H28.9015C31.2776 11.6111 33.206 13.4294 33.206 15.675ZM29.5164 15.675C29.5164 15.521 29.4516 15.3734 29.3363 15.2645C29.221 15.1556 29.0646 15.0944 28.9015 15.0944H4.30448C4.14139 15.0944 3.98498 15.1556 3.86966 15.2645C3.75434 15.3734 3.68955 15.521 3.68955 15.675V36.575C3.68955 36.8955 3.96504 37.1556 4.30448 37.1556H28.9015C29.0646 37.1556 29.221 37.0944 29.3363 36.9855C29.4516 36.8766 29.5164 36.729 29.5164 36.575V15.675ZM55.3433 15.675V36.575C55.3433 37.6528 54.8898 38.6865 54.0826 39.4486C53.2753 40.2107 52.1804 40.6389 51.0388 40.6389H38.7403C37.5987 40.6389 36.5038 40.2107 35.6966 39.4486C34.8893 38.6865 34.4358 37.6528 34.4358 36.575V15.675C34.4358 13.4294 36.3642 11.6111 38.7403 11.6111H51.0388C53.4149 11.6111 55.3433 13.4294 55.3433 15.675ZM51.6538 15.675C51.6538 15.521 51.589 15.3734 51.4736 15.2645C51.3583 15.1556 51.2019 15.0944 51.0388 15.0944H38.7403C38.5772 15.0944 38.4208 15.1556 38.3055 15.2645C38.1902 15.3734 38.1254 15.521 38.1254 15.675V36.575C38.1254 36.8955 38.4009 37.1556 38.7403 37.1556H51.0388C51.2019 37.1556 51.3583 37.0944 51.4736 36.9855C51.589 36.8766 51.6538 36.729 51.6538 36.575V15.675Z" fill="#1E6CC6"/>
<path fill-rule="evenodd" clip-rule="evenodd" d="M9.05145 37.9145L18.2409 25.191C18.6122 24.6771 19.1107 24.2566 19.6933 23.966C20.2758 23.6753 20.9248 23.5234 21.5836 23.5234C22.2425 23.5234 22.8914 23.6753 23.474 23.966C24.0565 24.2566 24.5551 24.6771 24.9264 25.191L32.8196 36.124C32.9643 36.3229 33.0633 36.5482 33.1103 36.7853C33.1573 37.0225 33.1513 37.2663 33.0926 37.5011C32.8708 38.3935 32.3361 39.189 31.5753 39.7585C30.8145 40.328 29.8722 40.6381 28.9013 40.6384H10.5765C10.2403 40.6395 9.91027 40.5538 9.62205 40.3905C9.33383 40.2271 9.09844 39.9925 8.94136 39.7119C8.78427 39.4313 8.7115 39.1155 8.7309 38.7987C8.75031 38.4819 8.86116 38.1761 9.05145 37.9145Z" fill="#1E6CC6"/>
<path fill-rule="evenodd" clip-rule="evenodd" d="M9.97146 40.6384H4.3043C3.33338 40.6381 2.39107 40.328 1.63026 39.7585C0.869448 39.189 0.334769 38.3935 0.112971 37.5011C0.0542549 37.2663 0.0482129 37.0225 0.0952329 36.7853C0.142253 36.5481 0.241295 36.3229 0.385998 36.124L5.54153 28.9832C5.85317 28.5531 6.27119 28.2012 6.75938 27.9581C7.24756 27.715 7.79119 27.5879 8.34314 27.5879C8.89509 27.5879 9.43871 27.715 9.9269 27.9581C10.4151 28.2012 10.8331 28.5531 11.1447 28.9832L14.544 33.6927C14.7529 33.9819 14.8646 34.3238 14.8646 34.6738C14.8646 35.0238 14.7529 35.3657 14.544 35.6549L11.494 39.8791C11.3248 40.113 11.0977 40.3044 10.8323 40.4367C10.567 40.5691 10.2715 40.6383 9.97146 40.6384Z" fill="#1E6CC6"/>
<path d="M11.6835 24.9648C13.042 24.9648 14.1432 23.9251 14.1432 22.6425C14.1432 21.36 13.042 20.3203 11.6835 20.3203C10.3251 20.3203 9.22382 21.36 9.22382 22.6425C9.22382 23.9251 10.3251 24.9648 11.6835 24.9648Z" fill="#1E6CC6"/>
<path fill-rule="evenodd" clip-rule="evenodd" d="M33.206 15.6752V36.5752C33.206 37.653 32.7525 38.6867 31.9452 39.4488C31.138 40.2109 30.0431 40.6391 28.9015 40.6391H4.30448C3.16286 40.6391 2.068 40.2109 1.26075 39.4488C0.453506 38.6867 0 37.653 0 36.5752V15.6752C0 13.4296 1.92841 11.6113 4.30448 11.6113H28.9015C31.2776 11.6113 33.206 13.4296 33.206 15.6752ZM29.5164 15.6752C29.5164 15.5212 29.4516 15.3736 29.3363 15.2647C29.221 15.1558 29.0646 15.0947 28.9015 15.0947H4.30448C4.14139 15.0947 3.98498 15.1558 3.86966 15.2647C3.75434 15.3736 3.68955 15.5212 3.68955 15.6752V36.5752C3.68955 36.8957 3.96504 37.1558 4.30448 37.1558H28.9015C29.0646 37.1558 29.221 37.0946 29.3363 36.9857C29.4516 36.8769 29.5164 36.7292 29.5164 36.5752V15.6752ZM55.3433 15.6752V36.5752C55.3433 37.653 54.8898 38.6867 54.0826 39.4488C53.2753 40.2109 52.1804 40.6391 51.0388 40.6391H38.7403C37.5987 40.6391 36.5038 40.2109 35.6966 39.4488C34.8893 38.6867 34.4358 37.653 34.4358 36.5752V15.6752C34.4358 13.4296 36.3642 11.6113 38.7403 11.6113H51.0388C53.4149 11.6113 55.3433 13.4296 55.3433 15.6752ZM51.6538 15.6752C51.6538 15.5212 51.589 15.3736 51.4736 15.2647C51.3583 15.1558 51.2019 15.0947 51.0388 15.0947H38.7403C38.5772 15.0947 38.4208 15.1558 38.3055 15.2647C38.1902 15.3736 38.1254 15.5212 38.1254 15.6752V36.5752C38.1254 36.8957 38.4009 37.1558 38.7403 37.1558H51.0388C51.2019 37.1558 51.3583 37.0946 51.4736 36.9857C51.589 36.8769 51.6538 36.7292 51.6538 36.5752V15.6752Z" fill="#1E6CC6"/>
</svg>
