<svg width="34" height="32" viewBox="0 0 34 32" fill="none" xmlns="http://www.w3.org/2000/svg">
<path d="M20.4053 25.8576C19.7807 25.7998 19.1759 25.6076 18.6325 25.2943C18.089 24.981 17.6198 24.5539 17.2568 24.0423C16.0468 22.5202 15.1787 20.7554 14.7116 18.8679C13.4845 14.2913 14.368 10.3543 16.766 9.7123C19.1624 9.06947 21.896 12.0374 23.1231 16.6141C23.662 18.4826 23.7924 20.4453 23.5054 22.3687C23.165 24.2323 22.2997 25.4403 21.0687 25.7705C20.8524 25.8287 20.6293 25.858 20.4053 25.8576ZM17.4231 11.2101C17.3395 11.21 17.2562 11.2206 17.1753 11.2418C15.9126 11.5806 15.2436 14.7386 16.2411 18.4586C16.647 20.1201 17.4048 21.6752 18.4633 23.0186C19.2487 23.9425 20.0704 24.4009 20.6586 24.2418C21.2484 24.0834 21.7297 23.2775 21.9482 22.0845C22.1932 20.392 22.0722 18.6667 21.5936 17.0249C20.6594 13.5392 18.7048 11.2101 17.4231 11.2101Z" fill="#000A21"/>
<path d="M19.673 24.0495C18.5481 23.4518 17.051 21.4909 16.242 18.4564C15.3767 15.224 15.7907 12.6915 16.542 11.7067C16.6614 11.5478 16.7166 11.3498 16.6968 11.1521C16.6769 10.9544 16.5835 10.7713 16.4349 10.6393C16.2864 10.5073 16.0936 10.436 15.8949 10.4396C15.6962 10.4431 15.5062 10.5213 15.3624 10.6585L12.5354 13.3977C11.0854 14.7992 9.3034 15.8098 7.3563 16.3347L4.40813 17.1209C3.80103 17.2864 3.28381 17.6849 2.96894 18.2297C2.65406 18.7745 2.56698 19.4216 2.72663 20.0302L3.75501 23.8484C3.88948 24.3557 4.18812 24.8042 4.60431 25.1238C5.02049 25.4435 5.53081 25.6164 6.05559 25.6154C6.26186 25.6153 6.46725 25.5887 6.66676 25.5363L10.0361 24.6267C12.1865 24.052 14.455 24.0931 16.5832 24.7454L19.069 25.5054C19.2572 25.5628 19.4599 25.548 19.6378 25.4641C19.8157 25.3801 19.9559 25.2329 20.0312 25.0512C20.1065 24.8695 20.1115 24.6662 20.0451 24.4811C19.9788 24.2959 19.8466 24.1421 19.673 24.0495Z" fill="#000A21"/>
<path d="M19.4015 18.0224C19.1841 17.2112 18.6533 16.5196 17.926 16.0998C17.1986 15.6799 16.3343 15.5662 15.5231 15.7835L13.9944 16.1928C13.894 16.2197 13.7998 16.2662 13.7174 16.3295C13.6349 16.3928 13.5657 16.4717 13.5137 16.5618C13.4617 16.6518 13.428 16.7513 13.4144 16.8544C13.4009 16.9574 13.4078 17.0622 13.4347 17.1626L14.6634 21.7503C14.6903 21.8508 14.7367 21.9449 14.8 22.0274C14.8634 22.1099 14.9423 22.1791 15.0323 22.2311C15.1224 22.283 15.2218 22.3168 15.3249 22.3303C15.428 22.3439 15.5327 22.337 15.6332 22.31L17.1627 21.9C17.9732 21.6818 18.6641 21.151 19.0838 20.4241C19.5035 19.6971 19.6178 18.8334 19.4015 18.0224ZM12.0224 31.0485C11.5527 31.1743 11.053 31.1218 10.6197 30.901C10.1865 30.6803 9.85023 30.307 9.67589 29.853L7.60409 24.4618L11.4278 23.4374L13.3508 28.4407C13.4499 28.6983 13.4937 28.9739 13.4793 29.2495C13.465 29.5251 13.3928 29.7946 13.2676 30.0405C13.1423 30.2865 12.9667 30.5033 12.7522 30.6769C12.5376 30.8506 12.289 30.9772 12.0224 31.0485ZM29.4501 15.1565L28.896 15.7107L28.3418 15.1565C28.1601 14.9748 27.9443 14.8307 27.7069 14.7323C27.4695 14.6339 27.215 14.5833 26.958 14.5833C26.701 14.5833 26.4465 14.6339 26.209 14.7323C25.9716 14.8307 25.7559 14.9748 25.5741 15.1565C25.3838 15.3535 25.2392 15.59 25.1506 15.8492C24.997 16.2612 24.9552 16.7065 25.0296 17.1398C25.104 17.5731 25.2919 17.979 25.5741 18.3161C26.4056 19.3115 27.3264 20.2286 28.3252 21.056C28.4887 21.1921 28.6859 21.2816 28.896 21.3149C29.6789 21.3149 32.2178 18.3161 32.2178 18.3161C32.5882 17.873 32.7912 17.3138 32.7912 16.7363C32.7912 16.1588 32.5882 15.5996 32.2178 15.1565C32.0361 14.9747 31.8203 14.8304 31.5828 14.732C31.3452 14.6336 31.0907 14.5829 30.8336 14.5829C30.5765 14.5829 30.3219 14.6336 30.0844 14.732C29.8469 14.8304 29.6319 14.9747 29.4501 15.1565ZM11.1991 10.3796C11.9272 9.50695 12.4068 8.45422 12.5874 7.33211C12.7681 6.21 12.6431 5.05995 12.2256 4.00285C11.8081 2.94574 11.1135 2.02064 10.2149 1.32478C9.31626 0.628914 8.24675 0.187996 7.1188 0.0483729C6.1959 -0.0663138 5.25907 0.0235294 4.37479 0.311527C3.49051 0.599524 2.68045 1.07862 2.0021 1.71481C1.32375 2.35099 0.793736 3.12869 0.449666 3.9927C0.105597 4.85671 -0.044093 5.78585 0.0112192 6.71421C0.130257 8.34516 0.867074 9.86925 2.07135 10.9756C3.27563 12.0819 4.85662 12.687 6.4918 12.6675H11.0439C11.2682 12.6675 11.4868 12.597 11.6688 12.4658C11.8508 12.3346 11.9869 12.1496 12.0578 11.9368C12.1287 11.724 12.1309 11.4942 12.064 11.2801C11.9971 11.066 11.8646 10.8784 11.6851 10.7438L11.1991 10.3796ZM8.37518 6.90896L5.73972 8.41471C5.63917 8.4723 5.52525 8.50244 5.40938 8.50213C5.29351 8.50181 5.17975 8.47105 5.07952 8.41291C4.97929 8.35478 4.8961 8.27132 4.83829 8.17089C4.78047 8.07047 4.75008 7.95662 4.75014 7.84075V4.82846C4.75031 4.71268 4.78086 4.59897 4.83873 4.49869C4.8966 4.39841 4.97976 4.31506 5.07991 4.25697C5.18007 4.19888 5.29371 4.16808 5.40949 4.16765C5.52527 4.16722 5.63913 4.19716 5.73972 4.2545L8.37597 5.76025C8.47716 5.81806 8.56126 5.9016 8.61976 6.0024C8.67826 6.1032 8.70907 6.21767 8.70907 6.33421C8.70907 6.45075 8.67826 6.56522 8.61976 6.66601C8.56126 6.76681 8.47716 6.85035 8.37597 6.90817L8.37518 6.90896ZM31.6668 0.00087294H20.5835C20.1637 0.00129211 19.7612 0.168242 19.4643 0.465084C19.1675 0.761926 19.0006 1.16441 19.0001 1.58421V6.33421C19.0006 6.754 19.1675 7.15649 19.4643 7.45333C19.7612 7.75017 20.1637 7.91712 20.5835 7.91754H25.0057L26.9516 9.86346C27.0969 10.0107 27.2699 10.1277 27.4607 10.2077C27.6515 10.2876 27.8563 10.3288 28.0631 10.329C28.2087 10.3289 28.3535 10.3092 28.4938 10.2704C28.7646 10.1971 29.0108 10.0524 29.2066 9.85143C29.4024 9.65048 29.5406 9.40064 29.6069 9.128L29.9101 7.91754H31.6668C32.0866 7.91712 32.4891 7.75017 32.7859 7.45333C33.0828 7.15649 33.2497 6.754 33.2501 6.33421V1.58421C33.2497 1.16441 33.0828 0.761926 32.7859 0.465084C32.4891 0.168242 32.0866 0.00129211 31.6668 0.00087294ZM22.9585 4.75087C22.8019 4.75087 22.6488 4.70444 22.5186 4.61745C22.3885 4.53046 22.287 4.40682 22.2271 4.26216C22.1671 4.11751 22.1515 3.95833 22.182 3.80476C22.2126 3.65119 22.288 3.51013 22.3987 3.39941C22.5094 3.2887 22.6505 3.2133 22.804 3.18275C22.9576 3.1522 23.1168 3.16788 23.2614 3.2278C23.4061 3.28772 23.5297 3.38919 23.6167 3.51938C23.7037 3.64957 23.7501 3.80263 23.7501 3.95921C23.7501 4.16917 23.6667 4.37053 23.5183 4.519C23.3698 4.66747 23.1684 4.75087 22.9585 4.75087ZM26.1251 4.75087C25.9686 4.75087 25.8155 4.70444 25.6853 4.61745C25.5551 4.53046 25.4537 4.40682 25.3937 4.26216C25.3338 4.11751 25.3181 3.95833 25.3487 3.80476C25.3792 3.65119 25.4546 3.51013 25.5653 3.39941C25.6761 3.2887 25.8171 3.2133 25.9707 3.18275C26.1243 3.1522 26.2834 3.16788 26.4281 3.2278C26.5728 3.28772 26.6964 3.38919 26.7834 3.51938C26.8704 3.64957 26.9168 3.80263 26.9168 3.95921C26.9168 4.16917 26.8334 4.37053 26.6849 4.519C26.5365 4.66747 26.3351 4.75087 26.1251 4.75087ZM29.2918 4.75087C29.1352 4.75087 28.9822 4.70444 28.852 4.61745C28.7218 4.53046 28.6203 4.40682 28.5604 4.26216C28.5005 4.11751 28.4848 3.95833 28.5153 3.80476C28.5459 3.65119 28.6213 3.51013 28.732 3.39941C28.8427 3.2887 28.9838 3.2133 29.1374 3.18275C29.2909 3.1522 29.4501 3.16788 29.5948 3.2278C29.7394 3.28772 29.8631 3.38919 29.95 3.51938C30.037 3.64957 30.0835 3.80263 30.0835 3.95921C30.0835 4.16917 30.0001 4.37053 29.8516 4.519C29.7031 4.66747 29.5018 4.75087 29.2918 4.75087ZM2.35139 20.133L3.49772 19.8258L4.52293 23.6495L3.3758 23.9575C3.12473 24.0248 2.86287 24.0419 2.60516 24.008C2.34745 23.9741 2.09895 23.8897 1.87385 23.7598C1.64875 23.6298 1.45146 23.4567 1.29324 23.2505C1.13502 23.0443 1.01897 22.8089 0.951719 22.5578C0.815809 22.0509 0.886832 21.5107 1.14917 21.0561C1.4115 20.6015 1.84366 20.2697 2.35059 20.1337L2.35139 20.133Z" fill="#000A21"/>
</svg>
