<svg width="90" height="90" viewBox="0 0 90 90" fill="none" xmlns="http://www.w3.org/2000/svg">
<circle cx="45" cy="45" r="45" fill="white"/>
<mask id="mask0_806_2283" style="mask-type:luminance" maskUnits="userSpaceOnUse" x="21" y="19" width="42" height="52">
<path d="M62.8633 43.0091L48.9545 56.923L62.8633 70.8368H46.9696L41.0051 64.8723L33.0558 56.923L46.9696 43.0091H62.8633ZM46.9696 19.166L21.1367 44.9989L29.0861 52.9483L62.8633 19.166H46.9696Z" fill="white"/>
</mask>
<g mask="url(#mask0_806_2283)">
<path d="M41.0054 64.871L62.8636 43.0078H46.9699L33.061 56.9217L41.0054 64.871Z" fill="#39CEFD"/>
</g>
<mask id="mask1_806_2283" style="mask-type:luminance" maskUnits="userSpaceOnUse" x="21" y="19" width="42" height="52">
<path d="M62.8633 43.0091L48.9545 56.923L62.8633 70.8368H46.9696L41.0051 64.8723L33.0558 56.923L46.9696 43.0091H62.8633ZM46.9696 19.166L21.1367 44.9989L29.0861 52.9483L62.8633 19.166H46.9696Z" fill="white"/>
</mask>
<g mask="url(#mask1_806_2283)">
<path d="M21.1367 44.9989L46.9696 19.166H62.8633L29.0861 52.9483L21.1367 44.9989Z" fill="#39CEFD"/>
</g>
<mask id="mask2_806_2283" style="mask-type:luminance" maskUnits="userSpaceOnUse" x="21" y="19" width="42" height="52">
<path d="M62.8633 43.0091L48.9545 56.923L62.8633 70.8368H46.9696L41.0051 64.8723L33.0558 56.923L46.9696 43.0091H62.8633ZM46.9696 19.166L21.1367 44.9989L29.0861 52.9483L62.8633 19.166H46.9696Z" fill="white"/>
</mask>
<g mask="url(#mask2_806_2283)">
<path d="M46.9696 70.8308H62.8633L48.9545 56.9219L41.0051 64.8712L46.9696 70.8308Z" fill="#03569B"/>
</g>
<mask id="mask3_806_2283" style="mask-type:luminance" maskUnits="userSpaceOnUse" x="21" y="19" width="42" height="52">
<path d="M62.8633 43.0091L48.9545 56.923L62.8633 70.8368H46.9696L41.0051 64.8723L33.0558 56.923L46.9696 43.0091H62.8633ZM46.9696 19.166L21.1367 44.9989L29.0861 52.9483L62.8633 19.166H46.9696Z" fill="white"/>
</mask>
<g mask="url(#mask3_806_2283)">
<path d="M48.9545 56.9219L41.0051 64.8712L52.7948 60.7871L48.9545 56.9219Z" fill="url(#paint0_linear_806_2283)"/>
</g>
<mask id="mask4_806_2283" style="mask-type:luminance" maskUnits="userSpaceOnUse" x="21" y="19" width="42" height="52">
<path d="M62.8633 43.0091L48.9545 56.923L62.8633 70.8368H46.9696L41.0051 64.8723L33.0558 56.923L46.9696 43.0091H62.8633ZM46.9696 19.166L21.1367 44.9989L29.0861 52.9483L62.8633 19.166H46.9696Z" fill="white"/>
</mask>
<g mask="url(#mask4_806_2283)">
<path d="M33.061 56.9162L41.0104 48.9668L48.9597 56.9162L41.0104 64.8705L33.061 56.9162Z" fill="#16B9FD"/>
</g>
<path d="M62.8633 43.0091L48.9545 56.923L62.8633 70.8368H46.9696L41.0051 64.8723L33.0558 56.923L46.9696 43.0091H62.8633ZM46.9696 19.166L21.1367 44.9989L29.0861 52.9483L62.8633 19.166H46.9696Z" fill="url(#paint1_radial_806_2283)"/>
<defs>
<linearGradient id="paint0_linear_806_2283" x1="-1225.86" y1="-539.413" x2="-1225.63" y2="-539.642" gradientUnits="userSpaceOnUse">
<stop stop-color="#1A237E" stop-opacity="0.4"/>
<stop offset="1" stop-color="#1A237E" stop-opacity="0"/>
</linearGradient>
<radialGradient id="paint1_radial_806_2283" cx="0" cy="0" r="1" gradientUnits="userSpaceOnUse" gradientTransform="translate(-1118.56 -445.588) scale(2.45387 2.45387)">
<stop stop-color="white" stop-opacity="0.1"/>
<stop offset="1" stop-color="white" stop-opacity="0"/>
</radialGradient>
</defs>
</svg>
