<svg width="90" height="90" viewBox="0 0 90 90" fill="none" xmlns="http://www.w3.org/2000/svg">
<circle cx="45" cy="45" r="45" fill="white"/>
<path d="M57.3303 36.7531V31.0051C58.8797 30.2808 59.8737 28.7276 59.8841 27.0169V26.8839C59.8841 24.4367 57.899 22.4525 55.4517 22.4525H55.3225C52.8753 22.4525 50.8911 24.4367 50.8911 26.8839V27.0169C50.8975 27.8575 51.1429 28.6789 51.5986 29.3852C52.0543 30.0916 52.7015 30.6537 53.4647 31.006V36.7531C51.2834 37.086 49.2228 37.996 47.5055 39.3785L31.7384 27.1065C31.8506 26.7019 31.911 26.2832 31.9167 25.8645V25.8541C31.9167 23.1004 29.6835 20.8672 26.9288 20.8672C24.1751 20.8672 21.9419 23.1004 21.9419 25.8541C21.9419 28.606 24.1713 30.8382 26.9222 30.842C27.787 30.8344 28.6348 30.5977 29.3798 30.1601L44.9045 42.2379C43.5423 44.2969 42.8156 46.711 42.8147 49.1798C42.8147 51.7628 43.6125 54.2884 45.095 56.4018L40.374 61.1227C39.9935 61.01 39.5987 60.9525 39.2018 60.952C36.9422 60.952 35.1108 62.7835 35.1108 65.0421C35.1108 67.3017 36.9422 69.1331 39.2018 69.1331C41.4604 69.1331 43.2919 67.3017 43.2919 65.0421V65.0298C43.2886 64.6295 43.2243 64.232 43.1014 63.851L47.7714 59.1772C49.9754 60.875 52.679 61.7961 55.4611 61.797C62.4172 61.797 68.0576 56.1566 68.0576 49.2005C68.0576 42.9716 63.5026 37.6763 57.3435 36.7465L57.3303 36.7531ZM55.4074 55.652C51.9379 55.5087 49.1973 52.654 49.1973 49.1807C49.1973 45.8395 51.7408 43.0452 55.066 42.7321H55.4074C58.7835 42.9895 61.3921 45.8046 61.3921 49.1902C61.3921 52.5767 58.7835 55.3917 55.4083 55.6483L55.4074 55.652Z" fill="#FF7A59"/>
</svg>
