<svg width="68" height="68" viewBox="0 0 68 68" fill="none" xmlns="http://www.w3.org/2000/svg">
<path d="M61.8184 24.7227H68.0001V27.8135H61.8184V24.7227Z" fill="#2378DA"/>
<path d="M54.3096 7.1875L59.0443 3.21304L61.0315 5.58041L56.2968 9.55487L54.3096 7.1875Z" fill="#2378DA"/>
<path d="M54.3286 45.3594L56.3158 42.992L61.0506 46.9665L59.0634 49.3338L54.3286 45.3594Z" fill="#2378DA"/>
<path d="M0 24.7227H6.18176V27.8135H0V24.7227Z" fill="#2378DA"/>
<path d="M6.96387 5.59766L8.9511 3.23029L13.6858 7.20475L11.6986 9.57212L6.96387 5.59766Z" fill="#2378DA"/>
<path d="M6.97656 46.9219L11.7113 42.9474L13.6985 45.3148L8.96379 49.2892L6.97656 46.9219Z" fill="#2378DA"/>
<path d="M58.7271 30.9088C59.1369 30.9088 59.53 30.746 59.8198 30.4562C60.1097 30.1663 60.2725 29.7732 60.2725 29.3634V23.1816C60.2725 22.7717 60.1097 22.3786 59.8198 22.0888C59.53 21.799 59.1369 21.6362 58.7271 21.6362H56.7025C55.7762 17.1933 53.5734 13.1174 50.3643 9.90823C47.1551 6.6991 43.0792 4.49629 38.6363 3.56997V1.54544C38.6363 1.13556 38.4735 0.742475 38.1837 0.452649C37.8939 0.162823 37.5008 0 37.0909 0H30.9091C30.4993 0 30.1062 0.162823 29.8163 0.452649C29.5265 0.742475 29.3637 1.13556 29.3637 1.54544V3.56997C24.9208 4.49629 20.8449 6.6991 17.6358 9.90823C14.4266 13.1174 12.2238 17.1933 11.2975 21.6362H9.27298C8.8631 21.6362 8.47001 21.799 8.18019 22.0888C7.89036 22.3786 7.72754 22.7717 7.72754 23.1816V29.3634C7.72754 29.7732 7.89036 30.1663 8.18019 30.4562C8.47001 30.746 8.8631 30.9088 9.27298 30.9088H11.2975C12.2611 35.6224 14.6641 39.9207 18.1747 43.2105C19.2611 44.2234 20.1287 45.448 20.724 46.8088C21.3194 48.1696 21.6299 49.6378 21.6365 51.1232V52.545H46.3635V51.1232C46.3701 49.6378 46.6807 48.1696 47.276 46.8088C47.8714 45.448 48.7389 44.2234 49.8253 43.2105C53.3359 39.9207 55.7389 35.6224 56.7025 30.9088H58.7271ZM37.6782 30.9088H30.3219L28.0655 26.4116L32.4546 20.2762V26.2725H35.5455V20.2762L39.9345 26.4116L37.6782 30.9088ZM52.5453 30.9088H53.5498C52.6344 34.7515 50.6081 38.2398 47.7235 40.9387C46.1226 42.4433 44.8949 44.3007 44.1381 46.3632H41.5881L40.2127 32.7479L43.1027 26.9679C43.2318 26.7173 43.2886 26.4356 43.2668 26.1545C43.245 25.8733 43.1453 25.6038 42.979 25.3761L35.2518 14.558C35.1039 14.3668 34.9142 14.2121 34.6972 14.1056C34.4802 13.9991 34.2417 13.9437 34 13.9437C33.7583 13.9437 33.5198 13.9991 33.3028 14.1056C33.0858 14.2121 32.8961 14.3668 32.7482 14.558L25.021 25.3761C24.8547 25.6038 24.7551 25.8733 24.7332 26.1545C24.7114 26.4356 24.7682 26.7173 24.8974 26.9679L27.7873 32.7479L26.4119 46.3632H23.8619C23.1051 44.3007 21.8774 42.4433 20.2765 40.9387C17.392 38.2398 15.3657 34.7515 14.4502 30.9088H15.4547C15.8646 30.9088 16.2577 30.746 16.5475 30.4562C16.8374 30.1663 17.0002 29.7732 17.0002 29.3634V23.1816C17.0002 22.7717 16.8374 22.3786 16.5475 22.0888C16.2577 21.799 15.8646 21.6362 15.4547 21.6362H14.4502C15.3235 18.019 17.1779 14.7128 19.8091 12.0816C22.4403 9.45033 25.7465 7.596 29.3637 6.72266V7.7272C29.3637 8.13708 29.5265 8.53016 29.8163 8.81999C30.1062 9.10982 30.4993 9.27264 30.9091 9.27264H37.0909C37.5008 9.27264 37.8939 9.10982 38.1837 8.81999C38.4735 8.53016 38.6363 8.13708 38.6363 7.7272V6.72266C42.2535 7.596 45.5597 9.45033 48.1909 12.0816C50.8222 14.7128 52.6765 18.019 53.5498 21.6362H52.5453C52.1354 21.6362 51.7423 21.799 51.4525 22.0888C51.1627 22.3786 50.9999 22.7717 50.9999 23.1816V29.3634C50.9999 29.7732 51.1627 30.1663 51.4525 30.4562C51.7423 30.746 52.1354 30.9088 52.5453 30.9088Z" fill="#2378DA"/>
<path d="M21.6362 57.1783C21.6399 58.4068 22.1295 59.5839 22.9982 60.4526C23.8669 61.3213 25.0441 61.8109 26.2726 61.8146H26.4271C26.7818 63.5614 27.7295 65.1318 29.1096 66.2598C30.4897 67.3879 32.2173 68.0041 33.9997 68.0041C35.7822 68.0041 37.5098 67.3879 38.8899 66.2598C40.27 65.1318 41.2177 63.5614 41.5724 61.8146H41.7269C42.9554 61.8109 44.1326 61.3213 45.0013 60.4526C45.87 59.5839 46.3596 58.4068 46.3633 57.1783V55.6328H21.6362V57.1783Z" fill="#2378DA"/>
</svg>
