<svg width="325" height="156" viewBox="0 0 325 156" fill="none" xmlns="http://www.w3.org/2000/svg">
<mask id="mask0_2197_222" style="mask-type:alpha" maskUnits="userSpaceOnUse" x="0" y="0" width="325" height="156">
<g clip-path="url(#clip0_2197_222)">
<path d="M394.054 39.531L347.65 42.7768L311.555 51.5866L283.79 64.5695L262.375 80.3346L245.328 97.4906L230.67 114.646L216.422 130.411L200.603 143.394L181.231 152.205L156.33 155.45L129.703 152.205L108.809 143.394L91.737 130.411L76.5739 114.646L61.4079 97.4906L44.3264 80.3346L23.4176 64.5695L-3.23108 51.5866L-37.5316 42.7768L-81.3962 39.531L-78.2848 25.545L-69.2768 12.2774L-54.8617 -0.0940617L-35.529 -11.392L-11.768 -21.4388L15.9317 -30.0571L47.0808 -37.0692L81.1898 -42.2976L117.77 -45.5648L156.33 -46.6934L194.89 -45.5648L231.469 -42.2976L265.578 -37.0692L296.727 -30.0571L324.427 -21.4388L348.188 -11.392L367.52 -0.0940617L381.935 12.2774L390.943 25.545L394.054 39.531Z" fill="black"/>
</g>
</mask>
<g mask="url(#mask0_2197_222)">
<rect width="324.332" height="155.488" fill="#0A1225"/>
</g>
<defs>
<clipPath id="clip0_2197_222">
<rect width="324.332" height="155.488" fill="white"/>
</clipPath>
</defs>
</svg>
