<svg width="32" height="35" viewBox="0 0 32 35" fill="none" xmlns="http://www.w3.org/2000/svg">
<path fill-rule="evenodd" clip-rule="evenodd" d="M22.7969 11.6828L19.2779 22.2447C19.2252 22.3961 19.2032 22.5564 19.213 22.7164C19.2228 22.8764 19.2643 23.0328 19.335 23.1766C19.4058 23.3204 19.5044 23.4487 19.6251 23.5541C19.7459 23.6595 19.8863 23.7398 20.0384 23.7905C20.1905 23.8411 20.351 23.861 20.5109 23.8491C20.6707 23.8372 20.8266 23.7936 20.9694 23.721C21.1123 23.6483 21.2393 23.548 21.343 23.4259C21.4468 23.3038 21.5253 23.1622 21.5739 23.0095L25.0929 12.4476C25.1456 12.2962 25.1677 12.1359 25.1579 11.9759C25.1481 11.816 25.1066 11.6595 25.0358 11.5157C24.9651 11.3719 24.8665 11.2436 24.7457 11.1382C24.625 11.0329 24.4845 10.9525 24.3324 10.9019C24.1804 10.8512 24.0198 10.8313 23.86 10.8432C23.7001 10.8551 23.5443 10.8987 23.4014 10.9713C23.2586 11.044 23.1316 11.1443 23.0278 11.2664C22.924 11.3885 22.8456 11.5301 22.7969 11.6828ZM25.8771 14.6823L28.541 17.3462L25.8771 20.01C25.7647 20.1224 25.6755 20.2559 25.6147 20.4028C25.5539 20.5496 25.5226 20.707 25.5226 20.866C25.5226 21.025 25.5539 21.1824 25.6147 21.3292C25.6755 21.4761 25.7647 21.6096 25.8771 21.722C25.9895 21.8344 26.123 21.9235 26.2698 21.9844C26.4167 22.0452 26.5741 22.0765 26.7331 22.0765C26.892 22.0765 27.0494 22.0452 27.1963 21.9844C27.3432 21.9235 27.4766 21.8344 27.589 21.722L31.1081 18.2013C31.2205 18.0891 31.3096 17.9558 31.3705 17.809C31.4313 17.6623 31.4626 17.505 31.4626 17.3462C31.4626 17.1873 31.4313 17.03 31.3705 16.8833C31.3096 16.7365 31.2205 16.6032 31.1081 16.491L27.589 12.9704C27.4766 12.8579 27.3432 12.7688 27.1963 12.7079C27.0494 12.6471 26.892 12.6158 26.7331 12.6158C26.5741 12.6158 26.4167 12.6471 26.2698 12.7079C26.123 12.7688 25.9895 12.8579 25.8771 12.9704C25.7647 13.0828 25.6755 13.2162 25.6147 13.3631C25.5539 13.5099 25.5226 13.6673 25.5226 13.8263C25.5226 13.9853 25.5539 14.1427 25.6147 14.2896C25.6755 14.4364 25.7647 14.5699 25.8771 14.6823ZM16.7818 12.9704L13.2628 16.491C13.1504 16.6032 13.0612 16.7365 13.0004 16.8833C12.9395 17.03 12.9082 17.1873 12.9082 17.3462C12.9082 17.505 12.9395 17.6623 13.0004 17.809C13.0612 17.9558 13.1504 18.0891 13.2628 18.2013L16.7818 21.722C16.8942 21.8344 17.0277 21.9235 17.1745 21.9844C17.3214 22.0452 17.4788 22.0765 17.6378 22.0765C17.7967 22.0765 17.9542 22.0452 18.101 21.9844C18.2479 21.9235 18.3813 21.8344 18.4937 21.722C18.6061 21.6096 18.6953 21.4761 18.7561 21.3292C18.817 21.1824 18.8483 21.025 18.8483 20.866C18.8483 20.707 18.817 20.5496 18.7561 20.4028C18.6953 20.2559 18.6061 20.1224 18.4937 20.01L15.8299 17.3462L18.4937 14.6823C18.6061 14.5699 18.6953 14.4364 18.7561 14.2896C18.817 14.1427 18.8483 13.9853 18.8483 13.8263C18.8483 13.6673 18.817 13.5099 18.7561 13.3631C18.6953 13.2162 18.6061 13.0828 18.4937 12.9704C18.3813 12.8579 18.2479 12.7688 18.101 12.7079C17.9542 12.6471 17.7967 12.6158 17.6378 12.6158C17.4788 12.6158 17.3214 12.6471 17.1745 12.7079C17.0277 12.7688 16.8942 12.8579 16.7818 12.9704Z" fill="white"/>
<path fill-rule="evenodd" clip-rule="evenodd" d="M23.3957 22.6438L23.1037 23.5183C22.9207 24.0659 22.5743 24.5443 22.1112 24.8889C21.648 25.2336 21.0903 25.4279 20.5133 25.4459C19.9362 25.4638 19.3675 25.3044 18.8839 24.9892C18.4002 24.674 18.0248 24.2181 17.8082 23.6829C17.4094 23.7073 17.01 23.6467 16.6365 23.5051C16.2629 23.3635 15.9237 23.1442 15.6412 22.8617L12.1222 19.341C11.8598 19.079 11.6517 18.7679 11.5097 18.4254C11.3677 18.083 11.2946 17.7159 11.2946 17.3451C11.2946 16.9743 11.3677 16.6072 11.5097 16.2648C11.6517 15.9223 11.8598 15.6112 12.1222 15.3492L15.6412 11.8286C16.0232 11.4462 16.5069 11.1816 17.0348 11.066C17.5628 10.9504 18.1128 10.9888 18.6195 11.1765C19.1263 11.3642 19.5686 11.6934 19.8938 12.1251C20.219 12.5567 20.4136 13.0726 20.4543 13.6115L21.2675 11.1719C21.425 10.699 21.7048 10.2763 22.0786 9.94669C22.4524 9.61709 22.9069 9.39236 23.3957 9.29536V4.43712C23.3957 3.26088 22.9278 2.13143 22.0968 1.29887C21.2639 0.467584 20.1354 0.000494078 18.9586 0H4.43712C3.26088 0 2.13143 0.467915 1.29887 1.29887C0.467584 2.13179 0.000494078 3.26035 0 4.43712V30.2531C0 31.4293 0.467914 32.5588 1.29887 33.3913C2.13179 34.2226 3.26035 34.6897 4.43712 34.6902H18.9586C20.1348 34.6902 21.2643 34.2223 22.0968 33.3913C22.9281 32.5584 23.3952 31.4299 23.3957 30.2531V22.6438ZM8.47086 30.6565H14.9249C15.2458 30.6565 15.5536 30.529 15.7805 30.302C16.0075 30.0751 16.135 29.7673 16.135 29.4463C16.135 29.1254 16.0075 28.8176 15.7805 28.5906C15.5536 28.3637 15.2458 28.2362 14.9249 28.2362H8.47086C8.14992 28.2362 7.84212 28.3637 7.61517 28.5906C7.38823 28.8176 7.26074 29.1254 7.26074 29.4463C7.26074 29.7673 7.38823 30.0751 7.61517 30.302C7.84212 30.529 8.14992 30.6565 8.47086 30.6565ZM18.1518 2.42025H5.24387L6.24908 4.93246C6.42873 5.38167 6.73888 5.76673 7.13952 6.03794C7.54015 6.30915 8.01288 6.45407 8.49668 6.45399H14.899C15.3828 6.45407 15.8556 6.30915 16.2562 6.03794C16.6568 5.76673 16.967 5.38167 17.1466 4.93246L18.1518 2.42025Z" fill="white"/>
</svg>
