<svg width="90" height="90" viewBox="0 0 90 90" fill="none" xmlns="http://www.w3.org/2000/svg">
<circle cx="45" cy="45" r="45" fill="white"/>
<path fill-rule="evenodd" clip-rule="evenodd" d="M66.5915 32.8163C66.6075 32.8757 66.6157 32.9368 66.6159 32.9983V42.5512C66.6159 42.6739 66.5835 42.7943 66.522 42.9004C66.4606 43.0065 66.3722 43.0945 66.2659 43.1555L58.2479 47.7718V56.9216C58.2479 57.1706 58.1155 57.4005 57.8996 57.5258L41.1628 67.1606C41.1245 67.1824 41.0827 67.1963 41.0409 67.2111C41.0252 67.2164 41.0104 67.2259 40.9939 67.2303C40.8769 67.2611 40.7539 67.2611 40.6369 67.2303C40.6178 67.2251 40.6003 67.2146 40.5821 67.2076C40.5438 67.1937 40.5037 67.1815 40.4671 67.1606L23.7338 57.5258C23.6275 57.4648 23.5392 57.3768 23.4777 57.2707C23.4163 57.1646 23.3839 57.0442 23.3838 56.9216V28.2627C23.3838 28.2 23.3925 28.1391 23.4082 28.0799C23.4134 28.0599 23.4256 28.0416 23.4325 28.0216C23.4456 27.985 23.4578 27.9476 23.477 27.9136C23.49 27.891 23.5092 27.8727 23.5248 27.8518C23.5449 27.8239 23.5631 27.7952 23.5867 27.7708C23.6067 27.7508 23.6328 27.736 23.6554 27.7186C23.6807 27.6977 23.7033 27.675 23.7321 27.6585L32.1 22.8411C32.206 22.7801 32.3261 22.748 32.4483 22.748C32.5705 22.748 32.6906 22.7801 32.7966 22.8411L41.1637 27.6585H41.1654C41.1933 27.6759 41.2168 27.6977 41.242 27.7177C41.2647 27.7351 41.2899 27.7508 41.3099 27.7699C41.3343 27.7952 41.3517 27.8239 41.3726 27.8518C41.3874 27.8727 41.4075 27.891 41.4196 27.9136C41.4397 27.9484 41.451 27.985 41.4649 28.0216C41.4719 28.0416 41.4841 28.0599 41.4893 28.0808C41.5053 28.1401 41.5135 28.2013 41.5137 28.2627V46.1628L48.486 42.1481V32.9974C48.486 32.9365 48.4947 32.8747 48.5104 32.8163C48.5164 32.7954 48.5278 32.7771 48.5347 32.7571C48.5487 32.7205 48.5608 32.6831 48.58 32.6492C48.5931 32.6265 48.6122 32.6082 48.627 32.5873C48.6479 32.5595 48.6653 32.5307 48.6897 32.5064C48.7097 32.4863 48.735 32.4715 48.7576 32.4541C48.7837 32.4332 48.8064 32.4106 48.8342 32.394L57.2031 27.5767C57.309 27.5156 57.4291 27.4835 57.5514 27.4835C57.6736 27.4835 57.7937 27.5156 57.8996 27.5767L66.2667 32.394C66.2963 32.4115 66.319 32.4332 66.3451 32.4533C66.3668 32.4707 66.3921 32.4863 66.4121 32.5055C66.4365 32.5307 66.4539 32.5595 66.4748 32.5873C66.4905 32.6082 66.5096 32.6265 66.5218 32.6492C66.5419 32.6831 66.5532 32.7205 66.5671 32.7571C66.5749 32.7771 66.5863 32.7954 66.5915 32.8163ZM65.2211 42.1481V34.2042L62.293 35.8898L58.2479 38.2188V46.1628L65.2219 42.1481H65.2211ZM56.8539 56.5185V48.5693L52.875 50.8417L41.5128 57.3265V65.3505L56.8539 56.5185ZM24.7786 29.4686V56.5185L40.118 65.3496V57.3273L32.1044 52.792L32.1018 52.7903L32.0983 52.7885C32.0713 52.7729 32.0487 52.7502 32.0234 52.7311C32.0016 52.7137 31.9764 52.6997 31.9572 52.6806L31.9555 52.678C31.9329 52.6562 31.9172 52.6292 31.898 52.6048C31.8806 52.5813 31.8597 52.5613 31.8458 52.5369L31.8449 52.5343C31.8293 52.5082 31.8197 52.4768 31.8084 52.4472C31.797 52.4211 31.7822 52.3967 31.7753 52.3689C31.7666 52.3358 31.7648 52.3001 31.7613 52.2661C31.7579 52.24 31.7509 52.2139 31.7509 52.1878V33.4833L27.7066 31.1533L24.7786 29.4686ZM32.4492 24.2498L25.4777 28.2627L32.4474 32.2756L39.418 28.2619L32.4474 24.2498H32.4492ZM36.0746 49.2937L40.1189 46.9655V29.4686L37.1908 31.1542L33.1457 33.4833V50.9802L36.0746 49.2937ZM57.5514 28.9854L50.5808 32.9983L57.5514 37.0112L64.521 32.9974L57.5514 28.9854ZM56.8539 38.2188L52.8088 35.8898L49.8808 34.2042V42.1481L53.925 44.4763L56.8539 46.1628V38.2188ZM40.8145 56.1206L51.0388 50.2836L56.1496 47.3669L49.1842 43.3566L41.1645 47.9738L33.8553 52.1817L40.8145 56.1206Z" fill="#FF2D20"/>
</svg>
