<svg width="592" height="643" viewBox="0 0 592 643" fill="none" xmlns="http://www.w3.org/2000/svg">
<rect x="231" y="190" width="224.7" height="220" rx="110" fill="#2378DA"/>
<rect y="162" width="312" height="312" rx="156" fill="#0F1930"/>
<path d="M119.616 354L126.072 342.84C124.488 342.936 122.976 342.72 121.536 342.192C120.112 341.664 118.84 340.88 117.72 339.84C116.6 338.8 115.712 337.568 115.056 336.144C114.416 334.72 114.096 333.176 114.096 331.512C114.096 329.896 114.4 328.384 115.008 326.976C115.616 325.552 116.456 324.304 117.528 323.232C118.616 322.144 119.864 321.296 121.272 320.688C122.696 320.08 124.224 319.776 125.856 319.776C127.984 319.776 129.928 320.304 131.688 321.36C133.464 322.416 134.88 323.832 135.936 325.608C137.008 327.384 137.544 329.352 137.544 331.512C137.544 332.584 137.408 333.6 137.136 334.56C136.88 335.504 136.472 336.464 135.912 337.44L126.384 354H119.616ZM125.808 337.392C126.96 337.392 127.976 337.112 128.856 336.552C129.752 335.992 130.448 335.264 130.944 334.368C131.44 333.472 131.688 332.512 131.688 331.488C131.688 330.368 131.416 329.368 130.872 328.488C130.328 327.592 129.608 326.896 128.712 326.4C127.816 325.888 126.864 325.632 125.856 325.632C124.704 325.632 123.68 325.912 122.784 326.472C121.904 327.016 121.208 327.736 120.696 328.632C120.184 329.528 119.928 330.48 119.928 331.488C119.928 332.56 120.184 333.544 120.696 334.44C121.224 335.336 121.928 336.056 122.808 336.6C123.704 337.128 124.704 337.392 125.808 337.392ZM152.056 354.624C149.992 354.624 148.12 354.152 146.44 353.208C144.76 352.264 143.416 351 142.408 349.416C141.416 347.816 140.92 346.04 140.92 344.088C140.92 342.552 141.264 341.112 141.952 339.768C142.656 338.408 143.6 337.264 144.784 336.336C143.856 335.488 143.096 334.488 142.504 333.336C141.928 332.168 141.64 330.92 141.64 329.592C141.64 327.784 142.112 326.136 143.056 324.648C144 323.16 145.256 321.976 146.824 321.096C148.408 320.216 150.152 319.776 152.056 319.776C153.976 319.776 155.72 320.216 157.288 321.096C158.856 321.976 160.112 323.16 161.056 324.648C162 326.136 162.472 327.784 162.472 329.592C162.472 330.92 162.184 332.168 161.608 333.336C161.048 334.488 160.288 335.488 159.328 336.336C160.544 337.264 161.496 338.408 162.184 339.768C162.888 341.112 163.24 342.552 163.24 344.088C163.24 346.024 162.736 347.792 161.728 349.392C160.736 350.976 159.392 352.248 157.696 353.208C156 354.152 154.12 354.624 152.056 354.624ZM152.056 348.768C152.984 348.768 153.824 348.56 154.576 348.144C155.328 347.712 155.928 347.144 156.376 346.44C156.824 345.736 157.048 344.952 157.048 344.088C157.048 343.224 156.824 342.44 156.376 341.736C155.928 341.032 155.328 340.472 154.576 340.056C153.824 339.624 152.984 339.408 152.056 339.408C151.144 339.408 150.312 339.624 149.56 340.056C148.808 340.472 148.2 341.032 147.736 341.736C147.288 342.44 147.064 343.224 147.064 344.088C147.064 344.952 147.288 345.736 147.736 346.44C148.2 347.144 148.808 347.712 149.56 348.144C150.312 348.56 151.144 348.768 152.056 348.768ZM152.056 333.552C152.84 333.552 153.552 333.376 154.192 333.024C154.832 332.656 155.336 332.176 155.704 331.584C156.088 330.992 156.28 330.328 156.28 329.592C156.28 328.856 156.088 328.192 155.704 327.6C155.336 327.008 154.832 326.536 154.192 326.184C153.552 325.816 152.84 325.632 152.056 325.632C151.288 325.632 150.584 325.816 149.944 326.184C149.304 326.536 148.792 327.008 148.408 327.6C148.024 328.192 147.832 328.856 147.832 329.592C147.832 330.328 148.024 330.992 148.408 331.584C148.792 332.176 149.304 332.656 149.944 333.024C150.584 333.376 151.288 333.552 152.056 333.552Z" fill="white"/>
<path d="M170.172 354L189.564 320.4H196.332L176.94 354H170.172ZM174.3 334.968C172.988 334.968 171.78 334.656 170.676 334.032C169.588 333.392 168.716 332.528 168.06 331.44C167.404 330.352 167.076 329.136 167.076 327.792C167.076 326.416 167.404 325.184 168.06 324.096C168.732 323.008 169.612 322.152 170.7 321.528C171.804 320.904 173.004 320.592 174.3 320.592C175.612 320.592 176.812 320.912 177.9 321.552C178.988 322.192 179.852 323.056 180.492 324.144C181.148 325.232 181.476 326.448 181.476 327.792C181.476 329.152 181.14 330.376 180.468 331.464C179.812 332.552 178.94 333.408 177.852 334.032C176.764 334.656 175.58 334.968 174.3 334.968ZM174.3 330.96C175.164 330.96 175.908 330.656 176.532 330.048C177.156 329.424 177.468 328.672 177.468 327.792C177.468 326.896 177.156 326.144 176.532 325.536C175.908 324.928 175.164 324.624 174.3 324.624C173.42 324.624 172.66 324.928 172.02 325.536C171.396 326.144 171.084 326.896 171.084 327.792C171.084 328.672 171.396 329.424 172.02 330.048C172.66 330.656 173.42 330.96 174.3 330.96ZM192.204 353.832C190.876 353.832 189.668 353.504 188.58 352.848C187.492 352.176 186.628 351.296 185.988 350.208C185.348 349.104 185.028 347.92 185.028 346.656C185.028 345.28 185.356 344.048 186.012 342.96C186.684 341.872 187.564 341.016 188.652 340.392C189.756 339.752 190.94 339.432 192.204 339.432C193.58 339.432 194.812 339.768 195.9 340.44C196.988 341.112 197.844 342 198.468 343.104C199.108 344.192 199.428 345.376 199.428 346.656C199.428 347.968 199.1 349.168 198.444 350.256C197.804 351.344 196.932 352.216 195.828 352.872C194.74 353.512 193.532 353.832 192.204 353.832ZM192.204 349.824C193.1 349.824 193.86 349.512 194.484 348.888C195.108 348.264 195.42 347.52 195.42 346.656C195.42 345.76 195.108 345 194.484 344.376C193.86 343.752 193.1 343.44 192.204 343.44C191.34 343.44 190.596 343.752 189.972 344.376C189.348 345 189.036 345.76 189.036 346.656C189.036 347.52 189.348 348.264 189.972 348.888C190.596 349.512 191.34 349.824 192.204 349.824Z" fill="#2378DA"/>
<path d="M72.2644 398.286C71.2231 398.286 70.2441 398.081 69.3274 397.67C68.4107 397.252 67.6041 396.68 66.9074 395.954C66.2181 395.221 65.6754 394.37 65.2794 393.402C64.8907 392.434 64.6964 391.4 64.6964 390.3C64.6964 389.2 64.8907 388.166 65.2794 387.198C65.6754 386.23 66.2181 385.383 66.9074 384.657C67.6041 383.924 68.4107 383.352 69.3274 382.941C70.2441 382.523 71.2231 382.314 72.2644 382.314C73.5111 382.314 74.6587 382.604 75.7074 383.183C76.7561 383.762 77.6251 384.532 78.3144 385.493L76.6754 386.373C76.1621 385.698 75.5131 385.163 74.7284 384.767C73.9511 384.364 73.1297 384.162 72.2644 384.162C71.4651 384.162 70.7171 384.323 70.0204 384.646C69.3311 384.969 68.7261 385.412 68.2054 385.977C67.6847 386.542 67.2777 387.194 66.9844 387.935C66.6911 388.676 66.5444 389.464 66.5444 390.3C66.5444 391.143 66.6911 391.935 66.9844 392.676C67.2851 393.417 67.6957 394.069 68.2164 394.634C68.7444 395.199 69.3531 395.642 70.0424 395.965C70.7391 396.28 71.4797 396.438 72.2644 396.438C73.1591 396.438 73.9877 396.236 74.7504 395.833C75.5204 395.422 76.1621 394.887 76.6754 394.227L78.3144 395.118C77.6251 396.079 76.7561 396.849 75.7074 397.428C74.6587 398 73.5111 398.286 72.2644 398.286ZM80.5407 398V381.5H82.3887V398H80.5407ZM85.0309 387H86.8789V398H85.0309V387ZM85.9769 385.207C85.6836 385.207 85.4379 385.112 85.2399 384.921C85.0419 384.73 84.9429 384.492 84.9429 384.206C84.9429 383.92 85.0419 383.682 85.2399 383.491C85.4379 383.3 85.6799 383.205 85.9659 383.205C86.2519 383.205 86.4939 383.3 86.6919 383.491C86.8899 383.682 86.9889 383.92 86.9889 384.206C86.9889 384.492 86.8899 384.73 86.6919 384.921C86.5013 385.112 86.2629 385.207 85.9769 385.207ZM94.2108 398.286C93.1988 398.286 92.2748 398.026 91.4388 397.505C90.6101 396.984 89.9464 396.288 89.4478 395.415C88.9564 394.535 88.7108 393.563 88.7108 392.5C88.7108 391.693 88.8538 390.942 89.1398 390.245C89.4258 389.541 89.8181 388.925 90.3168 388.397C90.8228 387.862 91.4094 387.444 92.0768 387.143C92.7441 386.842 93.4554 386.692 94.2108 386.692C95.0394 386.692 95.7984 386.861 96.4878 387.198C97.1844 387.528 97.7784 387.99 98.2698 388.584C98.7684 389.178 99.1388 389.867 99.3808 390.652C99.6301 391.437 99.7218 392.276 99.6558 393.171H90.6798C90.7678 393.794 90.9731 394.352 91.2958 394.843C91.6184 395.327 92.0291 395.712 92.5278 395.998C93.0338 396.284 93.5948 396.431 94.2108 396.438C94.8708 396.438 95.4684 396.269 96.0038 395.932C96.5391 395.587 96.9718 395.118 97.3018 394.524L99.1828 394.964C98.7428 395.939 98.0791 396.739 97.1918 397.362C96.3044 397.978 95.3108 398.286 94.2108 398.286ZM90.6248 391.719H97.7968C97.7381 391.103 97.5401 390.542 97.2028 390.036C96.8654 389.523 96.4364 389.112 95.9158 388.804C95.3951 388.496 94.8268 388.342 94.2108 388.342C93.5948 388.342 93.0301 388.492 92.5168 388.793C92.0034 389.094 91.5781 389.501 91.2408 390.014C90.9108 390.52 90.7054 391.088 90.6248 391.719ZM111.233 391.158V398H109.385V391.565C109.385 391.008 109.25 390.502 108.978 390.047C108.707 389.592 108.344 389.233 107.889 388.969C107.435 388.698 106.929 388.562 106.371 388.562C105.821 388.562 105.315 388.698 104.853 388.969C104.399 389.233 104.036 389.592 103.764 390.047C103.493 390.502 103.357 391.008 103.357 391.565V398H101.509V387H103.357V388.375C103.746 387.862 104.237 387.455 104.831 387.154C105.425 386.846 106.071 386.692 106.767 386.692C107.589 386.692 108.337 386.894 109.011 387.297C109.693 387.693 110.232 388.228 110.628 388.903C111.032 389.578 111.233 390.329 111.233 391.158ZM119.131 388.848H116.634L116.623 398H114.775L114.786 388.848H112.894V387H114.786L114.775 383.546H116.623L116.634 387H119.131V388.848ZM124.351 398.209C123.757 398.187 123.177 398.077 122.613 397.879C122.055 397.674 121.564 397.399 121.139 397.054C120.721 396.702 120.416 396.299 120.226 395.844L121.81 395.162C121.92 395.411 122.118 395.646 122.404 395.866C122.69 396.086 123.02 396.262 123.394 396.394C123.768 396.526 124.145 396.592 124.527 396.592C124.93 396.592 125.308 396.53 125.66 396.405C126.012 396.28 126.298 396.097 126.518 395.855C126.745 395.606 126.859 395.309 126.859 394.964C126.859 394.597 126.734 394.311 126.485 394.106C126.243 393.893 125.935 393.728 125.561 393.611C125.194 393.486 124.82 393.369 124.439 393.259C123.683 393.068 123.009 392.841 122.415 392.577C121.821 392.306 121.351 391.965 121.007 391.554C120.669 391.136 120.501 390.604 120.501 389.959C120.501 389.277 120.688 388.687 121.062 388.188C121.443 387.689 121.942 387.304 122.558 387.033C123.174 386.762 123.834 386.626 124.538 386.626C125.425 386.626 126.235 386.817 126.969 387.198C127.702 387.579 128.248 388.096 128.608 388.749L127.123 389.618C126.998 389.354 126.807 389.123 126.551 388.925C126.294 388.72 126.001 388.558 125.671 388.441C125.341 388.324 125.003 388.261 124.659 388.254C124.233 388.239 123.834 388.294 123.46 388.419C123.093 388.544 122.796 388.734 122.569 388.991C122.349 389.24 122.239 389.552 122.239 389.926C122.239 390.293 122.356 390.571 122.591 390.762C122.833 390.953 123.144 391.107 123.526 391.224C123.914 391.334 124.336 391.462 124.791 391.609C125.458 391.822 126.081 392.067 126.661 392.346C127.24 392.625 127.706 392.973 128.058 393.391C128.417 393.809 128.593 394.326 128.586 394.942C128.586 395.617 128.384 396.207 127.981 396.713C127.577 397.212 127.053 397.593 126.408 397.857C125.77 398.121 125.084 398.238 124.351 398.209ZM141.179 398.286C140.35 398.286 139.551 398.158 138.781 397.901C138.011 397.637 137.336 397.263 136.757 396.779C136.185 396.295 135.778 395.719 135.536 395.052L137.263 394.403C137.409 394.814 137.681 395.173 138.077 395.481C138.48 395.782 138.953 396.016 139.496 396.185C140.038 396.354 140.599 396.438 141.179 396.438C141.839 396.438 142.451 396.332 143.016 396.119C143.588 395.899 144.05 395.595 144.402 395.206C144.754 394.817 144.93 394.363 144.93 393.842C144.93 393.307 144.746 392.87 144.38 392.533C144.013 392.188 143.544 391.917 142.972 391.719C142.4 391.514 141.802 391.356 141.179 391.246C140.115 391.07 139.162 390.821 138.319 390.498C137.483 390.168 136.819 389.71 136.328 389.123C135.844 388.536 135.602 387.763 135.602 386.802C135.602 385.907 135.858 385.126 136.372 384.459C136.892 383.792 137.578 383.275 138.429 382.908C139.279 382.541 140.196 382.358 141.179 382.358C141.993 382.358 142.781 382.486 143.544 382.743C144.314 382.992 144.992 383.359 145.579 383.843C146.165 384.327 146.587 384.917 146.844 385.614L145.095 386.252C144.948 385.834 144.673 385.475 144.27 385.174C143.874 384.866 143.404 384.631 142.862 384.47C142.326 384.301 141.765 384.217 141.179 384.217C140.526 384.21 139.917 384.316 139.353 384.536C138.788 384.756 138.33 385.06 137.978 385.449C137.626 385.838 137.45 386.289 137.45 386.802C137.45 387.418 137.611 387.891 137.934 388.221C138.264 388.544 138.711 388.786 139.276 388.947C139.84 389.108 140.475 389.251 141.179 389.376C142.176 389.545 143.1 389.812 143.951 390.179C144.801 390.538 145.483 391.019 145.997 391.62C146.517 392.221 146.778 392.962 146.778 393.842C146.778 394.737 146.517 395.518 145.997 396.185C145.483 396.852 144.801 397.369 143.951 397.736C143.1 398.103 142.176 398.286 141.179 398.286ZM157.92 387H159.768V398H157.92L157.843 396.141C157.498 396.779 157.022 397.296 156.413 397.692C155.812 398.088 155.093 398.286 154.257 398.286C153.45 398.286 152.695 398.136 151.991 397.835C151.287 397.527 150.664 397.105 150.121 396.57C149.586 396.027 149.168 395.404 148.867 394.7C148.566 393.996 148.416 393.237 148.416 392.423C148.416 391.638 148.563 390.898 148.856 390.201C149.149 389.504 149.556 388.896 150.077 388.375C150.605 387.847 151.214 387.436 151.903 387.143C152.592 386.842 153.333 386.692 154.125 386.692C154.99 386.692 155.749 386.897 156.402 387.308C157.055 387.711 157.583 388.236 157.986 388.881L157.92 387ZM154.224 396.493C154.95 396.493 155.577 396.317 156.105 395.965C156.64 395.606 157.051 395.122 157.337 394.513C157.63 393.904 157.777 393.233 157.777 392.5C157.777 391.752 157.63 391.077 157.337 390.476C157.044 389.867 156.629 389.387 156.094 389.035C155.566 388.676 154.943 388.496 154.224 388.496C153.498 388.496 152.838 388.676 152.244 389.035C151.65 389.394 151.177 389.878 150.825 390.487C150.48 391.088 150.308 391.759 150.308 392.5C150.308 393.241 150.488 393.915 150.847 394.524C151.206 395.125 151.683 395.606 152.277 395.965C152.871 396.317 153.52 396.493 154.224 396.493ZM167.664 388.848H165.167L165.156 398H163.308L163.319 388.848H161.427V387H163.319L163.308 383.546H165.156L165.167 387H167.664V388.848ZM169.529 387H171.377V398H169.529V387ZM170.475 385.207C170.182 385.207 169.936 385.112 169.738 384.921C169.54 384.73 169.441 384.492 169.441 384.206C169.441 383.92 169.54 383.682 169.738 383.491C169.936 383.3 170.178 383.205 170.464 383.205C170.75 383.205 170.992 383.3 171.19 383.491C171.388 383.682 171.487 383.92 171.487 384.206C171.487 384.492 171.388 384.73 171.19 384.921C170.999 385.112 170.761 385.207 170.475 385.207ZM177.267 398.209C176.673 398.187 176.093 398.077 175.529 397.879C174.971 397.674 174.48 397.399 174.055 397.054C173.637 396.702 173.332 396.299 173.142 395.844L174.726 395.162C174.836 395.411 175.034 395.646 175.32 395.866C175.606 396.086 175.936 396.262 176.31 396.394C176.684 396.526 177.061 396.592 177.443 396.592C177.846 396.592 178.224 396.53 178.576 396.405C178.928 396.28 179.214 396.097 179.434 395.855C179.661 395.606 179.775 395.309 179.775 394.964C179.775 394.597 179.65 394.311 179.401 394.106C179.159 393.893 178.851 393.728 178.477 393.611C178.11 393.486 177.736 393.369 177.355 393.259C176.599 393.068 175.925 392.841 175.331 392.577C174.737 392.306 174.267 391.965 173.923 391.554C173.585 391.136 173.417 390.604 173.417 389.959C173.417 389.277 173.604 388.687 173.978 388.188C174.359 387.689 174.858 387.304 175.474 387.033C176.09 386.762 176.75 386.626 177.454 386.626C178.341 386.626 179.151 386.817 179.885 387.198C180.618 387.579 181.164 388.096 181.524 388.749L180.039 389.618C179.914 389.354 179.723 389.123 179.467 388.925C179.21 388.72 178.917 388.558 178.587 388.441C178.257 388.324 177.919 388.261 177.575 388.254C177.149 388.239 176.75 388.294 176.376 388.419C176.009 388.544 175.712 388.734 175.485 388.991C175.265 389.24 175.155 389.552 175.155 389.926C175.155 390.293 175.272 390.571 175.507 390.762C175.749 390.953 176.06 391.107 176.442 391.224C176.83 391.334 177.252 391.462 177.707 391.609C178.374 391.822 178.997 392.067 179.577 392.346C180.156 392.625 180.622 392.973 180.974 393.391C181.333 393.809 181.509 394.326 181.502 394.942C181.502 395.617 181.3 396.207 180.897 396.713C180.493 397.212 179.969 397.593 179.324 397.857C178.686 398.121 178 398.238 177.267 398.209ZM185.883 384.283V387H189.106V388.848H185.883V398H184.035V388.848H182.616V387H184.035V384.283C184.035 383.718 184.171 383.209 184.442 382.754C184.721 382.292 185.091 381.925 185.553 381.654C186.023 381.375 186.536 381.236 187.093 381.236C187.504 381.236 187.904 381.32 188.292 381.489C188.681 381.65 189.026 381.892 189.326 382.215L188.006 383.524C187.904 383.385 187.768 383.278 187.599 383.205C187.438 383.124 187.269 383.084 187.093 383.084C186.763 383.084 186.477 383.201 186.235 383.436C186.001 383.671 185.883 383.953 185.883 384.283ZM199.471 387H201.319V398H199.471L199.394 396.141C199.049 396.779 198.572 397.296 197.964 397.692C197.362 398.088 196.644 398.286 195.808 398.286C195.001 398.286 194.246 398.136 193.542 397.835C192.838 397.527 192.214 397.105 191.672 396.57C191.136 396.027 190.718 395.404 190.418 394.7C190.117 393.996 189.967 393.237 189.967 392.423C189.967 391.638 190.113 390.898 190.407 390.201C190.7 389.504 191.107 388.896 191.628 388.375C192.156 387.847 192.764 387.436 193.454 387.143C194.143 386.842 194.884 386.692 195.676 386.692C196.541 386.692 197.3 386.897 197.953 387.308C198.605 387.711 199.133 388.236 199.537 388.881L199.471 387ZM195.775 396.493C196.501 396.493 197.128 396.317 197.656 395.965C198.191 395.606 198.602 395.122 198.888 394.513C199.181 393.904 199.328 393.233 199.328 392.5C199.328 391.752 199.181 391.077 198.888 390.476C198.594 389.867 198.18 389.387 197.645 389.035C197.117 388.676 196.493 388.496 195.775 388.496C195.049 388.496 194.389 388.676 193.795 389.035C193.201 389.394 192.728 389.878 192.376 390.487C192.031 391.088 191.859 391.759 191.859 392.5C191.859 393.241 192.038 393.915 192.398 394.524C192.757 395.125 193.234 395.606 193.828 395.965C194.422 396.317 195.071 396.493 195.775 396.493ZM210.881 395.096L212.531 395.987C212.033 396.684 211.398 397.241 210.628 397.659C209.866 398.077 209.037 398.286 208.142 398.286C207.13 398.286 206.206 398.026 205.37 397.505C204.542 396.984 203.878 396.288 203.379 395.415C202.888 394.535 202.642 393.563 202.642 392.5C202.642 391.693 202.785 390.942 203.071 390.245C203.357 389.541 203.75 388.925 204.248 388.397C204.754 387.862 205.341 387.444 206.008 387.143C206.676 386.842 207.387 386.692 208.142 386.692C209.037 386.692 209.866 386.901 210.628 387.319C211.398 387.737 212.033 388.298 212.531 389.002L210.881 389.893C210.529 389.46 210.111 389.127 209.627 388.892C209.143 388.657 208.648 388.54 208.142 388.54C207.46 388.54 206.841 388.723 206.283 389.09C205.733 389.449 205.297 389.93 204.974 390.531C204.652 391.132 204.49 391.789 204.49 392.5C204.49 393.211 204.652 393.868 204.974 394.469C205.304 395.063 205.744 395.54 206.294 395.899C206.852 396.258 207.468 396.438 208.142 396.438C208.685 396.438 209.195 396.313 209.671 396.064C210.148 395.815 210.551 395.492 210.881 395.096ZM220.215 388.848H217.718L217.707 398H215.859L215.87 388.848H213.978V387H215.87L215.859 383.546H217.707L217.718 387H220.215V388.848ZM222.08 387H223.928V398H222.08V387ZM223.026 385.207C222.732 385.207 222.487 385.112 222.289 384.921C222.091 384.73 221.992 384.492 221.992 384.206C221.992 383.92 222.091 383.682 222.289 383.491C222.487 383.3 222.729 383.205 223.015 383.205C223.301 383.205 223.543 383.3 223.741 383.491C223.939 383.682 224.038 383.92 224.038 384.206C224.038 384.492 223.939 384.73 223.741 384.921C223.55 385.112 223.312 385.207 223.026 385.207ZM231.26 398.286C230.248 398.286 229.324 398.026 228.488 397.505C227.659 396.984 226.995 396.288 226.497 395.415C226.005 394.535 225.76 393.563 225.76 392.5C225.76 391.693 225.903 390.942 226.189 390.245C226.475 389.541 226.867 388.925 227.366 388.397C227.872 387.862 228.458 387.444 229.126 387.143C229.793 386.842 230.504 386.692 231.26 386.692C232.272 386.692 233.192 386.952 234.021 387.473C234.857 387.994 235.52 388.694 236.012 389.574C236.51 390.454 236.76 391.429 236.76 392.5C236.76 393.299 236.617 394.047 236.331 394.744C236.045 395.441 235.649 396.057 235.143 396.592C234.644 397.12 234.061 397.534 233.394 397.835C232.734 398.136 232.022 398.286 231.26 398.286ZM231.26 396.438C231.949 396.438 232.569 396.258 233.119 395.899C233.676 395.532 234.112 395.052 234.428 394.458C234.75 393.857 234.912 393.204 234.912 392.5C234.912 391.781 234.747 391.121 234.417 390.52C234.094 389.919 233.658 389.438 233.108 389.079C232.558 388.72 231.942 388.54 231.26 388.54C230.57 388.54 229.951 388.723 229.401 389.09C228.851 389.449 228.414 389.93 228.092 390.531C227.769 391.132 227.608 391.789 227.608 392.5C227.608 393.233 227.773 393.901 228.103 394.502C228.433 395.096 228.876 395.569 229.434 395.921C229.991 396.266 230.6 396.438 231.26 396.438ZM248.304 391.158V398H246.456V391.565C246.456 391.008 246.32 390.502 246.049 390.047C245.777 389.592 245.414 389.233 244.96 388.969C244.505 388.698 243.999 388.562 243.442 388.562C242.892 388.562 242.386 388.698 241.924 388.969C241.469 389.233 241.106 389.592 240.835 390.047C240.563 390.502 240.428 391.008 240.428 391.565V398H238.58V387H240.428V388.375C240.816 387.862 241.308 387.455 241.902 387.154C242.496 386.846 243.141 386.692 243.838 386.692C244.659 386.692 245.407 386.894 246.082 387.297C246.764 387.693 247.303 388.228 247.699 388.903C248.102 389.578 248.304 390.329 248.304 391.158Z" fill="#A9ABBE"/>
<path d="M180.406 272.908L168.311 278.017C168.332 277.866 168.354 277.715 168.354 277.554C168.354 275.204 166.446 273.296 164.096 273.296H155.385C155.03 273.296 154.685 273.22 154.361 273.069L146.977 269.727C145.824 269.21 144.541 268.93 143.279 268.93H137.264V271.086H143.279C144.239 271.086 145.209 271.291 146.093 271.689L153.477 275.031C154.081 275.301 154.728 275.441 155.396 275.441H164.107C165.271 275.441 166.209 276.389 166.209 277.543C166.209 278.696 165.26 279.645 164.107 279.645H152.82V281.801H164.096C164.84 281.801 165.529 281.596 166.133 281.262V281.273L181.236 274.88C182.486 274.352 183.856 274.363 185.095 274.902C186.044 275.322 186.82 276.001 187.337 276.885L160.678 291.029C158.641 292.107 156.216 292.322 154.016 291.622L140.973 287.428L137.253 287.374V289.53H140.477L153.359 293.67C154.426 294.015 155.526 294.177 156.636 294.177C158.382 294.177 160.129 293.756 161.681 292.926L190.086 277.877L189.774 276.993C189.116 275.161 187.758 273.716 185.968 272.929C184.179 272.164 182.206 272.142 180.406 272.908Z" fill="#2378DA"/>
<path d="M134.925 291.224V268.338C134.925 267.152 133.955 266.182 132.769 266.182H121.914V268.338H132.769V291.234H121.914V293.39H132.769C133.955 293.38 134.925 292.409 134.925 291.224Z" fill="#2378DA"/>
<path d="M129.934 287.87C129.934 288.7 129.255 289.379 128.425 289.379C127.584 289.379 126.905 288.7 126.905 287.87C126.905 287.029 127.584 286.35 128.425 286.35C129.255 286.35 129.934 287.029 129.934 287.87Z" fill="#2378DA"/>
<path d="M147.42 258.656L148.584 259.519L156.604 255.078L163.859 259.443L164.484 259.81L165.649 258.969L163.902 249.979L170.316 244.416L170.834 243.92L170.381 242.583L161.304 241.462L158.006 233.658L157.704 233.011L157.014 233H156.281L152.411 241.311L143.959 242.023L143.237 242.109L142.806 243.457L149.5 249.698L147.42 258.656ZM146.503 243.974L153.208 243.392L153.844 243.316L156.938 236.676L159.558 242.853L159.827 243.446L167.115 244.341L162.07 248.717L161.563 249.149L162.964 256.371L157.186 252.889L156.636 252.598L150.244 256.145L151.742 249.677L151.926 249.008L146.503 243.974Z" fill="#2378DA"/>
<path d="M133.243 254.678L131.68 261.394L131.465 262.17L132.683 263.065L139.399 259.346L145.328 262.903L145.996 263.324L147.193 262.451L145.727 254.915L147.29 253.568L145.878 251.94L143.797 253.74L143.484 254.107V254.538L144.498 259.896L140.121 257.255L139.895 257.039L138.978 257.017L138.763 257.233L134.289 259.712L135.496 254.473V253.837L131.303 249.935L136.434 249.482L136.93 249.471L137.383 249.019L139.679 244.081L141.749 248.965L142.083 249.601H142.687L145.285 249.924L145.554 247.779L143.474 247.531L140.736 241.063L140.369 240.373L138.881 240.492L138.677 241.128L135.766 247.391L128.91 247.984L128.058 248.027L127.605 249.601L128.198 249.989L133.243 254.678Z" fill="#2378DA"/>
<path d="M168.678 247.531L168.872 249.676L170.952 249.482L171.437 249.46L171.89 249.008L174.186 244.07L176.159 248.717L176.181 249.59H177.194L182.336 250.226L178.337 253.697L177.981 254.074V254.538L179.005 259.885L174.618 257.254L174.391 257.028L173.442 257.039L173.248 257.244L168.796 259.712L170.014 254.473L170.004 253.837L167.244 251.261L165.767 252.835L167.74 254.678L166.188 261.394L165.972 262.116L167.147 263.086L173.906 259.346L179.846 262.914L180.514 263.324L181.689 262.44L180.223 254.915L185.408 250.42C185.764 250.14 185.915 249.665 185.796 249.234L185.548 248.469L177.981 247.542L175.221 241.052L174.898 240.459L173.615 240.416L173.281 240.944L170.262 247.391L168.678 247.531Z" fill="#2378DA"/>
<rect x="279.189" width="312" height="312" rx="156" fill="#0F1930"/>
<path d="M377.006 191V185.768C378.046 184.984 379.278 184.016 380.702 182.864C382.126 181.696 383.59 180.44 385.094 179.096C386.598 177.736 387.99 176.376 389.27 175.016C390.55 173.656 391.59 172.36 392.39 171.128C393.206 169.896 393.614 168.84 393.614 167.96C393.614 166.984 393.374 166.096 392.894 165.296C392.414 164.48 391.774 163.832 390.974 163.352C390.19 162.872 389.31 162.632 388.334 162.632C387.358 162.632 386.47 162.872 385.67 163.352C384.87 163.832 384.23 164.48 383.75 165.296C383.27 166.096 383.03 166.984 383.03 167.96H377.174C377.174 165.848 377.686 163.952 378.71 162.272C379.734 160.576 381.086 159.24 382.766 158.264C384.462 157.272 386.318 156.776 388.334 156.776C390.382 156.776 392.246 157.28 393.926 158.288C395.606 159.28 396.95 160.624 397.958 162.32C398.966 164.016 399.47 165.896 399.47 167.96C399.47 169.048 399.27 170.144 398.87 171.248C398.47 172.352 397.91 173.464 397.19 174.584C396.47 175.704 395.622 176.84 394.646 177.992C393.67 179.128 392.59 180.296 391.406 181.496C390.238 182.68 389.006 183.896 387.71 185.144H399.638V191H377.006ZM407.428 191.624C406.596 191.624 405.884 191.336 405.292 190.76C404.716 190.168 404.428 189.448 404.428 188.6C404.428 187.784 404.716 187.08 405.292 186.488C405.884 185.896 406.596 185.6 407.428 185.6C408.26 185.6 408.972 185.896 409.564 186.488C410.156 187.08 410.452 187.784 410.452 188.6C410.452 189.448 410.156 190.168 409.564 190.76C408.972 191.336 408.26 191.624 407.428 191.624ZM426.536 191.624C424.376 191.624 422.424 191.104 420.68 190.064C418.936 189.008 417.552 187.608 416.528 185.864C415.52 184.12 415.016 182.208 415.016 180.128H420.872C420.872 181.168 421.128 182.12 421.64 182.984C422.152 183.832 422.832 184.512 423.68 185.024C424.544 185.52 425.496 185.768 426.536 185.768C427.576 185.768 428.52 185.52 429.368 185.024C430.216 184.512 430.896 183.832 431.408 182.984C431.92 182.12 432.176 181.168 432.176 180.128C432.176 179.088 431.952 178.136 431.504 177.272C431.072 176.392 430.36 175.696 429.368 175.184C428.392 174.656 427.096 174.392 425.48 174.392H416.84L420.392 157.4H436.904V163.256H425.144L424.064 168.536L426.44 168.56C428.712 168.64 430.72 169.192 432.464 170.216C434.208 171.24 435.568 172.616 436.544 174.344C437.536 176.056 438.032 177.984 438.032 180.128C438.032 181.696 437.736 183.176 437.144 184.568C436.552 185.96 435.728 187.184 434.672 188.24C433.616 189.296 432.392 190.128 431 190.736C429.624 191.328 428.136 191.624 426.536 191.624ZM468.33 191H460.698L451.266 177.824L449.634 179.768V191H443.778V157.4H449.634V170.672L460.746 157.4H468.402L455.082 173.24L468.33 191Z" fill="white"/>
<path d="M480.062 188.6V179.528H470.99V173.672H480.062V164.6H485.918V173.672H494.99V179.528H485.918V188.6H480.062Z" fill="#2378DA"/>
<path d="M343.685 235V219.6H348.767C349.596 219.6 350.34 219.802 351 220.205C351.668 220.608 352.196 221.155 352.584 221.844C352.98 222.526 353.178 223.289 353.178 224.132C353.178 224.99 352.977 225.764 352.573 226.453C352.177 227.135 351.642 227.678 350.967 228.081C350.3 228.477 349.567 228.675 348.767 228.675H345.533V235H343.685ZM345.533 226.827H348.602C349.101 226.827 349.556 226.706 349.966 226.464C350.384 226.215 350.714 225.881 350.956 225.463C351.206 225.038 351.33 224.561 351.33 224.033C351.33 223.498 351.206 223.021 350.956 222.603C350.714 222.178 350.384 221.844 349.966 221.602C349.556 221.353 349.101 221.228 348.602 221.228H345.533V226.827ZM355.072 235V224H356.92V225.375C357.309 224.862 357.8 224.455 358.394 224.154C358.988 223.846 359.633 223.692 360.33 223.692C360.755 223.692 361.166 223.747 361.562 223.857L360.814 225.705C360.513 225.61 360.22 225.562 359.934 225.562C359.384 225.562 358.878 225.698 358.416 225.969C357.961 226.233 357.598 226.592 357.327 227.047C357.056 227.502 356.92 228.008 356.92 228.565V235H355.072ZM367.195 235.286C366.183 235.286 365.259 235.026 364.423 234.505C363.594 233.984 362.931 233.288 362.432 232.415C361.941 231.535 361.695 230.563 361.695 229.5C361.695 228.693 361.838 227.942 362.124 227.245C362.41 226.541 362.802 225.925 363.301 225.397C363.807 224.862 364.394 224.444 365.061 224.143C365.728 223.842 366.44 223.692 367.195 223.692C368.207 223.692 369.127 223.952 369.956 224.473C370.792 224.994 371.456 225.694 371.947 226.574C372.446 227.454 372.695 228.429 372.695 229.5C372.695 230.299 372.552 231.047 372.266 231.744C371.98 232.441 371.584 233.057 371.078 233.592C370.579 234.12 369.996 234.534 369.329 234.835C368.669 235.136 367.958 235.286 367.195 235.286ZM367.195 233.438C367.884 233.438 368.504 233.258 369.054 232.899C369.611 232.532 370.048 232.052 370.363 231.458C370.686 230.857 370.847 230.204 370.847 229.5C370.847 228.781 370.682 228.121 370.352 227.52C370.029 226.919 369.593 226.438 369.043 226.079C368.493 225.72 367.877 225.54 367.195 225.54C366.506 225.54 365.886 225.723 365.336 226.09C364.786 226.449 364.35 226.93 364.027 227.531C363.704 228.132 363.543 228.789 363.543 229.5C363.543 230.233 363.708 230.901 364.038 231.502C364.368 232.096 364.812 232.569 365.369 232.921C365.926 233.266 366.535 233.438 367.195 233.438ZM372.294 240.5V238.652C372.807 238.652 373.265 238.538 373.669 238.311C374.079 238.084 374.402 237.768 374.637 237.365C374.871 236.969 374.989 236.525 374.989 236.034V224H376.837V236.034C376.837 236.855 376.639 237.603 376.243 238.278C375.847 238.953 375.304 239.492 374.615 239.895C373.933 240.298 373.159 240.5 372.294 240.5ZM375.935 222.207C375.641 222.207 375.396 222.112 375.198 221.921C375 221.73 374.901 221.492 374.901 221.206C374.901 220.92 375 220.682 375.198 220.491C375.396 220.3 375.638 220.205 375.924 220.205C376.21 220.205 376.452 220.3 376.65 220.491C376.848 220.682 376.947 220.92 376.947 221.206C376.947 221.492 376.848 221.73 376.65 221.921C376.459 222.112 376.221 222.207 375.935 222.207ZM384.168 235.286C383.156 235.286 382.232 235.026 381.396 234.505C380.567 233.984 379.903 233.288 379.405 232.415C378.913 231.535 378.668 230.563 378.668 229.5C378.668 228.693 378.811 227.942 379.097 227.245C379.383 226.541 379.775 225.925 380.274 225.397C380.78 224.862 381.366 224.444 382.034 224.143C382.701 223.842 383.412 223.692 384.168 223.692C384.996 223.692 385.755 223.861 386.445 224.198C387.141 224.528 387.735 224.99 388.227 225.584C388.725 226.178 389.096 226.867 389.338 227.652C389.587 228.437 389.679 229.276 389.613 230.171H380.637C380.725 230.794 380.93 231.352 381.253 231.843C381.575 232.327 381.986 232.712 382.485 232.998C382.991 233.284 383.552 233.431 384.168 233.438C384.828 233.438 385.425 233.269 385.961 232.932C386.496 232.587 386.929 232.118 387.259 231.524L389.14 231.964C388.7 232.939 388.036 233.739 387.149 234.362C386.261 234.978 385.268 235.286 384.168 235.286ZM380.582 228.719H387.754C387.695 228.103 387.497 227.542 387.16 227.036C386.822 226.523 386.393 226.112 385.873 225.804C385.352 225.496 384.784 225.342 384.168 225.342C383.552 225.342 382.987 225.492 382.474 225.793C381.96 226.094 381.535 226.501 381.198 227.014C380.868 227.52 380.662 228.088 380.582 228.719ZM398.981 232.096L400.631 232.987C400.132 233.684 399.498 234.241 398.728 234.659C397.965 235.077 397.137 235.286 396.242 235.286C395.23 235.286 394.306 235.026 393.47 234.505C392.641 233.984 391.978 233.288 391.479 232.415C390.988 231.535 390.742 230.563 390.742 229.5C390.742 228.693 390.885 227.942 391.171 227.245C391.457 226.541 391.849 225.925 392.348 225.397C392.854 224.862 393.441 224.444 394.108 224.143C394.775 223.842 395.487 223.692 396.242 223.692C397.137 223.692 397.965 223.901 398.728 224.319C399.498 224.737 400.132 225.298 400.631 226.002L398.981 226.893C398.629 226.46 398.211 226.127 397.727 225.892C397.243 225.657 396.748 225.54 396.242 225.54C395.56 225.54 394.94 225.723 394.383 226.09C393.833 226.449 393.397 226.93 393.074 227.531C392.751 228.132 392.59 228.789 392.59 229.5C392.59 230.211 392.751 230.868 393.074 231.469C393.404 232.063 393.844 232.54 394.394 232.899C394.951 233.258 395.567 233.438 396.242 233.438C396.785 233.438 397.294 233.313 397.771 233.064C398.248 232.815 398.651 232.492 398.981 232.096ZM408.315 225.848H405.818L405.807 235H403.959L403.97 225.848H402.078V224H403.97L403.959 220.546H405.807L405.818 224H408.315V225.848ZM413.534 235.209C412.94 235.187 412.361 235.077 411.796 234.879C411.239 234.674 410.748 234.399 410.322 234.054C409.904 233.702 409.6 233.299 409.409 232.844L410.993 232.162C411.103 232.411 411.301 232.646 411.587 232.866C411.873 233.086 412.203 233.262 412.577 233.394C412.951 233.526 413.329 233.592 413.71 233.592C414.114 233.592 414.491 233.53 414.843 233.405C415.195 233.28 415.481 233.097 415.701 232.855C415.929 232.606 416.042 232.309 416.042 231.964C416.042 231.597 415.918 231.311 415.668 231.106C415.426 230.893 415.118 230.728 414.744 230.611C414.378 230.486 414.004 230.369 413.622 230.259C412.867 230.068 412.192 229.841 411.598 229.577C411.004 229.306 410.535 228.965 410.19 228.554C409.853 228.136 409.684 227.604 409.684 226.959C409.684 226.277 409.871 225.687 410.245 225.188C410.627 224.689 411.125 224.304 411.741 224.033C412.357 223.762 413.017 223.626 413.721 223.626C414.609 223.626 415.419 223.817 416.152 224.198C416.886 224.579 417.432 225.096 417.791 225.749L416.306 226.618C416.182 226.354 415.991 226.123 415.734 225.925C415.478 225.72 415.184 225.558 414.854 225.441C414.524 225.324 414.187 225.261 413.842 225.254C413.417 225.239 413.017 225.294 412.643 225.419C412.277 225.544 411.98 225.734 411.752 225.991C411.532 226.24 411.422 226.552 411.422 226.926C411.422 227.293 411.54 227.571 411.774 227.762C412.016 227.953 412.328 228.107 412.709 228.224C413.098 228.334 413.52 228.462 413.974 228.609C414.642 228.822 415.265 229.067 415.844 229.346C416.424 229.625 416.889 229.973 417.241 230.391C417.601 230.809 417.777 231.326 417.769 231.942C417.769 232.617 417.568 233.207 417.164 233.713C416.761 234.212 416.237 234.593 415.591 234.857C414.953 235.121 414.268 235.238 413.534 235.209ZM432.518 232.096L434.168 232.987C433.669 233.684 433.035 234.241 432.265 234.659C431.502 235.077 430.674 235.286 429.779 235.286C428.767 235.286 427.843 235.026 427.007 234.505C426.178 233.984 425.515 233.288 425.016 232.415C424.525 231.535 424.279 230.563 424.279 229.5C424.279 228.693 424.422 227.942 424.708 227.245C424.994 226.541 425.386 225.925 425.885 225.397C426.391 224.862 426.978 224.444 427.645 224.143C428.312 223.842 429.024 223.692 429.779 223.692C430.674 223.692 431.502 223.901 432.265 224.319C433.035 224.737 433.669 225.298 434.168 226.002L432.518 226.893C432.166 226.46 431.748 226.127 431.264 225.892C430.78 225.657 430.285 225.54 429.779 225.54C429.097 225.54 428.477 225.723 427.92 226.09C427.37 226.449 426.934 226.93 426.611 227.531C426.288 228.132 426.127 228.789 426.127 229.5C426.127 230.211 426.288 230.868 426.611 231.469C426.941 232.063 427.381 232.54 427.931 232.899C428.488 233.258 429.104 233.438 429.779 233.438C430.322 233.438 430.831 233.313 431.308 233.064C431.785 232.815 432.188 232.492 432.518 232.096ZM440.801 235.286C439.789 235.286 438.865 235.026 438.029 234.505C437.2 233.984 436.536 233.288 436.038 232.415C435.546 231.535 435.301 230.563 435.301 229.5C435.301 228.693 435.444 227.942 435.73 227.245C436.016 226.541 436.408 225.925 436.907 225.397C437.413 224.862 437.999 224.444 438.667 224.143C439.334 223.842 440.045 223.692 440.801 223.692C441.813 223.692 442.733 223.952 443.562 224.473C444.398 224.994 445.061 225.694 445.553 226.574C446.051 227.454 446.301 228.429 446.301 229.5C446.301 230.299 446.158 231.047 445.872 231.744C445.586 232.441 445.19 233.057 444.684 233.592C444.185 234.12 443.602 234.534 442.935 234.835C442.275 235.136 441.563 235.286 440.801 235.286ZM440.801 233.438C441.49 233.438 442.11 233.258 442.66 232.899C443.217 232.532 443.653 232.052 443.969 231.458C444.291 230.857 444.453 230.204 444.453 229.5C444.453 228.781 444.288 228.121 443.958 227.52C443.635 226.919 443.199 226.438 442.649 226.079C442.099 225.72 441.483 225.54 440.801 225.54C440.111 225.54 439.492 225.723 438.942 226.09C438.392 226.449 437.955 226.93 437.633 227.531C437.31 228.132 437.149 228.789 437.149 229.5C437.149 230.233 437.314 230.901 437.644 231.502C437.974 232.096 438.417 232.569 438.975 232.921C439.532 233.266 440.141 233.438 440.801 233.438ZM448.121 235V224H449.969V225.375C450.357 224.862 450.845 224.455 451.432 224.154C452.026 223.846 452.671 223.692 453.368 223.692C454.182 223.692 454.926 223.89 455.601 224.286C456.275 224.682 456.807 225.206 457.196 225.859C457.584 225.206 458.112 224.682 458.78 224.286C459.454 223.89 460.195 223.692 461.002 223.692C461.83 223.692 462.582 223.894 463.257 224.297C463.931 224.693 464.467 225.228 464.863 225.903C465.266 226.578 465.468 227.329 465.468 228.158V235H463.62V228.598C463.62 228.055 463.488 227.553 463.224 227.091C462.96 226.629 462.604 226.259 462.157 225.98C461.709 225.701 461.214 225.562 460.672 225.562C460.129 225.562 459.634 225.694 459.187 225.958C458.739 226.215 458.384 226.574 458.12 227.036C457.856 227.491 457.724 228.011 457.724 228.598V235H455.876V228.598C455.876 228.011 455.744 227.491 455.48 227.036C455.216 226.574 454.856 226.215 454.402 225.958C453.954 225.694 453.459 225.562 452.917 225.562C452.381 225.562 451.886 225.701 451.432 225.98C450.984 226.259 450.629 226.629 450.365 227.091C450.101 227.553 449.969 228.055 449.969 228.598V235H448.121ZM469.52 240.5H467.672V224H469.52V225.881C469.894 225.236 470.392 224.715 471.016 224.319C471.639 223.916 472.38 223.714 473.238 223.714C474.037 223.714 474.785 223.864 475.482 224.165C476.186 224.466 476.802 224.884 477.33 225.419C477.858 225.947 478.272 226.559 478.573 227.256C478.873 227.953 479.024 228.701 479.024 229.5C479.024 230.299 478.873 231.051 478.573 231.755C478.272 232.459 477.858 233.079 477.33 233.614C476.802 234.142 476.186 234.556 475.482 234.857C474.785 235.158 474.037 235.308 473.238 235.308C472.38 235.308 471.639 235.11 471.016 234.714C470.392 234.311 469.894 233.786 469.52 233.141V240.5ZM473.216 225.507C472.504 225.507 471.881 225.687 471.346 226.046C470.81 226.405 470.396 226.886 470.103 227.487C469.817 228.088 469.674 228.759 469.674 229.5C469.674 230.233 469.817 230.904 470.103 231.513C470.396 232.122 470.807 232.606 471.335 232.965C471.87 233.324 472.497 233.504 473.216 233.504C473.927 233.504 474.58 233.328 475.174 232.976C475.768 232.617 476.244 232.136 476.604 231.535C476.963 230.926 477.143 230.248 477.143 229.5C477.143 228.767 476.967 228.099 476.615 227.498C476.263 226.889 475.79 226.405 475.196 226.046C474.602 225.687 473.942 225.507 473.216 225.507ZM480.756 235V218.5H482.604V235H480.756ZM489.978 235.286C488.966 235.286 488.042 235.026 487.206 234.505C486.378 233.984 485.714 233.288 485.215 232.415C484.724 231.535 484.478 230.563 484.478 229.5C484.478 228.693 484.621 227.942 484.907 227.245C485.193 226.541 485.586 225.925 486.084 225.397C486.59 224.862 487.177 224.444 487.844 224.143C488.512 223.842 489.223 223.692 489.978 223.692C490.807 223.692 491.566 223.861 492.255 224.198C492.952 224.528 493.546 224.99 494.037 225.584C494.536 226.178 494.906 226.867 495.148 227.652C495.398 228.437 495.489 229.276 495.423 230.171H486.447C486.535 230.794 486.741 231.352 487.063 231.843C487.386 232.327 487.797 232.712 488.295 232.998C488.801 233.284 489.362 233.431 489.978 233.438C490.638 233.438 491.236 233.269 491.771 232.932C492.307 232.587 492.739 232.118 493.069 231.524L494.95 231.964C494.51 232.939 493.847 233.739 492.959 234.362C492.072 234.978 491.078 235.286 489.978 235.286ZM486.392 228.719H493.564C493.506 228.103 493.308 227.542 492.97 227.036C492.633 226.523 492.204 226.112 491.683 225.804C491.163 225.496 490.594 225.342 489.978 225.342C489.362 225.342 488.798 225.492 488.284 225.793C487.771 226.094 487.346 226.501 487.008 227.014C486.678 227.52 486.473 228.088 486.392 228.719ZM502.846 225.848H500.349L500.338 235H498.49L498.501 225.848H496.609V224H498.501L498.49 220.546H500.338L500.349 224H502.846V225.848ZM509.379 235.286C508.367 235.286 507.443 235.026 506.607 234.505C505.778 233.984 505.114 233.288 504.616 232.415C504.124 231.535 503.879 230.563 503.879 229.5C503.879 228.693 504.022 227.942 504.308 227.245C504.594 226.541 504.986 225.925 505.485 225.397C505.991 224.862 506.577 224.444 507.245 224.143C507.912 223.842 508.623 223.692 509.379 223.692C510.207 223.692 510.966 223.861 511.656 224.198C512.352 224.528 512.946 224.99 513.438 225.584C513.936 226.178 514.307 226.867 514.549 227.652C514.798 228.437 514.89 229.276 514.824 230.171H505.848C505.936 230.794 506.141 231.352 506.464 231.843C506.786 232.327 507.197 232.712 507.696 232.998C508.202 233.284 508.763 233.431 509.379 233.438C510.039 233.438 510.636 233.269 511.172 232.932C511.707 232.587 512.14 232.118 512.47 231.524L514.351 231.964C513.911 232.939 513.247 233.739 512.36 234.362C511.472 234.978 510.479 235.286 509.379 235.286ZM505.793 228.719H512.965C512.906 228.103 512.708 227.542 512.371 227.036C512.033 226.523 511.604 226.112 511.084 225.804C510.563 225.496 509.995 225.342 509.379 225.342C508.763 225.342 508.198 225.492 507.685 225.793C507.171 226.094 506.746 226.501 506.409 227.014C506.079 227.52 505.873 228.088 505.793 228.719ZM525.468 218.5H527.316V235H525.468V233.13C525.094 233.775 524.592 234.296 523.961 234.692C523.33 235.088 522.59 235.286 521.739 235.286C520.94 235.286 520.192 235.136 519.495 234.835C518.798 234.534 518.182 234.12 517.647 233.592C517.119 233.057 516.705 232.441 516.404 231.744C516.103 231.047 515.953 230.299 515.953 229.5C515.953 228.701 516.103 227.953 516.404 227.256C516.705 226.552 517.119 225.936 517.647 225.408C518.182 224.873 518.798 224.455 519.495 224.154C520.192 223.853 520.94 223.703 521.739 223.703C522.59 223.703 523.33 223.901 523.961 224.297C524.592 224.693 525.094 225.214 525.468 225.859V218.5ZM521.761 233.493C522.487 233.493 523.114 233.317 523.642 232.965C524.177 232.606 524.588 232.122 524.874 231.513C525.167 230.904 525.314 230.233 525.314 229.5C525.314 228.752 525.167 228.077 524.874 227.476C524.581 226.867 524.166 226.387 523.631 226.035C523.103 225.676 522.48 225.496 521.761 225.496C521.035 225.496 520.375 225.676 519.781 226.035C519.194 226.394 518.725 226.878 518.373 227.487C518.021 228.088 517.845 228.759 517.845 229.5C517.845 230.241 518.025 230.915 518.384 231.524C518.743 232.125 519.22 232.606 519.814 232.965C520.408 233.317 521.057 233.493 521.761 233.493Z" fill="#A9ABBE"/>
<path d="M466.296 106.609L457.372 91.1547C457.185 90.8311 456.877 90.595 456.516 90.4983C456.155 90.4015 455.77 90.452 455.446 90.6386L452.322 92.4445V80.5508C452.322 80.5183 452.322 80.4858 452.322 80.4534C452.322 80.4396 452.322 80.4246 452.316 80.4096L452.308 80.3596C452.308 80.3421 452.299 80.3246 452.296 80.3071L452.286 80.2671L452.267 80.2147C452.267 80.2022 452.258 80.1897 452.255 80.1784L452.232 80.1272C452.226 80.1159 452.221 80.1034 452.215 80.0922L452.188 80.0459C452.181 80.0334 452.175 80.021 452.166 80.0085L452.138 79.9685L452.111 79.931L452.08 79.8947L452.062 79.8735L446.011 73.3137L445.997 73.2999L445.957 73.2599L445.925 73.2312C445.91 73.2187 445.895 73.2062 445.878 73.195C445.868 73.1863 445.857 73.1784 445.846 73.1712L445.791 73.135L445.763 73.1162L445.696 73.0825L445.673 73.0712C445.647 73.06 445.62 73.05 445.591 73.04H445.58C445.55 73.03 445.518 73.0225 445.486 73.015C445.454 73.0083 445.421 73.0033 445.389 73C445.355 73 445.32 73 445.285 73H420.512C420.022 73.0007 419.553 73.1953 419.207 73.5414C418.861 73.8874 418.666 74.3565 418.666 74.8458V94.4978L415.541 92.6919C415.217 92.5052 414.832 92.4547 414.471 92.5515C414.11 92.6482 413.802 92.8844 413.614 93.208L404.687 108.665C404.501 108.989 404.451 109.373 404.548 109.734C404.644 110.095 404.88 110.403 405.204 110.59L412.497 114.805C413.643 115.813 414.637 116.983 415.446 118.278L412.997 122.532C412.592 123.232 412.421 124.044 412.51 124.848C412.598 125.653 412.941 126.408 413.489 127.004C414.036 127.6 414.759 128.006 415.554 128.162C416.348 128.318 417.171 128.217 417.903 127.873C418.079 128.375 418.358 128.835 418.722 129.223C419.086 129.611 419.527 129.918 420.018 130.125C420.508 130.332 421.036 130.433 421.568 130.423C422.1 130.414 422.624 130.292 423.106 130.067C423.42 130.975 424.067 131.73 424.916 132.18C425.765 132.629 426.752 132.741 427.68 132.491C428.076 132.385 428.453 132.216 428.796 131.991C429.098 132.652 429.583 133.212 430.194 133.606C430.805 133.999 431.516 134.208 432.243 134.209C432.886 134.21 433.518 134.047 434.082 133.737C434.645 133.426 435.12 132.978 435.463 132.434L438.88 134.406C439.613 134.83 440.455 135.027 441.3 134.972C442.145 134.917 442.954 134.613 443.626 134.097C444.297 133.582 444.801 132.878 445.072 132.076C445.344 131.275 445.371 130.41 445.151 129.593C445.119 129.468 445.08 129.343 445.037 129.23C445.161 129.208 445.286 129.18 445.412 129.148C445.955 129.003 446.464 128.753 446.91 128.411C447.356 128.07 447.731 127.643 448.012 127.157C448.292 126.67 448.474 126.133 448.547 125.576C448.62 125.018 448.582 124.452 448.435 123.91C448.403 123.785 448.365 123.666 448.323 123.549C448.94 123.442 449.525 123.201 450.038 122.842C450.552 122.484 450.98 122.017 451.293 121.475C451.606 120.933 451.796 120.329 451.85 119.705C451.904 119.082 451.82 118.454 451.605 117.866C452.221 117.759 452.807 117.518 453.32 117.159C453.833 116.801 454.261 116.334 454.574 115.792C454.683 115.602 454.778 115.405 454.858 115.201C455.475 114.901 456.045 114.393 456.601 113.897C456.988 113.55 457.638 112.97 457.891 112.929C458.073 112.934 458.254 112.888 458.412 112.796L465.785 108.537C466.108 108.349 466.343 108.04 466.439 107.679C466.535 107.317 466.484 106.933 466.296 106.609ZM446.276 76.5517L449.038 79.5511H446.276V76.5517ZM420.665 74.9908H444.276V80.5508C444.276 80.816 444.382 81.0703 444.569 81.2578C444.757 81.4453 445.011 81.5506 445.276 81.5506H450.319V93.5992L448.319 94.7515C444.429 94.5915 438.645 95.2139 434.793 96.9872C434.569 97.0924 434.335 97.1761 434.095 97.2372C433.98 97.2696 433.852 97.3071 433.692 97.3621C433.218 97.5123 432.773 97.7422 432.376 98.042C432.336 98.0226 432.294 98.0059 432.251 97.992C429.796 97.1497 426.162 96.2724 422.601 96.7748L420.656 95.65L420.665 74.9908ZM412.714 112.619L406.716 109.153L415.048 94.7177L421.046 98.1832L412.714 112.619ZM418.192 124.73L417.843 125.332C417.725 125.537 417.567 125.717 417.38 125.861C417.192 126.006 416.977 126.112 416.749 126.173C416.52 126.234 416.281 126.25 416.047 126.219C415.812 126.188 415.585 126.112 415.38 125.993C415.175 125.875 414.995 125.717 414.851 125.53C414.707 125.342 414.601 125.127 414.539 124.899C414.478 124.67 414.462 124.431 414.493 124.197C414.524 123.962 414.601 123.735 414.719 123.53L418.329 117.281C418.448 117.076 418.605 116.897 418.793 116.752C418.981 116.608 419.195 116.502 419.424 116.441C419.653 116.379 419.891 116.364 420.126 116.394C420.361 116.425 420.588 116.502 420.793 116.62C420.998 116.739 421.178 116.896 421.322 117.084C421.466 117.272 421.572 117.486 421.633 117.715C421.695 117.944 421.711 118.182 421.68 118.417C421.649 118.652 421.572 118.878 421.454 119.084L418.195 124.73H418.192ZM423.396 126.922L423.047 127.527C422.807 127.939 422.413 128.24 421.952 128.363C421.491 128.487 421 128.423 420.585 128.187C420.172 127.947 419.871 127.553 419.747 127.092C419.623 126.63 419.687 126.139 419.925 125.725L423.186 120.08C423.425 119.665 423.819 119.363 424.281 119.239C424.743 119.115 425.235 119.18 425.649 119.419C426.063 119.657 426.366 120.051 426.49 120.513C426.614 120.975 426.549 121.467 426.31 121.882L423.402 126.919L423.396 126.922ZM428.251 129.729C428.012 130.143 427.618 130.445 427.156 130.569C426.694 130.693 426.202 130.629 425.788 130.39C425.374 130.151 425.071 129.757 424.947 129.295C424.823 128.833 424.888 128.341 425.127 127.927L428.036 122.889C428.274 122.475 428.668 122.172 429.129 122.048C429.59 121.923 430.082 121.987 430.497 122.225C430.911 122.464 431.214 122.857 431.338 123.318C431.463 123.78 431.399 124.272 431.16 124.686L428.953 128.509L428.251 129.729ZM431.343 131.978C430.931 131.738 430.631 131.345 430.507 130.884C430.384 130.424 430.447 129.933 430.683 129.519L432.89 125.696C433.008 125.491 433.166 125.311 433.354 125.167C433.542 125.022 433.756 124.917 433.985 124.855C434.213 124.794 434.452 124.778 434.687 124.809C434.922 124.84 435.148 124.916 435.353 125.035C435.558 125.153 435.738 125.311 435.882 125.499C436.027 125.686 436.133 125.901 436.194 126.129C436.255 126.358 436.271 126.597 436.24 126.832C436.209 127.066 436.133 127.293 436.014 127.498L434.235 130.581L433.81 131.318C433.569 131.732 433.173 132.032 432.711 132.154C432.248 132.276 431.756 132.209 431.343 131.968V131.978ZM442.99 131.853C442.688 132.377 442.19 132.759 441.605 132.916C441.021 133.072 440.399 132.991 439.875 132.689L436.463 130.719L437.741 128.487C438.095 127.874 438.27 127.175 438.248 126.468L442.153 128.718C442.677 129.021 443.06 129.52 443.217 130.106C443.374 130.691 443.292 131.314 442.99 131.84V131.853ZM452.833 114.806C452.53 115.329 452.032 115.711 451.448 115.867C450.864 116.024 450.242 115.942 449.718 115.641L441.428 110.855C441.314 110.786 441.188 110.739 441.056 110.719C440.924 110.699 440.789 110.706 440.66 110.739C440.53 110.771 440.409 110.83 440.302 110.91C440.196 110.991 440.107 111.092 440.04 111.208C439.973 111.323 439.93 111.451 439.913 111.584C439.897 111.716 439.907 111.85 439.943 111.979C439.979 112.107 440.041 112.227 440.124 112.332C440.208 112.436 440.311 112.523 440.428 112.586L448.718 117.356C449.229 117.665 449.599 118.162 449.748 118.74C449.896 119.319 449.813 119.932 449.515 120.45C449.216 120.967 448.727 121.347 448.152 121.507C447.577 121.668 446.962 121.597 446.438 121.309L440.072 117.634C439.958 117.568 439.833 117.526 439.703 117.509C439.573 117.491 439.44 117.5 439.313 117.534C439.187 117.568 439.068 117.627 438.963 117.707C438.859 117.787 438.772 117.886 438.706 118C438.641 118.114 438.598 118.239 438.581 118.37C438.564 118.5 438.572 118.632 438.606 118.759C438.64 118.886 438.699 119.005 438.779 119.109C438.859 119.213 438.959 119.3 439.072 119.366L445.43 123.036C445.954 123.339 446.336 123.837 446.492 124.422C446.649 125.006 446.567 125.629 446.264 126.153C445.961 126.677 445.463 127.059 444.879 127.215C444.294 127.372 443.672 127.289 443.148 126.987L438.875 124.52C438.692 124.416 438.482 124.372 438.273 124.394C438.064 124.417 437.868 124.504 437.711 124.645C437.29 123.932 436.646 123.377 435.878 123.064C435.111 122.752 434.262 122.7 433.462 122.916L433.301 122.963C433.289 122.909 433.276 122.854 433.261 122.8C433.133 122.319 432.911 121.867 432.609 121.472C432.306 121.076 431.928 120.744 431.497 120.495C431.066 120.245 430.589 120.083 430.095 120.018C429.602 119.953 429.1 119.986 428.618 120.115C428.563 120.13 428.511 120.145 428.457 120.162C428.445 120.107 428.432 120.053 428.417 119.998C428.289 119.516 428.067 119.064 427.763 118.668C427.46 118.272 427.081 117.939 426.649 117.69C426.217 117.44 425.74 117.279 425.245 117.214C424.75 117.149 424.248 117.183 423.766 117.313L423.606 117.359C423.44 116.612 423.052 115.933 422.494 115.41C421.935 114.887 421.232 114.545 420.476 114.428C419.719 114.311 418.946 114.426 418.255 114.756C417.565 115.086 416.991 115.617 416.607 116.279L416.565 116.352C415.912 115.428 415.173 114.568 414.358 113.784L423.04 98.7356C425.914 98.3607 428.887 99.008 431.067 99.7041C430.976 99.9088 430.901 100.12 430.843 100.336L429.468 105.488C429.435 105.613 429.402 105.727 429.372 105.838C429.165 106.576 428.985 107.212 429.148 108.262C429.296 109.229 429.645 110.154 430.173 110.977C430.501 111.46 431.029 112.101 431.835 112.11H431.85C432.703 112.11 433.19 111.422 433.581 110.867C433.625 110.804 433.67 110.742 433.716 110.678C434.546 109.507 435.315 108.295 436.023 107.046C436.729 105.838 437.46 104.587 437.923 104.476L439.061 104.204L452.003 111.676C452.526 111.98 452.907 112.479 453.062 113.063C453.218 113.647 453.135 114.269 452.833 114.792V114.806ZM455.011 112.64C454.874 112.08 454.625 111.554 454.279 111.093C453.933 110.632 453.497 110.246 452.998 109.958L439.711 102.272C439.489 102.145 439.227 102.107 438.979 102.166L437.453 102.53C436.159 102.838 435.376 104.181 434.291 106.036C433.617 107.229 432.882 108.387 432.09 109.506C432.04 109.574 431.991 109.643 431.944 109.711L431.833 109.868L431.823 109.853C431.461 109.274 431.222 108.628 431.119 107.954C431.023 107.335 431.119 107.015 431.292 106.376C431.324 106.259 431.359 106.136 431.394 106.001L432.769 100.851C432.855 100.526 433.014 100.223 433.232 99.9666C433.252 99.9466 433.27 99.9253 433.289 99.9041C433.56 99.6075 433.905 99.3877 434.288 99.2667C434.427 99.223 434.538 99.1905 434.64 99.1617C434.977 99.0713 435.306 98.9508 435.622 98.8018C439.306 97.1109 444.81 96.651 447.978 96.736L456.46 111.427C456.038 111.723 455.637 112.049 455.26 112.401C455.18 112.483 455.096 112.551 455.011 112.626V112.64ZM458.272 110.565L449.935 96.1299L455.934 92.6644L464.268 107.1L458.272 110.565ZM429.672 91.5697C429.937 91.5697 430.191 91.4643 430.379 91.2768C430.566 91.0893 430.672 90.835 430.672 90.5699V83.8714C430.672 83.6062 430.566 83.3519 430.379 83.1644C430.191 82.9769 429.937 82.8716 429.672 82.8716H422.968C422.703 82.8716 422.449 82.9769 422.262 83.1644C422.074 83.3519 421.969 83.6062 421.969 83.8714V90.5724C421.969 90.8375 422.074 91.0918 422.262 91.2793C422.449 91.4668 422.703 91.5722 422.968 91.5722L429.672 91.5697ZM423.971 84.8686H428.672V89.5701H423.968L423.971 84.8686ZM428.231 87.0044L426.709 88.7503C426.619 88.8534 426.508 88.937 426.384 88.9957C426.261 89.0543 426.126 89.087 425.989 89.0915H425.955C425.823 89.0922 425.693 89.0669 425.571 89.0169C425.449 88.9669 425.338 88.8933 425.244 88.8003L424.453 88.0092C424.36 87.9162 424.287 87.8059 424.236 87.6844C424.186 87.563 424.16 87.4328 424.16 87.3014C424.16 87.17 424.186 87.0399 424.237 86.9185C424.287 86.7971 424.361 86.6868 424.454 86.5939C424.547 86.501 424.657 86.4273 424.779 86.3771C424.9 86.3268 425.03 86.301 425.162 86.3011C425.293 86.3011 425.423 86.3271 425.544 86.3774C425.666 86.4278 425.776 86.5015 425.869 86.5945L425.904 86.6295L426.72 85.6935C426.806 85.5916 426.91 85.5077 427.028 85.4468C427.147 85.386 427.276 85.3492 427.408 85.3388C427.541 85.3285 427.674 85.3446 427.8 85.3863C427.926 85.428 428.043 85.4945 428.143 85.5818C428.244 85.6692 428.325 85.7756 428.384 85.8949C428.442 86.0142 428.477 86.144 428.485 86.2767C428.492 86.4094 428.474 86.5424 428.429 86.6677C428.385 86.7931 428.317 86.9084 428.227 87.0069L428.231 87.0044ZM433.584 90.9635C433.584 90.6984 433.689 90.4441 433.876 90.2566C434.064 90.0691 434.318 89.9638 434.583 89.9638H448.018C448.283 89.9638 448.537 90.0691 448.725 90.2566C448.912 90.4441 449.018 90.6984 449.018 90.9635C449.018 91.2287 448.912 91.483 448.725 91.6705C448.537 91.858 448.283 91.9633 448.018 91.9633H434.581C434.316 91.9633 434.062 91.8583 433.875 91.6714C433.687 91.4844 433.582 91.2308 433.581 90.966L433.584 90.9635ZM433.584 83.8689C433.584 83.6037 433.689 83.3494 433.876 83.1619C434.064 82.9744 434.318 82.8691 434.583 82.8691H440.822C441.087 82.8691 441.341 82.9744 441.529 83.1619C441.716 83.3494 441.822 83.6037 441.822 83.8689C441.822 84.134 441.716 84.3883 441.529 84.5758C441.341 84.7633 441.087 84.8686 440.822 84.8686H434.581C434.316 84.8686 434.062 84.7636 433.875 84.5767C433.687 84.3897 433.582 84.1361 433.581 83.8714L433.584 83.8689ZM433.584 87.4156C433.584 87.1504 433.689 86.8961 433.876 86.7086C434.064 86.5211 434.318 86.4158 434.583 86.4158H443.456C443.722 86.4158 443.976 86.5211 444.163 86.7086C444.351 86.8961 444.456 87.1504 444.456 87.4156C444.456 87.6807 444.351 87.935 444.163 88.1225C443.976 88.31 443.722 88.4153 443.456 88.4153H434.583C434.452 88.4157 434.322 88.3901 434.201 88.3402C434.079 88.2903 433.969 88.2169 433.876 88.1243C433.783 88.0317 433.709 87.9217 433.658 87.8005C433.608 87.6793 433.581 87.5494 433.581 87.4181L433.584 87.4156Z" fill="#2378DA"/>
<rect x="280" y="331" width="312" height="312" rx="156" fill="#0F1930"/>
<path d="M410.78 525.624C408.748 525.624 406.916 525.144 405.284 524.184C403.652 523.224 402.356 521.936 401.396 520.32C400.436 518.688 399.956 516.88 399.956 514.896H405.812C405.812 515.792 406.02 516.608 406.436 517.344C406.868 518.08 407.46 518.672 408.212 519.12C408.964 519.552 409.82 519.768 410.78 519.768C411.66 519.768 412.476 519.552 413.228 519.12C413.996 518.672 414.612 518.08 415.076 517.344C415.54 516.608 415.772 515.792 415.772 514.896C415.772 513.728 415.46 512.76 414.836 511.992C414.212 511.208 413.34 510.624 412.22 510.24C411.116 509.856 409.828 509.664 408.356 509.664V505.152C410.34 505.152 411.908 504.776 413.06 504.024C414.228 503.272 414.812 502.168 414.812 500.712C414.812 499.96 414.62 499.272 414.236 498.648C413.852 498.024 413.34 497.528 412.7 497.16C412.076 496.776 411.388 496.584 410.636 496.584C409.868 496.584 409.124 496.776 408.404 497.16C407.684 497.528 407.092 498.024 406.628 498.648C406.18 499.272 405.956 499.96 405.956 500.712H400.1C400.1 499.336 400.38 498.048 400.94 496.848C401.5 495.632 402.268 494.568 403.244 493.656C404.236 492.744 405.356 492.032 406.604 491.52C407.868 490.992 409.188 490.728 410.564 490.728C412.372 490.728 414.044 491.176 415.58 492.072C417.116 492.968 418.348 494.168 419.276 495.672C420.204 497.176 420.668 498.856 420.668 500.712C420.668 502.008 420.364 503.28 419.756 504.528C419.148 505.776 418.284 506.656 417.164 507.168C418.14 507.52 418.956 508.112 419.612 508.944C420.268 509.76 420.764 510.696 421.1 511.752C421.452 512.792 421.628 513.84 421.628 514.896C421.628 516.864 421.132 518.664 420.14 520.296C419.148 521.912 417.828 523.208 416.18 524.184C414.548 525.144 412.748 525.624 410.78 525.624ZM435.342 525.624C433.31 525.624 431.478 525.144 429.846 524.184C428.214 523.224 426.918 521.936 425.958 520.32C424.998 518.688 424.518 516.88 424.518 514.896H430.374C430.374 515.792 430.582 516.608 430.998 517.344C431.43 518.08 432.022 518.672 432.774 519.12C433.526 519.552 434.382 519.768 435.342 519.768C436.222 519.768 437.038 519.552 437.79 519.12C438.558 518.672 439.174 518.08 439.638 517.344C440.102 516.608 440.334 515.792 440.334 514.896C440.334 513.728 440.022 512.76 439.398 511.992C438.774 511.208 437.902 510.624 436.782 510.24C435.678 509.856 434.39 509.664 432.918 509.664V505.152C434.902 505.152 436.47 504.776 437.622 504.024C438.79 503.272 439.374 502.168 439.374 500.712C439.374 499.96 439.182 499.272 438.798 498.648C438.414 498.024 437.902 497.528 437.262 497.16C436.638 496.776 435.95 496.584 435.198 496.584C434.43 496.584 433.686 496.776 432.966 497.16C432.246 497.528 431.654 498.024 431.19 498.648C430.742 499.272 430.518 499.96 430.518 500.712H424.662C424.662 499.336 424.942 498.048 425.502 496.848C426.062 495.632 426.83 494.568 427.806 493.656C428.798 492.744 429.918 492.032 431.166 491.52C432.43 490.992 433.75 490.728 435.126 490.728C436.934 490.728 438.606 491.176 440.142 492.072C441.678 492.968 442.91 494.168 443.838 495.672C444.766 497.176 445.23 498.856 445.23 500.712C445.23 502.008 444.926 503.28 444.318 504.528C443.71 505.776 442.846 506.656 441.726 507.168C442.702 507.52 443.518 508.112 444.174 508.944C444.83 509.76 445.326 510.696 445.662 511.752C446.014 512.792 446.19 513.84 446.19 514.896C446.19 516.864 445.694 518.664 444.702 520.296C443.71 521.912 442.39 523.208 440.742 524.184C439.11 525.144 437.31 525.624 435.342 525.624Z" fill="white"/>
<path d="M458.633 522.6V513.528H449.561V507.672H458.633V498.6H464.489V507.672H473.561V513.528H464.489V522.6H458.633Z" fill="#2378DA"/>
<path d="M376.53 553.6V555.448H371.404V569H369.556V555.448H364.441V553.6H376.53ZM381.881 569.286C380.869 569.286 379.945 569.026 379.109 568.505C378.28 567.984 377.616 567.288 377.118 566.415C376.626 565.535 376.381 564.563 376.381 563.5C376.381 562.693 376.524 561.942 376.81 561.245C377.096 560.541 377.488 559.925 377.987 559.397C378.493 558.862 379.079 558.444 379.747 558.143C380.414 557.842 381.125 557.692 381.881 557.692C382.709 557.692 383.468 557.861 384.158 558.198C384.854 558.528 385.448 558.99 385.94 559.584C386.438 560.178 386.809 560.867 387.051 561.652C387.3 562.437 387.392 563.276 387.326 564.171H378.35C378.438 564.794 378.643 565.352 378.966 565.843C379.288 566.327 379.699 566.712 380.198 566.998C380.704 567.284 381.265 567.431 381.881 567.438C382.541 567.438 383.138 567.269 383.674 566.932C384.209 566.587 384.642 566.118 384.972 565.524L386.853 565.964C386.413 566.939 385.749 567.739 384.862 568.362C383.974 568.978 382.981 569.286 381.881 569.286ZM378.295 562.719H385.467C385.408 562.103 385.21 561.542 384.873 561.036C384.535 560.523 384.106 560.112 383.586 559.804C383.065 559.496 382.497 559.342 381.881 559.342C381.265 559.342 380.7 559.492 380.187 559.793C379.673 560.094 379.248 560.501 378.911 561.014C378.581 561.52 378.375 562.088 378.295 562.719ZM397.959 558H399.807V569H397.959L397.882 567.141C397.537 567.779 397.061 568.296 396.452 568.692C395.851 569.088 395.132 569.286 394.296 569.286C393.489 569.286 392.734 569.136 392.03 568.835C391.326 568.527 390.703 568.105 390.16 567.57C389.625 567.027 389.207 566.404 388.906 565.7C388.605 564.996 388.455 564.237 388.455 563.423C388.455 562.638 388.602 561.898 388.895 561.201C389.188 560.504 389.595 559.896 390.116 559.375C390.644 558.847 391.253 558.436 391.942 558.143C392.631 557.842 393.372 557.692 394.164 557.692C395.029 557.692 395.788 557.897 396.441 558.308C397.094 558.711 397.622 559.236 398.025 559.881L397.959 558ZM394.263 567.493C394.989 567.493 395.616 567.317 396.144 566.965C396.679 566.606 397.09 566.122 397.376 565.513C397.669 564.904 397.816 564.233 397.816 563.5C397.816 562.752 397.669 562.077 397.376 561.476C397.083 560.867 396.668 560.387 396.133 560.035C395.605 559.676 394.982 559.496 394.263 559.496C393.537 559.496 392.877 559.676 392.283 560.035C391.689 560.394 391.216 560.878 390.864 561.487C390.519 562.088 390.347 562.759 390.347 563.5C390.347 564.241 390.527 564.915 390.886 565.524C391.245 566.125 391.722 566.606 392.316 566.965C392.91 567.317 393.559 567.493 394.263 567.493ZM402.006 569V558H403.854V559.375C404.242 558.862 404.73 558.455 405.317 558.154C405.911 557.846 406.556 557.692 407.253 557.692C408.067 557.692 408.811 557.89 409.486 558.286C410.16 558.682 410.692 559.206 411.081 559.859C411.469 559.206 411.997 558.682 412.665 558.286C413.339 557.89 414.08 557.692 414.887 557.692C415.715 557.692 416.467 557.894 417.142 558.297C417.816 558.693 418.352 559.228 418.748 559.903C419.151 560.578 419.353 561.329 419.353 562.158V569H417.505V562.598C417.505 562.055 417.373 561.553 417.109 561.091C416.845 560.629 416.489 560.259 416.042 559.98C415.594 559.701 415.099 559.562 414.557 559.562C414.014 559.562 413.519 559.694 413.072 559.958C412.624 560.215 412.269 560.574 412.005 561.036C411.741 561.491 411.609 562.011 411.609 562.598V569H409.761V562.598C409.761 562.011 409.629 561.491 409.365 561.036C409.101 560.574 408.741 560.215 408.287 559.958C407.839 559.694 407.344 559.562 406.802 559.562C406.266 559.562 405.771 559.701 405.317 559.98C404.869 560.259 404.514 560.629 404.25 561.091C403.986 561.553 403.854 562.055 403.854 562.598V569H402.006ZM426.841 569L429.822 553.6H431.241L435.399 564.534L439.546 553.6H440.965L443.957 569H442.076L439.909 557.824L436.004 568.164H434.783L430.878 557.824L428.722 569H426.841ZM450.48 569.286C449.468 569.286 448.544 569.026 447.708 568.505C446.88 567.984 446.216 567.288 445.717 566.415C445.226 565.535 444.98 564.563 444.98 563.5C444.98 562.693 445.123 561.942 445.409 561.245C445.695 560.541 446.088 559.925 446.586 559.397C447.092 558.862 447.679 558.444 448.346 558.143C449.014 557.842 449.725 557.692 450.48 557.692C451.309 557.692 452.068 557.861 452.757 558.198C453.454 558.528 454.048 558.99 454.539 559.584C455.038 560.178 455.408 560.867 455.65 561.652C455.9 562.437 455.991 563.276 455.925 564.171H446.949C447.037 564.794 447.243 565.352 447.565 565.843C447.888 566.327 448.299 566.712 448.797 566.998C449.303 567.284 449.864 567.431 450.48 567.438C451.14 567.438 451.738 567.269 452.273 566.932C452.809 566.587 453.241 566.118 453.571 565.524L455.452 565.964C455.012 566.939 454.349 567.739 453.461 568.362C452.574 568.978 451.58 569.286 450.48 569.286ZM446.894 562.719H454.066C454.008 562.103 453.81 561.542 453.472 561.036C453.135 560.523 452.706 560.112 452.185 559.804C451.665 559.496 451.096 559.342 450.48 559.342C449.864 559.342 449.3 559.492 448.786 559.793C448.273 560.094 447.848 560.501 447.51 561.014C447.18 561.52 446.975 562.088 446.894 562.719ZM457.779 569V558H459.627V559.375C460.016 558.862 460.503 558.455 461.09 558.154C461.684 557.846 462.329 557.692 463.026 557.692C463.84 557.692 464.584 557.89 465.259 558.286C465.934 558.682 466.465 559.206 466.854 559.859C467.243 559.206 467.771 558.682 468.438 558.286C469.113 557.89 469.853 557.692 470.66 557.692C471.489 557.692 472.24 557.894 472.915 558.297C473.59 558.693 474.125 559.228 474.521 559.903C474.924 560.578 475.126 561.329 475.126 562.158V569H473.278V562.598C473.278 562.055 473.146 561.553 472.882 561.091C472.618 560.629 472.262 560.259 471.815 559.98C471.368 559.701 470.873 559.562 470.33 559.562C469.787 559.562 469.292 559.694 468.845 559.958C468.398 560.215 468.042 560.574 467.778 561.036C467.514 561.491 467.382 562.011 467.382 562.598V569H465.534V562.598C465.534 562.011 465.402 561.491 465.138 561.036C464.874 560.574 464.515 560.215 464.06 559.958C463.613 559.694 463.118 559.562 462.575 559.562C462.04 559.562 461.545 559.701 461.09 559.98C460.643 560.259 460.287 560.629 460.023 561.091C459.759 561.553 459.627 562.055 459.627 562.598V569H457.779ZM483.025 557.692C484.095 557.692 485.067 557.952 485.94 558.473C486.82 558.994 487.52 559.694 488.041 560.574C488.561 561.447 488.822 562.418 488.822 563.489C488.822 564.288 488.671 565.04 488.371 565.744C488.07 566.441 487.652 567.057 487.117 567.592C486.589 568.12 485.973 568.534 485.269 568.835C484.572 569.136 483.824 569.286 483.025 569.286C482.174 569.286 481.433 569.088 480.803 568.692C480.179 568.289 479.681 567.764 479.307 567.119V569H477.459V552.5H479.307V559.859C479.681 559.214 480.179 558.693 480.803 558.297C481.433 557.894 482.174 557.692 483.025 557.692ZM483.003 567.482C483.729 567.482 484.389 567.302 484.983 566.943C485.577 566.584 486.05 566.103 486.402 565.502C486.754 564.893 486.93 564.222 486.93 563.489C486.93 562.741 486.75 562.066 486.391 561.465C486.031 560.856 485.555 560.376 484.961 560.024C484.367 559.665 483.714 559.485 483.003 559.485C482.284 559.485 481.657 559.665 481.122 560.024C480.594 560.383 480.183 560.867 479.89 561.476C479.604 562.085 479.461 562.756 479.461 563.489C479.461 564.23 479.604 564.904 479.89 565.513C480.183 566.114 480.597 566.595 481.133 566.954C481.668 567.306 482.291 567.482 483.003 567.482ZM495.426 569.286C494.414 569.286 493.49 569.026 492.654 568.505C491.825 567.984 491.161 567.288 490.663 566.415C490.171 565.535 489.926 564.563 489.926 563.5C489.926 562.693 490.069 561.942 490.355 561.245C490.641 560.541 491.033 559.925 491.532 559.397C492.038 558.862 492.624 558.444 493.292 558.143C493.959 557.842 494.67 557.692 495.426 557.692C496.254 557.692 497.013 557.861 497.703 558.198C498.399 558.528 498.993 558.99 499.485 559.584C499.983 560.178 500.354 560.867 500.596 561.652C500.845 562.437 500.937 563.276 500.871 564.171H491.895C491.983 564.794 492.188 565.352 492.511 565.843C492.833 566.327 493.244 566.712 493.743 566.998C494.249 567.284 494.81 567.431 495.426 567.438C496.086 567.438 496.683 567.269 497.219 566.932C497.754 566.587 498.187 566.118 498.517 565.524L500.398 565.964C499.958 566.939 499.294 567.739 498.407 568.362C497.519 568.978 496.526 569.286 495.426 569.286ZM491.84 562.719H499.012C498.953 562.103 498.755 561.542 498.418 561.036C498.08 560.523 497.651 560.112 497.131 559.804C496.61 559.496 496.042 559.342 495.426 559.342C494.81 559.342 494.245 559.492 493.732 559.793C493.218 560.094 492.793 560.501 492.456 561.014C492.126 561.52 491.92 562.088 491.84 562.719ZM502.724 569V558H504.572V559.375C504.961 558.862 505.452 558.455 506.046 558.154C506.64 557.846 507.286 557.692 507.982 557.692C508.408 557.692 508.818 557.747 509.214 557.857L508.466 559.705C508.166 559.61 507.872 559.562 507.586 559.562C507.036 559.562 506.53 559.698 506.068 559.969C505.614 560.233 505.251 560.592 504.979 561.047C504.708 561.502 504.572 562.008 504.572 562.565V569H502.724Z" fill="#A9ABBE"/>
<path d="M470.833 429.656H468.357L464.666 431.598C464.25 431.369 463.818 431.175 463.352 431.058L458.709 429.896V429.368C460.763 427.934 462.016 425.566 462.016 423.043V421.116C462.016 416.835 458.661 413.252 454.538 413.127C454.329 413.122 454.122 413.129 453.915 413.139L455.119 410.321L449.283 404.486L445.842 406.725C444.535 405.989 443.153 405.416 441.717 405.014L440.867 401H432.467L431.618 405.015C430.182 405.417 428.798 405.99 427.492 406.727L424.052 404.487L418.22 410.319L419.404 413.139C419.358 413.137 419.315 413.129 419.27 413.128C417.159 413.067 415.172 413.837 413.661 415.303C412.149 416.768 411.317 418.733 411.317 420.839V423.043C411.317 425.566 412.57 427.933 414.624 429.367V429.896L411.595 430.653L406.105 427.452H402.5V450.29L413.343 453.903H415.455L415.718 452.98L419.042 454.975C419.096 456.782 420.546 458.236 422.351 458.299C422.415 460.097 423.86 461.542 425.658 461.606C425.721 463.404 427.166 464.849 428.964 464.912C429.03 466.752 430.537 468.231 432.392 468.231C433.08 468.231 433.756 468.016 434.324 467.634L435.3 468.496C435.912 469.035 436.7 469.333 437.518 469.333H437.721C439.556 469.333 441.048 467.851 441.071 466.023C442.885 465.999 444.354 464.53 444.377 462.716C446.193 462.693 447.663 461.222 447.684 459.406C449.516 459.363 450.995 457.867 450.995 456.025C450.995 455.914 450.989 455.805 450.978 455.694L470.833 445.767V429.656ZM459.812 421.116V423.043C459.812 424.999 458.755 426.827 457.053 427.812L456.502 428.131L456.506 431.619L462.013 432.994L449.892 439.373V436.404C449.892 434.923 449.294 433.566 448.314 432.564L452.097 431.619V428.128L451.547 427.81C449.846 426.827 448.79 424.999 448.79 423.043V420.839C448.79 419.336 449.384 417.93 450.465 416.883C451.544 415.837 452.975 415.273 454.472 415.331C457.416 415.419 459.812 418.015 459.812 421.116ZM438.329 438.507L433.339 436.912C431.066 436.184 428.605 436.075 426.277 436.591L425.645 436.731V436.404C425.645 434.885 426.676 433.565 428.149 433.196L434.462 431.619V428.128L433.912 427.81C432.212 426.827 431.156 424.999 431.156 423.043V420.839C431.156 419.336 431.75 417.93 432.83 416.883C433.909 415.837 435.35 415.273 436.837 415.331C439.782 415.419 442.177 418.015 442.177 421.116V423.043C442.177 424.999 441.12 426.827 439.419 427.812L438.868 428.131L438.872 431.619L445.184 433.196C446.658 433.565 447.688 434.885 447.688 436.404V440.534L447.416 440.677H446.74L439.965 438.741C439.431 438.59 438.881 438.528 438.329 438.507ZM425.892 417.496C427.962 413.485 432.128 410.919 436.667 410.919C441.162 410.919 445.311 413.451 447.396 417.407C446.871 418.459 446.586 419.624 446.586 420.839V423.043C446.586 425.566 447.838 427.933 449.892 429.367V429.896L445.484 431L441.074 429.896V429.368C443.128 427.934 444.382 425.566 444.382 423.043V421.116C444.382 416.835 441.027 413.252 436.903 413.127C434.794 413.065 432.805 413.836 431.295 415.302C429.784 416.768 428.952 418.733 428.952 420.839V423.043C428.952 425.566 430.204 427.933 432.258 429.367V429.896L427.849 431L423.44 429.896V429.368C425.494 427.934 426.747 425.566 426.747 423.043V421.116C426.747 419.819 426.435 418.588 425.892 417.496ZM420.823 410.83L424.344 407.309L427.444 409.326L428.037 408.962C429.523 408.052 431.128 407.385 432.809 406.983L433.487 406.82L434.254 403.204H439.08L439.845 406.819L440.523 406.981C442.204 407.384 443.81 408.05 445.296 408.961L445.889 409.325L448.988 407.308L452.505 410.826L451.255 413.753C450.404 414.119 449.615 414.634 448.928 415.299C448.883 415.344 448.844 415.391 448.8 415.436C446.203 411.308 441.613 408.715 436.667 408.715C431.685 408.715 427.082 411.333 424.491 415.502C423.798 414.777 422.974 414.189 422.06 413.779L420.823 410.83ZM416.828 431.619V428.128L416.278 427.81C414.577 426.827 413.522 424.999 413.522 423.043V420.839C413.522 419.336 414.116 417.93 415.196 416.883C416.275 415.837 417.709 415.273 419.203 415.331C422.147 415.419 424.543 418.015 424.543 421.116V423.043C424.543 424.999 423.486 426.827 421.784 427.812L421.233 428.131L421.238 431.619L425.019 432.564C424.039 433.566 423.441 434.923 423.441 436.404V437.221L420.003 437.985L420.092 437.673L420.134 435.636L414.322 432.245L416.828 431.619ZM404.704 429.656H405.508L413.434 434.279L409.435 450.277L404.704 448.7V429.656ZM413.7 451.699L411.531 450.976L415.416 435.436L417.93 436.902V437.217L413.793 451.699H413.7ZM421.237 454.872C421.237 454.547 421.368 454.228 421.598 453.998L423.536 452.061C423.766 451.83 424.085 451.699 424.41 451.699C425.091 451.699 425.645 452.253 425.645 452.935C425.645 453.26 425.514 453.578 425.284 453.809L423.346 455.746C423.116 455.976 422.797 456.108 422.472 456.108C421.791 456.108 421.237 455.553 421.237 454.872ZM424.543 458.178C424.543 457.853 424.674 457.535 424.905 457.304L426.842 455.367C427.072 455.137 427.391 455.005 427.716 455.005C428.397 455.005 428.952 455.56 428.952 456.241C428.952 456.566 428.82 456.885 428.59 457.115L426.653 459.052C426.422 459.283 426.104 459.414 425.779 459.414C425.097 459.414 424.543 458.86 424.543 458.178ZM427.849 461.485C427.849 461.16 427.981 460.841 428.211 460.611L430.148 458.674C430.379 458.443 430.697 458.312 431.022 458.312C431.704 458.312 432.258 458.866 432.258 459.547C432.258 459.873 432.127 460.191 431.896 460.421L429.959 462.359C429.729 462.589 429.41 462.72 429.085 462.72C428.404 462.72 427.849 462.166 427.849 461.485ZM432.392 466.027C431.71 466.027 431.156 465.473 431.156 464.791C431.156 464.466 431.287 464.148 431.518 463.917L433.455 461.98C433.685 461.75 434.004 461.618 434.329 461.618C435.01 461.618 435.565 462.173 435.565 462.854C435.565 463.179 435.433 463.498 435.203 463.728L433.266 465.665C433.035 465.896 432.717 466.027 432.392 466.027ZM437.721 467.129H437.518C437.237 467.129 436.968 467.027 436.758 466.841L435.934 466.114L436.761 465.286C437.057 464.991 437.286 464.64 437.456 464.262L438.458 465.096C438.72 465.315 438.871 465.637 438.871 465.98C438.871 466.614 438.355 467.129 437.721 467.129ZM447.605 457.21H447.415C447.138 457.21 446.868 457.112 446.657 456.934L440.68 451.954L439.268 453.648L445.072 458.484C445.333 458.702 445.484 459.024 445.484 459.367C445.484 460.001 444.968 460.516 444.334 460.516H444.094C443.826 460.516 443.565 460.421 443.359 460.249L437.372 455.261L435.96 456.955L441.764 461.792C442.026 462.008 442.177 462.33 442.177 462.673C442.177 463.307 441.662 463.823 441.028 463.823C440.605 463.823 440.193 463.672 439.868 463.403L437.408 461.352C436.866 460.245 435.753 459.473 434.449 459.426C434.385 457.628 432.94 456.183 431.142 456.12C431.079 454.322 429.634 452.877 427.836 452.813C427.771 450.974 426.265 449.495 424.41 449.495C423.504 449.495 422.617 449.862 421.977 450.502L420.04 452.439C419.924 452.555 419.828 452.686 419.731 452.817L416.345 450.785L419.313 440.398L426.754 438.743C428.706 438.307 430.764 438.402 432.667 439.011L434.291 439.53L428.786 442.282C427.529 442.912 426.747 444.178 426.747 445.584V445.802C426.747 447.838 428.404 449.495 430.44 449.495C431.109 449.495 431.767 449.313 432.339 448.968L436.443 446.507C437.267 446.013 438.374 446.121 439.086 446.761L448.398 455.142C448.647 455.368 448.79 455.689 448.79 456.025C448.79 456.679 448.259 457.21 447.605 457.21ZM468.629 444.405L450.061 453.69C450.001 453.626 449.938 453.565 449.872 453.506L440.561 445.125C439.745 444.389 438.69 443.984 437.591 443.984C436.788 443.984 435.999 444.202 435.308 444.617L431.202 447.079C430.972 447.218 430.709 447.29 430.44 447.29C429.618 447.29 428.952 446.624 428.952 445.802V445.584C428.952 445.017 429.267 444.508 429.774 444.254L435.922 441.18C436.974 440.653 438.223 440.535 439.357 440.861L446.283 442.84L447.961 442.882L468.629 432.003V444.405Z" fill="#2378DA"/>
</svg>
