<svg width="60" height="60" viewBox="0 0 60 60" fill="none" xmlns="http://www.w3.org/2000/svg">
<rect width="60" height="60" rx="30" fill="#041222"/>
<path d="M16.1057 29.3966C17.2962 29.3966 18.2648 28.4288 18.2648 27.2393C18.2648 26.9402 18.2034 26.6552 18.0928 26.3959L23.3376 22.2616C23.7097 22.5665 24.1851 22.7498 24.7027 22.7498C25.3767 22.7498 25.9793 22.4389 26.3752 21.9531L31.2084 24.3787C31.1654 24.5485 31.1424 24.726 31.1424 24.9089C31.1424 26.0984 32.1101 27.0662 33.2996 27.0662C34.4891 27.0662 35.4569 26.0984 35.4569 24.9089C35.4569 24.5113 35.3484 24.1387 35.1603 23.8183L41.7159 17.6329V19.5534C41.7159 19.8102 41.9241 20.0183 42.1808 20.0183C42.4375 20.0183 42.6457 19.8102 42.6457 19.5534V16.5529C42.6457 16.2961 42.4375 16.0879 42.1808 16.0879H39.1803C38.9235 16.0879 38.7153 16.2961 38.7153 16.5529C38.7153 16.8097 38.9235 17.0179 39.1803 17.0179H41.0128L34.5286 23.1359C34.1796 22.8928 33.756 22.7498 33.2996 22.7498C32.6252 22.7498 32.0223 23.0614 31.6264 23.5481L26.7938 21.1228C26.8368 20.9531 26.8598 20.7755 26.8598 20.5926C26.8598 19.4031 25.8921 18.4353 24.7026 18.4353C23.5131 18.4353 22.5453 19.4031 22.5453 20.5926C22.5453 20.9291 22.6229 21.2478 22.7609 21.532L17.5512 25.6386C17.1682 25.2929 16.6611 25.0821 16.1056 25.0821C14.9161 25.0821 13.9483 26.0499 13.9483 27.2393C13.9483 28.4288 14.9162 29.3966 16.1057 29.3966ZM33.2996 23.6797C33.9764 23.6797 34.527 24.2312 34.527 24.9089C34.527 25.5857 33.9764 26.1362 33.2996 26.1362C32.6229 26.1362 32.0723 25.5857 32.0723 24.9089C32.0723 24.2312 32.6229 23.6797 33.2996 23.6797ZM24.7027 19.3652C25.3794 19.3652 25.93 19.9158 25.93 20.5926C25.93 21.2693 25.3794 21.8198 24.7027 21.8198C24.0259 21.8198 23.4753 21.2693 23.4753 20.5926C23.4753 19.9158 24.0259 19.3652 24.7027 19.3652ZM16.1057 26.012C16.7835 26.012 17.3349 26.5626 17.3349 27.2393C17.3349 27.916 16.7834 28.4666 16.1057 28.4666C15.4289 28.4666 14.8784 27.916 14.8784 27.2393C14.8784 26.5626 15.4289 26.012 16.1057 26.012ZM18.7486 31.7289H13.4647C13.2079 31.7289 12.9998 31.9371 12.9998 32.1939V39.6068C12.9998 39.8636 13.2079 40.0718 13.4647 40.0718H18.7486C19.0054 40.0718 19.2135 39.8636 19.2135 39.6068V32.1939C19.2136 31.9371 19.0054 31.7289 18.7486 31.7289ZM18.2837 39.1418H13.9296V32.6589H18.2836L18.2837 39.1418ZM27.3455 29.0521H22.0597C21.8029 29.0521 21.5948 29.2603 21.5948 29.5171V39.6069C21.5948 39.8637 21.803 40.0718 22.0597 40.0718H27.3455C27.6023 40.0718 27.8105 39.8637 27.8105 39.6069V29.5171C27.8105 29.2602 27.6023 29.0521 27.3455 29.0521ZM26.8806 39.1418H22.5247V29.982H26.8806V39.1418ZM46.8917 34.6353C46.8541 34.4115 46.6603 34.2475 46.4333 34.2475H45.4006C45.2636 33.7471 45.0651 33.2683 44.8073 32.8171L45.5385 32.0859C45.699 31.9254 45.7202 31.6724 45.5886 31.4876C45.4079 31.2337 45.2126 30.9926 45.0045 30.7642V25.7107C45.0045 25.4539 44.7963 25.2457 44.5396 25.2457H39.2538C38.997 25.2457 38.7889 25.4539 38.7889 25.7107V28.2867C38.5454 28.304 38.3036 28.3313 38.066 28.3713C37.8422 28.409 37.6783 28.6028 37.6783 28.8298V29.8633C37.1779 30.001 36.6993 30.1995 36.2482 30.4564L35.5184 29.7266C35.3583 29.5663 35.1058 29.545 34.9208 29.676C34.4282 30.0251 33.982 30.4303 33.5858 30.8836H30.6567C30.3999 30.8836 30.1918 31.0918 30.1918 31.3486V39.6067C30.1918 39.8635 30.4 40.0717 30.6567 40.0717H33.0228C33.022 40.1668 33.0486 40.2626 33.1072 40.3449C33.6072 41.0478 34.2171 41.6578 34.9201 42.1579C35.1052 42.2896 35.3583 42.2682 35.5188 42.1075L36.2486 41.3763C36.6995 41.6329 37.1782 41.8314 37.6783 41.9692V43.0026C37.6783 43.2296 37.8422 43.4234 38.066 43.4611C38.4921 43.5328 38.9235 43.5692 39.3479 43.5692C39.7724 43.5692 40.2037 43.5328 40.6299 43.4611C40.8537 43.4234 41.0176 43.2296 41.0176 43.0026V41.9692C41.5177 41.8315 41.9963 41.633 42.4473 41.3763L43.1771 42.1075C43.3376 42.2682 43.5906 42.2895 43.7758 42.1579C44.4786 41.6578 45.0887 41.0478 45.5887 40.3449C45.7204 40.1598 45.6991 39.9067 45.5383 39.7462L44.8074 39.0168C45.0655 38.564 45.2642 38.0847 45.4009 37.5849H46.4334C46.6604 37.5849 46.8542 37.421 46.8919 37.1971C46.9637 36.7709 47 36.3403 47 35.9171C46.9999 35.4929 46.9635 35.0617 46.8917 34.6353ZM44.0746 26.1758V29.9007C43.9764 29.8237 43.8769 29.7484 43.7749 29.676C43.59 29.545 43.3376 29.5665 43.1773 29.7266L42.4474 30.4565C41.9964 30.1997 41.5177 30.0012 41.0174 29.8634V28.8299C41.0174 28.6028 40.8535 28.409 40.6297 28.3714C40.331 28.3211 40.0257 28.2896 39.7186 28.2752V26.1758H44.0746ZM31.1217 31.8136H33.0257C33.038 31.9137 33.0815 32.0102 33.1572 32.086L33.8884 32.8172C33.6306 33.2683 33.432 33.7472 33.295 34.2476H32.2624C32.0354 34.2476 31.8416 34.4115 31.8039 34.6354C31.7321 35.0617 31.6958 35.493 31.6958 35.9173C31.6958 36.3405 31.7321 36.7711 31.8039 37.1973C31.8416 37.4212 32.0354 37.5851 32.2624 37.5851H33.2949C33.4316 38.0849 33.6303 38.5642 33.8885 39.017L33.7633 39.1419H31.1217L31.1217 31.8136ZM46.0288 36.6551H45.0346C44.8144 36.6551 44.6243 36.8096 44.5794 37.0252C44.4452 37.6687 44.1932 38.277 43.8302 38.8331C43.7098 39.0174 43.7353 39.2609 43.8911 39.4164L44.5947 40.1185C44.2851 40.5045 43.9352 40.8545 43.5491 41.164L42.8469 40.4605C42.6915 40.3047 42.4483 40.2792 42.264 40.3994C41.7104 40.7602 41.1022 41.0124 40.4563 41.1491C40.2414 41.1946 40.0877 41.3842 40.0877 41.604V42.5982C39.5929 42.6529 39.1028 42.6529 38.6081 42.5982V41.604C38.6081 41.3842 38.4544 41.1946 38.2394 41.1491C37.5935 41.0124 36.9853 40.7602 36.4317 40.3994C36.2474 40.2793 36.0042 40.3048 35.8488 40.4605L35.1465 41.164C34.7605 40.8545 34.4106 40.5045 34.101 40.1185L34.8045 39.4164C34.9603 39.2609 34.9858 39.0174 34.8654 38.8331C34.5024 38.277 34.2503 37.6688 34.1162 37.0252C34.0713 36.8096 33.8813 36.6551 33.6611 36.6551H32.6669C32.6395 36.4081 32.6257 36.1611 32.6257 35.9173C32.6257 35.6725 32.6395 35.4249 32.6669 35.1775H33.6611C33.8812 35.1775 34.0711 35.0231 34.1162 34.8077C34.251 34.1624 34.5031 33.555 34.8652 33.002C34.9858 32.8178 34.9607 32.5742 34.8049 32.4185L34.1008 31.7144C34.1177 31.6934 34.1351 31.6729 34.1522 31.6521C34.1567 31.6468 34.1611 31.6414 34.1655 31.636C34.4593 31.2806 34.7871 30.9571 35.1465 30.6698L35.8492 31.3725C36.0046 31.5279 36.2476 31.5534 36.4319 31.4332C36.9852 31.0725 37.5935 30.8203 38.2395 30.6836C38.4544 30.6381 38.6082 30.4484 38.6082 30.2287V29.235C39.0966 29.182 39.5993 29.182 40.0877 29.235V30.2287C40.0877 30.4484 40.2414 30.6381 40.4564 30.6836C41.1024 30.8203 41.7106 31.0725 42.264 31.4332C42.4482 31.5534 42.6913 31.528 42.8467 31.3725L43.5494 30.6698C43.781 30.855 43.9994 31.0553 44.2042 31.2693C44.2078 31.273 44.2113 31.2767 44.215 31.2804C44.3475 31.4194 44.4744 31.564 44.595 31.7145L43.8907 32.4185C43.735 32.5742 43.7099 32.8178 43.8305 33.002C44.1926 33.5549 44.4446 34.1624 44.5794 34.8076C44.6245 35.023 44.8145 35.1774 45.0346 35.1774H46.0287C46.0561 35.4249 46.0699 35.6724 46.0699 35.9172C46.07 36.161 46.0561 36.4081 46.0288 36.6551ZM39.3479 31.2206C36.7581 31.2206 34.6512 33.3276 34.6512 35.9173C34.6512 38.507 36.7581 40.6139 39.3479 40.6139C41.9376 40.6139 44.0445 38.507 44.0445 35.9173C44.0445 33.3276 41.9376 31.2206 39.3479 31.2206ZM39.3479 39.6839C37.2709 39.6839 35.5811 37.9942 35.5811 35.9172C35.5811 33.8402 37.2708 32.1505 39.3479 32.1505C41.4248 32.1505 43.1146 33.8402 43.1146 35.9172C43.1146 37.9942 41.4248 39.6839 39.3479 39.6839ZM41.1512 32.9977C40.8988 32.9977 40.694 33.1988 40.6869 33.4495L39.1442 34.2194H38.0697C37.145 34.2194 36.4207 34.9569 36.4207 35.8985C36.4207 36.6572 36.936 37.2975 37.6348 37.4889V38.3719C37.6348 38.6287 37.843 38.8369 38.0997 38.8369C38.3565 38.8369 38.5647 38.6287 38.5647 38.3719V37.5475H39.1439L40.6868 38.319C40.6937 38.5698 40.8987 38.7711 41.1511 38.7711C41.4079 38.7711 41.616 38.5629 41.616 38.3061V33.4626C41.6161 33.2058 41.408 32.9977 41.1512 32.9977ZM37.3506 35.8984C37.3506 35.4713 37.6597 35.1493 38.0697 35.1493H38.7888V36.6175H38.0697C37.6731 36.6175 37.3506 36.2949 37.3506 35.8984ZM39.7187 34.9719L40.6862 34.489V37.2789L39.7187 36.7951V34.9719Z" fill="white"/>
</svg>
