<svg width="60" height="62" viewBox="0 0 60 62" fill="none" xmlns="http://www.w3.org/2000/svg">
<rect width="60" height="61.25" rx="30" fill="#041222"/>
<path d="M19.512 38.2593H27.0731V41.0302H26.2469C25.7439 41.0316 25.2619 41.2251 24.907 41.5683C24.5521 41.9114 24.3531 42.3761 24.3539 42.8604C24.3539 42.9318 24.3834 43.0004 24.4359 43.0509C24.4884 43.1015 24.5596 43.1299 24.6339 43.1299H36.0203C36.0946 43.1299 36.1658 43.1015 36.2184 43.0509C36.2709 43.0004 36.3004 42.9318 36.3004 42.8604C36.3007 42.6204 36.252 42.3827 36.1569 42.1608C36.0618 41.9389 35.9223 41.7373 35.7462 41.5673C35.5702 41.3974 35.3611 41.2625 35.1309 41.1703C34.9007 41.0781 34.6538 41.0305 34.4045 41.0302H33.5924V38.2593H41.1535C41.8219 38.2593 42.463 38.0037 42.9356 37.5488C43.4083 37.0938 43.6738 36.4768 43.6738 35.8334V20.1165C43.6731 19.4585 43.401 18.8278 42.9174 18.3628C42.4338 17.8979 41.7782 17.6367 41.0947 17.6367H38.6163V16.9844C38.6163 16.9129 38.5868 16.8443 38.5343 16.7938C38.4818 16.7432 38.4105 16.7148 38.3363 16.7148H22.3208C22.2465 16.7148 22.1753 16.7432 22.1228 16.7938C22.0702 16.8443 22.0407 16.9129 22.0407 16.9844V17.6367H19.5204C18.8519 17.6367 18.2109 17.8923 17.7382 18.3472C17.2656 18.8021 17 19.4192 17 20.0625V35.8253C16.9989 36.1439 17.063 36.4596 17.1886 36.7543C17.3143 37.049 17.499 37.317 17.7323 37.543C17.9655 37.7691 18.2427 37.9486 18.5481 38.0715C18.8535 38.1944 19.181 38.2582 19.512 38.2593ZM35.351 41.9493C35.5338 42.1247 35.6594 42.3477 35.7123 42.5908H24.9419C25.0058 42.3028 25.1701 42.0445 25.4074 41.8587C25.6448 41.6729 25.941 41.5708 26.2469 41.5693H34.4045C34.5806 41.5687 34.7551 41.602 34.9176 41.6673C35.0802 41.7326 35.2275 41.8285 35.351 41.9493ZM33.0323 41.0302H27.6219V38.2593H33.0323V41.0302ZM38.6163 20.3132H40.8986V33.4965H38.6163V20.3132ZM22.6008 17.2539H38.0562V33.4965H22.6008V17.2539ZM19.7556 33.4965V20.3132H22.0407V33.4965H19.7556ZM17.5377 20.0679C17.5377 19.5675 17.7442 19.0876 18.1118 18.7338C18.4795 18.3799 18.9781 18.1811 19.498 18.1811H22.0183V19.7795H19.4756C19.4013 19.7795 19.3301 19.8079 19.2775 19.8585C19.225 19.909 19.1955 19.9776 19.1955 20.0491V33.766C19.1955 33.8375 19.225 33.9061 19.2775 33.9566C19.3301 34.0072 19.4013 34.0356 19.4756 34.0356H41.1787C41.2529 34.0356 41.3242 34.0072 41.3767 33.9566C41.4292 33.9061 41.4587 33.8375 41.4587 33.766V20.0437C41.4587 19.9722 41.4292 19.9036 41.3767 19.8531C41.3242 19.8025 41.2529 19.7741 41.1787 19.7741H38.6163V18.1758H41.0975C41.6322 18.1765 42.145 18.3811 42.5234 18.7448C42.9018 19.1085 43.1151 19.6017 43.1165 20.1165V35.8253C43.1129 36.3246 42.9052 36.8025 42.5383 37.1556C42.1715 37.5087 41.675 37.7086 41.1563 37.7121H19.512C18.9932 37.7086 18.4967 37.5087 18.1299 37.1556C17.7631 36.8025 17.5554 36.3246 17.5517 35.8253L17.5377 20.0679ZM30.3271 36.9304C30.5442 36.9304 30.7565 36.8685 30.937 36.7524C31.1175 36.6363 31.2582 36.4713 31.3413 36.2782C31.4244 36.0851 31.4461 35.8727 31.4038 35.6677C31.3614 35.4627 31.2569 35.2745 31.1033 35.1267C30.9498 34.9789 30.7542 34.8783 30.5413 34.8375C30.3283 34.7968 30.1076 34.8177 29.907 34.8977C29.7064 34.9776 29.535 35.1131 29.4144 35.2868C29.2937 35.4606 29.2294 35.6649 29.2294 35.8738C29.2301 36.1539 29.346 36.4222 29.5517 36.6202C29.7574 36.8182 30.0362 36.9297 30.3271 36.9304ZM30.3271 35.359C30.4336 35.359 30.5376 35.3894 30.6261 35.4464C30.7146 35.5034 30.7835 35.5844 30.8241 35.6791C30.8647 35.7738 30.8752 35.878 30.8542 35.9785C30.8333 36.079 30.7818 36.1712 30.7063 36.2434C30.6308 36.3157 30.5348 36.3648 30.4303 36.3844C30.3258 36.4041 30.2176 36.3935 30.1194 36.3539C30.0212 36.3143 29.9374 36.2476 29.8787 36.1621C29.8199 36.0766 29.7889 35.9763 29.7894 35.8738C29.7887 35.8054 29.8021 35.7376 29.8288 35.6741C29.8554 35.6107 29.8949 35.553 29.9449 35.5044C29.9949 35.4558 30.0545 35.4172 30.1201 35.3908C30.1857 35.3645 30.256 35.3509 30.3271 35.3509V35.359ZM23.8582 18.917C23.8582 18.8455 23.8877 18.777 23.9402 18.7264C23.9927 18.6759 24.064 18.6475 24.1382 18.6475H28.4761C28.5503 18.6475 28.6216 18.6759 28.6741 18.7264C28.7266 18.777 28.7561 18.8455 28.7561 18.917C28.7561 18.9885 28.7266 19.057 28.6741 19.1076C28.6216 19.1581 28.5503 19.1865 28.4761 19.1865H24.1382C24.1003 19.1866 24.0627 19.1792 24.0277 19.1648C23.9928 19.1504 23.9613 19.1294 23.9351 19.1029C23.9089 19.0764 23.8886 19.0451 23.8754 19.0108C23.8621 18.9765 23.8563 18.94 23.8582 18.9035V18.917ZM23.8582 20.413C23.8582 20.3415 23.8877 20.2729 23.9402 20.2224C23.9927 20.1718 24.064 20.1434 24.1382 20.1434H25.5664C25.6407 20.1434 25.7119 20.1718 25.7645 20.2224C25.817 20.2729 25.8465 20.3415 25.8465 20.413C25.8465 20.4844 25.817 20.553 25.7645 20.6035C25.7119 20.6541 25.6407 20.6825 25.5664 20.6825H24.1382C24.1003 20.6825 24.0627 20.6751 24.0277 20.6608C23.9928 20.6464 23.9613 20.6253 23.9351 20.5988C23.9089 20.5724 23.8886 20.541 23.8754 20.5068C23.8621 20.4725 23.8563 20.436 23.8582 20.3995V20.413ZM26.6978 20.6825C26.6235 20.6825 26.5523 20.6541 26.4998 20.6035C26.4473 20.553 26.4178 20.4844 26.4178 20.413C26.4178 20.3415 26.4473 20.2729 26.4998 20.2224C26.5523 20.1718 26.6235 20.1434 26.6978 20.1434H26.9778C27.0521 20.1434 27.1233 20.1718 27.1759 20.2224C27.2284 20.2729 27.2579 20.3415 27.2579 20.413C27.2579 20.4844 27.2284 20.553 27.1759 20.6035C27.1233 20.6541 27.0521 20.6825 26.9778 20.6825H26.6978ZM27.2131 21.4911C27.1821 21.6012 27.1215 21.7016 27.0375 21.782C26.9534 21.8625 26.8488 21.9202 26.7342 21.9493H26.7006C26.3968 22.0389 26.1402 22.2374 25.9839 22.5037C25.8276 22.77 25.7834 23.0839 25.8605 23.3806C25.8605 23.3806 25.8605 23.3968 25.8605 23.4022C25.8762 23.4566 25.8837 23.5128 25.8829 23.5693C25.883 23.6545 25.8655 23.739 25.8314 23.8177C25.7973 23.8963 25.7472 23.9677 25.6841 24.0275C25.452 24.2509 25.3216 24.5539 25.3216 24.8698C25.3216 25.1857 25.452 25.4887 25.6841 25.7121C25.7466 25.7717 25.7961 25.8427 25.8298 25.9209C25.8634 25.9991 25.8805 26.083 25.8801 26.1677C25.8809 26.225 25.8734 26.2822 25.8577 26.3375C25.7728 26.6366 25.8132 26.9558 25.9703 27.2265C26.1274 27.4972 26.3887 27.6977 26.6978 27.7849H26.7314C26.7906 27.8005 26.8471 27.8241 26.8994 27.855L25.1212 31.1677C25.0991 31.2086 25.0884 31.2543 25.0899 31.3003C25.0915 31.3464 25.1053 31.3913 25.13 31.4308C25.1547 31.4703 25.1895 31.503 25.2311 31.5258C25.2727 31.5486 25.3197 31.5608 25.3676 31.5612L26.6866 31.5396L27.4231 32.5989C27.4488 32.6355 27.4834 32.6654 27.524 32.6861C27.5645 32.7068 27.6097 32.7176 27.6555 32.7175H27.6723C27.7209 32.7148 27.7678 32.6999 27.8086 32.6744C27.8493 32.6489 27.8825 32.6136 27.9048 32.572L29.585 29.4507C29.6894 29.5134 29.8026 29.5615 29.9211 29.5935C30.0237 29.618 30.129 29.6307 30.2347 29.6313C30.3397 29.6306 30.4441 29.617 30.5455 29.5908C30.664 29.5599 30.7772 29.5127 30.8816 29.4507L32.5618 32.572C32.5841 32.6136 32.6173 32.6489 32.658 32.6744C32.6988 32.6999 32.7457 32.7148 32.7943 32.7175H32.8475C32.8936 32.7173 32.939 32.7061 32.9795 32.6849C33.0201 32.6638 33.0545 32.6333 33.0799 32.5962L33.8108 31.5396L35.1354 31.5639C35.1826 31.5625 35.2286 31.5497 35.2692 31.5266C35.3099 31.5035 35.3438 31.4709 35.3678 31.4318C35.3924 31.3908 35.4054 31.3443 35.4054 31.297C35.4054 31.2497 35.3924 31.2032 35.3678 31.1623L33.6064 27.8766C33.6599 27.8461 33.7173 27.8226 33.7772 27.8065H33.8164C34.0703 27.7334 34.2929 27.5836 34.4513 27.3792C34.6097 27.1748 34.6954 26.9267 34.6957 26.6717C34.6946 26.567 34.6795 26.4628 34.6509 26.3617C34.6369 26.3062 34.6303 26.2491 34.6313 26.1919C34.6306 26.0214 34.7001 25.8576 34.8246 25.7364C34.9405 25.6263 35.0325 25.4952 35.0953 25.3506C35.1582 25.206 35.1905 25.0508 35.1905 24.8941C35.1905 24.7373 35.1582 24.5822 35.0953 24.4376C35.0325 24.293 34.9405 24.1618 34.8246 24.0518C34.7414 23.9712 34.6815 23.8711 34.6511 23.7614C34.6206 23.6517 34.6206 23.5362 34.6509 23.4264C34.6513 23.4201 34.6513 23.4138 34.6509 23.4076C34.7271 23.1116 34.6824 22.7987 34.5261 22.5334C34.3699 22.2682 34.1138 22.0707 33.8108 21.9817C33.7973 21.9751 33.7833 21.9697 33.7688 21.9655C33.6536 21.937 33.5483 21.8796 33.4636 21.7991C33.379 21.7186 33.3181 21.6179 33.2871 21.5073C33.2178 21.2544 33.0634 21.0308 32.8481 20.8714C32.6328 20.7119 32.3687 20.6256 32.097 20.6259C31.9875 20.6262 31.8785 20.6389 31.7721 20.6636C31.6611 20.6874 31.5457 20.6838 31.4365 20.6532C31.3273 20.6226 31.228 20.5659 31.1476 20.4884H31.128C30.896 20.2659 30.5818 20.1409 30.2543 20.1409C29.9268 20.1409 29.6126 20.2659 29.3806 20.4884L29.361 20.5073C29.236 20.6188 29.0721 20.6813 28.9017 20.6825C28.84 20.6824 28.7786 20.6733 28.7197 20.6555C28.4049 20.5777 28.071 20.6215 27.7894 20.7777C27.5078 20.9339 27.3009 21.1899 27.2131 21.4911ZM27.6387 31.917L27.0787 31.1084C27.053 31.0718 27.0183 31.0418 26.9778 31.0211C26.9373 31.0005 26.8921 30.9897 26.8462 30.9898L25.8465 31.014L27.2467 28.3914L27.2803 28.4615C27.2908 28.4798 27.3001 28.4987 27.3083 28.5181C27.3432 28.5808 27.3825 28.6411 27.4259 28.6987C27.5743 28.8807 27.7748 29.0171 28.0027 29.0908C28.2306 29.1646 28.4759 29.1725 28.7085 29.1137C28.7636 29.1013 28.8199 29.095 28.8765 29.0949H28.9269C28.9502 29.0936 28.9736 29.0936 28.9969 29.0949H29.0361H29.0865L29.1482 29.1137L27.6387 31.917ZM33.668 31.0005C33.6217 31 33.5759 31.0106 33.5348 31.0313C33.4938 31.052 33.4587 31.0822 33.4328 31.1191L32.8727 31.9278L31.3661 29.1353L31.4473 29.1137H31.4613C31.5063 29.1038 31.5524 29.0993 31.5985 29.1003H31.6349C31.6839 29.1028 31.7326 29.1091 31.7805 29.1191L31.8813 29.1353C31.9653 29.1509 32.0508 29.1573 32.1362 29.1542C32.3144 29.1478 32.4892 29.1043 32.6482 29.0266C32.8073 28.9488 32.9469 28.8388 33.0575 28.704C33.1012 28.6501 33.1397 28.5923 33.1723 28.5315L33.2003 28.4776C33.2003 28.4507 33.2283 28.4237 33.2395 28.3968L34.6565 31.0194L33.668 31.0005ZM29.767 20.8604C29.7749 20.8555 29.7816 20.8491 29.7866 20.8415C29.9115 20.7299 30.0755 20.6679 30.2459 20.6679C30.4163 20.6679 30.5803 20.7299 30.7052 20.8415L30.7248 20.8631C30.8775 21.009 31.067 21.114 31.2747 21.1679C31.4824 21.2218 31.7012 21.2226 31.9093 21.1704C31.9707 21.1558 32.0338 21.1486 32.097 21.1488C32.2454 21.1489 32.3897 21.1962 32.5072 21.2835C32.6247 21.3708 32.7089 21.4931 32.7467 21.6313C32.8033 21.826 32.91 22.0038 33.0568 22.1484C33.2036 22.293 33.3859 22.3998 33.5868 22.4588L33.6316 22.4722C33.7184 22.4947 33.7998 22.5335 33.8709 22.5864C33.9421 22.6393 34.0017 22.7053 34.0462 22.7804C34.0907 22.8556 34.1193 22.9386 34.1304 23.0245C34.1414 23.1104 34.1346 23.1975 34.1105 23.2809C34.1105 23.2809 34.1105 23.2943 34.1105 23.2997C34.0588 23.4979 34.0612 23.7056 34.1177 23.9026C34.1741 24.0995 34.2826 24.2791 34.4325 24.4237C34.4969 24.484 34.548 24.5561 34.5829 24.6357C34.6179 24.7153 34.6359 24.8009 34.6359 24.8873C34.6359 24.9738 34.6179 25.0593 34.5829 25.139C34.548 25.2186 34.4969 25.2907 34.4325 25.3509C34.2027 25.5738 34.0738 25.8752 34.0741 26.1892C34.0726 26.2938 34.0858 26.398 34.1133 26.4992C34.1299 26.5544 34.1384 26.6115 34.1385 26.669C34.1382 26.8122 34.0886 26.9514 33.9974 27.0645C33.9062 27.1777 33.7785 27.2585 33.6344 27.2943C33.6195 27.2974 33.6053 27.3028 33.5924 27.3105C33.3967 27.3698 33.2192 27.4747 33.0756 27.6157C32.932 27.7567 32.8267 27.9296 32.7691 28.1191C32.7675 28.1308 32.7675 28.1425 32.7691 28.1542C32.7461 28.2379 32.706 28.3163 32.651 28.3847C32.5961 28.4532 32.5274 28.5104 32.4491 28.5529C32.3707 28.5954 32.2843 28.6223 32.195 28.632C32.1056 28.6418 32.0152 28.6342 31.9289 28.6097H31.9065C31.7569 28.5715 31.6013 28.5596 31.4473 28.5747C31.2202 28.6029 31.0059 28.6916 30.8284 28.8307C30.7995 28.8531 30.7724 28.8774 30.7472 28.9035C30.6201 29.0256 30.4479 29.0942 30.2683 29.0942C30.0887 29.0942 29.9165 29.0256 29.7894 28.9035L29.7082 28.8307C29.4853 28.6556 29.2062 28.5604 28.9185 28.5612C28.8196 28.5619 28.721 28.5728 28.6245 28.5935H28.5937C28.4669 28.6269 28.3327 28.6237 28.2078 28.5844C28.0829 28.5451 27.9726 28.4715 27.8908 28.3725C27.837 28.3045 27.7962 28.2278 27.7704 28.1461C27.7717 28.1408 27.7717 28.1352 27.7704 28.1299C27.7203 27.9436 27.6242 27.7716 27.4903 27.6286C27.3416 27.4776 27.1542 27.367 26.947 27.3078H26.9106C26.8232 27.2863 26.7411 27.2481 26.6694 27.1955C26.5976 27.1428 26.5376 27.0768 26.4929 27.0013C26.4482 26.9259 26.4197 26.8425 26.4092 26.7563C26.3987 26.67 26.4064 26.5826 26.4318 26.4992C26.4598 26.3981 26.4739 26.2939 26.4738 26.1892C26.4715 26.0295 26.4356 25.872 26.3682 25.726C26.3008 25.5801 26.2033 25.4488 26.0817 25.3402C26.0181 25.2797 25.9676 25.2078 25.9332 25.1284C25.8987 25.0491 25.881 24.9639 25.881 24.8779C25.881 24.7919 25.8987 24.7067 25.9332 24.6274C25.9676 24.548 26.0181 24.4761 26.0817 24.4156C26.3126 24.1932 26.4425 23.8918 26.443 23.5774C26.4434 23.4801 26.4312 23.3833 26.4066 23.289C26.4066 23.289 26.4066 23.2755 26.4066 23.2701C26.3828 23.1867 26.3763 23.0997 26.3875 23.0139C26.3987 22.9281 26.4273 22.8453 26.4718 22.7702C26.5163 22.6951 26.5757 22.6292 26.6467 22.5762C26.7177 22.5232 26.7988 22.4842 26.8854 22.4615H26.9218C27.1243 22.4045 27.3081 22.2982 27.4553 22.1527C27.6025 22.0072 27.7081 21.8276 27.762 21.6313C27.7997 21.4931 27.8839 21.3708 28.0014 21.2835C28.1189 21.1962 28.2632 21.1489 28.4116 21.1488C28.471 21.1495 28.5301 21.1558 28.5881 21.1677C28.7954 21.219 29.013 21.2176 29.2197 21.1637C29.4263 21.1099 29.6149 21.0054 29.767 20.8604ZM27.1879 25.0491C27.1879 25.6355 27.3685 26.2087 27.707 26.6963C28.0455 27.1839 28.5266 27.5639 29.0895 27.7883C29.6524 28.0127 30.2717 28.0714 30.8693 27.957C31.4668 27.8426 32.0157 27.5603 32.4465 27.1456C32.8773 26.7309 33.1707 26.2026 33.2896 25.6275C33.4084 25.0524 33.3474 24.4562 33.1143 23.9144C32.8811 23.3726 32.4863 22.9096 31.9797 22.5838C31.4731 22.258 30.8776 22.0841 30.2683 22.0841C29.4513 22.0841 28.6678 22.3965 28.0901 22.9525C27.5124 23.5086 27.1879 24.2627 27.1879 25.0491ZM30.2683 22.6232C30.7668 22.6232 31.2541 22.7655 31.6685 23.032C32.083 23.2986 32.4061 23.6775 32.5968 24.1207C32.7876 24.564 32.8375 25.0518 32.7402 25.5223C32.643 25.9929 32.403 26.4251 32.0505 26.7644C31.698 27.1037 31.2489 27.3347 30.76 27.4283C30.2711 27.5219 29.7643 27.4739 29.3038 27.2903C28.8433 27.1067 28.4496 26.7957 28.1727 26.3968C27.8958 25.9979 27.748 25.5289 27.748 25.0491C27.7538 24.4118 28.02 23.8023 28.489 23.3524C28.958 22.9025 29.5922 22.6483 30.2543 22.6448L30.2683 22.6232ZM28.4228 24.7175L29.1341 25.386L28.9661 26.3321C28.9561 26.3826 28.9614 26.4348 28.9812 26.4826C29.0011 26.5304 29.0347 26.5717 29.0781 26.6016C29.1262 26.6351 29.184 26.653 29.2434 26.6528C29.2885 26.653 29.3329 26.6418 29.3722 26.6205L30.2543 26.1757L31.1364 26.6205C31.1807 26.6413 31.2299 26.6506 31.2791 26.6473C31.3283 26.644 31.3757 26.6282 31.4165 26.6016C31.4599 26.5717 31.4936 26.5304 31.5134 26.4826C31.5333 26.4348 31.5385 26.3826 31.5285 26.3321L31.3605 25.386L32.0746 24.7175C32.1116 24.6823 32.1376 24.6378 32.1498 24.589C32.1619 24.5403 32.1597 24.4893 32.1435 24.4417C32.1272 24.3941 32.0974 24.3518 32.0575 24.3196C32.0177 24.2874 31.9693 24.2665 31.9177 24.2593L30.932 24.1191L30.4923 23.2593C30.4689 23.2144 30.4328 23.1768 30.3883 23.1506C30.3437 23.1244 30.2925 23.1107 30.2403 23.1111C30.1886 23.1112 30.1379 23.1251 30.0939 23.1513C30.0499 23.1775 30.0143 23.2149 29.9911 23.2593L29.5486 24.1191L28.5769 24.262C28.525 24.2691 28.4763 24.29 28.4362 24.3224C28.3961 24.3548 28.3663 24.3974 28.35 24.4453C28.335 24.4927 28.3338 24.5432 28.3466 24.5913C28.3595 24.6393 28.3859 24.683 28.4228 24.7175ZM29.7894 24.634C29.8343 24.6275 29.8769 24.6106 29.9135 24.5848C29.95 24.559 29.9796 24.525 29.9995 24.4857L30.2543 23.9925L30.5091 24.4884C30.5293 24.528 30.5593 24.5622 30.5964 24.5881C30.6335 24.6139 30.6766 24.6306 30.722 24.6367L31.2821 24.7148L30.8872 25.1003C30.8548 25.1306 30.8305 25.168 30.8163 25.2093C30.8022 25.2506 30.7986 25.2946 30.806 25.3375L30.8872 25.8792L30.3775 25.6097C30.3374 25.5894 30.2927 25.5788 30.2473 25.5788C30.2019 25.5788 30.1573 25.5894 30.1171 25.6097L29.6074 25.8792L29.7026 25.3402C29.7103 25.2975 29.7072 25.2536 29.6936 25.2123C29.6799 25.171 29.6561 25.1335 29.6242 25.103L29.207 24.7121L29.7894 24.634Z" fill="white"/>
</svg>
