<svg width="36" height="36" viewBox="0 0 36 36" fill="none" xmlns="http://www.w3.org/2000/svg">
<path fill-rule="evenodd" clip-rule="evenodd" d="M5.78902 25.6849L11.6665 17.0653C11.904 16.7171 12.2229 16.4322 12.5955 16.2353C12.9681 16.0385 13.3831 15.9355 13.8045 15.9355C14.226 15.9355 14.641 16.0385 15.0136 16.2353C15.3862 16.4322 15.7051 16.7171 15.9425 17.0653L20.991 24.472C21.0835 24.6067 21.1469 24.7593 21.177 24.92C21.207 25.0806 21.2032 25.2458 21.1656 25.4049C21.0237 26.0095 20.6818 26.5484 20.1952 26.9342C19.7085 27.32 19.1058 27.53 18.4849 27.5303H6.76441C6.54941 27.531 6.33831 27.4729 6.15397 27.3623C5.96963 27.2516 5.81907 27.0927 5.7186 26.9026C5.61813 26.7125 5.57158 26.4986 5.584 26.2839C5.59641 26.0693 5.66731 25.8621 5.78902 25.6849Z" fill="#4C5364"/>
<path fill-rule="evenodd" clip-rule="evenodd" d="M6.37781 27.5307H2.75313C2.13213 27.5304 1.52943 27.3204 1.04282 26.9346C0.556209 26.5487 0.214231 26.0098 0.0723695 25.4053C0.034815 25.2462 0.0309505 25.081 0.0610243 24.9203C0.091098 24.7597 0.154445 24.6071 0.246996 24.4723L3.54445 19.6347C3.74377 19.3433 4.01113 19.105 4.32338 18.9403C4.63562 18.7755 4.98332 18.6895 5.33634 18.6895C5.68937 18.6895 6.03706 18.7755 6.34931 18.9403C6.66155 19.105 6.92891 19.3433 7.12823 19.6347L9.30241 22.8252C9.436 23.0211 9.50745 23.2527 9.50745 23.4899C9.50745 23.727 9.436 23.9586 9.30241 24.1546L7.35163 27.0162C7.24339 27.1747 7.09812 27.3044 6.92842 27.394C6.75873 27.4837 6.56973 27.5306 6.37781 27.5307Z" fill="#4C5364"/>
<path d="M7.4736 16.9121C8.34247 16.9121 9.04682 16.2077 9.04682 15.3388C9.04682 14.47 8.34247 13.7656 7.4736 13.7656C6.60474 13.7656 5.90039 14.47 5.90039 15.3388C5.90039 16.2077 6.60474 16.9121 7.4736 16.9121Z" fill="#4C5364"/>
<path fill-rule="evenodd" clip-rule="evenodd" d="M35.3973 1.96652V5.11294C35.3965 5.63424 35.189 6.13395 34.8204 6.50256C34.4518 6.87117 33.9521 7.07863 33.4308 7.07946H1.96652C1.44522 7.07863 0.945512 6.87117 0.576899 6.50256C0.208285 6.13395 0.00083208 5.63424 0 5.11294V1.96652C0.00083208 1.44522 0.208285 0.945512 0.576899 0.576899C0.945512 0.208285 1.44522 0.00083208 1.96652 0H33.4308C33.9521 0.00083208 34.4518 0.208285 34.8204 0.576899C35.189 0.945512 35.3965 1.44522 35.3973 1.96652ZM35.3973 30.2844V33.4308C35.3965 33.9521 35.189 34.4518 34.8204 34.8204C34.4518 35.189 33.9521 35.3965 33.4308 35.3973H12.1924C11.6711 35.3965 11.1714 35.189 10.8028 34.8204C10.4342 34.4518 10.2267 33.9521 10.2259 33.4308V30.2844C10.2267 29.7631 10.4342 29.2633 10.8028 28.8947C11.1714 28.5261 11.6711 28.3187 12.1924 28.3178H33.4308C33.9521 28.3187 34.4518 28.5261 34.8204 28.8947C35.189 29.2633 35.3965 29.7631 35.3973 30.2844ZM9.43928 30.2844V33.4308C9.43845 33.9521 9.23099 34.4518 8.86238 34.8204C8.49377 35.189 7.99406 35.3965 7.47276 35.3973H1.96652C1.44522 35.3965 0.945512 35.189 0.576899 34.8204C0.208285 34.4518 0.00083208 33.9521 0 33.4308V30.2844C0.00083208 29.7631 0.208285 29.2633 0.576899 28.8947C0.945512 28.5261 1.44522 28.3187 1.96652 28.3178H7.47276C7.99406 28.3187 8.49377 28.5261 8.86238 28.8947C9.23099 29.2633 9.43845 29.7631 9.43928 30.2844ZM2.35982 33.0375H7.07946V30.6777H2.35982V33.0375ZM21.2384 10.6192V24.7781C21.2384 25.5083 20.9483 26.2085 20.432 26.7249C19.9157 27.2412 19.2154 27.5312 18.4853 27.5312H2.75312C2.02295 27.5312 1.32268 27.2412 0.806371 26.7249C0.29006 26.2085 0 25.5083 0 24.7781V10.6192C0 9.09789 1.2334 7.86607 2.75312 7.86607H18.4853C20.005 7.86607 21.2384 9.09789 21.2384 10.6192ZM18.8786 10.6192C18.8786 10.5149 18.8371 10.4148 18.7634 10.3411C18.6896 10.2673 18.5896 10.2259 18.4853 10.2259H2.75312C2.64881 10.2259 2.54877 10.2673 2.47502 10.3411C2.40126 10.4148 2.35982 10.5149 2.35982 10.6192V24.7781C2.35982 24.9952 2.53602 25.1714 2.75312 25.1714H18.4853C18.5896 25.1714 18.6896 25.13 18.7634 25.0562C18.8371 24.9825 18.8786 24.8824 18.8786 24.7781V10.6192ZM35.3973 10.6192V24.7781C35.3973 25.5083 35.1072 26.2085 34.5909 26.7249C34.0746 27.2412 33.3743 27.5312 32.6442 27.5312H24.7781C24.0479 27.5312 23.3477 27.2412 22.8314 26.7249C22.315 26.2085 22.025 25.5083 22.025 24.7781V10.6192C22.025 9.09789 23.2584 7.86607 24.7781 7.86607H32.6442C34.1639 7.86607 35.3973 9.09789 35.3973 10.6192ZM33.0375 10.6192C33.0375 10.5149 32.996 10.4148 32.9223 10.3411C32.8485 10.2673 32.7485 10.2259 32.6442 10.2259H24.7781C24.6738 10.2259 24.5738 10.2673 24.5 10.3411C24.4262 10.4148 24.3848 10.5149 24.3848 10.6192V24.7781C24.3848 24.9952 24.561 25.1714 24.7781 25.1714H32.6442C32.7485 25.1714 32.8485 25.13 32.9223 25.0562C32.996 24.9825 33.0375 24.8824 33.0375 24.7781V10.6192Z" fill="#4C5364"/>
</svg>
