<svg width="71" height="71" viewBox="0 0 71 71" fill="none" xmlns="http://www.w3.org/2000/svg">
<path d="M60.7056 43.5859C60.3134 43.6661 59.9067 43.7086 59.4915 43.7086C59.0762 43.7086 58.6695 43.6661 58.2773 43.5859V55.8497H60.7056V43.5859Z" fill="#2378DA"/>
<path d="M30.8554 19.4258H31.5669V12.1411H30.3528C28.3446 12.1411 26.7105 10.5069 26.7105 8.49879C26.7105 6.49064 28.3446 4.85645 30.3528 4.85645C32.3609 4.85645 33.9951 6.49064 33.9951 8.49879V9.7129H36.4233V8.49879C36.4233 6.49064 38.0575 4.85645 40.0657 4.85645C42.0738 4.85645 43.708 6.49064 43.708 8.49879C43.708 10.5069 42.0738 12.1411 40.0657 12.1411H38.8516V19.4258H39.563L43.4749 15.5139C45.1905 13.7972 46.1362 11.5146 46.1362 9.08763C46.1362 4.07578 42.0593 0 37.0486 0H33.3711C28.3592 0 24.2822 4.07578 24.2822 9.08763C24.2822 11.5146 25.228 13.7972 26.9436 15.5139L30.8554 19.4258Z" fill="#2378DA"/>
<path d="M33.9946 12.1406H36.4229V19.4253H33.9946V12.1406Z" fill="#2378DA"/>
<path d="M38.8516 23.0696V21.8555H31.5669V23.0696C31.5669 25.0777 33.2011 26.7119 35.2092 26.7119C37.2174 26.7119 38.8516 25.0777 38.8516 23.0696Z" fill="#2378DA"/>
<path d="M30.3533 7.28125C29.6843 7.28125 29.1392 7.82517 29.1392 8.49536C29.1392 9.16555 29.6843 9.70947 30.3533 9.70947H31.5674V8.49536C31.5674 7.82517 31.0222 7.28125 30.3533 7.28125Z" fill="#2378DA"/>
<path d="M41.2798 8.49536C41.2798 7.82517 40.7347 7.28125 40.0657 7.28125C39.3967 7.28125 38.8516 7.82517 38.8516 8.49536V9.70947H40.0657C40.7347 9.70947 41.2798 9.16555 41.2798 8.49536Z" fill="#2378DA"/>
<path d="M21.854 23.6579C21.854 18.6461 17.777 14.5703 12.7664 14.5703H9.08763C4.07699 14.5703 0 18.6461 0 23.6579C0 26.085 0.945793 28.3675 2.66133 30.0842L6.5732 33.9961H7.28467V26.7114H6.07056C4.06242 26.7114 2.42822 25.0772 2.42822 23.0691C2.42822 21.061 4.06242 19.4268 6.07056 19.4268C8.0787 19.4268 9.7129 21.061 9.7129 23.0691V24.2832H12.1411V23.0691C12.1411 21.061 13.7753 19.4268 15.7835 19.4268C17.7916 19.4268 19.4258 21.061 19.4258 23.0691C19.4258 25.0772 17.7916 26.7114 15.7835 26.7114H14.5693V33.9961H15.2808L19.1927 30.0842C20.9082 28.3675 21.854 26.085 21.854 23.6579Z" fill="#2378DA"/>
<path d="M6.07105 21.8555C5.40207 21.8555 4.85693 22.3994 4.85693 23.0696C4.85693 23.7398 5.40207 24.2837 6.07105 24.2837H7.28516V23.0696C7.28516 22.3994 6.74002 21.8555 6.07105 21.8555Z" fill="#2378DA"/>
<path d="M7.28467 37.6321C7.28467 39.6402 8.91886 41.2744 10.927 41.2744C12.9351 41.2744 14.5693 39.6402 14.5693 37.6321V36.418H7.28467V37.6321Z" fill="#2378DA"/>
<path d="M9.71338 26.7109H12.1416V33.9956H9.71338V26.7109Z" fill="#2378DA"/>
<path d="M16.9971 23.0696C16.9971 22.3994 16.4519 21.8555 15.783 21.8555C15.114 21.8555 14.5688 22.3994 14.5688 23.0696V24.2837H15.783C16.4519 24.2837 16.9971 23.7398 16.9971 23.0696Z" fill="#2378DA"/>
<path d="M58.2773 26.7109H60.7056V33.9956H58.2773V26.7109Z" fill="#2378DA"/>
<path d="M54.6345 21.8555C53.9655 21.8555 53.4204 22.3994 53.4204 23.0696C53.4204 23.7398 53.9655 24.2837 54.6345 24.2837H55.8486V23.0696C55.8486 22.3994 55.3035 21.8555 54.6345 21.8555Z" fill="#2378DA"/>
<path d="M65.562 23.0696C65.562 22.3994 65.0169 21.8555 64.3479 21.8555C63.6789 21.8555 63.1338 22.3994 63.1338 23.0696V24.2837H64.3479C65.0169 24.2837 65.562 23.7398 65.562 23.0696Z" fill="#2378DA"/>
<path d="M55.8491 37.6321C55.8491 39.6402 57.4833 41.2744 59.4915 41.2744C61.4996 41.2744 63.1338 39.6402 63.1338 37.6321V36.418H55.8491V37.6321Z" fill="#2378DA"/>
<path d="M55.8496 26.7114H54.6355C52.6274 26.7114 50.9932 25.0772 50.9932 23.0691C50.9932 21.061 52.6274 19.4268 54.6355 19.4268C56.6436 19.4268 58.2778 21.061 58.2778 23.0691V24.2832H60.7061V23.0691C60.7061 21.061 62.3403 19.4268 64.3484 19.4268C66.3565 19.4268 67.9907 21.061 67.9907 23.0691C67.9907 25.0772 66.3565 26.7114 64.3484 26.7114H63.1343V33.9961H63.8458L67.7576 30.0842C69.4732 28.3675 70.419 26.085 70.419 23.6579C70.419 18.6461 66.342 14.5703 61.3313 14.5703H57.6538C52.6419 14.5703 48.5649 18.6461 48.5649 23.6579C48.5649 26.085 49.5107 28.3675 51.2263 30.0842L55.1381 33.9961H55.8496V26.7114Z" fill="#2378DA"/>
<path d="M55.8491 58.2734H58.2773V70.4146H55.8491V58.2734Z" fill="#2378DA"/>
<path d="M64.3484 58.2734H60.7061V70.4146H64.3484C67.6957 70.4146 70.419 67.6913 70.419 64.344C70.419 60.9967 67.6957 58.2734 64.3484 58.2734Z" fill="#2378DA"/>
<path d="M22.6505 50.8482C22.166 52.2991 20.9204 53.274 19.4258 53.4027V55.8467H25.5801C26.1787 51.057 30.2569 47.3479 35.2092 47.3479C40.1616 47.3479 44.2398 51.057 44.8384 55.8467H50.9927V53.4027C49.4981 53.274 48.2525 52.2991 47.768 50.8482C47.3977 49.7421 47.5471 48.5924 48.1335 47.6636L44.6526 44.1839L43.8549 44.9804C42.7938 46.0439 41.2725 46.345 39.886 45.7708C38.4995 45.1965 37.6375 43.9071 37.6375 42.4053V41.2773H32.781V42.4053C32.781 43.9071 31.919 45.1965 30.5313 45.7708C29.1435 46.345 27.6235 46.0427 26.5623 44.9804L25.7647 44.1839L22.2838 47.6636C22.8714 48.5912 23.0208 49.7421 22.6505 50.8482Z" fill="#2378DA"/>
<path d="M16.998 58.2734H53.4214V63.1299H16.998V58.2734Z" fill="#2378DA"/>
<path d="M7.28477 66.3706V62.3203L2.89697 64.3455L7.28477 66.3706Z" fill="#2378DA"/>
<path d="M9.71338 67.491L14.5698 69.7323V58.957L9.71338 61.1995V67.491Z" fill="#2378DA"/>
<path d="M16.998 65.5664H53.4214V70.4229H16.998V65.5664Z" fill="#2378DA"/>
<path d="M30.5239 55.8455H39.8932C39.3517 53.7548 37.4686 52.2031 35.208 52.2031C32.9473 52.2031 31.0654 53.7548 30.5239 55.8455Z" fill="#2378DA"/>
<path d="M33.9946 29.0117V38.8472H36.4229V29.0117C36.0307 29.0919 35.624 29.1343 35.2087 29.1343C34.7935 29.1343 34.3868 29.0919 33.9946 29.0117Z" fill="#2378DA"/>
<path d="M10.9275 43.7086C10.5123 43.7086 10.1055 43.6661 9.71338 43.5859V58.528L12.1416 57.4074V43.5859C11.7494 43.6661 11.3427 43.7086 10.9275 43.7086Z" fill="#2378DA"/>
</svg>
