<svg width="60" height="62" viewBox="0 0 60 62" fill="none" xmlns="http://www.w3.org/2000/svg">
<rect width="60" height="61.25" rx="30" fill="#041222"/>
<path fill-rule="evenodd" clip-rule="evenodd" d="M40.4358 27.4031V21.1695C40.4358 20.8237 40.155 20.543 39.8092 20.543C39.4633 20.543 39.1826 20.8237 39.1826 21.1695V27.4031C39.1826 27.7491 39.4633 28.0298 39.8092 28.0298C40.155 28.0298 40.4358 27.7491 40.4358 27.4031Z" fill="white"/>
<path fill-rule="evenodd" clip-rule="evenodd" d="M37.3033 18.0039H30.4106C30.0648 18.0039 29.7839 18.2846 29.7839 18.6306C29.7839 18.9764 30.0648 19.2571 30.4106 19.2571H37.3033C37.6491 19.2571 37.9298 18.9764 37.9298 18.6306C37.9298 18.2846 37.6491 18.0039 37.3033 18.0039Z" fill="white"/>
<path fill-rule="evenodd" clip-rule="evenodd" d="M27.9046 18.0039H21.0118C20.666 18.0039 20.3853 18.2846 20.3853 18.6306C20.3853 18.9764 20.666 19.2571 21.0118 19.2571H27.9046C28.2504 19.2571 28.5311 18.9764 28.5311 18.6306C28.5311 18.2846 28.2504 18.0039 27.9046 18.0039Z" fill="white"/>
<path fill-rule="evenodd" clip-rule="evenodd" d="M17.8784 21.1364V28.0291C17.8784 28.3749 18.1592 28.6557 18.505 28.6557C18.8508 28.6557 19.1316 28.3749 19.1316 28.0291V21.1364C19.1316 20.7906 18.8508 20.5098 18.505 20.5098C18.1592 20.5098 17.8784 20.7906 17.8784 21.1364Z" fill="white"/>
<path fill-rule="evenodd" clip-rule="evenodd" d="M17.8784 30.5367V37.4294C17.8784 37.7753 18.1592 38.056 18.505 38.056C18.8508 38.056 19.1316 37.7753 19.1316 37.4294V30.5367C19.1316 30.1909 18.8508 29.9102 18.505 29.9102C18.1592 29.9102 17.8784 30.1909 17.8784 30.5367Z" fill="white"/>
<path fill-rule="evenodd" clip-rule="evenodd" d="M21.0118 40.5618H27.9046C28.2504 40.5618 28.5311 40.2811 28.5311 39.9353C28.5311 39.5893 28.2504 39.3086 27.9046 39.3086H21.0118C20.666 39.3086 20.3853 39.5893 20.3853 39.9353C20.3853 40.2811 20.666 40.5618 21.0118 40.5618Z" fill="white"/>
<path fill-rule="evenodd" clip-rule="evenodd" d="M21.6377 17.3779C21.6377 16.3397 20.7961 15.498 19.7578 15.498C18.9925 15.498 18.0169 15.498 17.2514 15.498C16.2132 15.498 15.3716 16.3397 15.3716 17.3779V19.8843C15.3716 20.9225 16.2132 21.7641 17.2514 21.7641H19.7578C20.7961 21.7641 21.6377 20.9225 21.6377 19.8843V17.3779ZM20.3845 17.3779C20.3845 17.0318 20.104 16.7512 19.7578 16.7512C18.9925 16.7512 18.0169 16.7512 17.2514 16.7512C16.9054 16.7512 16.6249 17.0318 16.6249 17.3779V19.8843C16.6249 20.2303 16.9054 20.5109 17.2514 20.5109H19.7578C20.104 20.5109 20.3845 20.2303 20.3845 19.8843V17.3779Z" fill="white"/>
<path fill-rule="evenodd" clip-rule="evenodd" d="M21.6377 38.6825C21.6377 37.6444 20.7961 36.8027 19.7578 36.8027C18.9925 36.8027 18.0169 36.8027 17.2514 36.8027C16.2132 36.8027 15.3716 37.6444 15.3716 38.6825V41.189C15.3716 42.2271 16.2132 43.0687 17.2514 43.0687H19.7578C20.7961 43.0687 21.6377 42.2271 21.6377 41.189V38.6825ZM20.3845 38.6825C20.3845 38.3364 20.104 38.0559 19.7578 38.0559C18.9925 38.0559 18.0169 38.0559 17.2514 38.0559C16.9054 38.0559 16.6249 38.3364 16.6249 38.6825V41.189C16.6249 41.535 16.9054 41.8155 17.2514 41.8155H19.7578C20.104 41.8155 20.3845 41.535 20.3845 41.189V38.6825Z" fill="white"/>
<path fill-rule="evenodd" clip-rule="evenodd" d="M42.943 17.3779C42.943 16.3397 42.1014 15.498 41.0631 15.498C40.2976 15.498 39.3222 15.498 38.5567 15.498C37.5185 15.498 36.6769 16.3397 36.6769 17.3779V19.8843C36.6769 20.9225 37.5185 21.7641 38.5567 21.7641H41.0631C42.1014 21.7641 42.943 20.9225 42.943 19.8843V17.3779ZM41.6898 17.3779C41.6898 17.0318 41.4092 16.7512 41.0631 16.7512C40.2976 16.7512 39.3222 16.7512 38.5567 16.7512C38.2107 16.7512 37.9301 17.0318 37.9301 17.3779V19.8843C37.9301 20.2303 38.2107 20.5109 38.5567 20.5109H41.0631C41.4092 20.5109 41.6898 20.2303 41.6898 19.8843V17.3779Z" fill="white"/>
<path fill-rule="evenodd" clip-rule="evenodd" d="M40.1337 40.1487L38.3284 44.1205C38.0186 44.8019 37.3339 45.2347 36.5855 45.2222C35.837 45.2095 35.1673 44.7541 34.8806 44.0626C33.611 41.0006 31.5368 35.998 30.2444 32.8811C29.953 32.1786 30.1139 31.3697 30.6516 30.832C31.1894 30.2941 31.9983 30.1333 32.7009 30.4247C35.8032 31.711 40.7735 33.7718 43.8391 35.0429C44.5343 35.3312 44.9905 36.0064 44.9988 36.7589C45.007 37.5115 44.5657 38.1963 43.877 38.4997L40.1337 40.1487ZM31.402 32.4012C31.3049 32.1669 31.3585 31.8974 31.5378 31.718C31.717 31.5388 31.9866 31.4852 32.2209 31.5823C35.3231 32.8686 40.2934 34.9295 43.359 36.2006C43.5908 36.2967 43.7429 36.5217 43.7457 36.7726C43.7484 37.0234 43.6013 37.2517 43.3717 37.3529C41.5273 38.1653 39.4096 39.0982 39.4096 39.0982C39.2687 39.1603 39.1556 39.2721 39.0919 39.4124C39.0919 39.4124 38.0601 41.6821 37.1875 43.6018C37.0842 43.829 36.8561 43.9733 36.6066 43.9691C36.3571 43.9649 36.1338 43.8131 36.0382 43.5826C34.7686 40.5206 32.6944 35.518 31.402 32.4012Z" fill="white"/>
<path fill-rule="evenodd" clip-rule="evenodd" d="M29.157 16.75C28.1194 16.75 27.2771 17.5923 27.2771 18.6299C27.2771 19.6673 28.1194 20.5096 29.157 20.5096C30.1944 20.5096 31.0367 19.6673 31.0367 18.6299C31.0367 17.5923 30.1944 16.75 29.157 16.75ZM29.157 18.0032C29.5028 18.0032 29.7835 18.2839 29.7835 18.6299C29.7835 18.9757 29.5028 19.2564 29.157 19.2564C28.811 19.2564 28.5303 18.9757 28.5303 18.6299C28.5303 18.2839 28.811 18.0032 29.157 18.0032Z" fill="white"/>
<path fill-rule="evenodd" clip-rule="evenodd" d="M29.157 38.0566C28.1194 38.0566 27.2771 38.8989 27.2771 39.9365C27.2771 40.9739 28.1194 41.8162 29.157 41.8162C30.1944 41.8162 31.0367 40.9739 31.0367 39.9365C31.0367 38.8989 30.1944 38.0566 29.157 38.0566ZM29.157 39.3098C29.5028 39.3098 29.7835 39.5906 29.7835 39.9365C29.7835 40.2823 29.5028 40.563 29.157 40.563C28.811 40.563 28.5303 40.2823 28.5303 39.9365C28.5303 39.5906 28.811 39.3098 29.157 39.3098Z" fill="white"/>
<path fill-rule="evenodd" clip-rule="evenodd" d="M18.5054 27.4043C17.4679 27.4043 16.6256 28.2467 16.6256 29.2842C16.6256 30.3217 17.4679 31.164 18.5054 31.164C19.5429 31.164 20.3852 30.3217 20.3852 29.2842C20.3852 28.2467 19.5429 27.4043 18.5054 27.4043ZM18.5054 28.6576C18.8512 28.6576 19.132 28.9383 19.132 29.2842C19.132 29.63 18.8512 29.9108 18.5054 29.9108C18.1595 29.9108 17.8788 29.63 17.8788 29.2842C17.8788 28.9383 18.1595 28.6576 18.5054 28.6576Z" fill="white"/>
<path fill-rule="evenodd" clip-rule="evenodd" d="M39.8095 27.4043C38.7721 27.4043 37.9297 28.2467 37.9297 29.2842C37.9297 30.3217 38.7721 31.164 39.8095 31.164C40.8471 31.164 41.6894 30.3217 41.6894 29.2842C41.6894 28.2467 40.8471 27.4043 39.8095 27.4043ZM39.8095 28.6576C40.1554 28.6576 40.4362 28.9383 40.4362 29.2842C40.4362 29.63 40.1554 29.9108 39.8095 29.9108C39.4637 29.9108 39.183 29.63 39.183 29.2842C39.183 28.9383 39.4637 28.6576 39.8095 28.6576Z" fill="white"/>
</svg>
