<svg width="58" height="58" viewBox="0 0 58 58" fill="none" xmlns="http://www.w3.org/2000/svg">
<path d="M8.66287 17.3277C9.19454 17.3277 9.62555 16.8967 9.62555 16.365C9.62555 15.8333 9.19454 15.4023 8.66287 15.4023C8.1312 15.4023 7.7002 15.8333 7.7002 16.365C7.7002 16.8967 8.1312 17.3277 8.66287 17.3277Z" fill="#2378DA"/>
<path d="M4.81295 32.7415H33.6944C35.2894 32.7415 36.5825 31.4482 36.5825 29.853V26.0018C36.5825 24.4066 35.2895 23.1133 33.6944 23.1133H4.81295C3.21793 23.1133 1.9248 24.4066 1.9248 26.0018V29.853C1.9248 31.4482 3.21781 32.7415 4.81295 32.7415ZM28.8808 26.9646H30.8062C31.3379 26.9646 31.7689 27.3956 31.7689 27.9273C31.7689 28.4591 31.3378 28.8901 30.8062 28.8901H28.8808C28.3491 28.8901 27.9181 28.4591 27.9181 27.9273C27.9181 27.3956 28.3491 26.9646 28.8808 26.9646ZM23.1045 26.9646H25.03C25.5617 26.9646 25.9926 27.3956 25.9926 27.9273C25.9926 28.4591 25.5617 28.8901 25.03 28.8901H23.1045C22.5728 28.8901 22.1418 28.4591 22.1418 27.9273C22.1418 27.3956 22.5728 26.9646 23.1045 26.9646ZM8.66377 25.0389C10.2588 25.0389 11.5519 26.332 11.5519 27.9273C11.5519 29.5227 10.2588 30.8158 8.66377 30.8158C7.06875 30.8158 5.77562 29.5227 5.77562 27.9273C5.77562 26.3321 7.06875 25.0389 8.66377 25.0389Z" fill="#2378DA"/>
<path d="M8.66287 28.8863C9.19454 28.8863 9.62555 28.4553 9.62555 27.9236C9.62555 27.3919 9.19454 26.9609 8.66287 26.9609C8.1312 26.9609 7.7002 27.3919 7.7002 27.9236C7.7002 28.4553 8.1312 28.8863 8.66287 28.8863Z" fill="#2378DA"/>
<path d="M4.81295 21.1868H33.6944C35.2894 21.1868 36.5825 19.8937 36.5825 18.2984V14.4471C36.5825 12.8519 35.2895 11.5586 33.6944 11.5586H4.81295C3.21793 11.5586 1.9248 12.8518 1.9248 14.4471V18.2984C1.9248 19.8936 3.21781 21.1868 4.81295 21.1868ZM28.8808 15.4099H30.8062C31.3379 15.4099 31.7689 15.8409 31.7689 16.3727C31.7689 16.9044 31.3378 17.3354 30.8062 17.3354H28.8808C28.3491 17.3354 27.9181 16.9043 27.9181 16.3727C27.9181 15.841 28.3491 15.4099 28.8808 15.4099ZM23.1045 15.4099H25.03C25.5617 15.4099 25.9926 15.8409 25.9926 16.3727C25.9926 16.9044 25.5617 17.3354 25.03 17.3354H23.1045C22.5728 17.3354 22.1418 16.9043 22.1418 16.3727C22.1418 15.841 22.5728 15.4099 23.1045 15.4099ZM8.66377 13.4842C10.2588 13.4842 11.5519 14.7773 11.5519 16.3727C11.5519 17.968 10.2588 19.2611 8.66377 19.2611C7.06875 19.2611 5.77562 17.9679 5.77562 16.3727C5.77562 14.7774 7.06875 13.4842 8.66377 13.4842Z" fill="#2378DA"/>
<path d="M8.66287 40.441C9.19454 40.441 9.62555 40.01 9.62555 39.4783C9.62555 38.9466 9.19454 38.5156 8.66287 38.5156C8.1312 38.5156 7.7002 38.9466 7.7002 39.4783C7.7002 40.01 8.1312 40.441 8.66287 40.441Z" fill="#2378DA"/>
<path d="M39.4712 53.9167H29.8441C29.8441 52.8532 28.9821 51.9911 27.9186 51.9911H22.1424V44.2884H33.6949C35.2899 44.2884 36.5831 42.9952 36.5831 41.3999V37.5486C36.5831 35.9534 35.2901 34.6602 33.6949 34.6602H4.8135C3.21847 34.6602 1.92535 35.9534 1.92535 37.5486V41.3999C1.92535 42.9951 3.21847 44.2884 4.8135 44.2884H16.3661V51.9911H10.5898C9.52636 51.9911 8.66432 52.8532 8.66432 53.9167H0.962677C0.430965 53.9167 0 54.3478 0 54.8795C0 55.4113 0.430965 55.8423 0.962677 55.8423H8.66443C8.66443 56.9059 9.52647 57.768 10.5899 57.768H27.9188C28.9822 57.768 29.8442 56.9059 29.8442 55.8423H39.4713C40.003 55.8423 40.434 55.4113 40.434 54.8795C40.434 54.3478 40.0029 53.9167 39.4712 53.9167ZM28.8813 38.5115H30.8068C31.3385 38.5115 31.7695 38.9426 31.7695 39.4743C31.7695 40.0061 31.3384 40.4371 30.8068 40.4371H28.8813C28.3496 40.4371 27.9186 40.0061 27.9186 39.4743C27.9186 38.9426 28.3496 38.5115 28.8813 38.5115ZM23.105 38.5115H25.0305C25.5622 38.5115 25.9932 38.9426 25.9932 39.4743C25.9932 40.0061 25.5622 40.4371 25.0305 40.4371H23.105C22.5733 40.4371 22.1424 40.0061 22.1424 39.4743C22.1424 38.9426 22.5733 38.5115 23.105 38.5115ZM8.66432 42.3628C7.06929 42.3628 5.77617 41.0697 5.77617 39.4743C5.77617 37.879 7.06918 36.5859 8.66432 36.5859C10.2595 36.5859 11.5525 37.8791 11.5525 39.4743C11.5525 41.0695 10.2595 42.3628 8.66432 42.3628ZM18.2915 44.2885H20.217V51.9912H18.2915V44.2885ZM27.9186 55.8424H10.5898V53.9167H27.9186V55.8424Z" fill="#2378DA"/>
<path d="M48.1337 6.73967C48.5231 6.73956 48.8741 6.50498 49.023 6.14528C49.1719 5.78557 49.0897 5.37148 48.8144 5.09617L44.0008 0.281994C43.9111 0.19218 43.8044 0.121096 43.6869 0.0730301C43.4513 -0.0243434 43.1869 -0.0243434 42.9514 0.0730301C42.834 0.121096 42.7273 0.192067 42.6376 0.281994L37.824 5.09617C37.4591 5.47393 37.4643 6.07453 37.8357 6.44586C38.2071 6.8173 38.8075 6.82249 39.1852 6.45759L42.3573 3.28703V18.2937C42.3573 18.8255 42.7883 19.2565 43.32 19.2565C43.8517 19.2565 44.2827 18.8255 44.2827 18.2937V3.28692L47.4529 6.45748C47.6336 6.63812 47.8784 6.73956 48.1337 6.73967Z" fill="#2378DA"/>
<path d="M57.4694 20.5137C57.098 20.1422 56.4976 20.137 56.1199 20.5019H56.118L52.9478 23.6725V8.66592C52.9478 8.13414 52.5168 7.70312 51.9851 7.70312C51.4534 7.70312 51.0224 8.13414 51.0224 8.66592V23.6726L47.8522 20.502C47.4745 20.1371 46.874 20.1423 46.5027 20.5138C46.1313 20.8852 46.1261 21.4857 46.491 21.8635L51.3046 26.6776C51.4852 26.8587 51.7305 26.9605 51.9862 26.9605C52.242 26.9605 52.4872 26.8587 52.6679 26.6776L57.4815 21.8635C57.846 21.4856 57.8408 20.885 57.4694 20.5137Z" fill="#2378DA"/>
</svg>
