<svg width="82" height="82" viewBox="0 0 82 82" fill="none" xmlns="http://www.w3.org/2000/svg">
<path d="M38.8058 39.0332C30.7186 39.0332 24.1392 45.6126 24.1392 53.6999C24.1392 61.7871 30.7186 68.3665 38.8058 68.3665C46.8931 68.3665 53.4725 61.7871 53.4725 53.6999C53.4725 45.6126 46.8931 39.0332 38.8058 39.0332ZM38.8058 65.6999C32.1893 65.6999 26.8058 60.3164 26.8058 53.6999C26.8058 47.0833 32.1893 41.6999 38.8058 41.6999C45.4224 41.6999 50.8058 47.0833 50.8058 53.6999C50.8058 60.3164 45.4224 65.6999 38.8058 65.6999Z" fill="#2378DA"/>
<path d="M67.783 19.4587L50.4497 0.791992C49.9445 0.249023 49.0005 0.249023 48.4953 0.791992L31.1619 19.4587C30.8013 19.8473 30.7049 20.4131 30.9172 20.8994C31.1287 21.3851 31.6086 21.6995 32.1392 21.6995H38.8058V27.0329H35.3514C33.981 27.0329 32.8664 28.1475 32.8664 29.5179V32.458C31.1782 32.9209 29.5356 33.6019 27.9816 34.4834L25.9035 32.4053C24.9354 31.4385 23.3592 31.4365 22.3898 32.4059L17.5116 37.2842C16.5441 38.2529 16.5441 39.8284 17.5122 40.7978L19.5897 42.8753C18.7082 44.4294 18.0272 46.0719 17.5643 47.7601H14.6242C13.2537 47.7601 12.1392 48.8747 12.1392 50.2451V57.154C12.1392 58.5244 13.2537 59.639 14.6242 59.639H17.5643C18.0272 61.3271 18.7082 62.9697 19.5897 64.5238L17.5116 66.6019C16.5441 67.5706 16.5441 69.1462 17.5122 70.1156L22.3905 74.9938C23.3586 75.9606 24.9347 75.9626 25.9041 74.9932L27.9816 72.9157C29.5356 73.7972 31.1782 74.4782 32.8664 74.9411V77.8812C32.8664 79.2516 33.981 80.3662 35.3514 80.3662H42.2603C43.6307 80.3662 44.7453 79.2516 44.7453 77.8812V74.9411C46.4334 74.4782 48.076 73.7972 49.63 72.9157L51.7082 74.9938C52.6763 75.9606 54.2524 75.9626 55.2218 74.9932L60.1001 70.1149C61.0675 69.1462 61.0675 67.5706 60.0994 66.6012L58.022 64.5238C58.9035 62.9697 59.5845 61.3271 60.0474 59.639H62.9875C64.3579 59.639 65.4725 58.5244 65.4725 57.154V50.2451C65.4725 48.8747 64.3579 47.7601 62.9875 47.7601H60.0474C59.5845 46.0719 58.9035 44.4294 58.022 42.8753L60.1001 40.7972C61.0524 39.8436 61.0623 38.3049 60.1392 37.3323V21.6995H66.8058C67.3364 21.6995 67.8162 21.3851 68.0278 20.8994C68.2401 20.4131 68.1437 19.8473 67.783 19.4587ZM56.035 41.0915C55.244 41.8805 55.0858 43.1175 55.6496 44.0986C56.4653 45.5186 57.089 47.0218 57.5031 48.5661C57.7967 49.6618 58.783 50.4268 59.9015 50.4268H62.8058V56.9723H59.9015C58.783 56.9723 57.7967 57.7373 57.5031 58.833C57.089 60.3766 56.4653 61.8805 55.6496 63.2998C55.0858 64.2816 55.244 65.5185 56.0343 66.307L58.0858 68.3584L53.4647 72.9795L51.4139 70.9287C50.6248 70.139 49.3872 69.9782 48.4067 70.5433C46.9868 71.359 45.4836 71.9827 43.9393 72.3968C42.8436 72.6904 42.0786 73.6768 42.0786 74.7952V77.6995H35.533V74.7952C35.533 73.6768 34.7681 72.6904 33.6717 72.3968C32.1281 71.9827 30.6248 71.359 29.2056 70.5433C28.2251 69.9795 26.9875 70.139 26.1984 70.9281L24.147 72.9795L19.5259 68.3584L21.5767 66.3076C22.3677 65.5185 22.5259 64.2816 21.9621 63.3005C21.1463 61.8805 20.5226 60.3773 20.1086 58.833C19.8149 57.7373 18.8286 56.9723 17.7101 56.9723H14.8058V50.4268H17.7101C18.8286 50.4268 19.8149 49.6618 20.1086 48.5654C20.5226 47.0218 21.1463 45.5186 21.9621 44.0993C22.5259 43.1175 22.3677 41.8805 21.5773 41.0921L19.5259 39.0407L24.147 34.4196L26.1978 36.4704C26.9875 37.2607 28.2231 37.4202 29.2049 36.8558C30.6248 36.04 32.1281 35.4163 33.6724 35.0023C34.7681 34.7087 35.533 33.7223 35.533 32.6038V29.6995H42.0786V32.6038C42.0786 33.7223 42.8436 34.7087 43.9399 35.0023C45.4836 35.4163 46.9868 36.04 48.4061 36.8558C49.3892 37.4209 50.6255 37.2627 51.4132 36.471L53.4647 34.4196L58.0858 39.0407L56.035 41.0915ZM57.4725 34.6566L55.2212 32.4053C54.2531 31.4385 52.6769 31.4365 51.7075 32.4059L49.63 34.4834C48.076 33.6019 46.4334 32.9209 44.7453 32.458V29.5179C44.7453 28.1475 43.6307 27.0329 42.2603 27.0329H41.4725V21.6995H57.4725V34.6566ZM58.8058 19.0329H40.1392H35.1965L49.4725 3.65918L63.7485 19.0329H58.8058Z" fill="#2378DA"/>
</svg>
