<svg width="102" height="14" viewBox="0 0 102 14" fill="none" xmlns="http://www.w3.org/2000/svg">
<path d="M3.17336 13.5325C2.9867 13.5947 2.82336 13.5714 2.68336 13.4625C2.54336 13.3536 2.48892 13.1902 2.52003 12.9725L3.22003 8.8658L0.14003 5.9258C0.0155856 5.77024 -0.0233033 5.59913 0.0233634 5.41247C0.07003 5.2258 0.202252 5.11691 0.42003 5.0858L4.6667 4.47913L6.58003 0.699134C6.67336 0.512467 6.81336 0.419134 7.00003 0.419134C7.1867 0.419134 7.3267 0.512467 7.42003 0.699134L9.33336 4.47913L13.6267 5.0858C13.8134 5.11691 13.93 5.2258 13.9767 5.41247C14.0234 5.59913 13.9845 5.77024 13.86 5.9258L10.78 8.8658L11.48 12.9725C11.5111 13.1902 11.4567 13.3536 11.3167 13.4625C11.1767 13.5714 11.0134 13.5947 10.8267 13.5325L7.00003 11.5258L3.17336 13.5325Z" fill="white"/>
<g clip-path="url(#clip0_243_12935)">
<path d="M3.17336 13.5325C2.9867 13.5947 2.82336 13.5714 2.68336 13.4625C2.54336 13.3536 2.48892 13.1902 2.52003 12.9725L3.22003 8.8658L0.14003 5.9258C0.0155856 5.77024 -0.0233033 5.59913 0.0233634 5.41247C0.07003 5.2258 0.202252 5.11691 0.42003 5.0858L4.6667 4.47913L6.58003 0.699134C6.67336 0.512467 6.81336 0.419134 7.00003 0.419134C7.1867 0.419134 7.3267 0.512467 7.42003 0.699134L9.33336 4.47913L13.6267 5.0858C13.8134 5.11691 13.93 5.2258 13.9767 5.41247C14.0234 5.59913 13.9845 5.77024 13.86 5.9258L10.78 8.8658L11.48 12.9725C11.5111 13.1902 11.4567 13.3536 11.3167 13.4625C11.1767 13.5714 11.0134 13.5947 10.8267 13.5325L7.00003 11.5258L3.17336 13.5325Z" fill="url(#paint0_linear_243_12935)"/>
</g>
<path d="M25.1734 13.5325C24.9867 13.5947 24.8234 13.5714 24.6834 13.4625C24.5434 13.3536 24.4889 13.1902 24.52 12.9725L25.22 8.8658L22.14 5.9258C22.0156 5.77024 21.9767 5.59913 22.0234 5.41247C22.07 5.2258 22.2023 5.11691 22.42 5.0858L26.6667 4.47913L28.58 0.699134C28.6734 0.512467 28.8134 0.419134 29 0.419134C29.1867 0.419134 29.3267 0.512467 29.42 0.699134L31.3334 4.47913L35.6267 5.0858C35.8134 5.11691 35.93 5.2258 35.9767 5.41247C36.0234 5.59913 35.9845 5.77024 35.86 5.9258L32.78 8.8658L33.48 12.9725C33.5111 13.1902 33.4567 13.3536 33.3167 13.4625C33.1767 13.5714 33.0134 13.5947 32.8267 13.5325L29 11.5258L25.1734 13.5325Z" fill="white"/>
<g clip-path="url(#clip1_243_12935)">
<path d="M25.1734 13.5325C24.9867 13.5947 24.8234 13.5714 24.6834 13.4625C24.5434 13.3536 24.4889 13.1902 24.52 12.9725L25.22 8.8658L22.14 5.9258C22.0156 5.77024 21.9767 5.59913 22.0234 5.41247C22.07 5.2258 22.2023 5.11691 22.42 5.0858L26.6667 4.47913L28.58 0.699134C28.6734 0.512467 28.8134 0.419134 29 0.419134C29.1867 0.419134 29.3267 0.512467 29.42 0.699134L31.3334 4.47913L35.6267 5.0858C35.8134 5.11691 35.93 5.2258 35.9767 5.41247C36.0234 5.59913 35.9845 5.77024 35.86 5.9258L32.78 8.8658L33.48 12.9725C33.5111 13.1902 33.4567 13.3536 33.3167 13.4625C33.1767 13.5714 33.0134 13.5947 32.8267 13.5325L29 11.5258L25.1734 13.5325Z" fill="url(#paint1_linear_243_12935)"/>
</g>
<path d="M47.1734 13.5325C46.9867 13.5947 46.8234 13.5714 46.6834 13.4625C46.5434 13.3536 46.4889 13.1902 46.52 12.9725L47.22 8.8658L44.14 5.9258C44.0156 5.77024 43.9767 5.59913 44.0234 5.41247C44.07 5.2258 44.2023 5.11691 44.42 5.0858L48.6667 4.47913L50.58 0.699134C50.6734 0.512467 50.8134 0.419134 51 0.419134C51.1867 0.419134 51.3267 0.512467 51.42 0.699134L53.3334 4.47913L57.6267 5.0858C57.8134 5.11691 57.93 5.2258 57.9767 5.41247C58.0234 5.59913 57.9845 5.77024 57.86 5.9258L54.78 8.8658L55.48 12.9725C55.5111 13.1902 55.4567 13.3536 55.3167 13.4625C55.1767 13.5714 55.0134 13.5947 54.8267 13.5325L51 11.5258L47.1734 13.5325Z" fill="white"/>
<g clip-path="url(#clip2_243_12935)">
<path d="M47.1734 13.5325C46.9867 13.5947 46.8234 13.5714 46.6834 13.4625C46.5434 13.3536 46.4889 13.1902 46.52 12.9725L47.22 8.8658L44.14 5.9258C44.0156 5.77024 43.9767 5.59913 44.0234 5.41247C44.07 5.2258 44.2023 5.11691 44.42 5.0858L48.6667 4.47913L50.58 0.699134C50.6734 0.512467 50.8134 0.419134 51 0.419134C51.1867 0.419134 51.3267 0.512467 51.42 0.699134L53.3334 4.47913L57.6267 5.0858C57.8134 5.11691 57.93 5.2258 57.9767 5.41247C58.0234 5.59913 57.9845 5.77024 57.86 5.9258L54.78 8.8658L55.48 12.9725C55.5111 13.1902 55.4567 13.3536 55.3167 13.4625C55.1767 13.5714 55.0134 13.5947 54.8267 13.5325L51 11.5258L47.1734 13.5325Z" fill="url(#paint2_linear_243_12935)"/>
</g>
<path d="M69.1734 13.5325C68.9867 13.5947 68.8234 13.5714 68.6834 13.4625C68.5434 13.3536 68.4889 13.1902 68.52 12.9725L69.22 8.8658L66.14 5.9258C66.0156 5.77024 65.9767 5.59913 66.0234 5.41247C66.07 5.2258 66.2023 5.11691 66.42 5.0858L70.6667 4.47913L72.58 0.699134C72.6734 0.512467 72.8134 0.419134 73 0.419134C73.1867 0.419134 73.3267 0.512467 73.42 0.699134L75.3334 4.47913L79.6267 5.0858C79.8134 5.11691 79.93 5.2258 79.9767 5.41247C80.0234 5.59913 79.9845 5.77024 79.86 5.9258L76.78 8.8658L77.48 12.9725C77.5111 13.1902 77.4567 13.3536 77.3167 13.4625C77.1767 13.5714 77.0134 13.5947 76.8267 13.5325L73 11.5258L69.1734 13.5325Z" fill="white"/>
<g clip-path="url(#clip3_243_12935)">
<path d="M69.1734 13.5325C68.9867 13.5947 68.8234 13.5714 68.6834 13.4625C68.5434 13.3536 68.4889 13.1902 68.52 12.9725L69.22 8.8658L66.14 5.9258C66.0156 5.77024 65.9767 5.59913 66.0234 5.41247C66.07 5.2258 66.2023 5.11691 66.42 5.0858L70.6667 4.47913L72.58 0.699134C72.6734 0.512467 72.8134 0.419134 73 0.419134C73.1867 0.419134 73.3267 0.512467 73.42 0.699134L75.3334 4.47913L79.6267 5.0858C79.8134 5.11691 79.93 5.2258 79.9767 5.41247C80.0234 5.59913 79.9845 5.77024 79.86 5.9258L76.78 8.8658L77.48 12.9725C77.5111 13.1902 77.4567 13.3536 77.3167 13.4625C77.1767 13.5714 77.0134 13.5947 76.8267 13.5325L73 11.5258L69.1734 13.5325Z" fill="url(#paint3_linear_243_12935)"/>
</g>
<path d="M91.1734 13.5325C90.9867 13.5947 90.8234 13.5714 90.6834 13.4625C90.5434 13.3536 90.4889 13.1902 90.52 12.9725L91.22 8.8658L88.14 5.9258C88.0156 5.77024 87.9767 5.59913 88.0234 5.41247C88.07 5.2258 88.2023 5.11691 88.42 5.0858L92.6667 4.47913L94.58 0.699134C94.6734 0.512467 94.8134 0.419134 95 0.419134C95.1867 0.419134 95.3267 0.512467 95.42 0.699134L97.3334 4.47913L101.627 5.0858C101.813 5.11691 101.93 5.2258 101.977 5.41247C102.023 5.59913 101.984 5.77024 101.86 5.9258L98.78 8.8658L99.48 12.9725C99.5111 13.1902 99.4567 13.3536 99.3167 13.4625C99.1767 13.5714 99.0134 13.5947 98.8267 13.5325L95 11.5258L91.1734 13.5325Z" fill="white"/>
<g clip-path="url(#clip4_243_12935)">
<path d="M91.1734 13.5325C90.9867 13.5947 90.8234 13.5714 90.6834 13.4625C90.5434 13.3536 90.4889 13.1902 90.52 12.9725L91.22 8.8658L88.14 5.9258C88.0156 5.77024 87.9767 5.59913 88.0234 5.41247C88.07 5.2258 88.2023 5.11691 88.42 5.0858L92.6667 4.47913L94.58 0.699134C94.6734 0.512467 94.8134 0.419134 95 0.419134C95.1867 0.419134 95.3267 0.512467 95.42 0.699134L97.3334 4.47913L101.627 5.0858C101.813 5.11691 101.93 5.2258 101.977 5.41247C102.023 5.59913 101.984 5.77024 101.86 5.9258L98.78 8.8658L99.48 12.9725C99.5111 13.1902 99.4567 13.3536 99.3167 13.4625C99.1767 13.5714 99.0134 13.5947 98.8267 13.5325L95 11.5258L91.1734 13.5325Z" fill="url(#paint4_linear_243_12935)"/>
</g>
<defs>
<linearGradient id="paint0_linear_243_12935" x1="-4.50497" y1="3.85876" x2="26.5553" y2="18.8613" gradientUnits="userSpaceOnUse">
<stop stop-color="#2378DA"/>
<stop offset="0.951841" stop-color="#042F61"/>
</linearGradient>
<linearGradient id="paint1_linear_243_12935" x1="17.495" y1="3.85876" x2="48.5553" y2="18.8613" gradientUnits="userSpaceOnUse">
<stop stop-color="#2378DA"/>
<stop offset="0.951841" stop-color="#042F61"/>
</linearGradient>
<linearGradient id="paint2_linear_243_12935" x1="39.495" y1="3.85876" x2="70.5553" y2="18.8613" gradientUnits="userSpaceOnUse">
<stop stop-color="#2378DA"/>
<stop offset="0.951841" stop-color="#042F61"/>
</linearGradient>
<linearGradient id="paint3_linear_243_12935" x1="61.495" y1="3.85876" x2="92.5553" y2="18.8613" gradientUnits="userSpaceOnUse">
<stop stop-color="#2378DA"/>
<stop offset="0.951841" stop-color="#042F61"/>
</linearGradient>
<linearGradient id="paint4_linear_243_12935" x1="83.495" y1="3.85876" x2="114.555" y2="18.8613" gradientUnits="userSpaceOnUse">
<stop stop-color="#2378DA"/>
<stop offset="0.951841" stop-color="#042F61"/>
</linearGradient>
<clipPath id="clip0_243_12935">
<rect width="14" height="14" fill="white"/>
</clipPath>
<clipPath id="clip1_243_12935">
<rect width="14" height="14" fill="white" transform="translate(22)"/>
</clipPath>
<clipPath id="clip2_243_12935">
<rect width="14" height="14" fill="white" transform="translate(44)"/>
</clipPath>
<clipPath id="clip3_243_12935">
<rect width="14" height="14" fill="white" transform="translate(66)"/>
</clipPath>
<clipPath id="clip4_243_12935">
<rect width="9.8" height="14" fill="white" transform="translate(88)"/>
</clipPath>
</defs>
</svg>
