<svg width="34" height="34" viewBox="0 0 34 34" fill="none" xmlns="http://www.w3.org/2000/svg">
<path fill-rule="evenodd" clip-rule="evenodd" d="M5.51986 24.491L11.1239 16.2725C11.3503 15.9405 11.6543 15.6689 12.0096 15.4812C12.3648 15.2934 12.7606 15.1953 13.1624 15.1953C13.5642 15.1953 13.9599 15.2934 14.3152 15.4812C14.6704 15.6689 14.9745 15.9405 15.2009 16.2725L20.0144 23.3345C20.1026 23.4629 20.163 23.6084 20.1917 23.7616C20.2204 23.9148 20.2167 24.0723 20.1809 24.224C20.0456 24.8004 19.7195 25.3142 19.2556 25.6821C18.7916 26.0499 18.217 26.2502 17.6249 26.2505H6.44986C6.24487 26.2512 6.0436 26.1958 5.86783 26.0903C5.69207 25.9848 5.54852 25.8332 5.45272 25.652C5.35693 25.4707 5.31255 25.2668 5.32438 25.0621C5.33622 24.8575 5.40382 24.6599 5.51986 24.491Z" fill="#000A21"/>
<path fill-rule="evenodd" clip-rule="evenodd" d="M6.08096 26.2501H2.62496C2.03286 26.2498 1.45821 26.0496 0.994246 25.6817C0.53028 25.3139 0.204216 24.8 0.0689572 24.2236C0.0331504 24.0719 0.0294658 23.9144 0.05814 23.7612C0.0868142 23.608 0.147213 23.4625 0.235457 23.3341L3.37946 18.7216C3.5695 18.4438 3.82442 18.2165 4.12213 18.0594C4.41984 17.9024 4.75136 17.8203 5.08796 17.8203C5.42455 17.8203 5.75607 17.9024 6.05378 18.0594C6.35149 18.2165 6.60641 18.4438 6.79646 18.7216L8.86946 21.7636C8.99682 21.9504 9.06495 22.1712 9.06495 22.3973C9.06495 22.6234 8.99682 22.8443 8.86946 23.0311L7.00946 25.7596C6.90625 25.9107 6.76775 26.0343 6.60595 26.1198C6.44415 26.2053 6.26394 26.25 6.08096 26.2501Z" fill="#000A21"/>
<path d="M7.125 16.125C7.95343 16.125 8.625 15.4534 8.625 14.625C8.625 13.7966 7.95343 13.125 7.125 13.125C6.29657 13.125 5.625 13.7966 5.625 14.625C5.625 15.4534 6.29657 16.125 7.125 16.125Z" fill="#000A21"/>
<path fill-rule="evenodd" clip-rule="evenodd" d="M33.75 1.875V4.875C33.7492 5.37204 33.5514 5.84849 33.1999 6.19995C32.8485 6.55141 32.372 6.74921 31.875 6.75H1.875C1.37796 6.74921 0.90151 6.55141 0.550051 6.19995C0.198592 5.84849 0.000793357 5.37204 0 4.875V1.875C0.000793357 1.37796 0.198592 0.90151 0.550051 0.550051C0.90151 0.198592 1.37796 0.000793357 1.875 0H31.875C32.372 0.000793357 32.8485 0.198592 33.1999 0.550051C33.5514 0.90151 33.7492 1.37796 33.75 1.875ZM33.75 28.875V31.875C33.7492 32.372 33.5514 32.8485 33.1999 33.1999C32.8485 33.5514 32.372 33.7492 31.875 33.75H11.625C11.128 33.7492 10.6515 33.5514 10.3001 33.1999C9.94859 32.8485 9.75079 32.372 9.75 31.875V28.875C9.75079 28.378 9.94859 27.9015 10.3001 27.5501C10.6515 27.1986 11.128 27.0008 11.625 27H31.875C32.372 27.0008 32.8485 27.1986 33.1999 27.5501C33.5514 27.9015 33.7492 28.378 33.75 28.875ZM9 28.875V31.875C8.99921 32.372 8.80141 32.8485 8.44995 33.1999C8.09849 33.5514 7.62204 33.7492 7.125 33.75H1.875C1.37796 33.7492 0.90151 33.5514 0.550051 33.1999C0.198592 32.8485 0.000793357 32.372 0 31.875V28.875C0.000793357 28.378 0.198592 27.9015 0.550051 27.5501C0.90151 27.1986 1.37796 27.0008 1.875 27H7.125C7.62204 27.0008 8.09849 27.1986 8.44995 27.5501C8.80141 27.9015 8.99921 28.378 9 28.875ZM2.25 31.5H6.75V29.25H2.25V31.5ZM20.25 10.125V23.625C20.25 24.3212 19.9734 24.9889 19.4812 25.4812C18.9889 25.9734 18.3212 26.25 17.625 26.25H2.625C1.92881 26.25 1.26113 25.9734 0.768845 25.4812C0.276562 24.9889 0 24.3212 0 23.625V10.125C0 8.6745 1.176 7.5 2.625 7.5H17.625C19.074 7.5 20.25 8.6745 20.25 10.125ZM18 10.125C18 10.0255 17.9605 9.93016 17.8902 9.85983C17.8198 9.78951 17.7245 9.75 17.625 9.75H2.625C2.52554 9.75 2.43016 9.78951 2.35984 9.85983C2.28951 9.93016 2.25 10.0255 2.25 10.125V23.625C2.25 23.832 2.418 24 2.625 24H17.625C17.7245 24 17.8198 23.9605 17.8902 23.8902C17.9605 23.8198 18 23.7245 18 23.625V10.125ZM33.75 10.125V23.625C33.75 24.3212 33.4734 24.9889 32.9812 25.4812C32.4889 25.9734 31.8212 26.25 31.125 26.25H23.625C22.9288 26.25 22.2611 25.9734 21.7688 25.4812C21.2766 24.9889 21 24.3212 21 23.625V10.125C21 8.6745 22.176 7.5 23.625 7.5H31.125C32.574 7.5 33.75 8.6745 33.75 10.125ZM31.5 10.125C31.5 10.0255 31.4605 9.93016 31.3902 9.85983C31.3198 9.78951 31.2245 9.75 31.125 9.75H23.625C23.5255 9.75 23.4302 9.78951 23.3598 9.85983C23.2895 9.93016 23.25 10.0255 23.25 10.125V23.625C23.25 23.832 23.418 24 23.625 24H31.125C31.2245 24 31.3198 23.9605 31.3902 23.8902C31.4605 23.8198 31.5 23.7245 31.5 23.625V10.125Z" fill="#000A21"/>
</svg>
