<svg width="53" height="59" viewBox="0 0 53 59" fill="none" xmlns="http://www.w3.org/2000/svg">
<path d="M26.0139 11.4235C17.9695 11.4235 11.4249 17.9694 11.4249 26.015C11.4249 31.2685 14.271 36.1387 18.852 38.7233C19.1487 38.8905 19.331 39.2048 19.331 39.5455V43.4577H22.9842L20.1255 34.1587C19.9734 33.6609 20.2525 33.1341 20.7503 32.9808C21.2481 32.8274 21.7748 33.1065 21.9282 33.6043L24.9579 43.4577H27.0724L30.1021 33.6043C30.2554 33.1065 30.7822 32.8274 31.28 32.9808C31.7778 33.1341 32.0569 33.6609 31.9048 34.1587L29.0461 43.4577H32.6993V39.5455C32.6993 39.2048 32.8816 38.8905 33.1783 38.7233C37.7592 36.1387 40.6054 31.2685 40.6054 26.015C40.6054 17.9694 34.0595 11.4235 26.0139 11.4235ZM36.1287 23.4153L28.4703 31.1428C28.2931 31.3213 28.0529 31.4219 27.8028 31.4219C27.8015 31.4219 27.8015 31.4219 27.8003 31.4219C27.5501 31.4219 27.31 31.3226 27.134 31.1466L23.5323 27.5449L16.8582 29.6758C16.4434 29.809 15.9921 29.6393 15.7658 29.2672C15.5395 28.8951 15.5973 28.4161 15.9066 28.1094L23.6191 20.4359C23.9874 20.07 24.5833 20.0701 24.9503 20.4384L28.4967 23.9835L35.1721 21.8527C35.5857 21.7207 36.0357 21.8879 36.2632 22.2587C36.4895 22.6283 36.4342 23.106 36.1287 23.4153ZM30.7319 54.5883C30.2931 56.7908 28.3446 58.4565 26.0151 58.4565C23.6857 58.4565 21.7371 56.7908 21.2984 54.5883H30.7319ZM32.6993 49.4579V51.1588C32.6993 52.0099 32.0066 52.7026 31.1555 52.7026H20.8735C20.0237 52.7026 19.331 52.0099 19.331 51.1588V49.4579H32.6993ZM32.0833 24.8182L27.7977 29.1427L24.4601 25.8063C24.2803 25.6266 24.0389 25.5298 23.7938 25.5298C23.697 25.5298 23.6002 25.5448 23.5059 25.5738L20.0048 26.6926L24.2816 22.436L27.5689 25.7234C27.8179 25.9723 28.1862 26.0615 28.5219 25.9547L32.0833 24.8182ZM25.0723 6.18092V0.942846C25.0723 0.422144 25.4943 0 26.0151 0C26.536 0 26.958 0.422144 26.958 0.942846V6.18092C26.958 6.70162 26.536 7.12377 26.0151 7.12377C25.4943 7.12377 25.0723 6.70162 25.0723 6.18092ZM7.61958 8.95302C7.25137 8.5848 7.25137 7.98779 7.61958 7.6197C7.98804 7.25137 8.58493 7.25149 8.95302 7.6197L12.6569 11.3236C13.0251 11.6918 13.0251 12.2888 12.6569 12.6569C12.4727 12.8409 12.2314 12.9331 11.9901 12.9331C11.7487 12.9331 11.5075 12.8411 11.3233 12.6569L7.61958 8.95302ZM44.4107 43.0774C44.7789 43.4456 44.7789 44.0426 44.4107 44.4107C44.2265 44.5947 43.9852 44.6869 43.7439 44.6869C43.5027 44.6869 43.2613 44.5949 43.0771 44.4107L39.3733 40.7068C39.005 40.3386 39.005 39.7416 39.3733 39.3735C39.7416 39.0053 40.3385 39.0053 40.7067 39.3735L44.4107 43.0774ZM7.12377 26.0151C7.12377 26.5358 6.70175 26.958 6.18092 26.958H0.942846C0.422018 26.958 0 26.5358 0 26.0151C0 25.4944 0.422018 25.0723 0.942846 25.0723H6.18092C6.70162 25.0723 7.12377 25.4944 7.12377 26.0151ZM52.0303 26.0151C52.0303 26.5358 51.6083 26.958 51.0874 26.958H45.8493C45.3285 26.958 44.9065 26.5358 44.9065 26.0151C44.9065 25.4944 45.3285 25.0723 45.8493 25.0723H51.0874C51.6083 25.0723 52.0303 25.4944 52.0303 26.0151ZM12.6569 39.3735C13.0251 39.7417 13.0251 40.3387 12.6569 40.7068L8.95302 44.4107C8.76885 44.5947 8.52748 44.6869 8.28623 44.6869C8.04499 44.6869 7.80362 44.5949 7.61945 44.4107C7.25124 44.0425 7.25124 43.4455 7.61945 43.0774L11.3233 39.3735C11.6918 39.0053 12.2887 39.0053 12.6569 39.3735ZM44.4107 7.6197C44.7789 7.98792 44.7789 8.58493 44.4107 8.95302L40.7068 12.6569C40.5226 12.8409 40.2813 12.9331 40.04 12.9331C39.7988 12.9331 39.5574 12.8411 39.3733 12.6569C39.005 12.2887 39.005 11.6917 39.3733 11.3236L43.0771 7.6197C43.4455 7.25149 44.0424 7.25149 44.4107 7.6197Z" fill="#2378DA"/>
</svg>
