<svg width="90" height="90" viewBox="0 0 90 90" fill="none" xmlns="http://www.w3.org/2000/svg">
<circle cx="45" cy="45" r="45" fill="white"/>
<path d="M45 68.3622C44.8287 68.3622 44.6605 68.3169 44.5123 68.231L38.6393 64.8316C38.4159 64.7022 38.253 64.4894 38.1866 64.24C38.1201 63.9906 38.1554 63.725 38.2847 63.5016C38.4141 63.2782 38.6268 63.1154 38.8763 63.0489C39.1257 62.9824 39.3913 63.0177 39.6147 63.1471L45 66.2632L62.522 56.1199V33.879L45 23.7357L27.4779 33.879V56.12L29.055 57.0326C30.5931 58.0943 32.4232 58.6517 34.292 58.6277C35.2493 58.6277 36.2389 58.6277 36.2389 54.734V36.2384C36.2389 35.9803 36.3415 35.7327 36.524 35.5501C36.7066 35.3676 36.9542 35.265 37.2124 35.265C37.4706 35.265 37.7182 35.3676 37.9007 35.5501C38.0833 35.7327 38.1858 35.9803 38.1858 36.2384V54.734C38.1858 57.7684 37.7143 60.5746 34.292 60.5746C32.0753 60.5908 29.9049 59.9403 28.0625 58.7076L26.0168 57.5231C25.869 57.4377 25.7463 57.3149 25.661 57.1671C25.5757 57.0192 25.5309 56.8515 25.531 56.6808V33.3181C25.5309 33.1474 25.5757 32.9797 25.661 32.8318C25.7462 32.684 25.869 32.5612 26.0168 32.4758L44.5123 21.7679C44.6604 21.682 44.8287 21.6367 45 21.6367C45.1713 21.6367 45.3395 21.682 45.4877 21.7679L63.9832 32.4758C64.131 32.5612 64.2537 32.684 64.339 32.8319C64.4242 32.9797 64.4691 33.1474 64.4689 33.3181V56.6808C64.469 56.8515 64.4242 57.0192 64.3389 57.1671C64.2537 57.315 64.131 57.4378 63.9831 57.5231L45.4876 68.231C45.3395 68.3169 45.1712 68.3622 45 68.3622Z" fill="#91CB50"/>
<path d="M38.1859 54.7345V36.239C38.1859 36.0454 38.1282 35.8577 38.0224 35.699L37.9007 35.5507C37.7181 35.3682 37.4706 35.2655 37.2124 35.2655C36.9542 35.2655 36.7067 35.3682 36.5242 35.5507L36.4025 35.699C36.2967 35.8577 36.239 36.0454 36.239 36.239V54.7345C36.239 58.6283 35.2494 58.6283 34.2921 58.6283C32.5399 58.6508 30.8216 58.1625 29.3463 57.2264L29.0547 57.0337L27.4779 56.1211V33.8801L45 23.7362L62.5221 33.8801V56.1199L45 66.2637L39.6144 63.1482C39.3911 63.0189 39.126 62.983 38.8767 63.0493L38.6967 63.1165C38.5256 63.2008 38.3817 63.3344 38.2847 63.5018C38.1554 63.7252 38.1206 63.9914 38.1871 64.2408C38.2537 64.4901 38.4164 64.7034 38.6396 64.8327L44.512 68.2322C44.6602 68.3181 44.8287 68.3627 45 68.3627C45.1713 68.3627 45.3398 68.3181 45.488 68.2322L63.9835 57.5243C64.0945 57.4601 64.1912 57.3744 64.2687 57.2733L64.3384 57.1681C64.4237 57.0202 64.4691 56.8521 64.469 56.6814V33.3186C64.4691 33.1479 64.4237 32.9798 64.3384 32.8319C64.2744 32.7211 64.1896 32.6241 64.0887 32.5467L63.9835 32.477L45.488 21.7691C45.3398 21.6831 45.1713 21.6372 45 21.6372C44.8287 21.6372 44.6602 21.6831 44.512 21.7691L26.0165 32.477L25.9113 32.5467C25.8104 32.6241 25.7256 32.7211 25.6616 32.8319L25.6046 32.9472C25.5561 33.0646 25.5309 33.1908 25.531 33.3186V56.6814C25.5309 56.852 25.5763 57.0202 25.6616 57.1681C25.7468 57.3155 25.8691 57.4378 26.0165 57.523L28.0623 58.7081C29.9047 59.9408 32.0754 60.5913 34.2921 60.5752C37.7143 60.5752 38.1859 57.7689 38.1859 54.7345ZM65.1179 56.6814C65.1181 56.9657 65.0432 57.2449 64.9012 57.4913C64.7944 57.6764 64.6526 57.8386 64.4842 57.9679L64.308 58.0858L45.8125 68.7937L45.8112 68.7924C45.6263 68.8994 45.4234 68.9699 45.2129 68.9978L45 69.0117C44.7146 69.0116 44.4345 68.9355 44.1875 68.7924V68.7937L38.3139 65.3942C37.9417 65.1787 37.6706 64.8237 37.5597 64.4081C37.4489 63.9925 37.5078 63.5496 37.7232 63.1774C37.9388 62.805 38.2936 62.5327 38.7093 62.4219C39.1249 62.3112 39.5679 62.3699 39.9401 62.5854L44.9987 65.5134L61.8731 55.7447V34.254L45 24.4853L28.1269 34.254V55.7459L29.3805 56.471L29.4236 56.4988C30.8508 57.484 32.5491 58.0014 34.2832 57.9793H34.2921L34.6115 57.9717C34.8762 57.9546 34.9921 57.9018 35.1058 57.7511C35.2084 57.6151 35.3355 57.3547 35.4328 56.8601C35.5295 56.3689 35.59 55.6845 35.59 54.7345V36.239C35.59 35.8087 35.7611 35.3961 36.0653 35.0919C36.3696 34.7876 36.7821 34.6166 37.2124 34.6166C37.6427 34.6166 38.0553 34.7876 38.3595 35.0919C38.6638 35.3961 38.8348 35.8087 38.8348 36.239V54.7345C38.8348 56.2541 38.7233 57.8537 38.1022 59.0846C37.7832 59.7165 37.3238 60.2638 36.675 60.6474C36.0295 61.0289 35.2389 61.2223 34.2959 61.2229H34.2933L34.2921 61.2241V61.2229C31.9533 61.2389 29.6633 60.5555 27.7175 59.2582L25.692 58.0858C25.4456 57.9434 25.241 57.7379 25.0988 57.4913C24.9923 57.3065 24.9236 57.1032 24.896 56.893L24.8821 56.6814V33.3186C24.8819 33.0343 24.9568 32.755 25.0988 32.5087C25.241 32.2621 25.4455 32.0566 25.692 31.9142L44.1875 21.2063V21.2076C44.4345 21.0644 44.7145 20.9883 45 20.9883C45.2851 20.9883 45.5644 21.0648 45.8112 21.2076L45.8125 21.2063L64.308 31.9142L64.4842 32.0321C64.6526 32.1614 64.7944 32.3236 64.9012 32.5087C65.0432 32.755 65.1181 33.0343 65.1179 33.3186V56.6814Z" fill="#91CB50"/>
<path d="M48.8938 54.7346C44.5998 54.7346 41.1062 52.1146 41.1062 48.8939C41.1062 48.6357 41.2088 48.3881 41.3913 48.2056C41.5739 48.023 41.8215 47.9204 42.0796 47.9204C42.3378 47.9204 42.5854 48.023 42.768 48.2056C42.9505 48.3881 43.0531 48.6357 43.0531 48.8939C43.0531 51.0043 45.7281 52.7877 48.8938 52.7877C52.0594 52.7877 54.7345 51.0043 54.7345 48.8939C54.7345 47.5116 52.336 45.9735 48.8938 45.9735C44.5266 45.9735 41.1062 43.8365 41.1062 41.1063C41.1062 37.8856 44.5998 35.2656 48.8938 35.2656C53.1878 35.2656 56.6814 37.8856 56.6814 41.1063C56.6814 41.3645 56.5788 41.6121 56.3962 41.7946C56.2137 41.9772 55.9661 42.0798 55.7079 42.0798C55.4497 42.0798 55.2021 41.9772 55.0196 41.7946C54.837 41.6121 54.7345 41.3645 54.7345 41.1063C54.7345 38.9959 52.0594 37.2125 48.8938 37.2125C45.7281 37.2125 43.0531 38.9959 43.0531 41.1063C43.0531 42.4886 45.4515 44.0267 48.8938 44.0267C53.261 44.0267 56.6814 46.1637 56.6814 48.8939C56.6814 52.1146 53.1878 54.7346 48.8938 54.7346Z" fill="#91CB50"/>
<path d="M54.0855 41.1068C54.0855 40.3438 53.5983 39.5468 52.6419 38.909C51.6942 38.2772 50.3614 37.862 48.8938 37.862C47.4262 37.862 46.0934 38.2772 45.1458 38.909C44.1894 39.5468 43.7021 40.3438 43.7021 41.1068C43.7021 41.4273 44.0205 41.9898 44.9912 42.515C45.9124 43.0135 47.2637 43.3782 48.8938 43.3782C51.1754 43.3782 53.2464 43.9353 54.7687 44.8866C56.2865 45.8351 57.3304 47.2312 57.3304 48.8944C57.3304 50.7552 56.3199 52.3918 54.7877 53.5411C53.2552 54.6905 51.1681 55.3841 48.8938 55.3841C46.6195 55.3841 44.5324 54.6905 42.9999 53.5411C41.4678 52.3918 40.4573 50.7552 40.4573 48.8944C40.4573 48.4641 40.6283 48.0516 40.9326 47.7473C41.2369 47.4431 41.6494 47.272 42.0797 47.272C42.51 47.272 42.9225 47.4431 43.2268 47.7473C43.531 48.0516 43.7021 48.4641 43.7021 48.8944C43.7021 49.6575 44.1894 50.4545 45.1458 51.0923C46.0934 51.724 47.4262 52.1392 48.8938 52.1392V52.7882C45.7282 52.7882 43.0531 51.0049 43.0531 48.8944C43.0531 48.7008 42.9954 48.5132 42.8896 48.3545L42.7679 48.2062C42.5854 48.0236 42.3379 47.921 42.0797 47.921C41.8215 47.921 41.574 48.0236 41.3914 48.2062L41.2697 48.3545C41.1639 48.5132 41.1062 48.7008 41.1062 48.8944C41.1062 52.1152 44.5998 54.7351 48.8938 54.7351C53.1878 54.7351 56.6814 52.1152 56.6814 48.8944C56.6814 46.1642 53.261 44.0272 48.8938 44.0272C45.4516 44.0272 43.0531 42.4891 43.0531 41.1068C43.0531 38.9964 45.7282 37.213 48.8938 37.213C52.0595 37.213 54.7345 38.9964 54.7345 41.1068C54.7345 41.365 54.8371 41.6125 55.0197 41.7951C55.2023 41.9777 55.4498 42.0803 55.708 42.0803C55.9661 42.0803 56.2137 41.9777 56.3962 41.7951C56.5788 41.6125 56.6814 41.365 56.6814 41.1068C56.6814 37.8861 53.1878 35.2662 48.8938 35.2662C44.5998 35.2662 41.1062 37.8861 41.1062 41.1068C41.1062 43.837 44.5266 45.9741 48.8938 45.9741C52.3361 45.9741 54.7345 47.5121 54.7345 48.8944C54.7345 51.0049 52.0595 52.7882 48.8938 52.7882V52.1392C50.3614 52.1392 51.6942 51.724 52.6419 51.0923C53.5983 50.4545 54.0855 49.6575 54.0855 48.8944C54.0855 48.574 53.7672 48.0115 52.7965 47.4862C51.8753 46.9877 50.524 46.623 48.8938 46.623C46.6122 46.623 44.5412 46.0659 43.0189 45.1147C41.5011 44.1662 40.4573 42.77 40.4573 41.1068C40.4573 39.246 41.4678 37.6094 42.9999 36.4601C44.5324 35.3108 46.6195 34.6172 48.8938 34.6172C51.1681 34.6172 53.2552 35.3108 54.7877 36.4601C56.3199 37.6094 57.3304 39.246 57.3304 41.1068C57.3304 41.5371 57.1593 41.9497 56.8551 42.2539C56.5508 42.5582 56.1382 42.7293 55.708 42.7293C55.2777 42.7293 54.8651 42.5582 54.5609 42.2539C54.2566 41.9497 54.0855 41.5371 54.0855 41.1068Z" fill="#91CB50"/>
</svg>
