<svg width="38" height="36" viewBox="0 0 38 36" fill="none" xmlns="http://www.w3.org/2000/svg">
<path d="M23.1709 29.3626C22.4616 29.297 21.7749 29.0788 21.1578 28.723C20.5407 28.3672 20.0078 27.8822 19.5956 27.3012C18.2216 25.5729 17.2359 23.5689 16.7054 21.4255C15.312 16.2285 16.3153 11.7579 19.0383 11.0288C21.7595 10.2989 24.8637 13.6691 26.2571 18.8661C26.869 20.988 27.0171 23.2167 26.6913 25.4008C26.3047 27.517 25.3221 28.8888 23.9242 29.2637C23.6786 29.3298 23.4253 29.3631 23.1709 29.3626ZM19.7844 12.7297C19.6895 12.7295 19.5949 12.7416 19.503 12.7657C18.0692 13.1504 17.3095 16.7364 18.4422 20.9607C18.9032 22.8475 19.7637 24.6133 20.9657 26.1389C21.8575 27.188 22.7906 27.7085 23.4585 27.5278C24.1283 27.348 24.6749 26.4328 24.923 25.0781C25.2011 23.1562 25.0638 21.197 24.5202 19.3327C23.4594 15.3745 21.2399 12.7297 19.7844 12.7297Z" fill="#4C5364"/>
<path d="M22.3381 27.3085C21.0607 26.6297 19.3607 24.403 18.4419 20.9572C17.4594 17.2866 17.9295 14.4108 18.7827 13.2925C18.9182 13.1121 18.9809 12.8873 18.9584 12.6628C18.9359 12.4382 18.8297 12.2304 18.6611 12.0805C18.4924 11.9306 18.2735 11.8496 18.0479 11.8537C17.8223 11.8577 17.6064 11.9464 17.4432 12.1022L14.2329 15.2127C12.5864 16.8042 10.5628 17.9518 8.35181 18.5479L5.00401 19.4406C4.31462 19.6286 3.72729 20.0811 3.36973 20.6997C3.01217 21.3184 2.91329 22.0532 3.09458 22.7443L4.26236 27.0801C4.41506 27.6561 4.75418 28.1654 5.22678 28.5284C5.69938 28.8914 6.27887 29.0877 6.87479 29.0866C7.10902 29.0864 7.34225 29.0562 7.5688 28.9967L11.3949 27.9638C13.8367 27.3113 16.4128 27.358 18.8294 28.0987L21.6522 28.9617C21.8659 29.0268 22.0961 29.0101 22.2981 28.9147C22.5001 28.8194 22.6594 28.6523 22.7449 28.4459C22.8304 28.2396 22.836 28.0088 22.7606 27.7985C22.6853 27.5882 22.5352 27.4135 22.3381 27.3085Z" fill="#4C5364"/>
<path d="M22.0314 20.4653C21.7845 19.5442 21.1818 18.7589 20.3559 18.2821C19.53 17.8053 18.5485 17.6762 17.6273 17.923L15.8914 18.3878C15.7774 18.4184 15.6704 18.4711 15.5768 18.543C15.4831 18.6149 15.4045 18.7045 15.3455 18.8068C15.2865 18.909 15.2482 19.0219 15.2328 19.139C15.2174 19.2561 15.2252 19.375 15.2558 19.489L16.651 24.6986C16.6816 24.8127 16.7343 24.9196 16.8062 25.0133C16.8781 25.1069 16.9677 25.1855 17.07 25.2445C17.1723 25.3036 17.2852 25.3419 17.4022 25.3572C17.5193 25.3726 17.6382 25.3648 17.7523 25.3342L19.4891 24.8685C20.4095 24.6208 21.1941 24.018 21.6707 23.1926C22.1473 22.3671 22.277 21.3863 22.0314 20.4653ZM13.652 35.2571C13.1187 35.4 12.5513 35.3404 12.0593 35.0897C11.5673 34.8391 11.1855 34.4151 10.9875 33.8997L8.63484 27.7776L12.9769 26.6144L15.1605 32.2959C15.273 32.5884 15.3228 32.9013 15.3065 33.2143C15.2902 33.5273 15.2083 33.8333 15.066 34.1126C14.9237 34.3918 14.7243 34.6381 14.4807 34.8352C14.2372 35.0324 13.9548 35.1762 13.652 35.2571ZM33.4422 17.211L32.8129 17.8403L32.1836 17.211C31.9772 17.0047 31.7322 16.841 31.4626 16.7293C31.193 16.6176 30.904 16.5601 30.6122 16.5601C30.3203 16.5601 30.0314 16.6176 29.7617 16.7293C29.4921 16.841 29.2471 17.0047 29.0408 17.211C28.8246 17.4347 28.6604 17.7033 28.5598 17.9976C28.3853 18.4654 28.3379 18.9711 28.4224 19.4631C28.5069 19.9552 28.7203 20.4161 29.0408 20.7989C29.9849 21.9292 31.0306 22.9707 32.1647 23.9102C32.3504 24.0648 32.5743 24.1663 32.8129 24.2042C33.702 24.2042 36.585 20.7989 36.585 20.7989C37.0057 20.2957 37.2361 19.6608 37.2361 19.0049C37.2361 18.3491 37.0057 17.7142 36.585 17.211C36.3786 17.0045 36.1336 16.8407 35.8639 16.729C35.5942 16.6172 35.3051 16.5597 35.0131 16.5597C34.7212 16.5597 34.4321 16.6172 34.1624 16.729C33.8927 16.8407 33.6485 17.0045 33.4422 17.211ZM12.7171 11.7866C13.544 10.7956 14.0886 9.60021 14.2937 8.32599C14.4988 7.05178 14.3569 5.74583 13.8828 4.54544C13.4087 3.34504 12.62 2.29454 11.5995 1.50435C10.5791 0.714164 9.36462 0.21348 8.08377 0.0549299C7.03577 -0.0753027 5.97195 0.0267189 4.9678 0.353755C3.96366 0.68079 3.04379 1.22482 2.27349 1.94725C1.50319 2.66968 0.901328 3.55279 0.51062 4.53391C0.119911 5.51504 -0.0500699 6.57014 0.0127399 7.62433C0.147914 9.47636 0.984607 11.207 2.35213 12.4633C3.71965 13.7196 5.51495 14.4067 7.37178 14.3846H12.5409C12.7956 14.3846 13.0439 14.3045 13.2505 14.1556C13.4572 14.0066 13.6117 13.7965 13.6922 13.5548C13.7728 13.3132 13.7753 13.0523 13.6993 12.8092C13.6234 12.566 13.4729 12.353 13.2691 12.2001L12.7171 11.7866ZM9.51045 7.84548L6.51775 9.55534C6.40357 9.62073 6.27421 9.65497 6.14263 9.65461C6.01105 9.65425 5.88188 9.61931 5.76806 9.5533C5.65424 9.48728 5.55977 9.39251 5.49413 9.27847C5.42848 9.16444 5.39396 9.03516 5.39403 8.90358V5.48296C5.39423 5.35149 5.42892 5.22237 5.49463 5.10849C5.56034 4.99462 5.65478 4.89998 5.76851 4.83401C5.88224 4.76805 6.01128 4.73308 6.14275 4.73258C6.27423 4.73209 6.40353 4.7661 6.51775 4.8312L9.51135 6.54106C9.62625 6.60671 9.72176 6.70158 9.78819 6.81604C9.85461 6.9305 9.8896 7.06048 9.8896 7.19282C9.8896 7.32516 9.85461 7.45514 9.78819 7.5696C9.72176 7.68406 9.62625 7.77893 9.51135 7.84458L9.51045 7.84548ZM35.9593 0.000991268H23.3736C22.8969 0.00146726 22.4399 0.191047 22.1028 0.528127C21.7657 0.865206 21.5761 1.32225 21.5756 1.79895V7.19282C21.5761 7.66952 21.7657 8.12656 22.1028 8.46364C22.4399 8.80072 22.8969 8.9903 23.3736 8.99078H28.3953L30.605 11.2005C30.7699 11.3677 30.9664 11.5006 31.1831 11.5913C31.3997 11.6821 31.6323 11.7289 31.8672 11.7291C32.0324 11.729 32.1969 11.7066 32.3562 11.6625C32.6637 11.5793 32.9433 11.415 33.1656 11.1868C33.388 10.9586 33.5449 10.6749 33.6202 10.3653L33.9645 8.99078H35.9593C36.436 8.9903 36.893 8.80072 37.2301 8.46364C37.5672 8.12656 37.7568 7.66952 37.7573 7.19282V1.79895C37.7568 1.32225 37.5672 0.865206 37.2301 0.528127C36.893 0.191047 36.436 0.00146726 35.9593 0.000991268ZM26.0705 5.39486C25.8927 5.39486 25.7189 5.34214 25.5711 5.24336C25.4233 5.14458 25.308 5.00418 25.24 4.83991C25.1719 4.67564 25.1541 4.49489 25.1888 4.3205C25.2235 4.14612 25.3091 3.98593 25.4349 3.86021C25.5606 3.73449 25.7208 3.64887 25.8952 3.61418C26.0695 3.57949 26.2503 3.59729 26.4146 3.66534C26.5788 3.73338 26.7192 3.8486 26.818 3.99644C26.9168 4.14427 26.9695 4.31808 26.9695 4.49588C26.9695 4.73431 26.8748 4.96297 26.7062 5.13156C26.5376 5.30015 26.309 5.39486 26.0705 5.39486ZM29.6665 5.39486C29.4887 5.39486 29.3148 5.34214 29.167 5.24336C29.0192 5.14458 28.9039 5.00418 28.8359 4.83991C28.7679 4.67564 28.7501 4.49489 28.7847 4.3205C28.8194 4.14612 28.9051 3.98593 29.0308 3.86021C29.1565 3.73449 29.3167 3.64887 29.4911 3.61418C29.6655 3.57949 29.8462 3.59729 30.0105 3.66534C30.1747 3.73338 30.3151 3.8486 30.4139 3.99644C30.5127 4.14427 30.5654 4.31808 30.5654 4.49588C30.5654 4.73431 30.4707 4.96297 30.3021 5.13156C30.1335 5.30015 29.9049 5.39486 29.6665 5.39486ZM33.2624 5.39486C33.0846 5.39486 32.9108 5.34214 32.7629 5.24336C32.6151 5.14458 32.4999 5.00418 32.4318 4.83991C32.3638 4.67564 32.346 4.49489 32.3807 4.3205C32.4153 4.14612 32.501 3.98593 32.6267 3.86021C32.7524 3.73449 32.9126 3.64887 33.087 3.61418C33.2614 3.57949 33.4421 3.59729 33.6064 3.66534C33.7707 3.73338 33.9111 3.8486 34.0098 3.99644C34.1086 4.14427 34.1613 4.31808 34.1613 4.49588C34.1613 4.73431 34.0666 4.96297 33.898 5.13156C33.7295 5.30015 33.5008 5.39486 33.2624 5.39486ZM2.67012 22.862L3.97184 22.5132L5.13602 26.8553L3.8334 27.205C3.5483 27.2814 3.25093 27.3009 2.95829 27.2624C2.66566 27.2238 2.38347 27.128 2.12786 26.9804C1.87224 26.8328 1.64821 26.6363 1.46854 26.4022C1.28887 26.168 1.15709 25.9007 1.08073 25.6156C0.926394 25.0399 1.00704 24.4265 1.30494 23.9103C1.60283 23.3941 2.09357 23.0173 2.66922 22.8629L2.67012 22.862Z" fill="#4C5364"/>
</svg>
