<svg width="52" height="52" viewBox="0 0 52 52" fill="none" xmlns="http://www.w3.org/2000/svg">
<path d="M0.0118489 22.6546C-0.101089 23.5635 0.607716 24.3659 1.52361 24.3659H7.72156C8.08185 24.3659 8.43047 24.2382 8.70551 24.0055C8.98055 23.7728 9.16421 23.4501 9.22387 23.0948C10.4167 15.991 15.9909 10.4167 23.0947 9.22397C23.45 9.16431 23.7727 8.98063 24.0054 8.70557C24.2381 8.43051 24.3658 8.08186 24.3658 7.72156V1.52361C24.3658 0.607716 23.5635 -0.101089 22.6545 0.0118489C16.9396 0.722075 11.5407 3.36463 7.45262 7.45262C3.36463 11.5407 0.722075 16.9396 0.0118489 22.6546ZM35.7069 39.6784C32.8154 41.743 29.425 42.8342 25.9021 42.8342C17.6124 42.8342 10.5983 36.8938 9.22397 28.709C9.16431 28.3537 8.98065 28.0311 8.70561 27.7983C8.43057 27.5656 8.08195 27.4379 7.72166 27.4379H1.52361C0.607716 27.4379 -0.101089 28.2402 0.0118489 29.1491V29.1492C1.63086 42.1762 12.7612 52 25.9021 52C31.7561 52 37.2923 50.0998 41.9122 46.505C42.6353 45.9424 42.7017 44.8733 42.0538 44.2255L37.6694 39.841C37.4144 39.586 37.0773 39.4298 36.718 39.4C36.3586 39.3702 36.0004 39.4689 35.7069 39.6784ZM28.709 9.22397C36.8937 10.5983 42.8343 17.6124 42.8343 25.9021C42.8343 29.425 41.743 32.8153 39.6785 35.7069C39.469 36.0003 39.3704 36.3586 39.4001 36.7179C39.4299 37.0772 39.5862 37.4143 39.8411 37.6693L44.2258 42.054C44.8736 42.7018 45.9426 42.6353 46.5052 41.9123L46.5053 41.9122C50.0999 37.2925 52 31.7562 52 25.9021C52 12.7612 42.1762 1.63086 29.1492 0.0118489H29.1491C28.2402 -0.101089 27.4378 0.607716 27.4378 1.52361V7.72156C27.4378 8.08187 27.5655 8.43052 27.7983 8.70558C28.031 8.98064 28.3537 9.16431 28.709 9.22397Z" fill="#1E6CC6"/>
<path d="M26.9164 15.4336H24.884C24.0426 15.4336 23.3605 16.1157 23.3605 16.957V34.7303H28.4399V16.957C28.4399 16.1157 27.7578 15.4336 26.9164 15.4336ZM31.4867 34.7303H35.0426C35.884 34.7303 36.5661 34.0482 36.5661 33.2068V21.0194C36.5661 20.1781 35.884 19.496 35.0426 19.496H31.4867V34.7303ZM20.3136 23.5585H16.7616C15.9203 23.5585 15.2382 24.2406 15.2382 25.0819V33.2068C15.2382 34.0482 15.9203 34.7303 16.7616 34.7303H20.3136V23.5585Z" fill="#1E6CC6"/>
</svg>
