<svg width="1311" height="201" viewBox="0 0 1311 201" fill="none" xmlns="http://www.w3.org/2000/svg">
<mask id="path-1-outside-1_243_13042" maskUnits="userSpaceOnUse" x="-0.371948" y="-0.445312" width="1311" height="201" fill="black">
<rect fill="white" x="-0.371948" y="-0.445312" width="1311" height="201"/>
<path d="M1.00005 195.555V4.54807H76.857C87.2259 4.54807 96.5943 7.18578 104.962 12.4612C113.421 17.6457 120.106 24.6492 125.018 33.4719C130.02 42.2037 132.522 51.8904 132.522 62.5322C132.522 70.9001 131.066 78.6768 128.156 85.8623C125.245 92.9569 121.152 99.1873 115.877 104.554C110.601 109.92 104.462 114.104 97.4584 117.106L142.891 195.555H99.5049L55.9827 120.516H38.6556V195.555H1.00005ZM38.6556 82.8608H72.3547C76.4477 82.8608 80.1768 81.8603 83.5422 79.8593C86.9985 77.7673 89.7272 74.9931 91.7282 71.5368C93.8202 67.9896 94.8662 64.0785 94.8662 59.8036C94.8662 55.6196 93.8202 51.7995 91.7282 48.3432C89.7272 44.7959 86.9985 41.9763 83.5422 39.8843C80.1768 37.7923 76.4477 36.7463 72.3547 36.7463H38.6556V82.8608ZM166.479 195.555V4.54807H287.359V42.2037H204.134V74.4019H269.077V112.058H204.134V157.899H287.359V195.555H166.479ZM386.746 199.102C376.013 199.102 365.735 197.419 355.912 194.054C346.18 190.689 337.63 185.822 330.263 179.456C322.986 173.089 317.756 165.539 314.573 156.808L349.909 143.71C351 146.803 353.274 149.713 356.731 152.442C360.187 155.079 364.507 157.262 369.692 158.991C374.876 160.628 380.561 161.446 386.746 161.446C392.658 161.446 398.206 160.582 403.391 158.854C408.666 157.035 412.896 154.534 416.079 151.35C419.354 148.167 420.991 144.438 420.991 140.163C420.991 135.888 419.308 132.341 415.943 129.521C412.577 126.701 408.257 124.473 402.982 122.836C397.706 121.108 392.294 119.789 386.746 118.879C373.012 116.878 360.687 113.649 349.773 109.192C338.949 104.645 330.399 98.4142 324.123 90.501C317.847 82.497 314.709 72.3554 314.709 60.0764C314.709 48.2522 318.029 37.9288 324.669 29.1061C331.4 20.2834 340.222 13.4162 351.137 8.50464C362.143 3.59304 374.012 1.13724 386.746 1.13724C397.297 1.13724 407.484 2.81992 417.307 6.18528C427.13 9.55063 435.68 14.4168 442.956 20.7836C450.324 27.1505 455.599 34.7908 458.783 43.7044L423.447 56.5292C422.355 53.4367 420.081 50.5716 416.625 47.9339C413.169 45.2962 408.848 43.1587 403.664 41.5215C398.479 39.8843 392.84 39.0657 386.746 39.0657C380.925 38.9747 375.377 39.8388 370.101 41.6579C364.917 43.477 360.642 45.9783 357.276 49.1618C354.002 52.3452 352.365 55.9834 352.365 60.0764C352.365 65.4428 353.911 69.4903 357.004 72.219C360.187 74.9477 364.371 76.9032 369.555 78.0856C374.74 79.268 380.47 80.314 386.746 81.2236C399.662 83.1337 411.577 86.5445 422.492 91.4561C433.406 96.2767 442.138 102.735 448.687 110.83C455.326 118.834 458.646 128.611 458.646 140.163C458.646 151.987 455.326 162.31 448.687 171.133C442.047 179.956 433.27 186.823 422.355 191.735C411.44 196.646 399.571 199.102 386.746 199.102ZM573.86 199.102C560.944 199.102 548.802 196.555 537.432 191.462C526.063 186.277 516.058 179.137 507.417 170.042C498.776 160.946 492 150.441 487.088 138.526C482.177 126.519 479.721 113.695 479.721 100.051C479.721 86.4081 482.177 73.6288 487.088 61.7136C492 49.7075 498.776 39.1567 507.417 30.0611C516.058 20.9655 526.063 13.871 537.432 8.7775C548.802 3.59304 560.944 1.0008 573.86 1.0008C586.867 1.0008 599.055 3.59304 610.424 8.7775C621.794 13.871 631.799 20.9655 640.439 30.0611C649.08 39.1567 655.811 49.7075 660.632 61.7136C665.543 73.6288 667.999 86.4081 667.999 100.051C667.999 113.695 665.543 126.519 660.632 138.526C655.811 150.441 649.08 160.946 640.439 170.042C631.799 179.137 621.794 186.277 610.424 191.462C599.055 196.555 586.867 199.102 573.86 199.102ZM573.86 161.446C581.591 161.446 588.868 159.855 595.689 156.671C602.511 153.397 608.514 148.94 613.698 143.301C618.883 137.661 622.93 131.158 625.841 123.791C628.843 116.423 630.343 108.51 630.343 100.051C630.343 91.5925 628.843 83.6794 625.841 76.312C622.93 68.8536 618.883 62.3503 613.698 56.802C608.514 51.1628 602.511 46.7514 595.689 43.568C588.868 40.2936 581.591 38.6564 573.86 38.6564C566.129 38.6564 558.852 40.2936 552.031 43.568C545.209 46.7514 539.206 51.1628 534.021 56.802C528.837 62.4413 524.744 68.9446 521.742 76.312C518.832 83.6794 517.377 91.5925 517.377 100.051C517.377 108.51 518.832 116.469 521.742 123.927C524.744 131.295 528.837 137.798 534.021 143.437C539.206 148.985 545.209 153.397 552.031 156.671C558.852 159.855 566.129 161.446 573.86 161.446ZM691.96 195.555V4.54807H729.616V157.899H806.564V195.555H691.96ZM907.213 199.102C891.933 199.102 878.471 195.373 866.829 187.914C855.278 180.456 846.228 170.451 839.679 157.899C833.221 145.256 829.992 131.249 829.992 115.878V4.54807H867.648V115.878C867.648 124.155 869.194 131.749 872.286 138.662C875.379 145.575 879.881 151.123 885.793 155.307C891.706 159.4 898.846 161.446 907.213 161.446C915.672 161.446 922.812 159.4 928.633 155.307C934.546 151.214 939.002 145.711 942.004 138.798C945.005 131.886 946.506 124.246 946.506 115.878V4.54807H984.162V115.878C984.162 127.429 982.297 138.253 978.568 148.349C974.93 158.354 969.7 167.177 962.878 174.817C956.057 182.457 947.916 188.415 938.457 192.69C929.088 196.964 918.674 199.102 907.213 199.102ZM1161.41 4.54807V42.2037H1105.2V195.555H1067.54V42.2037H1011.33V4.54807H1161.41ZM1188.66 195.555V4.54807H1309.54V42.2037H1226.32V74.4019H1291.26V112.058H1226.32V157.899H1309.54V195.555H1188.66Z"/>
</mask>
<path d="M1.00005 195.555V4.54807H76.857C87.2259 4.54807 96.5943 7.18578 104.962 12.4612C113.421 17.6457 120.106 24.6492 125.018 33.4719C130.02 42.2037 132.522 51.8904 132.522 62.5322C132.522 70.9001 131.066 78.6768 128.156 85.8623C125.245 92.9569 121.152 99.1873 115.877 104.554C110.601 109.92 104.462 114.104 97.4584 117.106L142.891 195.555H99.5049L55.9827 120.516H38.6556V195.555H1.00005ZM38.6556 82.8608H72.3547C76.4477 82.8608 80.1768 81.8603 83.5422 79.8593C86.9985 77.7673 89.7272 74.9931 91.7282 71.5368C93.8202 67.9896 94.8662 64.0785 94.8662 59.8036C94.8662 55.6196 93.8202 51.7995 91.7282 48.3432C89.7272 44.7959 86.9985 41.9763 83.5422 39.8843C80.1768 37.7923 76.4477 36.7463 72.3547 36.7463H38.6556V82.8608ZM166.479 195.555V4.54807H287.359V42.2037H204.134V74.4019H269.077V112.058H204.134V157.899H287.359V195.555H166.479ZM386.746 199.102C376.013 199.102 365.735 197.419 355.912 194.054C346.18 190.689 337.63 185.822 330.263 179.456C322.986 173.089 317.756 165.539 314.573 156.808L349.909 143.71C351 146.803 353.274 149.713 356.731 152.442C360.187 155.079 364.507 157.262 369.692 158.991C374.876 160.628 380.561 161.446 386.746 161.446C392.658 161.446 398.206 160.582 403.391 158.854C408.666 157.035 412.896 154.534 416.079 151.35C419.354 148.167 420.991 144.438 420.991 140.163C420.991 135.888 419.308 132.341 415.943 129.521C412.577 126.701 408.257 124.473 402.982 122.836C397.706 121.108 392.294 119.789 386.746 118.879C373.012 116.878 360.687 113.649 349.773 109.192C338.949 104.645 330.399 98.4142 324.123 90.501C317.847 82.497 314.709 72.3554 314.709 60.0764C314.709 48.2522 318.029 37.9288 324.669 29.1061C331.4 20.2834 340.222 13.4162 351.137 8.50464C362.143 3.59304 374.012 1.13724 386.746 1.13724C397.297 1.13724 407.484 2.81992 417.307 6.18528C427.13 9.55063 435.68 14.4168 442.956 20.7836C450.324 27.1505 455.599 34.7908 458.783 43.7044L423.447 56.5292C422.355 53.4367 420.081 50.5716 416.625 47.9339C413.169 45.2962 408.848 43.1587 403.664 41.5215C398.479 39.8843 392.84 39.0657 386.746 39.0657C380.925 38.9747 375.377 39.8388 370.101 41.6579C364.917 43.477 360.642 45.9783 357.276 49.1618C354.002 52.3452 352.365 55.9834 352.365 60.0764C352.365 65.4428 353.911 69.4903 357.004 72.219C360.187 74.9477 364.371 76.9032 369.555 78.0856C374.74 79.268 380.47 80.314 386.746 81.2236C399.662 83.1337 411.577 86.5445 422.492 91.4561C433.406 96.2767 442.138 102.735 448.687 110.83C455.326 118.834 458.646 128.611 458.646 140.163C458.646 151.987 455.326 162.31 448.687 171.133C442.047 179.956 433.27 186.823 422.355 191.735C411.44 196.646 399.571 199.102 386.746 199.102ZM573.86 199.102C560.944 199.102 548.802 196.555 537.432 191.462C526.063 186.277 516.058 179.137 507.417 170.042C498.776 160.946 492 150.441 487.088 138.526C482.177 126.519 479.721 113.695 479.721 100.051C479.721 86.4081 482.177 73.6288 487.088 61.7136C492 49.7075 498.776 39.1567 507.417 30.0611C516.058 20.9655 526.063 13.871 537.432 8.7775C548.802 3.59304 560.944 1.0008 573.86 1.0008C586.867 1.0008 599.055 3.59304 610.424 8.7775C621.794 13.871 631.799 20.9655 640.439 30.0611C649.08 39.1567 655.811 49.7075 660.632 61.7136C665.543 73.6288 667.999 86.4081 667.999 100.051C667.999 113.695 665.543 126.519 660.632 138.526C655.811 150.441 649.08 160.946 640.439 170.042C631.799 179.137 621.794 186.277 610.424 191.462C599.055 196.555 586.867 199.102 573.86 199.102ZM573.86 161.446C581.591 161.446 588.868 159.855 595.689 156.671C602.511 153.397 608.514 148.94 613.698 143.301C618.883 137.661 622.93 131.158 625.841 123.791C628.843 116.423 630.343 108.51 630.343 100.051C630.343 91.5925 628.843 83.6794 625.841 76.312C622.93 68.8536 618.883 62.3503 613.698 56.802C608.514 51.1628 602.511 46.7514 595.689 43.568C588.868 40.2936 581.591 38.6564 573.86 38.6564C566.129 38.6564 558.852 40.2936 552.031 43.568C545.209 46.7514 539.206 51.1628 534.021 56.802C528.837 62.4413 524.744 68.9446 521.742 76.312C518.832 83.6794 517.377 91.5925 517.377 100.051C517.377 108.51 518.832 116.469 521.742 123.927C524.744 131.295 528.837 137.798 534.021 143.437C539.206 148.985 545.209 153.397 552.031 156.671C558.852 159.855 566.129 161.446 573.86 161.446ZM691.96 195.555V4.54807H729.616V157.899H806.564V195.555H691.96ZM907.213 199.102C891.933 199.102 878.471 195.373 866.829 187.914C855.278 180.456 846.228 170.451 839.679 157.899C833.221 145.256 829.992 131.249 829.992 115.878V4.54807H867.648V115.878C867.648 124.155 869.194 131.749 872.286 138.662C875.379 145.575 879.881 151.123 885.793 155.307C891.706 159.4 898.846 161.446 907.213 161.446C915.672 161.446 922.812 159.4 928.633 155.307C934.546 151.214 939.002 145.711 942.004 138.798C945.005 131.886 946.506 124.246 946.506 115.878V4.54807H984.162V115.878C984.162 127.429 982.297 138.253 978.568 148.349C974.93 158.354 969.7 167.177 962.878 174.817C956.057 182.457 947.916 188.415 938.457 192.69C929.088 196.964 918.674 199.102 907.213 199.102ZM1161.41 4.54807V42.2037H1105.2V195.555H1067.54V42.2037H1011.33V4.54807H1161.41ZM1188.66 195.555V4.54807H1309.54V42.2037H1226.32V74.4019H1291.26V112.058H1226.32V157.899H1309.54V195.555H1188.66Z" fill="url(#paint0_linear_243_13042)"/>
<path d="M1.00005 195.555H4.673e-05V196.555H1.00005V195.555ZM1.00005 4.54807V3.54807H4.673e-05V4.54807H1.00005ZM104.962 12.4612L104.429 13.3072L104.44 13.3138L104.962 12.4612ZM125.018 33.4719L124.144 33.9584L124.15 33.969L125.018 33.4719ZM128.156 85.8623L129.081 86.2419L129.083 86.2378L128.156 85.8623ZM115.877 104.554L115.164 103.853L115.877 104.554ZM97.4584 117.106L97.0645 116.186L96.0278 116.631L96.593 117.607L97.4584 117.106ZM142.891 195.555V196.555H144.625L143.756 195.054L142.891 195.555ZM99.5049 195.555L98.6399 196.056L98.9289 196.555H99.5049V195.555ZM55.9827 120.516L56.8477 120.015L56.5587 119.516H55.9827V120.516ZM38.6556 120.516V119.516H37.6556V120.516H38.6556ZM38.6556 195.555V196.555H39.6556V195.555H38.6556ZM38.6556 82.8608H37.6556V83.8608H38.6556V82.8608ZM83.5422 79.8593L84.0533 80.7188L84.06 80.7148L83.5422 79.8593ZM91.7282 71.5368L90.8668 71.0288L90.8628 71.0358L91.7282 71.5368ZM91.7282 48.3432L90.8572 48.8345L90.8647 48.8479L90.8727 48.861L91.7282 48.3432ZM83.5422 39.8843L83.0142 40.7336L83.0244 40.7398L83.5422 39.8843ZM38.6556 36.7463V35.7463H37.6556V36.7463H38.6556ZM1.00005 195.555H2.00005V4.54807H1.00005H4.673e-05V195.555H1.00005ZM1.00005 4.54807V5.54807H76.857V4.54807V3.54807H1.00005V4.54807ZM76.857 4.54807V5.54807C87.0467 5.54807 96.2286 8.13734 104.429 13.3071L104.962 12.4612L105.496 11.6153C96.9601 6.23423 87.4051 3.54807 76.857 3.54807V4.54807ZM104.962 12.4612L104.44 13.3138C112.749 18.4068 119.315 25.2831 124.144 33.9583L125.018 33.4719L125.892 32.9855C120.898 24.0154 114.093 16.8846 105.485 11.6086L104.962 12.4612ZM125.018 33.4719L124.15 33.969C129.061 42.5407 131.522 52.0544 131.522 62.5322H132.522H133.522C133.522 51.7264 130.98 41.8667 125.886 32.9748L125.018 33.4719ZM132.522 62.5322H131.522C131.522 70.7817 130.088 78.4299 127.229 85.4869L128.156 85.8623L129.083 86.2378C132.045 78.9238 133.522 71.0185 133.522 62.5322H132.522ZM128.156 85.8623L127.231 85.4828C124.368 92.4597 120.347 98.5805 115.164 103.853L115.877 104.554L116.59 105.255C121.958 99.7942 126.122 93.454 129.081 86.2419L128.156 85.8623ZM115.877 104.554L115.164 103.853C109.981 109.125 103.95 113.235 97.0645 116.186L97.4584 117.106L97.8523 118.025C104.974 114.973 111.222 110.715 116.59 105.255L115.877 104.554ZM97.4584 117.106L96.593 117.607L142.025 196.056L142.891 195.555L143.756 195.054L98.3237 116.604L97.4584 117.106ZM142.891 195.555V194.555H99.5049V195.555V196.555H142.891V195.555ZM99.5049 195.555L100.37 195.053L56.8477 120.015L55.9827 120.516L55.1176 121.018L98.6399 196.056L99.5049 195.555ZM55.9827 120.516V119.516H38.6556V120.516V121.516H55.9827V120.516ZM38.6556 120.516H37.6556V195.555H38.6556H39.6556V120.516H38.6556ZM38.6556 195.555V194.555H1.00005V195.555V196.555H38.6556V195.555ZM38.6556 82.8608V83.8608H72.3547V82.8608V81.8608H38.6556V82.8608ZM72.3547 82.8608V83.8608C76.619 83.8608 80.5261 82.816 84.0533 80.7188L83.5422 79.8593L83.0311 78.9997C79.8276 80.9045 76.2763 81.8608 72.3547 81.8608V82.8608ZM83.5422 79.8593L84.06 80.7148C87.6584 78.5368 90.5073 75.6414 92.5936 72.0379L91.7282 71.5368L90.8628 71.0358C88.947 74.3448 86.3386 76.9978 83.0244 79.0038L83.5422 79.8593ZM91.7282 71.5368L92.5896 72.0448C94.7758 68.3376 95.8661 64.25 95.8661 59.8036H94.8661H93.8661C93.8661 63.9069 92.8645 67.6415 90.8668 71.0288L91.7282 71.5368ZM94.8661 59.8036H95.8661C95.8661 55.4439 94.7737 51.4436 92.5837 47.8254L91.7282 48.3432L90.8727 48.861C92.8667 52.1554 93.8661 55.7953 93.8661 59.8036H94.8661ZM91.7282 48.3432L92.5992 47.8518C90.5144 44.1561 87.6646 41.2105 84.06 39.0288L83.5422 39.8843L83.0244 40.7398C86.3324 42.742 88.9399 45.4357 90.8572 48.8345L91.7282 48.3432ZM83.5422 39.8843L84.0701 39.035C80.5409 36.8412 76.6278 35.7463 72.3547 35.7463V36.7463V37.7463C76.2675 37.7463 79.8128 38.7435 83.0143 40.7336L83.5422 39.8843ZM72.3547 36.7463V35.7463H38.6556V36.7463V37.7463H72.3547V36.7463ZM38.6556 36.7463H37.6556V82.8608H38.6556H39.6556V36.7463H38.6556ZM166.479 195.555H165.479V196.555H166.479V195.555ZM166.479 4.54807V3.54807H165.479V4.54807H166.479ZM287.359 4.54807H288.359V3.54807H287.359V4.54807ZM287.359 42.2037V43.2037H288.359V42.2037H287.359ZM204.134 42.2037V41.2037H203.134V42.2037H204.134ZM204.134 74.4019H203.134V75.4019H204.134V74.4019ZM269.077 74.4019H270.077V73.4019H269.077V74.4019ZM269.077 112.058V113.058H270.077V112.058H269.077ZM204.134 112.058V111.058H203.134V112.058H204.134ZM204.134 157.899H203.134V158.899H204.134V157.899ZM287.359 157.899H288.359V156.899H287.359V157.899ZM287.359 195.555V196.555H288.359V195.555H287.359ZM166.479 195.555H167.479V4.54807H166.479H165.479V195.555H166.479ZM166.479 4.54807V5.54807H287.359V4.54807V3.54807H166.479V4.54807ZM287.359 4.54807H286.359V42.2037H287.359H288.359V4.54807H287.359ZM287.359 42.2037V41.2037H204.134V42.2037V43.2037H287.359V42.2037ZM204.134 42.2037H203.134V74.4019H204.134H205.134V42.2037H204.134ZM204.134 74.4019V75.4019H269.077V74.4019V73.4019H204.134V74.4019ZM269.077 74.4019H268.077V112.058H269.077H270.077V74.4019H269.077ZM269.077 112.058V111.058H204.134V112.058V113.058H269.077V112.058ZM204.134 112.058H203.134V157.899H204.134H205.134V112.058H204.134ZM204.134 157.899V158.899H287.359V157.899V156.899H204.134V157.899ZM287.359 157.899H286.359V195.555H287.359H288.359V157.899H287.359ZM287.359 195.555V194.555H166.479V195.555V196.555H287.359V195.555ZM355.912 194.054L355.585 194.999L355.588 195L355.912 194.054ZM330.263 179.456L329.604 180.208L329.609 180.212L330.263 179.456ZM314.573 156.808L314.225 155.87L313.293 156.216L313.633 157.15L314.573 156.808ZM349.909 143.71L350.852 143.377L350.514 142.419L349.561 142.772L349.909 143.71ZM356.731 152.442L356.111 153.227L356.117 153.232L356.124 153.237L356.731 152.442ZM369.692 158.991L369.376 159.939L369.383 159.942L369.391 159.944L369.692 158.991ZM403.391 158.854L403.707 159.803L403.717 159.799L403.391 158.854ZM416.079 151.35L415.382 150.633L415.372 150.643L416.079 151.35ZM415.943 129.521L415.301 130.287L415.943 129.521ZM402.982 122.836L402.67 123.786L402.678 123.788L402.685 123.791L402.982 122.836ZM386.746 118.879L386.908 117.892L386.899 117.891L386.89 117.89L386.746 118.879ZM349.773 109.192L349.385 110.114L349.395 110.118L349.773 109.192ZM324.123 90.5011L323.336 91.1181L323.34 91.1224L324.123 90.5011ZM324.669 29.1061L323.874 28.4995L323.87 28.5048L324.669 29.1061ZM351.137 8.50464L350.729 7.59145L350.727 7.59272L351.137 8.50464ZM417.307 6.18528L416.983 7.1313L417.307 6.18528ZM442.957 20.7836L442.298 21.5362L442.303 21.5403L442.957 20.7836ZM458.783 43.7044L459.124 44.6444L460.059 44.305L459.725 43.3681L458.783 43.7044ZM423.447 56.5292L422.504 56.862L422.839 57.8134L423.788 57.4692L423.447 56.5292ZM416.625 47.9339L416.018 48.7288L416.625 47.9339ZM403.664 41.5215L403.363 42.4751L403.664 41.5215ZM386.746 39.0657L386.73 40.0656L386.738 40.0657H386.746V39.0657ZM370.101 41.6579L369.775 40.7125L369.77 40.7143L370.101 41.6579ZM357.276 49.1618L356.589 48.4352L356.579 48.4448L357.276 49.1618ZM357.004 72.219L356.342 72.9688L356.347 72.9736L356.353 72.9782L357.004 72.219ZM369.555 78.0856L369.778 77.1107L369.555 78.0856ZM386.746 81.2236L386.892 80.2343L386.889 80.2339L386.746 81.2236ZM422.492 91.4561L422.081 92.368L422.087 92.3708L422.492 91.4561ZM448.687 110.83L447.909 111.459L447.917 111.468L448.687 110.83ZM448.687 171.133L449.486 171.734L448.687 171.133ZM422.355 191.735L422.765 192.646V192.646L422.355 191.735ZM386.746 199.102V198.102C376.12 198.102 365.952 196.436 356.236 193.108L355.912 194.054L355.588 195C365.519 198.402 375.907 200.102 386.746 200.102V199.102ZM355.912 194.054L356.239 193.109C346.62 189.783 338.182 184.978 330.916 178.699L330.263 179.456L329.609 180.212C337.078 186.667 345.74 191.595 355.585 194.999L355.912 194.054ZM330.263 179.456L330.921 178.703C323.766 172.442 318.636 165.032 315.512 156.465L314.573 156.808L313.633 157.15C316.877 166.047 322.206 173.735 329.604 180.208L330.263 179.456ZM314.573 156.808L314.92 157.745L350.257 144.648L349.909 143.71L349.561 142.772L314.225 155.87L314.573 156.808ZM349.909 143.71L348.966 144.043C350.138 147.365 352.556 150.42 356.111 153.227L356.731 152.442L357.35 151.657C353.993 149.006 351.862 146.24 350.852 143.377L349.909 143.71ZM356.731 152.442L356.124 153.237C359.687 155.956 364.112 158.185 369.376 159.939L369.692 158.991L370.008 158.042C364.903 156.34 360.687 154.203 357.337 151.647L356.731 152.442ZM369.692 158.991L369.391 159.944C374.685 161.616 380.473 162.446 386.746 162.446V161.446V160.446C380.649 160.446 375.068 159.64 369.993 158.037L369.692 158.991ZM386.746 161.446V162.446C392.757 162.446 398.413 161.568 403.707 159.803L403.391 158.854L403.075 157.905C398 159.597 392.559 160.446 386.746 160.446V161.446ZM403.391 158.854L403.717 159.799C409.102 157.943 413.473 155.371 416.786 152.057L416.079 151.35L415.372 150.643C412.318 153.697 408.23 156.128 403.065 157.909L403.391 158.854ZM416.079 151.35L416.776 152.067C420.23 148.71 421.991 144.728 421.991 140.163H420.991H419.991C419.991 144.148 418.478 147.624 415.382 150.633L416.079 151.35ZM420.991 140.163H421.991C421.991 135.583 420.17 131.758 416.585 128.754L415.943 129.521L415.301 130.287C418.446 132.923 419.991 136.193 419.991 140.163H420.991ZM415.943 129.521L416.585 128.754C413.095 125.831 408.648 123.547 403.278 121.881L402.982 122.836L402.685 123.791C407.865 125.398 412.059 127.572 415.301 130.287L415.943 129.521ZM402.982 122.836L403.293 121.885C397.968 120.141 392.506 118.81 386.908 117.892L386.746 118.879L386.584 119.866C392.082 120.767 397.444 122.074 402.67 123.786L402.982 122.836ZM386.746 118.879L386.89 117.89C373.222 115.898 360.978 112.688 350.151 108.267L349.773 109.192L349.395 110.118C360.396 114.611 372.801 117.858 386.602 119.869L386.746 118.879ZM349.773 109.192L350.16 108.27C339.466 103.777 331.062 97.6408 324.907 89.8797L324.123 90.5011L323.34 91.1224C329.736 99.1875 338.432 105.512 349.385 110.114L349.773 109.192ZM324.123 90.5011L324.91 89.884C318.799 82.0903 315.709 72.1796 315.709 60.0764H314.709H313.709C313.709 72.5313 316.895 82.9037 323.336 91.1181L324.123 90.5011ZM314.709 60.0764H315.709C315.709 48.4528 318.968 38.3441 325.468 29.7074L324.669 29.1061L323.87 28.5048C317.09 37.5134 313.709 48.0516 313.709 60.0764H314.709ZM324.669 29.1061L325.464 29.7126C332.086 21.0324 340.772 14.2654 351.547 9.41656L351.137 8.50464L350.727 7.59272C339.672 12.567 330.713 19.5344 323.874 28.4995L324.669 29.1061ZM351.137 8.50464L351.544 9.41783C362.415 4.56667 374.145 2.13724 386.746 2.13724V1.13724V0.137241C373.88 0.137241 361.87 2.61941 350.729 7.59145L351.137 8.50464ZM386.746 1.13724V2.13724C397.188 2.13724 407.266 3.80226 416.983 7.1313L417.307 6.18528L417.631 5.23926C407.702 1.83758 397.405 0.137241 386.746 0.137241V1.13724ZM417.307 6.18528L416.983 7.1313C426.692 10.4577 435.126 15.2611 442.298 21.5362L442.957 20.7836L443.615 20.0311C436.234 13.5724 427.568 8.64359 417.631 5.23926L417.307 6.18528ZM442.957 20.7836L442.303 21.5403C449.543 27.7976 454.717 35.2945 457.841 44.0408L458.783 43.7044L459.725 43.3681C456.481 34.287 451.104 26.5034 443.61 20.027L442.957 20.7836ZM458.783 43.7044L458.442 42.7644L423.105 55.5892L423.447 56.5292L423.788 57.4692L459.124 44.6444L458.783 43.7044ZM423.447 56.5292L424.39 56.1963C423.215 52.8694 420.793 49.857 417.232 47.1389L416.625 47.9339L416.018 48.7288C419.369 51.2862 421.495 54.0039 422.504 56.862L423.447 56.5292ZM416.625 47.9339L417.232 47.1389C413.664 44.416 409.233 42.2316 403.965 40.5679L403.664 41.5215L403.363 42.4751C408.463 44.0858 412.674 46.1763 416.018 48.7288L416.625 47.9339ZM403.664 41.5215L403.965 40.5679C398.672 38.8965 392.93 38.0657 386.746 38.0657V39.0657V40.0657C392.75 40.0657 398.286 40.8721 403.363 42.4751L403.664 41.5215ZM386.746 39.0657L386.762 38.0658C380.829 37.9731 375.165 38.854 369.775 40.7126L370.101 41.6579L370.427 42.6033C375.588 40.8237 381.02 39.9764 386.73 40.0656L386.746 39.0657ZM370.101 41.6579L369.77 40.7143C364.477 42.5714 360.074 45.139 356.589 48.4353L357.276 49.1618L357.964 49.8882C361.21 46.8177 365.356 44.3826 370.432 42.6015L370.101 41.6579ZM357.276 49.1618L356.579 48.4448C353.136 51.7925 351.365 55.6808 351.365 60.0764H352.365H353.365C353.365 56.2861 354.868 52.8979 357.973 49.8788L357.276 49.1618ZM352.365 60.0764H351.365C351.365 65.6378 352.974 69.997 356.342 72.9688L357.004 72.219L357.665 71.4691C354.848 68.9837 353.365 65.2478 353.365 60.0764H352.365ZM357.004 72.219L356.353 72.9782C359.688 75.8371 364.032 77.8515 369.333 79.0606L369.555 78.0856L369.778 77.1107C364.71 75.9549 360.686 74.0582 357.654 71.4597L357.004 72.219ZM369.555 78.0856L369.333 79.0606C374.548 80.25 380.305 81.3006 386.603 82.2132L386.746 81.2236L386.889 80.2339C380.635 79.3275 374.932 78.2861 369.778 77.1107L369.555 78.0856ZM386.746 81.2236L386.6 82.2128C399.432 84.1106 411.258 87.4975 422.081 92.368L422.492 91.4561L422.902 90.5442C411.896 85.5915 399.891 82.1567 386.892 80.2343L386.746 81.2236ZM422.492 91.4561L422.087 92.3708C432.878 97.1367 441.474 103.504 447.909 111.459L448.687 110.83L449.464 110.201C442.802 101.965 433.934 95.4168 422.896 90.5413L422.492 91.4561ZM448.687 110.83L447.917 111.468C454.391 119.273 457.646 128.817 457.646 140.163H458.646H459.646C459.646 128.406 456.262 118.395 449.456 110.191L448.687 110.83ZM458.646 140.163H457.646C457.646 151.786 454.387 161.895 447.888 170.532L448.687 171.133L449.486 171.734C456.265 162.726 459.646 152.188 459.646 140.163H458.646ZM448.687 171.133L447.888 170.532C441.358 179.209 432.719 185.974 421.945 190.823L422.355 191.735L422.765 192.646C433.82 187.672 442.736 180.703 449.486 171.734L448.687 171.133ZM422.355 191.735L421.945 190.823C411.168 195.672 399.44 198.102 386.746 198.102V199.102V200.102C399.702 200.102 411.713 197.62 422.765 192.646L422.355 191.735ZM537.432 191.462L537.017 192.372L537.023 192.374L537.432 191.462ZM507.417 170.042L508.142 169.353L507.417 170.042ZM487.088 138.526L486.163 138.904L486.164 138.907L487.088 138.526ZM487.088 61.7136L488.013 62.0947L488.014 62.0923L487.088 61.7136ZM507.417 30.0611L508.142 30.7499L507.417 30.0611ZM537.432 8.7775L537.841 9.69013L537.847 9.68737L537.432 8.7775ZM610.424 8.7775L610.009 9.68739L610.015 9.69011L610.424 8.7775ZM640.439 30.0611L639.714 30.7499L640.439 30.0611ZM660.632 61.7136L659.703 62.0862L659.707 62.0947L660.632 61.7136ZM660.632 138.526L659.706 138.147L659.705 138.151L660.632 138.526ZM640.439 170.042L639.714 169.353L640.439 170.042ZM610.424 191.462L610.833 192.374L610.839 192.372L610.424 191.462ZM595.689 156.671L596.112 157.577L596.122 157.573L595.689 156.671ZM625.841 123.791L624.915 123.413L624.911 123.423L625.841 123.791ZM625.841 76.312L624.909 76.6755L624.912 76.6824L624.915 76.6893L625.841 76.312ZM613.698 56.802L612.962 57.4788L612.968 57.4848L613.698 56.802ZM595.689 43.568L595.257 44.4696L595.266 44.4742L595.689 43.568ZM552.031 43.568L552.454 44.4742L552.463 44.4695L552.031 43.568ZM534.021 56.802L533.285 56.1252L534.021 56.802ZM521.742 76.312L520.816 75.9347L520.812 75.9446L521.742 76.312ZM521.742 123.927L520.811 124.291L520.814 124.298L520.816 124.305L521.742 123.927ZM534.021 143.437L533.285 144.114L533.291 144.12L534.021 143.437ZM552.031 156.671L551.598 157.573L551.608 157.577L552.031 156.671ZM573.86 199.102V198.102C561.08 198.102 549.077 195.583 537.841 190.549L537.432 191.462L537.023 192.374C548.526 197.528 560.809 200.102 573.86 200.102V199.102ZM537.432 191.462L537.847 190.552C526.595 185.421 516.695 178.356 508.142 169.353L507.417 170.042L506.692 170.73C515.421 179.918 525.531 187.134 537.017 192.372L537.432 191.462ZM507.417 170.042L508.142 169.353C499.588 160.349 492.879 149.949 488.013 138.144L487.088 138.526L486.164 138.907C491.121 150.933 497.964 161.543 506.692 170.73L507.417 170.042ZM487.088 138.526L488.014 138.147C483.154 126.267 480.721 113.572 480.721 100.051H479.721H478.721C478.721 113.818 481.2 126.772 486.163 138.904L487.088 138.526ZM479.721 100.051H480.721C480.721 86.531 483.154 73.882 488.013 62.0947L487.088 61.7136L486.164 61.3325C481.2 73.3756 478.721 86.2851 478.721 100.051H479.721ZM487.088 61.7136L488.014 62.0923C492.88 50.1971 499.59 39.7523 508.142 30.7499L507.417 30.0611L506.692 29.3724C497.963 38.561 491.12 49.2179 486.163 61.335L487.088 61.7136ZM507.417 30.0611L508.142 30.7499C516.694 21.7481 526.591 14.7299 537.841 9.69011L537.432 8.7775L537.023 7.8649C525.534 13.0121 515.422 20.183 506.692 29.3724L507.417 30.0611ZM537.432 8.7775L537.847 9.68737C549.082 4.56432 561.083 2.0008 573.86 2.0008V1.0008V0.00080204C560.806 0.00080204 548.521 2.62176 537.017 7.86764L537.432 8.7775ZM573.86 1.0008V2.0008C586.729 2.0008 598.775 4.56474 610.009 9.68737L610.424 8.7775L610.839 7.86764C599.334 2.62133 587.004 0.00080204 573.86 0.00080204V1.0008ZM610.424 8.7775L610.015 9.69011C621.265 14.7299 631.163 21.7481 639.714 30.7499L640.439 30.0611L641.164 29.3724C632.435 20.183 622.322 13.0121 610.833 7.8649L610.424 8.7775ZM640.439 30.0611L639.714 30.7499C648.265 39.7509 654.928 50.1936 659.704 62.0862L660.632 61.7136L661.56 61.341C656.693 49.2214 649.895 38.5624 641.164 29.3724L640.439 30.0611ZM660.632 61.7136L659.707 62.0947C664.566 73.882 666.999 86.531 666.999 100.051H667.999H668.999C668.999 86.2851 666.52 73.3756 661.556 61.3325L660.632 61.7136ZM667.999 100.051H666.999C666.999 113.572 664.566 126.267 659.706 138.147L660.632 138.526L661.557 138.904C666.52 126.772 668.999 113.818 668.999 100.051H667.999ZM660.632 138.526L659.705 138.151C654.93 149.952 648.267 160.351 639.714 169.353L640.439 170.042L641.164 170.73C649.894 161.542 656.692 150.929 661.559 138.901L660.632 138.526ZM640.439 170.042L639.714 169.353C631.162 178.356 621.262 185.421 610.009 190.552L610.424 191.462L610.839 192.372C622.326 187.134 632.436 179.918 641.164 170.73L640.439 170.042ZM610.424 191.462L610.015 190.549C598.78 195.582 586.732 198.102 573.86 198.102V199.102V200.102C587.001 200.102 599.329 197.528 610.833 192.374L610.424 191.462ZM573.86 161.446V162.446C581.733 162.446 589.154 160.824 596.112 157.577L595.689 156.671L595.266 155.765C588.581 158.885 581.449 160.446 573.86 160.446V161.446ZM595.689 156.671L596.122 157.573C603.06 154.243 609.165 149.709 614.435 143.978L613.698 143.301L612.962 142.624C607.863 148.171 601.962 152.551 595.257 155.77L595.689 156.671ZM613.698 143.301L614.435 143.978C619.705 138.245 623.817 131.636 626.771 124.158L625.841 123.791L624.911 123.423C622.044 130.681 618.061 137.078 612.962 142.624L613.698 143.301ZM625.841 123.791L626.767 124.168C629.82 116.673 631.343 108.631 631.343 100.051H630.343H629.343C629.343 108.389 627.865 116.173 624.915 123.413L625.841 123.791ZM630.343 100.051H631.343C631.343 91.4714 629.82 83.4293 626.767 75.9347L625.841 76.312L624.915 76.6893C627.865 83.9294 629.343 91.7136 629.343 100.051H630.343ZM625.841 76.312L626.773 75.9484C623.818 68.3784 619.705 61.7652 614.429 56.1193L613.698 56.802L612.968 57.4848C618.061 62.9354 622.042 69.3288 624.909 76.6755L625.841 76.312ZM613.698 56.802L614.435 56.1252C609.163 50.3915 603.054 45.9015 596.112 42.6618L595.689 43.568L595.266 44.4742C601.968 47.6014 607.865 51.9341 612.962 57.4788L613.698 56.802ZM595.689 43.568L596.122 42.6665C589.162 39.3258 581.738 37.6564 573.86 37.6564V38.6564V39.6564C581.445 39.6564 588.573 41.2614 595.257 44.4695L595.689 43.568ZM573.86 38.6564V37.6564C565.982 37.6564 558.558 39.3258 551.598 42.6665L552.031 43.568L552.463 44.4695C559.147 41.2614 566.275 39.6564 573.86 39.6564V38.6564ZM552.031 43.568L551.608 42.6618C544.666 45.9015 538.557 50.3915 533.285 56.1252L534.021 56.802L534.758 57.4788C539.855 51.9341 545.752 47.6014 552.454 44.4742L552.031 43.568ZM534.021 56.802L533.285 56.1252C528.017 61.8556 523.861 68.4613 520.816 75.9347L521.742 76.312L522.669 76.6893C525.627 69.4279 529.657 63.027 534.758 57.4788L534.021 56.802ZM521.742 76.312L520.812 75.9446C517.853 83.4367 516.377 91.4753 516.377 100.051H517.377H518.377C518.377 91.7097 519.811 83.9221 522.672 76.6794L521.742 76.312ZM517.377 100.051H516.377C516.377 108.628 517.853 116.71 520.811 124.291L521.742 123.927L522.674 123.564C519.811 116.228 518.377 108.393 518.377 100.051H517.377ZM521.742 123.927L520.816 124.305C523.861 131.778 528.017 138.384 533.285 144.114L534.021 143.437L534.758 142.76C529.657 137.212 525.627 130.811 522.669 123.55L521.742 123.927ZM534.021 143.437L533.291 144.12C538.56 149.759 544.664 154.244 551.598 157.573L552.031 156.671L552.463 155.77C545.754 152.549 539.852 148.212 534.752 142.754L534.021 143.437ZM552.031 156.671L551.608 157.577C558.565 160.824 565.987 162.446 573.86 162.446V161.446V160.446C566.271 160.446 559.139 158.885 552.454 155.765L552.031 156.671ZM691.96 195.555H690.96V196.555H691.96V195.555ZM691.96 4.54807V3.54807H690.96V4.54807H691.96ZM729.616 4.54807H730.616V3.54807H729.616V4.54807ZM729.616 157.899H728.616V158.899H729.616V157.899ZM806.564 157.899H807.564V156.899H806.564V157.899ZM806.564 195.555V196.555H807.564V195.555H806.564ZM691.96 195.555H692.96V4.54807H691.96H690.96V195.555H691.96ZM691.96 4.54807V5.54807H729.616V4.54807V3.54807H691.96V4.54807ZM729.616 4.54807H728.616V157.899H729.616H730.616V4.54807H729.616ZM729.616 157.899V158.899H806.564V157.899V156.899H729.616V157.899ZM806.564 157.899H805.564V195.555H806.564H807.564V157.899H806.564ZM806.564 195.555V194.555H691.96V195.555V196.555H806.564V195.555ZM866.829 187.914L866.287 188.755L866.29 188.756L866.829 187.914ZM839.679 157.899L838.788 158.354L838.792 158.362L839.679 157.899ZM829.992 4.54807V3.54807H828.992V4.54807H829.992ZM867.648 4.54807H868.648V3.54807H867.648V4.54807ZM872.286 138.662L871.374 139.07L872.286 138.662ZM885.793 155.307L885.216 156.123L885.224 156.129L885.793 155.307ZM928.633 155.307L928.064 154.485L928.058 154.489L928.633 155.307ZM942.004 138.798L942.921 139.197L942.004 138.798ZM946.506 4.54807V3.54807H945.506V4.54807H946.506ZM984.162 4.54807H985.162V3.54807H984.162V4.54807ZM978.568 148.349L977.63 148.002L977.628 148.007L978.568 148.349ZM962.878 174.817L963.624 175.483L962.878 174.817ZM938.457 192.69L938.045 191.778L938.042 191.78L938.457 192.69ZM907.213 199.102V198.102C892.103 198.102 878.833 194.417 867.369 187.072L866.829 187.914L866.29 188.756C878.11 196.329 891.763 200.102 907.213 200.102V199.102ZM866.829 187.914L867.372 187.074C855.97 179.713 847.037 169.84 840.566 157.437L839.679 157.899L838.792 158.362C845.419 171.062 854.585 181.199 866.287 188.755L866.829 187.914ZM839.679 157.899L840.569 157.444C834.189 144.954 830.992 131.104 830.992 115.878H829.992H828.992C828.992 131.394 832.253 145.559 838.788 158.354L839.679 157.899ZM829.992 115.878H830.992V4.54807H829.992H828.992V115.878H829.992ZM829.992 4.54807V5.54807H867.648V4.54807V3.54807H829.992V4.54807ZM867.648 4.54807H866.648V115.878H867.648H868.648V4.54807H867.648ZM867.648 115.878H866.648C866.648 124.282 868.219 132.018 871.374 139.07L872.286 138.662L873.199 138.254C870.169 131.481 868.648 124.027 868.648 115.878H867.648ZM872.286 138.662L871.374 139.07C874.536 146.139 879.151 151.831 885.216 156.123L885.793 155.307L886.371 154.491C880.612 150.415 876.222 145.01 873.199 138.254L872.286 138.662ZM885.793 155.307L885.224 156.129C891.33 160.356 898.676 162.446 907.213 162.446V161.446V160.446C899.015 160.446 892.081 158.444 886.363 154.485L885.793 155.307ZM907.213 161.446V162.446C915.838 162.446 923.189 160.357 929.209 156.125L928.633 155.307L928.058 154.489C922.435 158.442 915.506 160.446 907.213 160.446V161.446ZM928.633 155.307L929.203 156.129C935.276 151.925 939.849 146.272 942.921 139.197L942.004 138.798L941.087 138.4C938.156 145.15 933.816 150.503 928.064 154.485L928.633 155.307ZM942.004 138.798L942.921 139.197C945.983 132.145 947.506 124.367 947.506 115.878H946.506H945.506C945.506 124.124 944.028 131.626 941.087 138.4L942.004 138.798ZM946.506 115.878H947.506V4.54807H946.506H945.506V115.878H946.506ZM946.506 4.54807V5.54807H984.162V4.54807V3.54807H946.506V4.54807ZM984.162 4.54807H983.162V115.878H984.162H985.162V4.54807H984.162ZM984.162 115.878H983.162C983.162 127.319 981.315 138.025 977.63 148.002L978.568 148.349L979.506 148.695C983.279 138.48 985.162 127.539 985.162 115.878H984.162ZM978.568 148.349L977.628 148.007C974.032 157.897 968.866 166.609 962.132 174.151L962.878 174.817L963.624 175.483C970.534 167.744 975.828 158.81 979.508 148.691L978.568 148.349ZM962.878 174.817L962.132 174.151C955.405 181.685 947.379 187.56 938.045 191.778L938.457 192.69L938.868 193.601C948.453 189.269 956.708 183.229 963.624 175.483L962.878 174.817ZM938.457 192.69L938.042 191.78C928.817 195.989 918.547 198.102 907.213 198.102V199.102V200.102C918.801 200.102 929.359 197.94 938.872 193.599L938.457 192.69ZM1161.41 4.54807H1162.41V3.54807H1161.41V4.54807ZM1161.41 42.2037V43.2037H1162.41V42.2037H1161.41ZM1105.2 42.2037V41.2037H1104.2V42.2037H1105.2ZM1105.2 195.555V196.555H1106.2V195.555H1105.2ZM1067.54 195.555H1066.54V196.555H1067.54V195.555ZM1067.54 42.2037H1068.54V41.2037H1067.54V42.2037ZM1011.33 42.2037H1010.33V43.2037H1011.33V42.2037ZM1011.33 4.54807V3.54807H1010.33V4.54807H1011.33ZM1161.41 4.54807H1160.41V42.2037H1161.41H1162.41V4.54807H1161.41ZM1161.41 42.2037V41.2037H1105.2V42.2037V43.2037H1161.41V42.2037ZM1105.2 42.2037H1104.2V195.555H1105.2H1106.2V42.2037H1105.2ZM1105.2 195.555V194.555H1067.54V195.555V196.555H1105.2V195.555ZM1067.54 195.555H1068.54V42.2037H1067.54H1066.54V195.555H1067.54ZM1067.54 42.2037V41.2037H1011.33V42.2037V43.2037H1067.54V42.2037ZM1011.33 42.2037H1012.33V4.54807H1011.33H1010.33V42.2037H1011.33ZM1011.33 4.54807V5.54807H1161.41V4.54807V3.54807H1011.33V4.54807ZM1188.66 195.555H1187.66V196.555H1188.66V195.555ZM1188.66 4.54807V3.54807H1187.66V4.54807H1188.66ZM1309.54 4.54807H1310.54V3.54807H1309.54V4.54807ZM1309.54 42.2037V43.2037H1310.54V42.2037H1309.54ZM1226.32 42.2037V41.2037H1225.32V42.2037H1226.32ZM1226.32 74.4019H1225.32V75.4019H1226.32V74.4019ZM1291.26 74.4019H1292.26V73.4019H1291.26V74.4019ZM1291.26 112.058V113.058H1292.26V112.058H1291.26ZM1226.32 112.058V111.058H1225.32V112.058H1226.32ZM1226.32 157.899H1225.32V158.899H1226.32V157.899ZM1309.54 157.899H1310.54V156.899H1309.54V157.899ZM1309.54 195.555V196.555H1310.54V195.555H1309.54ZM1188.66 195.555H1189.66V4.54807H1188.66H1187.66V195.555H1188.66ZM1188.66 4.54807V5.54807H1309.54V4.54807V3.54807H1188.66V4.54807ZM1309.54 4.54807H1308.54V42.2037H1309.54H1310.54V4.54807H1309.54ZM1309.54 42.2037V41.2037H1226.32V42.2037V43.2037H1309.54V42.2037ZM1226.32 42.2037H1225.32V74.4019H1226.32H1227.32V42.2037H1226.32ZM1226.32 74.4019V75.4019H1291.26V74.4019V73.4019H1226.32V74.4019ZM1291.26 74.4019H1290.26V112.058H1291.26H1292.26V74.4019H1291.26ZM1291.26 112.058V111.058H1226.32V112.058V113.058H1291.26V112.058ZM1226.32 112.058H1225.32V157.899H1226.32H1227.32V112.058H1226.32ZM1226.32 157.899V158.899H1309.54V157.899V156.899H1226.32V157.899ZM1309.54 157.899H1308.54V195.555H1309.54H1310.54V157.899H1309.54ZM1309.54 195.555V194.555H1188.66V195.555V196.555H1309.54V195.555Z" fill="url(#paint1_linear_243_13042)" fill-opacity="0.5" mask="url(#path-1-outside-1_243_13042)"/>
<defs>
<linearGradient id="paint0_linear_243_13042" x1="654.128" y1="-74.1824" x2="654.128" y2="181.247" gradientUnits="userSpaceOnUse">
<stop offset="0.05" stop-color="#07122B"/>
<stop offset="1" stop-color="#000A21"/>
</linearGradient>
<linearGradient id="paint1_linear_243_13042" x1="606.878" y1="-97.4572" x2="580.128" y2="177.555" gradientUnits="userSpaceOnUse">
<stop stop-color="white" stop-opacity="0.7"/>
<stop offset="1" stop-color="#000419"/>
</linearGradient>
</defs>
</svg>
