<svg width="60" height="62" viewBox="0 0 60 62" fill="none" xmlns="http://www.w3.org/2000/svg">
<rect width="60" height="61.25" rx="30" fill="#041222"/>
<path d="M29.9115 34.7156C30.8476 34.7156 31.7626 34.438 32.5409 33.9179C33.3193 33.3978 33.9259 32.6586 34.2841 31.7938C34.6423 30.929 34.736 29.9773 34.5533 29.0592C34.3706 28.1412 33.9198 27.2979 33.2579 26.636C32.5959 25.9741 31.7526 25.5234 30.8344 25.3409C29.9163 25.1583 28.9647 25.2521 28.0999 25.6104C27.2351 25.9687 26.496 26.5754 25.976 27.3538C25.4561 28.1322 25.1786 29.0473 25.1787 29.9834C25.1801 31.2381 25.6792 32.441 26.5665 33.3282C27.4538 34.2154 28.6568 34.7143 29.9115 34.7156ZM29.9115 26.4381C30.6128 26.4375 31.2985 26.6449 31.882 27.0341C32.4654 27.4233 32.9202 27.9768 33.189 28.6246C33.4578 29.2724 33.5284 29.9853 33.392 30.6732C33.2555 31.3611 32.9181 31.9931 32.4224 32.4892C31.9267 32.9853 31.295 33.3233 30.6072 33.4603C29.9194 33.5974 29.2064 33.5273 28.5584 33.2591C27.9104 32.9908 27.3566 32.5364 26.9669 31.9533C26.5772 31.3703 26.3692 30.6847 26.3692 29.9834C26.3706 29.0442 26.7442 28.1438 27.4082 27.4795C28.0721 26.8152 28.9723 26.4412 29.9115 26.4393V26.4381Z" fill="white"/>
<path d="M47.6108 32.5559C47.6067 32.5169 47.5989 32.4783 47.5876 32.4408C47.5748 32.4052 47.5584 32.371 47.5389 32.3386C47.503 32.2713 47.4534 32.2123 47.3932 32.1653C47.3331 32.1184 47.2638 32.0846 47.1898 32.0661C47.1675 32.0565 47.1447 32.0482 47.1215 32.0412C47.1061 32.0412 47.0918 32.0447 47.0764 32.0412C47.0609 32.0376 47.0473 32.0322 47.0312 32.0322H43.5335L41.6412 30.1322C41.586 30.0769 41.5205 30.033 41.4484 30.0031C41.3763 29.9731 41.2989 29.9577 41.2208 29.9577H39.0109V29.4091C39.0106 28.9466 38.8268 28.5032 38.4998 28.1761C38.1729 27.8491 37.7295 27.6651 37.267 27.6646H36.9702C36.855 27.6559 36.7444 27.6154 36.6509 27.5476C36.5573 27.4799 36.4843 27.3875 36.44 27.2808C36.3957 27.1741 36.3819 27.0573 36.4 26.9432C36.4181 26.8291 36.4675 26.7222 36.5427 26.6345L36.7534 26.4243C37.0798 26.0969 37.2631 25.6534 37.2631 25.1911C37.2631 24.7287 37.0798 24.2853 36.7534 23.9578L35.9382 23.1432C35.611 22.8164 35.1675 22.6328 34.705 22.6328C34.2425 22.6328 33.799 22.8164 33.4718 23.1432L33.2622 23.3534C33.1757 23.4333 33.0673 23.4855 32.9509 23.5032C32.8345 23.521 32.7155 23.5036 32.6091 23.4532C32.5012 23.4126 32.4078 23.3409 32.3407 23.2471C32.2737 23.1533 32.2361 23.0417 32.2326 22.9265V22.6296C32.2319 22.1704 32.0502 21.7301 31.727 21.4039C31.4039 21.0777 30.9652 20.892 30.506 20.887V18.8528C30.5042 18.2242 30.2781 17.617 29.8683 17.1404C30.0342 16.8432 30.1222 16.5088 30.1242 16.1684C30.1242 15.7651 30.0046 15.3707 29.7805 15.0353C29.5564 14.6999 29.2379 14.4385 28.8652 14.2842C28.4925 14.1298 28.0824 14.0894 27.6868 14.1681C27.2912 14.2468 26.9278 14.441 26.6425 14.7263C26.3573 15.0115 26.163 15.3749 26.0843 15.7705C26.0056 16.1662 26.046 16.5763 26.2004 16.9489C26.3548 17.3216 26.6162 17.6401 26.9516 17.8642C27.287 18.0884 27.6813 18.208 28.0847 18.208C28.411 18.2057 28.732 18.1242 29.0198 17.9705C29.2123 18.2244 29.3166 18.5342 29.3167 18.8528V20.8858C28.8576 20.8908 28.4189 21.0765 28.0957 21.4027C27.7725 21.7289 27.5908 22.1693 27.5901 22.6284V22.9253C27.5859 23.0435 27.5462 23.1577 27.4762 23.253C27.4062 23.3483 27.3091 23.4203 27.1976 23.4597C27.0924 23.507 26.9756 23.522 26.8619 23.5029C26.7482 23.4837 26.6427 23.4313 26.5588 23.3522L26.3503 23.1432C26.018 22.8262 25.5764 22.6493 25.1171 22.6493C24.6579 22.6493 24.2162 22.8262 23.8839 23.1432L23.0687 23.9578C22.7419 24.285 22.5583 24.7286 22.5583 25.1911C22.5583 25.6535 22.7419 26.0971 23.0687 26.4243L23.2777 26.6339C23.3534 26.7117 23.4054 26.8095 23.4275 26.9158C23.4496 27.0222 23.4409 27.1326 23.4024 27.2342C23.3958 27.2472 23.3834 27.2751 23.3774 27.2894C23.3371 27.3972 23.2654 27.4905 23.1717 27.5573C23.078 27.6242 22.9665 27.6615 22.8514 27.6646H22.5545C22.0952 27.6652 21.6547 27.8469 21.3286 28.1703C21.0024 28.4937 20.817 28.9326 20.8124 29.3918H17.5943V27.6124C18.062 27.47 18.4631 27.1644 18.7244 26.7512C18.9857 26.338 19.0898 25.8446 19.0179 25.361C18.9459 24.8775 18.7027 24.4358 18.3324 24.1165C17.9621 23.7973 17.4895 23.6217 17.0006 23.6217C16.5117 23.6217 16.039 23.7973 15.6687 24.1165C15.2985 24.4358 15.0552 24.8775 14.9832 25.361C14.9113 25.8446 15.0154 26.338 15.2767 26.7512C15.538 27.1644 15.9391 27.47 16.4068 27.6124V29.3901H12.5938C12.4363 29.3901 12.2853 29.4526 12.1739 29.564C12.0626 29.6753 12 29.8263 12 29.9838C12.0002 34.4973 13.7041 38.8444 16.7711 42.1558C19.8381 45.4673 24.042 47.4989 28.5423 47.8445C33.0426 48.1901 37.5074 46.8242 41.0441 44.02C44.5807 41.2157 46.9285 37.1798 47.6179 32.7192C47.6179 32.7038 47.6149 32.6895 47.6179 32.6735C47.6208 32.6575 47.6268 32.645 47.6268 32.629C47.623 32.6043 47.6176 32.5799 47.6108 32.5559ZM16.1473 25.672C16.1472 25.5035 16.1971 25.3387 16.2906 25.1985C16.3842 25.0583 16.5172 24.949 16.6729 24.8844C16.8286 24.8198 16.9999 24.8029 17.1652 24.8357C17.3306 24.8685 17.4824 24.9496 17.6016 25.0687C17.7209 25.1879 17.8021 25.3397 17.835 25.505C17.8679 25.6703 17.8511 25.8416 17.7866 25.9973C17.7221 26.1531 17.6129 26.2862 17.4728 26.3798C17.3327 26.4735 17.1679 26.5234 16.9994 26.5234C16.7736 26.5231 16.5572 26.4333 16.3975 26.2737C16.2378 26.1142 16.1478 25.8978 16.1473 25.672ZM27.2327 16.1684C27.2325 16.0284 27.2669 15.8904 27.3328 15.7668C27.3987 15.6432 27.494 15.5378 27.6104 15.4598C27.7268 15.3818 27.8606 15.3337 27.9999 15.3198C28.1393 15.3059 28.28 15.3265 28.4095 15.3799C28.539 15.4333 28.6533 15.5178 28.7424 15.6259C28.8314 15.734 28.8924 15.8624 28.92 15.9998C28.9476 16.1371 28.9409 16.2791 28.9006 16.4132C28.8602 16.5473 28.7874 16.6694 28.6885 16.7687L28.6844 16.7741C28.565 16.8927 28.4131 16.9734 28.2479 17.0058C28.0827 17.0382 27.9116 17.0208 27.7563 16.956C27.6009 16.8912 27.4683 16.7818 27.3751 16.6416C27.2819 16.5014 27.2323 16.3368 27.2327 16.1684ZM22.5551 28.8509H22.852C23.2022 28.8421 23.5424 28.7319 23.8312 28.5335C24.12 28.3352 24.3451 28.0573 24.4791 27.7336C24.6131 27.4099 24.6503 27.0542 24.5862 26.7098C24.5221 26.3654 24.3594 26.0469 24.1178 25.7931L23.9088 25.5835C23.8045 25.4791 23.7459 25.3375 23.7459 25.1899C23.7459 25.0422 23.8045 24.9007 23.9088 24.7962L24.7247 23.9816C24.8303 23.8798 24.9713 23.823 25.118 23.823C25.2647 23.823 25.4057 23.8798 25.5114 23.9816L25.7198 24.19C25.9736 24.4314 26.292 24.5941 26.6364 24.6582C26.9808 24.7223 27.3364 24.6851 27.6601 24.5512C27.9839 24.4173 28.2618 24.1924 28.4602 23.9037C28.6587 23.615 28.7691 23.2749 28.7782 22.9247V22.6278C28.7783 22.4803 28.837 22.3388 28.9413 22.2344C29.0456 22.13 29.187 22.0712 29.3345 22.0709H29.8968C29.9013 22.0729 29.9062 22.0739 29.9111 22.0739C29.916 22.0739 29.9208 22.0729 29.9253 22.0709H30.4876C30.6352 22.0712 30.7766 22.13 30.8809 22.2344C30.9851 22.3388 31.0438 22.4803 31.0439 22.6278V22.9247C31.0527 23.275 31.163 23.6151 31.3613 23.904C31.5597 24.1928 31.8375 24.4179 32.1613 24.5519C32.485 24.6859 32.8406 24.7231 33.1851 24.659C33.5295 24.5948 33.8479 24.4321 34.1017 24.1906L34.3108 23.981C34.4153 23.8769 34.5569 23.8185 34.7044 23.8185C34.8519 23.8185 34.9935 23.8769 35.0981 23.981L35.9127 24.7956C36.017 24.9 36.0756 25.0415 36.0756 25.189C36.0756 25.3365 36.017 25.478 35.9127 25.5823L35.7019 25.7931C35.4605 26.047 35.2979 26.3655 35.234 26.71C35.17 27.0544 35.2073 27.41 35.3415 27.7337C35.4756 28.0573 35.7008 28.3351 35.9897 28.5333C36.2785 28.7315 36.6187 28.8417 36.969 28.8503H37.2658C37.4134 28.8507 37.5548 28.9095 37.6591 29.0139C37.7634 29.1182 37.822 29.2597 37.8222 29.4073V30.5419C37.8222 30.5473 37.8222 30.5514 37.8222 30.5562V30.5651C37.8209 30.7116 37.7619 30.8517 37.658 30.955C37.554 31.0583 37.4136 31.1164 37.267 31.1167H36.9702C36.6199 31.1255 36.2797 31.2358 35.9909 31.4341C35.7021 31.6324 35.477 31.9103 35.343 32.234C35.209 32.5577 35.1718 32.9134 35.2359 33.2578C35.3 33.6023 35.4627 33.9207 35.7043 34.1745L35.9127 34.3835C35.9644 34.4352 36.0055 34.4965 36.0335 34.5641C36.0615 34.6316 36.0759 34.704 36.0759 34.7772C36.0759 34.8503 36.0615 34.9227 36.0335 34.9902C36.0055 35.0578 35.9644 35.1191 35.9127 35.1708L35.0969 35.986C34.9923 36.0901 34.8508 36.1485 34.7032 36.1485C34.5557 36.1485 34.4142 36.0901 34.3096 35.986L34.1006 35.7764C33.8467 35.5349 33.5282 35.3722 33.1837 35.3081C32.8392 35.2439 32.4835 35.2812 32.1598 35.4153C31.8361 35.5494 31.5582 35.7745 31.3599 36.0634C31.1616 36.3524 31.0514 36.6926 31.0427 37.0429V37.3398C31.0426 37.4873 30.9839 37.6288 30.8797 37.7332C30.7754 37.8376 30.634 37.8964 30.4864 37.8967H29.9212C29.9176 37.8967 29.914 37.8967 29.9099 37.8967C29.9057 37.8967 29.9022 37.8967 29.8986 37.8967H29.3375C29.1899 37.8964 29.0485 37.8376 28.9442 37.7332C28.84 37.6288 28.7813 37.4873 28.7812 37.3398V37.0429C28.7775 36.6895 28.6681 36.3454 28.467 36.0548C28.2659 35.7642 27.9824 35.5404 27.653 35.4125C27.4306 35.3201 27.1921 35.2723 26.9512 35.2718C26.7232 35.2708 26.4972 35.3148 26.2862 35.4013C26.0752 35.4878 25.8833 35.6151 25.7216 35.7758L25.5108 35.986C25.4051 36.0875 25.2642 36.1441 25.1177 36.1441C24.9712 36.1441 24.8304 36.0875 24.7247 35.986L23.9094 35.1714C23.8051 35.067 23.7465 34.9254 23.7465 34.7778C23.7465 34.6301 23.8051 34.4885 23.9094 34.3841L24.1184 34.1745C24.3601 33.9208 24.5228 33.6024 24.587 33.2579C24.6512 32.9135 24.614 32.5578 24.4799 32.2341C24.3459 31.9104 24.1208 31.6326 23.8319 31.4343C23.543 31.2361 23.2028 31.1259 22.8526 31.1173H22.5557C22.408 31.117 22.2665 31.0581 22.1622 30.9536C22.0579 30.849 21.9993 30.7074 21.9993 30.5598V29.9987C21.9993 29.9933 21.9993 29.9892 21.9993 29.9844C21.9993 29.9797 21.9993 29.9749 21.9993 29.9696V29.4091C21.9992 29.2614 22.0576 29.1197 22.1618 29.0151C22.266 28.9104 22.4074 28.8514 22.5551 28.8509ZM31.8722 43.0819C32.0407 43.0819 32.2055 43.1319 32.3456 43.2255C32.4857 43.3192 32.5949 43.4522 32.6594 43.6079C32.7239 43.7636 32.7408 43.9349 32.7079 44.1002C32.675 44.2655 32.5939 44.4173 32.4747 44.5364C32.3555 44.6556 32.2037 44.7368 32.0384 44.7696C31.8732 44.8025 31.7018 44.7856 31.5462 44.7211C31.3905 44.6567 31.2574 44.5474 31.1638 44.4073C31.0702 44.2672 31.0202 44.1025 31.0202 43.934C31.0203 43.708 31.1102 43.4914 31.2699 43.3317C31.4297 43.1719 31.6463 43.0821 31.8722 43.0819ZM29.9128 46.708C25.5822 46.7023 21.4223 45.0189 18.3064 42.0113C15.1905 39.0037 13.3611 34.9059 13.2023 30.5782H20.813C20.818 31.0372 21.0037 31.4758 21.3297 31.799C21.6558 32.1222 22.096 32.3039 22.5551 32.3048H22.852C22.9702 32.3089 23.0844 32.3486 23.1797 32.4186C23.275 32.4886 23.347 32.5857 23.3863 32.6973C23.434 32.802 23.4494 32.9185 23.4307 33.0321C23.412 33.1456 23.36 33.251 23.2812 33.3349L23.0723 33.5445C22.7454 33.8717 22.5618 34.3153 22.5618 34.7778C22.5618 35.2402 22.7454 35.6838 23.0723 36.011L23.8869 36.8256C24.2192 37.1423 24.6607 37.319 25.1198 37.319C25.5789 37.319 26.0204 37.1423 26.3527 36.8256L26.5629 36.6154C26.6496 36.536 26.758 36.4841 26.8743 36.4663C26.9906 36.4485 27.1095 36.4657 27.216 36.5157C27.324 36.5561 27.4175 36.6278 27.4845 36.7216C27.5516 36.8154 27.5892 36.9271 27.5925 37.0423V37.3392C27.5931 37.7984 27.7747 38.2389 28.0979 38.5651C28.4211 38.8913 28.8599 39.077 29.3191 39.0818V41.1148C29.3173 41.8132 29.5916 42.4839 30.0821 42.981C29.9224 43.2724 29.8373 43.5988 29.8345 43.931C29.8345 44.3344 29.9541 44.7287 30.1782 45.0641C30.4023 45.3995 30.7208 45.6609 31.0935 45.8153C31.4662 45.9696 31.8763 46.01 32.2719 45.9313C32.6675 45.8526 33.0309 45.6584 33.3162 45.3732C33.6014 45.0879 33.7956 44.7245 33.8743 44.3289C33.953 43.9333 33.9126 43.5232 33.7583 43.1505C33.6039 42.7778 33.3425 42.4593 33.0071 42.2352C32.6717 42.0111 32.2774 41.8915 31.874 41.8915C31.5418 41.894 31.2154 41.9789 30.924 42.1385C30.6564 41.8639 30.5072 41.4953 30.5084 41.1119V39.0818C30.9676 39.077 31.4064 38.8913 31.7296 38.5651C32.0528 38.2389 32.2344 37.7984 32.235 37.3392V37.0423C32.244 36.9272 32.2846 36.8167 32.3525 36.7233C32.4203 36.6298 32.5127 36.557 32.6195 36.5128C32.7262 36.4686 32.843 36.4548 32.9571 36.4729C33.0712 36.491 33.178 36.5403 33.2658 36.6154L33.4748 36.825C33.6367 36.987 33.8289 37.1155 34.0405 37.2031C34.2521 37.2908 34.4789 37.3359 34.708 37.3359C34.937 37.3359 35.1638 37.2908 35.3754 37.2031C35.587 37.1155 35.7793 36.987 35.9412 36.825L36.757 36.0104C37.0836 35.6829 37.267 35.2393 37.267 34.7769C37.267 34.3144 37.0836 33.8708 36.757 33.5433L36.5486 33.3349C36.4685 33.2486 36.416 33.1403 36.398 33.0238C36.38 32.9074 36.3973 32.7883 36.4477 32.6818C36.4882 32.5738 36.56 32.4803 36.6539 32.4132C36.7478 32.3462 36.8596 32.3086 36.9749 32.3054H37.2718C37.6298 32.3043 37.9787 32.1928 38.2711 31.9863C38.5634 31.7798 38.7851 31.4881 38.9058 31.1511H40.975L42.8673 33.0511C42.9224 33.1064 42.9879 33.1503 43.0601 33.1803C43.1322 33.2102 43.2095 33.2257 43.2877 33.2257H46.3235C45.5514 37.0156 43.4986 40.4244 40.5099 42.8795C37.5213 45.3346 33.7788 46.6864 29.9111 46.708H29.9128Z" fill="white"/>
<path d="M26.2592 44.1308C24.1048 43.5983 22.1049 42.5693 20.4191 41.126C18.7334 39.6826 17.4087 37.865 16.5508 35.8183C16.5219 35.7447 16.4786 35.6775 16.4233 35.6208C16.3681 35.5642 16.3021 35.5191 16.2293 35.4883C16.1564 35.4575 16.0781 35.4415 15.999 35.4414C15.9198 35.4413 15.8415 35.457 15.7685 35.4876C15.6955 35.5182 15.6294 35.563 15.574 35.6195C15.5186 35.676 15.4751 35.7431 15.446 35.8166C15.4169 35.8902 15.4027 35.9689 15.4044 36.048C15.4061 36.1271 15.4236 36.205 15.4559 36.2773C16.385 38.4949 17.82 40.4643 19.6463 42.0281C21.4726 43.5919 23.6395 44.7067 25.9736 45.2833C26.0498 45.3036 26.1292 45.3084 26.2073 45.2977C26.2854 45.2869 26.3605 45.2607 26.4284 45.2206C26.4962 45.1805 26.5554 45.1272 26.6025 45.064C26.6496 45.0008 26.6836 44.9288 26.7025 44.8523C26.7215 44.7758 26.725 44.6963 26.7129 44.6184C26.7008 44.5405 26.6733 44.4658 26.6321 44.3986C26.5908 44.3315 26.5366 44.2732 26.4726 44.2272C26.4085 44.1813 26.336 44.1485 26.2592 44.1308Z" fill="white"/>
<path d="M15.6579 34.5443C15.7101 34.4864 15.7522 34.4202 15.7826 34.3484C15.8139 34.2772 15.8301 34.2002 15.8301 34.1224C15.8301 34.0446 15.8139 33.9677 15.7826 33.8965C15.7536 33.8241 15.7113 33.7579 15.6579 33.7012C15.5888 33.6327 15.5039 33.5823 15.4107 33.5543C15.3175 33.5264 15.2189 33.5218 15.1235 33.5409C15.0849 33.5472 15.0469 33.5572 15.0101 33.5705C14.9746 33.587 14.9408 33.6069 14.9092 33.6299C14.8752 33.6502 14.8436 33.6741 14.8148 33.7012C14.7596 33.7566 14.7171 33.8232 14.6901 33.8965C14.6588 33.9677 14.6426 34.0446 14.6426 34.1224C14.6426 34.2002 14.6588 34.2772 14.6901 34.3484C14.72 34.4204 14.7622 34.4867 14.8148 34.5443C14.8725 34.5964 14.9385 34.6385 15.0101 34.669C15.0813 34.7003 15.1582 34.7165 15.236 34.7165C15.3138 34.7165 15.3907 34.7003 15.4619 34.669C15.5338 34.6386 15.6 34.5965 15.6579 34.5443Z" fill="white"/>
</svg>
