<svg width="82" height="82" viewBox="0 0 82 82" fill="none" xmlns="http://www.w3.org/2000/svg">
<g clip-path="url(#clip0_2123_264)">
<path d="M27.6006 19.3443C27.365 20.0694 27.5969 20.8466 28.1911 21.3244L33.4825 25.5774L31.7016 32.1284C31.5017 32.8639 31.7709 33.6289 32.3881 34.0777C33.0054 34.5256 33.8157 34.5453 34.4537 34.1279L40.1337 30.4097L45.8138 34.128C46.1201 34.3284 46.4659 34.428 46.8111 34.428C47.1852 34.428 47.5586 34.311 47.8791 34.0777C48.4966 33.6294 48.766 32.8639 48.5656 32.1284L46.7846 25.5776L52.0757 21.3247C52.6704 20.8471 52.9024 20.0698 52.6666 19.3443C52.431 18.6187 51.7864 18.1262 51.0248 18.0894L44.2441 17.7588L41.8344 11.4123C41.5639 10.6993 40.8961 10.2385 40.1335 10.2385C39.3709 10.2385 38.7031 10.6992 38.4328 11.4121L36.0229 17.7589L29.2427 18.0894C28.4807 18.1262 27.8362 18.6187 27.6006 19.3443ZM36.6338 20.2948C37.3565 20.2596 37.9894 19.7997 38.2458 19.1235L40.1333 14.1524L42.0208 19.1239C42.2778 19.8 42.9108 20.2596 43.6329 20.2948L48.9438 20.5538L44.7991 23.885C44.2351 24.3384 43.9936 25.0825 44.1834 25.7802L45.5783 30.9112L41.1293 27.9988C40.8267 27.8008 40.48 27.7018 40.1332 27.7018C39.7864 27.7018 39.4393 27.801 39.1366 27.9989L34.6879 30.9112L36.0828 25.7805C36.2728 25.0823 36.0311 24.3381 35.467 23.885L31.3224 20.554L36.6338 20.2948ZM38.8519 6.07172V1.36929C38.8519 0.661639 39.4257 0.0878906 40.1333 0.0878906C40.841 0.0878906 41.4147 0.661639 41.4147 1.36929V6.07172C41.4147 6.77938 40.841 7.35313 40.1333 7.35313C39.4257 7.35313 38.8519 6.77938 38.8519 6.07172ZM46.6555 13.6637C46.182 13.1379 46.2245 12.3275 46.7503 11.8541L51.9905 7.13561C52.5165 6.66197 53.3267 6.70441 53.8003 7.23043C54.2738 7.75629 54.2313 8.56661 53.7055 9.04009L48.4652 13.7585C48.2203 13.9791 47.9137 14.0877 47.6081 14.0877C47.2578 14.0877 46.9086 13.9448 46.6555 13.6637ZM26.4664 7.23043C26.9399 6.70441 27.75 6.66197 28.2762 7.13561L33.5165 11.8541C34.0424 12.3275 34.0848 13.1379 33.6113 13.6637C33.3582 13.9447 33.0091 14.0877 32.6586 14.0877C32.3531 14.0877 32.0466 13.9791 31.8015 13.7585L26.5612 9.04009C26.0352 8.56661 25.9929 7.75629 26.4664 7.23043ZM56.5728 21.3244L61.8642 25.5774L60.0832 32.1284C59.8833 32.8639 60.1525 33.6289 60.7697 34.0777C61.3865 34.5256 62.197 34.5451 62.8353 34.1279L68.5153 30.4097L74.1954 34.128C74.5017 34.3284 74.8475 34.428 75.1927 34.428C75.5669 34.428 75.9402 34.311 76.2607 34.0777C76.8779 33.6297 77.1473 32.8646 76.9473 32.1284L75.1663 25.5776L80.4573 21.3247C81.0519 20.8473 81.2838 20.0699 81.0481 19.3443C80.8124 18.6187 80.1679 18.1262 79.4064 18.0894L72.6257 17.7588L70.2162 11.4123C69.9457 10.6993 69.2779 10.2385 68.5153 10.2385C67.7525 10.2385 67.0848 10.6992 66.8142 11.4121L64.4047 17.7588L57.6245 18.0892C56.8624 18.126 56.2178 18.6187 55.9822 19.3443C55.7464 20.0698 55.9784 20.8471 56.5728 21.3244ZM65.0153 20.2948C65.7382 20.2596 66.3712 19.7997 66.6278 19.1233L68.5151 14.1522L70.4023 19.1231C70.6591 19.7997 71.2921 20.2596 72.0146 20.2947L77.3256 20.5537L73.1814 23.8845C72.6171 24.3378 72.3752 25.082 72.5652 25.78L73.9601 30.9111L69.5111 27.9986C69.2084 27.8006 68.8616 27.7016 68.5148 27.7016C68.1679 27.7016 67.8209 27.8008 67.5184 27.9988L63.0697 30.9111L64.4646 25.7803C64.6544 25.0825 64.4129 24.3384 63.8487 23.8848L59.7042 20.5537L65.0153 20.2948ZM-0.190804 21.3244L5.10059 25.5774L3.3196 32.1284C3.1197 32.8639 3.38895 33.6289 4.00611 34.0777C4.62343 34.5256 5.43375 34.5453 6.07173 34.1279L11.7517 30.4097L17.4319 34.128C17.7381 34.3284 18.0839 34.428 18.4291 34.428C18.8033 34.428 19.1766 34.311 19.4972 34.0777C20.1143 33.6297 20.3837 32.8646 20.1837 32.1284L18.4027 25.5776L23.6937 21.3247C24.288 20.8476 24.5201 20.0704 24.2845 19.3435C24.0484 18.6184 23.4038 18.126 22.6428 18.0892L15.8621 17.7586L13.4526 11.4123C13.1821 10.6993 12.5143 10.2385 11.7517 10.2385C10.989 10.2385 10.3212 10.6992 10.0506 11.4121L7.64113 17.7588L0.860907 18.0892C0.0989528 18.126 -0.545593 18.6187 -0.781051 19.3435C-1.01731 20.0693 -0.785536 20.8469 -0.190804 21.3244ZM8.25172 20.2948C8.97459 20.2596 9.6076 19.7997 9.86421 19.1233L11.7516 14.1522L13.6387 19.1231C13.8955 19.7997 14.5285 20.2596 15.2511 20.2947L20.562 20.5537L16.4178 23.8845C15.8535 24.3378 15.6116 25.082 15.8016 25.78L17.1966 30.9111L12.7475 27.9986C12.4448 27.8006 12.098 27.7016 11.7512 27.7016C11.4043 27.7016 11.0574 27.8008 10.7548 27.9988L6.30607 30.9111L7.70104 25.7803C7.89084 25.0825 7.6493 24.3384 7.08516 23.8848L2.94062 20.5537L8.25172 20.2948ZM80.9366 68.1517C80.035 65.24 78.1883 62.6256 75.7365 60.7897C74.5627 59.9108 73.2845 59.2262 71.9362 58.7415C73.8056 57.2743 75.0101 54.9967 75.0101 52.4414C75.0101 48.026 71.4178 44.4339 67.0026 44.4339C62.5872 44.4339 58.995 48.026 58.995 52.4414C58.995 54.9936 60.1966 57.2691 62.0623 58.7364C59.5618 59.6289 57.3466 61.197 55.6502 63.3101C54.8573 62.2009 53.9427 61.1706 52.9145 60.2408C50.8428 58.3672 48.4115 56.9913 45.7931 56.1781C48.5698 54.3374 50.4054 51.1856 50.4054 47.6119C50.4054 41.9481 45.7973 37.3402 40.1335 37.3402C34.4697 37.3402 29.8616 41.9481 29.8616 47.6119C29.8616 51.1856 31.6971 54.3374 34.4737 56.1781C31.8552 56.9911 29.4239 58.3672 27.3522 60.2408C26.324 61.1706 25.4094 62.2009 24.6167 63.3099C22.9204 61.1967 20.7052 59.6286 18.2045 58.7359C20.0701 57.2686 21.2719 54.9931 21.2719 52.4409C21.2719 48.0255 17.6796 44.4334 13.2644 44.4334C8.84901 44.4334 5.25676 48.0255 5.25676 52.4409C5.25676 54.996 6.46128 57.2739 8.33053 58.7411C6.98217 59.2258 5.70397 59.9103 4.53004 60.7892C2.07824 62.625 0.231578 65.2395 -0.670049 68.151C-1.08667 69.4959 -0.855853 70.8607 -0.0202177 71.9945C0.815257 73.1279 2.05085 73.7519 3.45879 73.7519H21.1731V76.0645C21.1731 79.3914 23.8795 82.0978 27.2064 82.0978H53.0603C56.387 82.0978 59.0936 79.3914 59.0938 76.0645V73.7525H76.8079C78.216 73.7525 79.4516 73.1283 80.2869 71.9951C81.1224 70.8614 81.3532 69.4964 80.9366 68.1517ZM67.0026 46.9967C70.0048 46.9967 72.4473 49.4392 72.4473 52.4414C72.4473 55.4437 70.0048 57.8862 67.0026 57.8862C64.0003 57.8862 61.5578 55.4437 61.5578 52.4414C61.5578 49.4392 64.0003 46.9967 67.0026 46.9967ZM32.4244 47.6119C32.4244 43.3612 35.8828 39.903 40.1335 39.903C44.3842 39.903 47.8426 43.3612 47.8426 47.6119C47.8426 51.8614 44.3865 55.3186 40.1377 55.3208C40.1362 55.3208 40.1346 55.3208 40.1333 55.3208C40.1321 55.3208 40.1306 55.3208 40.1292 55.3208C35.8804 55.3184 32.4244 51.8612 32.4244 47.6119ZM13.2644 46.996C16.2666 46.996 18.7091 49.4386 18.7091 52.4407C18.7091 55.4431 16.2666 57.8856 13.2644 57.8856C10.2621 57.8856 7.81957 55.4431 7.81957 52.4407C7.81957 49.4386 10.2621 46.996 13.2644 46.996ZM21.3395 71.1889H3.45895C2.86919 71.1889 2.39282 70.9483 2.04284 70.4736C1.6927 69.9988 1.6038 69.4725 1.77823 68.9092C3.34539 63.8484 7.96148 60.4484 13.2644 60.4484C17.2757 60.4484 20.9298 62.3865 23.1772 65.6674C22.2887 67.3934 21.6664 69.2539 21.3395 71.1889ZM56.531 76.0644C56.5308 77.978 54.9739 79.5349 53.0603 79.5349H27.2064C25.2928 79.5349 23.7359 77.978 23.7359 76.0644V72.54C24.6636 64.1808 31.6992 57.8857 40.1292 57.8836C40.1306 57.8836 40.1321 57.8838 40.1335 57.8838C40.1349 57.8838 40.1364 57.8836 40.1377 57.8836C48.5675 57.8859 55.6029 64.1808 56.531 72.54V76.0644ZM78.224 70.4744C77.874 70.949 77.3978 71.1896 76.8079 71.1896H58.9275C58.6004 69.2543 57.9782 67.3939 57.0898 65.6677C59.3374 62.387 62.9913 60.449 67.0024 60.449C72.3054 60.449 76.9215 63.8492 78.4886 68.91C78.663 69.473 78.574 69.9993 78.224 70.4744Z" fill="#2378DA"/>
</g>
<defs>
<clipPath id="clip0_2123_264">
<rect width="81.2405" height="81.2405" fill="white"/>
</clipPath>
</defs>
</svg>
