<svg width="87" height="63" viewBox="0 0 87 63" fill="none" xmlns="http://www.w3.org/2000/svg">
<path opacity="0.1" d="M86.7813 18.6376C86.7813 27.9564 84.7428 36.4986 80.6659 44.2643C76.5889 52.03 70.5705 57.9513 62.6107 62.0283L52.7095 53.8743C57.1747 52.3212 61.0575 48.9237 64.358 43.6819C68.2408 38.2459 70.1822 33.2953 70.1822 28.83H51.2534V0H86.7813V18.6376ZM35.5279 18.6376C35.5279 27.7623 33.3924 36.4986 29.1212 44.8467C24.656 53.1948 18.7347 58.922 11.3573 62.0283L1.45606 53.8743C5.92132 52.3212 9.80415 48.9237 13.1046 43.6819C16.9874 38.2459 18.9288 33.2953 18.9288 28.83H0V0H35.5279V18.6376Z" fill="#2378DA"/>
</svg>
