<svg width="90" height="90" viewBox="0 0 90 90" fill="none" xmlns="http://www.w3.org/2000/svg">
<circle cx="45" cy="45" r="45" fill="white"/>
<path d="M61.2991 29.9187C61.2991 29.6103 60.9906 29.6103 60.6822 29.6103C60.3738 29.6103 56.6857 29.3018 56.6857 29.3018C56.6857 29.3018 54.2248 26.8475 53.9164 26.5391C53.9164 26.5391 53.9164 26.5391 53.6079 26.5391L51.7639 69.6015L66.5293 66.5237C66.5293 66.2219 61.2991 30.2271 61.2991 29.9187Z" fill="#649244"/>
<path d="M52.9949 26.2312C52.9949 26.2312 52.3781 26.2312 51.4593 26.5396C50.534 24.0787 48.9984 21.9262 46.2291 21.9262H45.9207C45.3038 20.6925 44.3851 20.3906 43.4598 20.3906C37.0024 20.3906 33.9246 28.3902 32.9993 32.3867C30.5384 33.0035 29.0028 33.6204 28.6944 33.6204C27.1588 34.2373 27.1588 34.2373 27.1588 35.4644C27.1588 36.3897 23.4707 64.3784 23.4707 64.3784L51.1574 69.6086L52.9949 26.2312ZM45.9207 28.0752C44.3851 29.0005 42.5345 29.3089 40.9989 29.9192C41.9242 26.2246 43.7682 24.3806 45.3038 23.7637C45.6122 24.9974 45.9207 26.2312 45.9207 28.0752ZM43.1513 22.2347C43.4598 22.2347 43.7682 22.2347 44.0766 22.5431C42.2326 23.4684 39.7717 25.6209 38.8464 30.5427C37.6127 30.8511 36.3855 31.4679 35.1518 31.7764C36.0771 28.0752 38.8398 22.2347 43.1513 22.2347ZM44.3785 43.4574C44.3785 43.4574 42.5345 42.5321 40.6904 42.5321C37.6127 42.5321 37.6127 44.3762 37.6127 44.993C37.6127 47.4539 44.3785 48.3792 44.3785 54.5282C44.3785 59.1416 41.3007 62.2193 37.3042 62.2193C32.3824 62.2193 29.9215 59.1416 29.9215 59.1416L31.1553 54.8366C31.1553 54.8366 33.6162 56.9891 35.7686 56.9891C37.3042 56.9891 37.6127 55.7554 37.6127 55.1451C37.6127 51.7589 32.074 51.7589 32.074 46.2268C32.074 41.6134 35.1518 37.3085 41.9176 37.3085C44.3785 37.3085 45.6057 37.9253 45.6057 37.9253L44.3785 43.4574ZM47.4563 27.7668V27.4583C47.4563 25.9227 47.1478 24.689 46.8394 23.7637C48.375 23.7637 49.3003 25.6077 49.9172 27.4583C48.9919 27.4583 48.3816 27.7668 47.4563 27.7668Z" fill="#98C24D"/>
</svg>
