<svg width="72" height="71" viewBox="0 0 72 71" fill="none" xmlns="http://www.w3.org/2000/svg">
<path d="M69.4249 59.3708C69.3806 59.3156 67.3077 56.8545 64.6029 54.3383C65.6892 52.8639 66.5095 51.1903 67.0417 49.3722C69.5292 40.8494 64.641 32.0274 56.2228 29.5634C54.9924 29.2088 53.7509 28.9983 52.5315 28.9539V24.0545H60.4793C63.0511 24.0545 65.1349 21.9593 65.1349 19.3986V7.41574C65.1349 3.32547 61.8095 0 57.7192 0H7.40478C3.32547 0 0 3.32547 0 7.41574V60.2688C0 64.3482 3.32547 67.6737 7.40478 67.6737H45.1268C49.0176 67.6737 52.2211 64.6475 52.5093 60.8339C53.2187 60.8008 53.9283 60.7234 54.6265 60.5903C55.9124 63.5277 57.4199 66.2881 58.2956 67.4848C60.6703 70.7475 65.2023 72.0749 68.4493 69.7018C71.6816 67.3312 71.8278 62.6656 69.4249 59.3708ZM64.9133 48.7406C62.8249 55.9681 55.2699 60.1985 47.8647 58.074C43.1894 56.7003 39.7723 53.0095 38.5644 48.785C37.9845 46.8764 37.873 45.025 38.1101 43.0098C39.4351 34.3273 47.8712 29.411 55.591 31.6916C62.6843 33.7671 67.0936 41.3011 64.9133 48.7406ZM45.1268 65.4567H7.40478C4.54492 65.4567 2.21698 63.1288 2.21698 60.2688V7.41574C2.21698 4.54492 4.54492 2.21698 7.40478 2.21698H52.4428C51.0468 3.61294 50.3146 5.56873 50.3146 7.41574V22.946V28.9875C44.8385 29.486 39.8836 32.8001 37.4116 37.844C36.9905 37.5891 36.4806 37.4338 35.9484 37.4338H26.3157V34.1527H26.4376C27.4573 34.1527 28.3442 33.4323 28.5327 32.4347L28.6657 31.7473C29.4083 31.5254 30.1179 31.2261 30.805 30.8494L31.3814 31.2375C32.2461 31.8025 33.3768 31.6916 34.064 30.9604L35.7488 29.2862C36.5027 28.5658 36.6135 27.4352 36.026 26.5816L35.6381 25.9943C36.0039 25.3069 36.3031 24.5865 36.5249 23.8326L37.1899 23.6994C38.1876 23.5111 38.9192 22.6353 38.9192 21.6156V19.2102C38.9192 18.1797 38.1876 17.3039 37.1899 17.1042L36.5027 16.9711C36.281 16.2507 35.9817 15.5189 35.6049 14.8315L35.9817 14.2664C36.5471 13.4129 36.4473 12.2822 35.7268 11.5726L34.0419 9.88765C33.3213 9.15642 32.1906 9.03464 31.3371 9.61053L30.7386 9.99861C30.0402 9.6219 29.3197 9.32258 28.588 9.11203L28.4551 8.46902C28.2776 7.46012 27.402 6.71752 26.371 6.71752H23.9657C22.9237 6.71752 22.0591 7.4493 21.8706 8.45766L21.7487 9.13423C20.9949 9.36697 20.2632 9.66628 19.5761 10.0322L19.0108 9.66628C18.1683 9.08984 17.0376 9.18943 16.3282 9.90985L14.6433 11.617C13.9116 12.3157 13.7897 13.4572 14.3661 14.3216L14.7541 14.8981C14.3883 15.5968 14.089 16.3172 13.8672 17.0485L13.1912 17.1816C12.1824 17.3922 11.4952 18.2457 11.4952 19.2654V21.6821C11.4952 22.7132 12.2156 23.589 13.2134 23.766L13.8894 23.9105C14.1112 24.6417 14.4215 25.3513 14.7874 26.0609L14.3883 26.626C13.8452 27.4573 13.9671 28.588 14.6655 29.2976L16.3724 31.0047C17.0709 31.7251 18.2016 31.8469 19.0661 31.2819L19.6537 30.8829C20.3298 31.2483 21.0504 31.5476 21.8042 31.7695L21.9371 32.4569C22.1478 33.4545 23.0012 34.1527 24.0212 34.1527H24.0876V37.4338H14.4548C12.9141 37.4338 11.6503 38.6868 11.6503 40.2386V43.0098H8.74615C7.49341 43.0098 6.47369 44.0295 6.47369 45.282V48.7406C6.47369 50.0044 7.49341 51.0241 8.74615 51.0241H11.6503V56.3555C11.6503 57.9078 12.9141 59.1603 14.4548 59.1603H18.268V59.7811C18.268 61.0449 19.2879 62.0647 20.5404 62.0647H28.5547C29.8186 62.0647 30.8383 61.0449 30.8383 59.7811V56.3225C30.8383 55.07 29.8186 54.0503 28.5547 54.0503H20.5404C19.2879 54.0503 18.268 55.07 18.268 56.3225V56.9433H14.4548C14.1333 56.9433 13.8672 56.6884 13.8672 56.3555V51.0241H16.7716C18.0241 51.0241 19.0439 50.0044 19.0439 48.7406V45.282C19.0439 44.0295 18.0241 43.0098 16.7716 43.0098H13.8672V40.2386C13.8672 39.9057 14.1333 39.6507 14.4548 39.6507H25.1961H25.2072H35.9484C36.2146 39.6507 36.4362 39.8283 36.5138 40.0724C36.4806 40.172 36.4473 40.2824 36.414 40.3933C36.1591 41.2691 35.9817 42.1449 35.8931 43.0098H33.6317C32.3791 43.0098 31.3593 44.0295 31.3593 45.282V48.7406C31.3593 50.0044 32.3791 51.0241 33.6317 51.0241H37.0127C38.8083 55.3141 42.4442 58.7944 47.244 60.2022C48.2526 60.4907 49.2725 60.6899 50.2924 60.7787C50.0374 63.3945 47.8205 65.4567 45.1268 65.4567ZM25.1961 26.7813C21.7043 26.7813 18.8554 23.9435 18.8554 20.4405C18.8554 16.9489 21.7043 14.1002 25.1961 14.1002C28.699 14.1002 31.5367 16.9489 31.5367 20.4405C31.5367 23.9435 28.699 26.7813 25.1961 26.7813Z" fill="#2378DA"/>
</svg>
