<svg width="21" height="21" viewBox="0 0 21 21" fill="none" xmlns="http://www.w3.org/2000/svg">
<path d="M21.0004 20.9988V13.3078C21.0004 9.52801 20.1867 6.64062 15.7768 6.64062C13.6507 6.64062 12.2332 7.79558 11.6558 8.89803H11.6033V6.98186H7.42969V20.9988H11.787V14.0428C11.787 12.2054 12.1282 10.4467 14.3857 10.4467C16.6168 10.4467 16.6431 12.5204 16.6431 14.1478V20.9725H21.0004V20.9988Z" fill="white"/>
<path d="M0.339844 6.98242H4.69716V20.9993H0.339844V6.98242Z" fill="white"/>
<path d="M2.5199 0C1.1287 0 0 1.1287 0 2.5199C0 3.91109 1.1287 5.06604 2.5199 5.06604C3.91109 5.06604 5.03979 3.91109 5.03979 2.5199C5.03979 1.1287 3.91109 0 2.5199 0Z" fill="white"/>
</svg>
