<svg width="66" height="66" viewBox="0 0 66 66" fill="none" xmlns="http://www.w3.org/2000/svg">
<path d="M46.9992 6.47109C46.7027 6.29063 46.6125 5.9168 46.793 5.6332C46.9734 5.33672 47.3473 5.24648 47.6309 5.42695L52.091 8.13398C52.3746 8.31445 52.4777 8.68828 52.2973 8.98477C52.1168 9.28125 51.743 9.37148 51.4465 9.19102L46.9992 6.47109ZM48.2754 41.5852C48.2754 40.773 49.5129 40.773 49.5129 41.5852V42.7195C49.5129 42.9 49.4484 43.0547 49.3324 43.1578C49.3324 43.1707 49.3324 43.1965 49.3324 43.1578C49.3324 44.3953 49.3453 45.9035 48.2625 46.8316L49.0102 49.4098C49.0488 49.5258 49.0488 49.6418 49.0102 49.7449C48.6105 51.1887 48.9715 51.3176 49.2938 51.4336C49.848 51.6398 50.3379 51.8203 50.3379 52.7098V53.8184C50.3379 54.1535 50.0543 54.4371 49.7191 54.4371H43.3383C43.0031 54.4371 42.7195 54.1535 42.7195 53.8184V52.7227C42.7195 51.8332 43.2223 51.6527 43.7637 51.4465C44.0859 51.3305 44.4469 51.1887 44.0473 49.7578C44.0086 49.6289 44.0215 49.5 44.0602 49.384L44.8078 46.8316C43.725 45.9035 43.7379 44.3953 43.7379 43.1578C43.7379 43.1707 43.7379 43.1836 43.7379 43.1578C43.6219 43.0418 43.5445 42.8871 43.5445 42.7195V41.5852C43.5445 40.773 44.782 40.773 44.782 41.5852V42.2812H45.9035V41.5852C45.9035 40.773 47.141 40.773 47.141 41.5852V42.2812H48.2625V41.5852H48.2754ZM49.1133 53.2125C49.1133 52.6195 49.1777 52.7227 48.8813 52.6195C48.082 52.323 47.1539 51.9879 47.7855 49.6031L46.9734 46.8059C46.8703 46.5352 46.9863 46.2129 47.2441 46.0582C48.0305 45.5941 48.1078 44.4984 48.1078 43.5187H44.9883C44.9883 44.5113 45.0656 45.5941 45.852 46.0582C46.084 46.2 46.2129 46.4836 46.1355 46.7672L45.3105 49.6031C45.9422 51.9879 45.0141 52.323 44.2148 52.6195C43.9055 52.7355 43.9828 52.6324 43.9828 53.2125H49.1133ZM46.548 37.5762C52.1426 37.5762 56.6801 42.1137 56.6801 47.6953C56.6801 53.2898 52.1426 57.8273 46.548 57.8273C40.9535 57.8273 36.4289 53.2898 36.4289 47.6953C36.416 42.1137 40.9535 37.5762 46.548 37.5762ZM52.8258 41.4176C49.3582 37.95 43.725 37.95 40.2574 41.4176C36.7898 44.8852 36.7898 50.5184 40.2574 53.9859C43.725 57.4535 49.3582 57.4535 52.8258 53.9859C56.3062 50.5184 56.3062 44.898 52.8258 41.4176ZM44.0602 30.8344H46.0711V17.8406H40.9277V35.0238C41.727 34.6629 42.5777 34.3793 43.4543 34.1859V31.4531C43.4414 31.1051 43.7121 30.8344 44.0602 30.8344ZM47.3086 30.8344H49.0359C49.384 30.8344 49.6547 31.118 49.6547 31.4531V34.1859C51.1629 34.534 52.6066 35.127 53.9215 35.952L55.8551 34.0184C56.1 33.7734 56.4867 33.7734 56.7316 34.0184L60.2508 37.5375C60.4957 37.7824 60.4957 38.1691 60.2508 38.4141L58.3172 40.3477C59.1422 41.6496 59.7352 43.0934 60.0832 44.6145H62.816C63.1641 44.6145 63.4348 44.898 63.4348 45.2332V50.209C63.4348 50.5699 63.1512 50.8406 62.7645 50.8277H60.0703C59.7223 52.3488 59.1293 53.7797 58.3043 55.0945L60.2379 57.0281C60.4828 57.273 60.4828 57.6598 60.2379 57.9047L56.7188 61.398C56.4738 61.643 56.0871 61.643 55.8422 61.398L53.9086 59.4645C52.6066 60.2895 51.1629 60.8824 49.6418 61.2305V63.9633C49.6418 64.3113 49.3582 64.582 49.023 64.582H44.0473C43.7121 64.582 43.4285 64.2984 43.4285 63.9633V61.2305C41.9203 60.8824 40.4766 60.2895 39.1617 59.4645L37.2281 61.398C36.9832 61.643 36.5965 61.643 36.3516 61.398L32.8582 57.8789C32.6133 57.634 32.6133 57.2473 32.8582 57.0023L34.7918 55.0688C34.5598 54.6949 34.3406 54.3082 34.1473 53.9086H27.9469C27.5988 53.9086 27.3281 53.625 27.3281 53.2898V31.2984C27.3281 30.9504 27.6117 30.6797 27.9469 30.6797H34.3277C34.6629 30.6797 34.9465 30.9504 34.9465 31.2984V35.4492L36.3773 34.0184C36.6223 33.7734 37.009 33.7734 37.2539 34.0184L39.1875 35.952C39.3551 35.8488 39.5227 35.7457 39.6902 35.6555V17.2219C39.6902 16.8867 39.9738 16.6031 40.309 16.6031H46.6898C47.0379 16.6031 47.3086 16.8867 47.3086 17.2219V30.8344ZM33.593 52.6711C33.3609 52.0652 33.1676 51.4465 33.0258 50.8148H30.293C29.9449 50.8148 29.6742 50.5312 29.6742 50.1961V45.2203C29.6742 44.8852 29.9578 44.6016 30.293 44.6016H33.0258C33.1934 43.8668 33.4254 43.1449 33.6961 42.4617V39.252L32.8582 38.4141C32.6133 38.1691 32.6133 37.7824 32.8582 37.5375L33.6961 36.6996V31.9301H28.5527V52.684H33.593V52.6711ZM48.4043 32.0719H44.666V34.65C44.6789 34.9594 44.4727 35.2301 44.1633 35.2945C43.3125 35.4621 42.4875 35.707 41.7012 36.0293C41.0309 36.3 40.0383 36.8156 39.4711 37.2281C39.2262 37.4215 38.8781 37.3957 38.659 37.1766L36.8156 35.3203L34.1602 37.9758L36.0164 39.8191C36.2227 40.0254 36.2613 40.3605 36.0938 40.6055C35.6168 41.3016 35.1914 42.0879 34.8691 42.8742C34.5469 43.6477 34.302 44.4598 34.1473 45.2977C34.1086 45.607 33.8508 45.852 33.5285 45.852H30.9117V49.5773H33.5285C33.825 49.5773 34.0828 49.7836 34.1344 50.0801C34.2633 50.7762 34.5855 51.9492 34.8691 52.5422C34.882 52.568 34.8949 52.6066 34.9078 52.6324C35.2301 53.3801 35.6168 54.102 36.068 54.7723C36.2613 55.0172 36.2355 55.3652 36.0164 55.5844L34.1602 57.4406L36.8027 60.0832L38.6461 58.2398C38.8523 58.0336 39.1875 57.9949 39.4324 58.1625C40.1414 58.6395 40.902 59.052 41.7012 59.3871C42.4746 59.7094 43.2867 59.9543 44.1246 60.109C44.434 60.1477 44.6789 60.4055 44.6789 60.7277V63.3445H48.4043V60.7277C48.4043 60.4441 48.6105 60.1734 48.907 60.1219C49.7707 59.9672 50.5828 59.7094 51.3691 59.3871C52.1555 59.0648 52.9031 58.6523 53.5992 58.1883C53.8441 57.9949 54.1922 58.0207 54.4113 58.2398L56.2547 60.0832L58.8973 57.4406L57.0539 55.5973C56.8477 55.391 56.809 55.0688 56.9766 54.8109C57.9434 53.393 58.6137 51.7816 58.9359 50.0801C58.9875 49.7965 59.2453 49.5773 59.5418 49.5773H62.1586V45.8391H59.5418C59.2582 45.8391 58.9875 45.6328 58.9359 45.3363C58.7812 44.4855 58.5234 43.6605 58.2012 42.8742C57.8789 42.0879 57.4664 41.3402 57.0023 40.6441C56.809 40.3992 56.8348 40.0512 57.0539 39.832L58.8973 37.9758L56.2547 35.3332L54.4113 37.1895C54.2051 37.3957 53.8828 37.4344 53.625 37.2668C52.916 36.7898 52.1555 36.3773 51.3563 36.0422C50.5828 35.7199 49.7707 35.475 48.9328 35.3203C48.6234 35.2816 48.3785 35.0238 48.3785 34.7016V32.0719H48.4043ZM32.4844 16.7836L41.366 5.76211C39.9996 3.99609 41.25 1.41797 43.493 1.41797C45.8777 1.41797 47.0766 4.31836 45.3879 6.00703C44.5887 6.80625 43.3641 7.02539 42.3199 6.53555L33.3867 17.6344C34.534 19.4133 33.2578 21.7852 31.1309 21.7852C29.2488 21.7852 27.9598 19.9031 28.6043 18.1629L20.6637 12.852C19.5938 13.9219 17.8535 13.8961 16.8094 12.8004L8.9332 17.3895C9.55195 19.1297 8.26289 20.973 6.39375 20.973C4.00898 20.973 2.79727 18.0727 4.49883 16.384C5.53008 15.3527 7.20586 15.327 8.26289 16.3453L16.1906 11.7305C15.675 10.016 16.9641 8.26289 18.7688 8.26289C20.6121 8.26289 21.9012 10.0676 21.3211 11.8078L29.3004 17.1316C30.1641 16.3195 31.466 16.1777 32.4844 16.7836ZM44.5113 3.08086C43.5961 2.16562 42.0363 2.82305 42.0363 4.09922C42.0363 5.38828 43.5961 6.03281 44.5113 5.13047C45.0785 4.56328 45.0785 3.64805 44.5113 3.08086ZM32.1492 18.0727C31.234 17.1574 29.6742 17.8148 29.6742 19.091C29.6742 20.3801 31.2469 21.0246 32.1492 20.1223C32.7164 19.5551 32.7164 18.6398 32.1492 18.0727ZM19.7871 9.93867C18.8719 9.02344 17.3121 9.68086 17.3121 10.957C17.3121 12.2461 18.8719 12.8906 19.7871 11.9883C20.3543 11.4211 20.3543 10.5059 19.7871 9.93867ZM7.41211 17.2734C6.49688 16.3582 4.93711 17.0156 4.93711 18.3047C4.93711 19.5938 6.49688 20.2383 7.41211 19.323C7.9793 18.7559 7.9793 17.8406 7.41211 17.2734ZM15.5719 24.9047H21.9527C22.3008 24.9047 22.5715 25.1883 22.5715 25.5234V53.2898C22.5715 53.6379 22.2879 53.9086 21.9527 53.9086H15.5719C15.2367 53.9086 14.9531 53.625 14.9531 53.2898V25.5234C14.9531 25.1883 15.2238 24.9047 15.5719 24.9047ZM21.334 26.1422H16.1906V52.6711H21.334V26.1422ZM3.19687 34.5211H9.57773C9.91289 34.5211 10.1965 34.8047 10.1965 35.1398V53.2898C10.1965 53.6379 9.91289 53.9086 9.57773 53.9086H3.19687C2.84883 53.9086 2.57812 53.625 2.57812 53.2898V35.1398C2.57812 34.7918 2.86172 34.5211 3.19687 34.5211ZM8.95898 35.7586H3.81563V52.6711H8.95898V35.7586Z" fill="url(#paint0_linear_243_12891)"/>
<defs>
<linearGradient id="paint0_linear_243_12891" x1="-17.035" y1="48.0569" x2="122.835" y2="-13.1068" gradientUnits="userSpaceOnUse">
<stop stop-color="#2378DA"/>
<stop offset="0.951841" stop-color="#042F61"/>
</linearGradient>
</defs>
</svg>
