<svg width="68" height="70" viewBox="0 0 68 70" fill="none" xmlns="http://www.w3.org/2000/svg">
<path d="M30.0173 30.3556C33.5788 30.3556 36.4856 27.4487 36.4856 23.8873C36.4856 20.3151 33.5788 17.4082 30.0173 17.4082C26.4449 17.4082 23.5381 20.3151 23.5381 23.8873C23.5381 27.4487 26.4449 30.3556 30.0173 30.3556Z" fill="#2378DA"/>
<path d="M13.7071 24.9178H14.3285C14.8388 32.7729 21.1516 39.0744 29.0179 39.5625V40.2283C29.0179 40.8388 29.5171 41.3377 30.1273 41.3377C30.7374 41.3377 31.2368 40.8388 31.2368 40.2283V39.5408C38.992 38.9417 45.1828 32.6949 45.6932 24.9178H46.5474C47.1688 24.9178 47.6569 24.4183 47.6569 23.8084C47.6569 23.187 47.1688 22.6989 46.5474 22.6989H45.6821C45.1052 14.9879 38.9475 8.80831 31.2368 8.21998V7.37705C31.2368 6.76706 30.7374 6.26758 30.1273 6.26758C29.5171 6.26758 29.0179 6.76706 29.0179 7.37705V8.19831C21.2071 8.68642 14.9275 14.8996 14.3396 22.6989H13.7071C13.0969 22.6989 12.5977 23.187 12.5977 23.8084C12.5977 24.4183 13.0969 24.9178 13.7071 24.9178ZM18.6331 22.6989H17.8565C18.4224 16.852 23.1376 12.192 29.0179 11.7261V12.303C29.0179 12.9136 29.5171 13.4125 30.1273 13.4125C30.7374 13.4125 31.2368 12.9136 31.2368 12.303V11.7483C37.006 12.3252 41.6103 16.9294 42.165 22.6989H41.6324C41.0111 22.6989 40.5229 23.187 40.5229 23.8084C40.5229 24.4183 41.0111 24.9178 41.6324 24.9178H42.1761C41.6879 30.7647 37.0615 35.4464 31.2368 36.0233V35.3023C31.2368 34.6923 30.7374 34.1928 30.1273 34.1928C29.5171 34.1928 29.0179 34.6923 29.0179 35.3023V36.0456C23.0932 35.5688 18.3446 30.8422 17.8454 24.9178H18.6331C19.2434 24.9178 19.7426 24.4183 19.7426 23.8084C19.7426 23.187 19.2434 22.6989 18.6331 22.6989Z" fill="#2378DA"/>
<path d="M2.6796 43.3912L4.66546 43.9568L4.64338 53.6316C4.64338 54.6858 5.05375 55.6734 5.80824 56.4166C6.56274 57.1599 7.56116 57.5478 8.61523 57.5591L12.7978 57.5261H12.82C13.741 57.5261 14.5064 58.2802 14.5287 59.212L14.6729 65.4143C14.7283 67.3889 16.2484 69.0309 18.19 69.2308C18.3231 69.2416 18.4451 69.2416 18.5893 69.2416H43.6522C44.0073 69.2416 44.3512 69.0645 44.5621 68.7757C44.7617 68.4761 44.8172 68.0991 44.695 67.7551C44.5732 67.4333 44.4621 67.1007 44.3623 66.7681C44.6063 66.6792 44.8283 66.5346 45.0279 66.3574L45.5272 65.8801C46.2374 66.1245 46.9806 66.3016 47.735 66.4018L47.9681 67.0454C48.323 67.9658 49.244 68.4983 50.2203 68.3434L52.5391 67.9658C53.5154 67.8103 54.2477 66.9896 54.281 66.002L54.3032 65.3254C54.9799 64.9928 55.6234 64.593 56.2115 64.1385L56.8327 64.4158C57.7424 64.8373 58.8076 64.5491 59.3623 63.7387L60.7047 61.8751C61.326 61.0761 61.2595 59.9666 60.5716 59.2347L60.1057 58.7352C60.3498 58.025 60.5272 57.2931 60.616 56.5271L61.2374 56.3056C62.1692 55.9616 62.7239 55.0184 62.5687 54.0422L62.2025 51.7344C62.0473 50.7468 61.2152 50.015 60.2165 49.9814L59.5399 49.9592C59.2181 49.2939 58.8187 48.6503 58.3527 48.0398L58.6189 47.452C59.0405 46.5419 58.7632 45.466 57.9755 44.9113L56.0893 43.5467C55.2905 42.9583 54.1922 43.0141 53.46 43.7021L52.9385 44.168C52.3283 43.9459 51.6848 43.7904 51.0524 43.6908C51.8623 42.5369 52.5835 41.3277 53.2047 40.0628L53.6819 40.3624C54.2921 40.7616 55.0909 40.6728 55.6123 40.1408L55.9563 39.7746C56.4777 39.9187 57.0325 40.0184 57.5983 40.0519L57.7979 40.5178C58.0975 41.1831 58.7965 41.5385 59.5066 41.3722L61.193 41.0059C61.9029 40.8505 62.4134 40.2069 62.3912 39.475L62.3801 38.9755C62.8572 38.7095 63.312 38.3877 63.7226 38.0215L64.1996 38.2101C64.8875 38.4766 65.6531 38.2101 66.0191 37.6001L66.94 36.1688C67.3505 35.5583 67.2617 34.7484 66.7181 34.2381L66.3519 33.8832C66.4963 33.3507 66.596 32.8068 66.6404 32.2412L67.0842 32.0527C67.7499 31.764 68.1272 31.0429 67.9607 30.3327L67.5947 28.6577C67.4392 27.9366 66.7848 27.4258 66.0634 27.448L65.5642 27.4702C65.298 26.9935 64.9762 26.527 64.599 26.1056L64.7766 25.6619C65.0428 24.9739 64.7988 24.1976 64.1885 23.82L62.7461 22.8996C62.136 22.4998 61.326 22.5886 60.8157 23.1212L60.4607 23.4874C59.9171 23.3319 59.3623 23.2322 58.8297 23.21L58.63 22.7663C58.3527 22.1005 57.6316 21.7121 56.9103 21.8784L55.5124 22.1894C52.9829 9.54154 41.9325 0 28.7188 0C28.1308 0 27.5538 0.022211 27.0324 0.0552568H26.877C16.3039 0.78768 7.84963 7.98785 4.80969 18.8388C4.4103 20.2586 4.09975 21.7457 3.89999 23.2653C3.71133 24.6857 4.08865 26.1722 4.99835 27.4702C6.08561 29.0125 5.59737 29.9335 5.48659 30.1556L0.671396 37.6217C0.0278174 38.6207 -0.160706 39.8076 0.138873 40.8618C0.382923 41.7048 1.00429 42.8142 2.6796 43.3912ZM54.8469 29.889C54.8469 29.8782 54.8469 29.8782 54.8469 29.8782C55.1242 29.3343 55.5346 28.8684 56.0339 28.5244C56.4333 28.2357 56.8881 28.0363 57.3874 27.9253C59.4399 27.4702 61.4704 28.7687 61.9251 30.81C62.3689 32.8512 61.0819 34.8816 59.0294 35.3367C57.6205 35.6471 56.2115 35.1368 55.335 34.1048C54.9465 33.6611 54.6582 33.1178 54.514 32.5072V32.4964C54.514 32.485 54.5029 32.4628 54.5029 32.452C54.3032 31.5532 54.4473 30.6431 54.8469 29.889ZM54.3364 54.2085C54.7913 57.0158 52.872 59.667 50.0539 60.1221C47.2469 60.5658 44.5954 58.6572 44.1403 55.8397C44.1292 55.7617 44.1182 55.6734 44.1071 55.5953V55.5623C43.9407 53.9311 44.5509 52.3888 45.6493 51.3238V51.313C46.3815 50.6027 47.3357 50.1033 48.423 49.9261C51.23 49.4711 53.8815 51.4018 54.3364 54.2085ZM6.09672 23.554C7.75715 11.1526 16.3355 3.00398 26.9547 2.2742H27.099C27.6427 2.24115 28.1752 2.21894 28.7188 2.21894C41.4999 2.21894 52.0953 11.9712 53.6374 24.5302C53.2934 24.7409 52.9829 24.9739 52.6722 25.229L52.2284 25.0627C51.5516 24.7967 50.7751 25.0405 50.3979 25.6505L49.4769 27.1045C49.0775 27.7031 49.1773 28.5244 49.7099 29.0347L50.065 29.3673C49.9207 29.9221 49.8209 30.466 49.7876 31.0207L49.3327 31.2092C48.6559 31.5088 48.3119 32.219 48.4674 32.9292L48.8445 34.6151C48.9999 35.3367 49.6434 35.8248 50.3646 35.8026H50.8527C51.1189 36.2685 51.4518 36.7235 51.8179 37.1558L51.6292 37.6217C51.5405 37.8547 51.5073 38.1104 51.5405 38.3433V38.3655C50.9858 39.6077 50.3312 40.7952 49.5769 41.9269C49.1885 41.7161 48.7226 41.6159 48.2565 41.6939L45.9489 42.0596C44.9503 42.2265 44.2292 43.0586 44.2069 44.0456L44.1958 44.7114C43.508 45.0554 42.8534 45.4546 42.2432 45.9097L41.6551 45.6437C40.7565 45.2217 39.6913 45.4991 39.1256 46.2868L37.7609 48.1844C37.173 48.9721 37.2394 50.0924 37.9163 50.8248L38.3822 51.313C38.1382 52.0448 37.9606 52.7773 37.8608 53.5205L37.2394 53.7426C36.2964 54.0975 35.7639 55.0298 35.9192 56.006L36.2964 58.3246C36.4518 59.3122 37.2839 60.0332 38.2602 60.0554L38.937 60.0885C39.2588 60.7543 39.6693 61.387 40.1242 62.0084L39.8357 62.6184C39.4362 63.4949 39.7247 64.5599 40.5125 65.1255L41.8882 66.1245V66.1353C41.9547 66.4349 42.0324 66.7236 42.1211 67.0227H28.7854C30.96 58.4243 27.9643 52.1228 25.224 48.4618C23.8149 46.5533 21.962 45.0446 19.9429 43.8018C16.9362 41.9713 15.2498 39.4192 14.3068 37.067C13.0863 34.0387 10.5346 31.8198 7.47245 31.1204C8.21584 29.5781 7.97179 27.8364 6.80679 26.1944C6.22985 25.3623 5.9858 24.4305 6.09672 23.554Z" fill="#2378DA"/>
</svg>
