<svg width="570" height="569" viewBox="0 0 570 569" fill="none" xmlns="http://www.w3.org/2000/svg">
<path d="M504.369 214.683L488.784 174.585L519.987 113.674L454.628 48.3148L394.463 82.4713L355.825 66.887L337.219 0H240.657L224.326 65.3591L181.24 80.9435L123.317 47.5339L55.7165 115.881L92.1139 173.804L69.0939 215.396L0 233.969V328.323L69.0939 346.896L87.6661 386.247L54.9696 447.905L122.57 515.505L181.24 479.108L225.073 502.128L242.898 568.981L354.535 564.261L338 460.502C314.233 467.326 293.76 468.107 267.073 464.304C183.345 452.353 118.224 382.75 111.942 298.445C103.76 188.981 192.716 98.0896 301.535 103.047C392.766 107.189 467.666 180.12 474.253 271.215C476.086 296.544 474.999 313.282 467.394 335.623L563.446 353.652L569.762 231.762L504.369 214.683Z" fill="#EDF9F9"/>
</svg>
