<svg width="194" height="47" viewBox="0 0 194 47" fill="none" xmlns="http://www.w3.org/2000/svg">
<path d="M22.7301 11.941C22.7301 10.6269 21.6658 9.5625 20.3516 9.5625H11.2012C5.01413 9.5625 0 14.5766 0 20.7637C0 25.9299 4.1887 30.1168 9.35308 30.1168H14.8143C20.4186 30.1168 24.9639 34.6603 24.9639 40.2664C24.9639 41.1316 25.6662 41.834 26.5315 41.834H33.0082C33.9513 41.834 34.717 41.0683 34.717 40.1252C34.717 32.1569 28.2584 25.6964 20.29 25.6946H13.0331C9.54315 25.691 6.71387 22.8617 6.71387 19.3699C6.71387 16.5461 9.00372 14.2562 11.8294 14.258L20.3425 14.3196C21.6621 14.3268 22.7338 13.2588 22.7338 11.941H22.7301Z" fill="url(#paint0_linear_697_150)"/>
<path d="M23.3854 0H2.31519C1.03722 0 0 1.03722 0 2.31519C0 3.59316 1.03722 4.63038 2.31519 4.63038H18.6156C22.3934 4.63038 25.4562 7.69317 25.4562 11.471C25.4562 15.2488 22.3934 18.3115 18.6156 18.3115H14.4523C13.2503 18.3115 12.2783 19.2854 12.2783 20.4855C12.2783 21.6875 13.2522 22.6595 14.4523 22.6595H23.3872C29.6449 22.6595 34.717 17.5875 34.717 11.3298C34.717 5.07206 29.6449 0 23.3872 0H23.3854Z" fill="white"/>
<path d="M101.611 6.32129C103.081 6.3213 104.365 6.54175 105.456 6.9834C106.548 7.42503 107.384 8.02457 107.961 8.7793C108.538 9.53594 108.828 10.3871 108.828 11.332H105.581C105.559 10.7021 105.186 10.1768 104.462 9.75684C103.738 9.33698 102.786 9.12695 101.609 9.12695C100.433 9.12696 99.4659 9.29515 98.836 9.63184C98.2062 9.96852 97.8916 10.4417 97.8916 11.0498C97.8918 11.5545 98.1067 11.9473 98.5372 12.2314C98.9679 12.5156 99.6561 12.7313 100.603 12.8779L103.503 13.3193C105.331 13.5927 106.713 14.1142 107.648 14.8799C108.582 15.6474 109.051 16.7136 109.051 18.0801C109.051 19.4467 108.447 20.638 107.239 21.5322C106.03 22.4264 104.249 22.8711 101.896 22.8711C99.5424 22.8711 97.562 22.399 96.2696 21.4541L96.2715 21.4482C94.9792 20.5034 94.3331 19.2947 94.3331 17.8232H97.6104C97.6105 18.4965 97.9839 19.0354 98.7295 19.4463C99.4753 19.8554 100.531 20.0625 101.898 20.0625C103.264 20.0625 104.203 19.8828 104.844 19.5264C105.485 19.1698 105.806 18.7062 105.806 18.1396C105.806 17.5731 105.584 17.137 105.143 16.8311C104.701 16.527 103.966 16.2896 102.937 16.123L100.067 15.6816C96.4326 15.1567 94.6153 13.6215 94.6153 11.0801C94.6153 9.6718 95.2147 8.52787 96.4112 7.64453C97.6095 6.76131 99.3416 6.32129 101.611 6.32129ZM82.7969 6.31934C84.4567 6.31936 85.8707 6.65659 87.1631 7.32812C88.4553 8.00144 89.4741 8.92995 90.2198 10.1172C90.9656 11.3047 91.3389 12.6338 91.3389 14.1055C91.3389 14.7153 91.2752 15.3037 91.1485 15.8701H77.1543C77.406 17.0883 78.0417 18.0821 79.0625 18.8496C80.0816 19.617 81.2418 20.0009 82.545 20.001C84.6466 20.001 86.2218 19.3292 87.2735 17.9824H90.7725C90.1209 19.3907 89.1215 20.5565 87.7784 21.4814C86.4335 22.4064 84.6995 22.8681 82.5782 22.8682C81.0033 22.8682 79.5508 22.5061 78.2276 21.7803H78.2256C76.9025 21.0562 75.8508 20.0624 75.0743 18.8008C74.2959 17.5391 73.9092 16.1321 73.9092 14.5771C73.9093 13.0224 74.2978 11.5886 75.0743 10.3379C75.8508 9.08889 76.9195 8.10661 78.2735 7.3916C79.6293 6.67843 81.137 6.31934 82.7969 6.31934ZM146.469 15.1445C146.469 16.5527 146.9 17.6711 147.762 18.502C148.623 19.3327 149.706 19.7471 151.009 19.7471C151.892 19.7471 152.705 19.5541 153.45 19.165C154.196 18.7777 154.785 18.2305 155.216 17.5264C155.647 16.8224 155.861 16.0296 155.861 15.1465V6.66699H159.171V22.5225H156.304L155.956 20.8828H155.768C155.243 21.4077 154.522 21.8713 153.608 22.2695C152.694 22.6677 151.681 22.8681 150.567 22.8682C149.139 22.8682 147.866 22.5754 146.753 21.9854H146.751C145.636 21.3971 144.766 20.5401 144.136 19.416C143.506 18.2919 143.19 16.9523 143.19 15.3975V6.66602H146.469V15.1445ZM185.458 6.31934C187.118 6.31934 188.532 6.65657 189.824 7.32812C191.117 8.00149 192.136 8.92981 192.882 10.1172C193.628 11.3046 194 12.6339 194 14.1055C194 14.7153 193.936 15.3037 193.81 15.8701H179.815C180.067 17.0883 180.703 18.0821 181.724 18.8496C182.743 19.617 183.903 20.0009 185.206 20.001C187.308 20.001 188.883 19.3292 189.935 17.9824H193.434C192.782 19.3907 191.783 20.5565 190.439 21.4814C189.095 22.4064 187.361 22.8681 185.239 22.8682C183.664 22.8682 182.212 22.5061 180.889 21.7803H180.888C179.565 21.0562 178.512 20.0625 177.735 18.8008C176.957 17.5391 176.57 16.132 176.57 14.5771C176.57 13.0224 176.959 11.5886 177.735 10.3379C178.512 9.08888 179.581 8.10661 180.935 7.3916C182.29 6.6784 183.798 6.31934 185.458 6.31934ZM121.062 6.31836C122.7 6.31836 124.193 6.67647 125.538 7.38965C126.883 8.10466 127.944 9.08791 128.723 10.3369C129.499 11.5876 129.888 12.9997 129.888 14.5762C129.888 16.1527 129.499 17.5704 128.723 18.832C127.944 20.0918 126.883 21.0799 125.538 21.7949C124.193 22.5099 122.702 22.8662 121.062 22.8662C119.422 22.8662 117.924 22.5099 116.57 21.7949C115.215 21.08 114.149 20.0935 113.372 18.832C112.594 17.5704 112.206 16.1527 112.206 14.5762C112.206 12.9997 112.596 11.5877 113.372 10.3369C114.149 9.08801 115.217 8.10465 116.57 7.38965C117.926 6.67647 119.423 6.31839 121.062 6.31836ZM63.4141 0.729492C64.8005 0.729553 66.051 1.03068 67.1641 1.62793C68.2773 2.22705 69.1448 3.05752 69.7657 4.11816C70.3847 5.18064 70.6963 6.40458 70.6963 7.79102C70.6963 9.1776 70.3866 10.3349 69.7657 11.3848C69.1448 12.4364 68.3048 13.2545 67.2442 13.8428C66.1835 14.431 65.0014 14.7265 63.6983 14.7266H62.0909L71.293 22.7939H66.5655L57.5508 14.7881H55.5645V22.7939H52.0352V0.729492H63.4141ZM169.382 6.66797H173.638V9.69434H169.382V18.3945C169.382 19.0459 169.75 19.3721 170.486 19.3721H173.638V22.5234H169.697V22.5215C168.584 22.5215 167.706 22.2222 167.065 21.623C166.425 21.0239 166.104 20.2116 166.104 19.1816V9.69434H163.204V6.66797H166.104V2.06641H169.382V6.66797ZM137.704 22.5205H134.396V0.457031H137.704V22.5205ZM121.062 9.31152C120.053 9.31155 119.092 9.53296 118.239 9.97461C117.389 10.4163 116.715 11.0358 116.223 11.834C115.729 12.6321 115.482 13.5482 115.482 14.5762C115.483 15.6042 115.734 16.5259 116.239 17.335C116.744 18.144 117.422 18.7683 118.273 19.21C119.123 19.6515 120.053 19.872 121.062 19.8721C122.07 19.8721 123.001 19.6516 123.852 19.21C124.702 18.7684 125.373 18.1438 125.867 17.335C126.361 16.5259 126.608 15.606 126.608 14.5762C126.608 13.5462 126.36 12.6322 125.867 11.834C125.373 11.0358 124.702 10.4163 123.852 9.97461C123.001 9.53293 122.07 9.31152 121.062 9.31152ZM82.7969 9.18652C81.347 9.18652 80.1072 9.56563 79.0772 10.3223C78.0472 11.0789 77.406 12.0564 77.1543 13.2529H88.0606C87.9972 12.4963 87.7236 11.8076 87.2403 11.1885C86.757 10.5696 86.1269 10.081 85.3487 9.72266C84.5704 9.36617 83.7199 9.18655 82.7969 9.18652ZM185.456 9.18652C184.006 9.18654 182.766 9.56563 181.736 10.3223C180.706 11.0789 180.065 12.0565 179.814 13.2529H190.72C190.656 12.4963 190.384 11.8076 189.9 11.1885C189.417 10.5695 188.787 10.081 188.009 9.72266C187.23 9.36606 186.379 9.18652 185.456 9.18652ZM55.5635 11.5098H63.3155C64.4703 11.5098 65.4014 11.1677 66.1055 10.4854C66.8097 9.80292 67.1612 8.89375 67.1612 7.75879C67.1612 6.62383 66.8078 5.68424 66.1055 5C65.4014 4.31757 64.4704 3.97559 63.3155 3.97559H55.5635V11.5098Z" fill="url(#paint1_linear_697_150)"/>
<path d="M52.0059 42.0891V26.3516H57.5142C59.147 26.3516 60.6205 26.681 61.9328 27.3417C63.2434 28.0024 64.2715 28.931 65.0119 30.1294C65.7541 31.3295 66.1251 32.6925 66.1251 34.2221C66.1251 35.7517 65.7541 37.1147 65.0119 38.3131C64.2697 39.5114 63.2434 40.4418 61.9328 41.1007C60.6205 41.7614 59.1488 42.0909 57.5142 42.0909H52.0059V42.0891ZM57.5142 40.7405C58.8483 40.7405 60.0665 40.4708 61.1671 39.9314C62.2695 39.3919 63.1348 38.628 63.7629 37.6379C64.3928 36.6477 64.7078 35.5091 64.7078 34.2203C64.7078 32.9315 64.3928 31.7929 63.7629 30.8027C63.133 29.8126 62.2677 29.0487 61.1671 28.5093C60.0647 27.9698 58.8483 27.7001 57.5142 27.7001H53.4233V40.7387H57.5142V40.7405Z" fill="white"/>
<path d="M71.2966 28.198H69.7236V26.625H71.2966V28.198ZM71.1826 42.091H69.834V30.8499H71.1826V42.091Z" fill="white"/>
<path d="M76.7364 45.7217C75.8077 44.994 75.2756 44.0835 75.1398 42.9902H76.5789C76.7436 43.7396 77.1563 44.3514 77.8152 44.8221C78.4741 45.2945 79.4045 45.5298 80.6028 45.5298C81.8627 45.5298 82.8583 45.204 83.5932 44.5523C84.3281 43.9007 84.6956 42.9974 84.6956 41.8425V39.5491H84.5834C84.1345 40.1935 83.519 40.704 82.7388 41.0787C81.9586 41.4534 81.1278 41.6416 80.2426 41.6416C79.238 41.6416 78.3058 41.4045 77.4441 40.9338C76.5825 40.4614 75.8964 39.8097 75.3878 38.9771C74.8773 38.1462 74.6239 37.1977 74.6239 36.1333C74.6239 35.0689 74.8791 34.1204 75.3878 33.2895C75.8964 32.4569 76.5825 31.8052 77.4441 31.3328C78.3058 30.8603 79.2398 30.625 80.2426 30.625C81.126 30.625 81.9586 30.8133 82.7388 31.1861C83.5172 31.5608 84.1326 32.0713 84.5834 32.7157H84.6956L84.8984 30.8495H86.046V41.8425C86.046 43.3721 85.5591 44.5813 84.5852 45.4737C83.6113 46.3643 82.2845 46.8114 80.6065 46.8114C78.9285 46.8114 77.6686 46.4476 76.74 45.7217H76.7364ZM82.5252 39.8315C83.1914 39.4803 83.7199 38.9807 84.1109 38.3363C84.5001 37.6918 84.6956 36.9569 84.6956 36.1333C84.6956 35.3097 84.5001 34.5748 84.1109 33.9303C83.7217 33.2859 83.1932 32.7881 82.5252 32.4352C81.8573 32.084 81.1278 31.9066 80.3331 31.9066C79.5385 31.9066 78.8072 32.084 78.141 32.4352C77.4749 32.7881 76.9463 33.2859 76.5571 33.9303C76.168 34.5748 75.9725 35.3097 75.9725 36.1333C75.9725 36.9569 76.1662 37.6918 76.5571 38.3363C76.9463 38.9807 77.4749 39.4785 78.141 39.8315C78.8072 40.1844 79.5385 40.36 80.3331 40.36C81.1278 40.36 81.8573 40.1844 82.5252 39.8315Z" fill="white"/>
<path d="M91.777 28.198H90.204V26.625H91.777V28.198ZM91.6648 42.091H90.3162V30.8499H91.6648V42.091Z" fill="white"/>
<path d="M98.88 42.09C98.2501 42.09 97.7595 41.9216 97.4084 41.5831C97.0554 41.2464 96.8798 40.7849 96.8798 40.2002V32.1287H94.856V30.8471H96.8798V27.6992H98.2284V30.8471H101.443V32.1287H98.2284V39.9522C98.2284 40.2527 98.3062 40.4681 98.4637 40.6038C98.6212 40.7396 98.8637 40.8066 99.195 40.8066H101.443V42.0882H98.88V42.09Z" fill="white"/>
<path d="M105.018 41.3936C104.254 40.7782 103.872 39.9473 103.872 38.8974C103.872 37.8475 104.24 36.9642 104.975 36.3342C105.709 35.7061 106.774 35.3911 108.168 35.3911H112.664V34.9639C112.664 33.9738 112.356 33.2171 111.743 32.694C111.127 32.1691 110.282 31.9066 109.203 31.9066C108.124 31.9066 107.33 32.1093 106.73 32.513C106.131 32.9185 105.764 33.4507 105.628 34.1096H104.279C104.325 33.4814 104.538 32.904 104.92 32.379C105.302 31.8541 105.852 31.4305 106.573 31.1083C107.292 30.7861 108.169 30.625 109.203 30.625C110.671 30.625 111.84 31.0069 112.711 31.7708C113.58 32.5347 114.014 33.5991 114.014 34.9639V42.0905H112.845L112.642 40.3818H112.507C112.101 40.9664 111.525 41.4353 110.776 41.7864C110.027 42.1394 109.172 42.315 108.213 42.315C106.848 42.315 105.785 42.0091 105.02 41.3936H105.018ZM111.515 39.9654C112.278 39.254 112.66 38.32 112.66 37.1669V36.6727H108.028C107.129 36.6727 106.435 36.8719 105.948 37.2683C105.461 37.6665 105.217 38.2096 105.217 38.8992C105.217 39.5889 105.483 40.0794 106.015 40.4614C106.548 40.8433 107.286 41.0352 108.229 41.0352C109.652 41.0352 110.747 40.6804 111.511 39.9672L111.515 39.9654Z" fill="white"/>
<path d="M119.699 42.0891H118.35V26.3516H119.699V42.0891Z" fill="white"/>
<path d="M125.386 41.8537C124.622 41.546 124.045 41.1296 123.656 40.6065C123.266 40.0816 123.071 39.4896 123.071 38.8307H124.419C124.419 39.4751 124.749 40.0037 125.408 40.4164C126.067 40.8291 126.974 41.0355 128.128 41.0355C129.283 41.0355 130.073 40.8635 130.636 40.5178C131.198 40.1739 131.479 39.7087 131.479 39.124C131.479 38.5846 131.287 38.1682 130.905 37.8768C130.523 37.5853 129.89 37.3717 129.005 37.236L126.778 36.8993C124.47 36.5391 123.315 35.5127 123.315 33.8202C123.315 32.8608 123.704 32.0897 124.485 31.505C125.265 30.9203 126.403 30.6289 127.902 30.6289C128.862 30.6289 129.705 30.7792 130.431 31.0778C131.159 31.3783 131.716 31.7947 132.105 32.325C132.495 32.8572 132.69 33.4528 132.69 34.1117H131.341C131.341 33.4835 131.027 32.9586 130.397 32.5386C129.767 32.1187 128.936 31.9087 127.9 31.9087C126.865 31.9087 126.03 32.0752 125.484 32.4083C124.937 32.7414 124.664 33.2048 124.664 33.7967C124.664 34.2709 124.856 34.6529 125.238 34.9407C125.62 35.2303 126.215 35.4331 127.024 35.5525L129.251 35.8892C130.449 36.0558 131.345 36.3997 131.937 36.9192C132.529 37.4405 132.824 38.1682 132.824 39.1041C132.824 40.0399 132.428 40.8273 131.633 41.4247C130.838 42.022 129.669 42.3189 128.127 42.3189C127.062 42.3189 126.148 42.165 125.384 41.8591L125.386 41.8537Z" fill="white"/>
<defs>
<linearGradient id="paint0_linear_697_150" x1="-11.1887" y1="33.391" x2="65.5634" y2="-4.08423" gradientUnits="userSpaceOnUse">
<stop stop-color="#2378DA"/>
<stop offset="0.951841" stop-color="#042F61"/>
</linearGradient>
<linearGradient id="paint1_linear_697_150" x1="6.28222" y1="17.0071" x2="48.2387" y2="-103.605" gradientUnits="userSpaceOnUse">
<stop stop-color="#2378DA"/>
<stop offset="0.951841" stop-color="#042F61"/>
</linearGradient>
</defs>
</svg>
