<svg width="305" height="427" viewBox="0 0 305 427" fill="none" xmlns="http://www.w3.org/2000/svg">
<g opacity="0.94">
<path d="M304.368 217.297C304.368 282.636 290.827 333.77 263.744 370.748C236.662 407.726 199.424 426.214 152.03 426.214C104.044 426.214 66.7114 407.536 40.0316 370.203C13.3281 332.871 0 280.41 0 212.823C0 145.804 13.4938 93.5806 40.4577 56.1531C67.4453 18.7256 104.92 0 152.906 0C201.46 0 238.84 18.7729 265.07 56.2952C291.253 93.7937 304.368 147.461 304.368 217.297ZM150.87 368.641C178.994 368.641 200.158 355.597 214.315 329.462C228.471 303.35 235.549 264.265 235.549 212.231C235.549 161.689 228.566 123.172 214.599 96.6818C200.631 70.1914 180.249 56.958 153.474 56.958C125.54 56.958 104.423 70.144 90.1716 96.5398C75.9203 122.936 68.771 161.878 68.771 213.344C68.771 263.318 75.8493 301.693 90.006 328.467C104.186 355.242 124.474 368.641 150.87 368.641Z" fill="#2378DA"/>
</g>
</svg>
