<svg width="50" height="50" viewBox="0 0 50 50" fill="none" xmlns="http://www.w3.org/2000/svg">
<path d="M38.9531 41.7749H41.3711L41.83 39.0039H39.412L38.9531 41.7749Z" fill="#2378DA"/>
<path d="M45.2535 32.7381C43.8415 31.838 42.1825 31.3262 40.3999 31.3262C35.4051 31.3262 31.3457 35.3855 31.3457 40.3803C31.3457 42.1453 31.8575 43.7867 32.74 45.181C32.7753 45.2163 32.793 45.2692 32.8283 45.3222C34.4344 47.8107 37.2406 49.4345 40.4175 49.4345C45.4123 49.4345 49.4717 45.3751 49.4717 40.3803C49.454 37.1681 47.7773 34.3442 45.2535 32.7381ZM45.2888 41.7746C45.6064 41.7746 45.8712 42.0394 45.8712 42.3571C45.8712 42.6748 45.6064 42.9395 45.2888 42.9395H42.359L41.953 45.3045C41.9001 45.5869 41.653 45.7987 41.3706 45.7987C41.3353 45.7987 41.3176 45.7987 41.2823 45.7811C40.9646 45.7281 40.7352 45.4281 40.8058 45.1104L41.1588 42.9219H38.7408L38.3702 45.181C38.3172 45.4634 38.0701 45.6752 37.7877 45.6752C37.7524 45.6752 37.7348 45.6752 37.6995 45.6575C37.3818 45.6046 37.1524 45.3045 37.223 44.9868L37.5583 42.9219H35.4757C35.158 42.9219 34.8932 42.6571 34.8932 42.3394C34.8932 42.0217 35.158 41.757 35.4757 41.757H37.7701L38.229 38.986H35.4757C35.158 38.986 34.8932 38.7213 34.8932 38.4036C34.8932 38.0859 35.158 37.8212 35.4757 37.8212H38.4231L38.8291 35.4561C38.882 35.1384 39.1821 34.909 39.4997 34.9796C39.8174 35.0326 40.0469 35.3326 39.9763 35.6503L39.6233 37.8212H42.0236L42.3943 35.5797C42.4472 35.262 42.7472 35.0326 43.0649 35.1032C43.3826 35.1561 43.6121 35.4561 43.5415 35.7738L43.2061 37.8212H45.2711C45.5888 37.8212 45.8535 38.0859 45.8535 38.4036C45.8535 38.7213 45.5888 38.986 45.2711 38.986H42.9943L42.5354 41.757H45.2888V41.7746Z" fill="#2378DA"/>
<path d="M7.11328 43.4702L12.1081 40.3816L7.11328 37.3105V43.4702Z" fill="#2378DA"/>
<path d="M9.06979 31.3262C7.30484 31.3262 5.66345 31.838 4.26914 32.7205C4.23384 32.7558 4.18089 32.7734 4.12794 32.8087C1.63937 34.4148 0.015625 37.2211 0.015625 40.398C0.015625 45.3928 4.075 49.4521 9.06979 49.4521C12.282 49.4521 15.1235 47.7578 16.712 45.2339C17.6121 43.8396 18.1239 42.1806 18.1239 40.398C18.1239 35.3855 14.0646 31.3262 9.06979 31.3262ZM13.5174 40.8922L6.81066 45.0045C6.72241 45.0574 6.61651 45.0927 6.51062 45.0927C6.42237 45.0927 6.31647 45.0751 6.22823 45.0221C6.05173 44.9162 5.92819 44.7221 5.92819 44.5103V36.268C5.92819 36.0562 6.05173 35.8621 6.22823 35.7562C6.40472 35.6503 6.63416 35.6679 6.81066 35.7738L13.5174 39.8861C13.6939 39.992 13.7998 40.1862 13.7998 40.398C13.7998 40.5921 13.6939 40.7863 13.5174 40.8922Z" fill="#2378DA"/>
<path d="M29.0859 21.9375V27.4794C30.3567 27.197 31.3274 26.0675 31.3274 24.7085C31.3274 23.3495 30.3567 22.2022 29.0859 21.9375Z" fill="#2378DA"/>
<path d="M18.7074 22.043C18.3897 22.043 18.1426 22.2901 18.1426 22.6078V26.8437C18.1426 27.1614 18.3897 27.4085 18.7074 27.4085H19.7134H21.2842V22.0254L18.7074 22.043Z" fill="#2378DA"/>
<path d="M22.4688 27.6921L27.9224 31.6103V28.2569C27.9048 28.2216 27.9048 28.1687 27.9048 28.151C27.9048 28.0981 27.9048 28.0628 27.9224 28.0275V21.4266C27.9048 21.3913 27.9048 21.3383 27.9048 21.303C27.9048 21.2677 27.9048 21.2148 27.9224 21.1795V17.8438L22.4688 21.7619V27.6921Z" fill="#2378DA"/>
<path d="M40.3815 10.677C41.2685 10.677 41.9876 9.95797 41.9876 9.07094C41.9876 8.18392 41.2685 7.46484 40.3815 7.46484C39.4945 7.46484 38.7754 8.18392 38.7754 9.07094C38.7754 9.95797 39.4945 10.677 40.3815 10.677Z" fill="#2378DA"/>
<path d="M36.4978 13.3963H44.2989C44.5283 13.3963 44.7224 13.2021 44.7224 12.9727V5.17163C44.7224 4.94219 44.5283 4.74805 44.2989 4.74805H36.4978C36.2684 4.74805 36.0742 4.94219 36.0742 5.17163V12.9727C36.0742 13.2021 36.2684 13.3963 36.4978 13.3963ZM40.3807 6.2659C41.9162 6.2659 43.1693 7.51901 43.1693 9.05451C43.1693 10.59 41.9162 11.8431 40.3807 11.8431C38.8452 11.8431 37.5921 10.59 37.5921 9.05451C37.5921 7.51901 38.8452 6.2659 40.3807 6.2659Z" fill="#2378DA"/>
<path d="M40.3823 18.126C42.1825 18.126 43.8592 17.6141 45.2535 16.6964C47.7774 15.0903 49.4364 12.2664 49.4364 9.05416C49.4364 4.05937 45.3771 0 40.3823 0C37.1701 0 34.3285 1.69435 32.7401 4.21822C31.84 5.61252 31.3281 7.27157 31.3281 9.05416C31.3281 14.0666 35.3875 18.126 40.3823 18.126ZM34.8757 5.17128C34.8757 4.28881 35.5993 3.56519 36.4818 3.56519H44.2828C45.1653 3.56519 45.8889 4.28881 45.8889 5.17128V12.9723C45.8889 13.8548 45.1829 14.5608 44.2828 14.5608H36.4818C35.5993 14.5608 34.8757 13.8372 34.8757 12.9547V5.17128Z" fill="#2378DA"/>
<path d="M9.07071 12.3713L12.8653 8.55907C13.5537 7.87074 13.5537 6.74118 12.8653 6.05285C12.53 5.71751 12.0888 5.54102 11.6122 5.54102C11.1357 5.54102 10.6945 5.71751 10.3591 6.05285L9.47665 6.93532C9.37075 7.04122 9.21191 7.11181 9.05306 7.11181C8.89422 7.11181 8.75302 7.05887 8.62948 6.93532L7.747 6.05285C7.42932 5.71751 6.98808 5.54102 6.51154 5.54102C6.03501 5.54102 5.59377 5.71751 5.25843 6.05285C4.57011 6.74118 4.57011 7.87074 5.25843 8.55907L9.07071 12.3713Z" fill="#2378DA"/>
<path d="M4.16527 16.6963C5.59487 17.5964 7.25392 18.1259 9.05416 18.1259C14.049 18.1259 18.1083 14.0665 18.1083 9.07174C18.1083 7.2715 17.5788 5.5948 16.6787 4.18285C15.0726 1.67663 12.2487 0.0175781 9.05416 0.0175781C4.05937 0.0175781 0 4.07695 0 9.07174C0 12.2486 1.65905 15.0725 4.16527 16.6963ZM4.43001 5.22416C4.97714 4.67703 5.73607 4.35934 6.51264 4.35934C7.30687 4.35934 8.04814 4.65938 8.59528 5.22416L9.07181 5.7007L9.53069 5.22416C10.0778 4.67703 10.8368 4.35934 11.6133 4.35934C12.3899 4.35934 13.1488 4.65938 13.696 5.22416C14.8432 6.37138 14.8432 8.24222 13.696 9.38943L9.47775 13.6076C9.37185 13.7135 9.23066 13.7841 9.07181 13.7841C8.91297 13.7841 8.77177 13.7312 8.64822 13.6076L4.43001 9.38943C3.2828 8.24222 3.2828 6.37138 4.43001 5.22416Z" fill="#2378DA"/>
<path d="M40.3803 30.1447C42.1453 30.1447 43.7867 30.5859 45.2339 31.3802C46.6282 27.0737 46.6282 22.3966 45.2339 18.0901C43.7867 18.8667 42.1453 19.3256 40.3803 19.2903C34.7325 19.2903 30.1437 14.7014 30.1437 9.05362C30.1437 7.28868 30.5849 5.64728 31.3791 4.20003C27.0727 2.80572 22.3956 2.80572 18.0891 4.20003C18.8657 5.64728 19.3246 7.28868 19.3246 9.05362C19.3246 14.7014 14.7357 19.2903 9.08788 19.2903C7.32293 19.2903 5.68154 18.8491 4.23428 18.0725C2.83998 22.3789 2.82233 27.056 4.21663 31.3625C5.66389 30.5859 7.30529 30.1271 9.07023 30.1271C14.718 30.1271 19.3069 34.7159 19.3069 40.3637C19.3069 42.1287 18.8657 43.7701 18.0891 45.2173C22.3956 46.6116 27.0727 46.6293 31.3791 45.235C30.6025 43.7877 30.1437 42.1463 30.1437 40.3814C30.1437 34.7336 34.7325 30.1447 40.3803 30.1447ZM29.0847 31.6978C29.0847 32.1391 28.8376 32.5097 28.467 32.7039C28.2905 32.7921 28.114 32.8451 27.9375 32.8451C27.708 32.8451 27.4609 32.7745 27.2668 32.6333L21.6719 28.6092H20.2776V32.2626C20.2776 32.5803 20.0129 32.8451 19.6952 32.8451C19.3775 32.8451 19.1128 32.5803 19.1128 32.2626V28.6092H18.6892C17.7185 28.6092 16.9419 27.8326 16.9419 26.8619V22.626C16.9419 21.6553 17.7185 20.8787 18.6892 20.8787H21.6896L27.2844 16.8547C27.4786 16.7135 27.7257 16.6429 27.9551 16.6429C28.1316 16.6429 28.3081 16.6958 28.467 16.7841C28.8552 16.9782 29.0847 17.3665 29.0847 17.7901V20.7728C31.0085 21.0552 32.491 22.7319 32.491 24.7263C32.491 26.756 31.0085 28.4327 29.0847 28.6974V31.6978Z" fill="#2378DA"/>
</svg>
