<svg width="403" height="431" viewBox="0 0 403 431" fill="none" xmlns="http://www.w3.org/2000/svg">
<path d="M247.982 371.898L248.319 327.254L212.328 304.808L176 327.006L175.663 371.649L211.654 394.095L247.982 371.898ZM189.459 349.377C189.552 336.06 199.716 325.32 212.169 325.356C224.622 325.393 234.618 336.21 234.524 349.527C234.431 362.844 224.267 373.584 211.814 373.547C199.336 373.483 189.341 362.665 189.459 349.377Z" fill="white"/>
<path d="M247.599 292.349L248.919 391.489C248.919 391.489 295.663 332.868 295.927 308.654C296.191 284.749 251.44 225.692 251.44 225.692L251.104 225.692C249.999 216.705 248.919 207.743 248.295 198.705C247.839 192.157 247.335 185.61 246.902 179.036C244.43 141.728 241.861 104.368 238.139 67.1615C237.755 63.2586 236.027 57.7123 231.921 56.7623C227.744 55.7866 224.359 57.4042 220.926 53.2702C216.268 47.6726 220.974 40.6371 217.684 34.9111C215.644 31.342 212.931 31.5217 209.498 31.1879C206.112 30.8541 203.159 29.1851 201.143 26.0525C197.878 20.9685 199.822 14.8316 198.598 9.157C197.95 6.15278 188.971 -1.8071 181.672 10.4665C180.568 12.3153 181.96 16.5777 182.008 18.6318C182.032 21.3279 181.624 23.3051 179.391 25.0254C177.423 26.5147 175.022 27.2337 172.933 28.5432C163.81 34.2949 166.859 47.005 167.531 56.3514C171.108 105.728 172.333 145.81 171.877 197.806C171.829 204.945 171.613 216.32 171.372 227.104C165.466 234.448 124.893 285.802 125.085 308.089C125.325 332.842 175.19 391.411 175.19 391.411L175.406 292.272L247.599 292.349ZM190.603 198.423C185.825 198.551 181.792 194.443 181.672 189.333L179.199 80.5392C179.079 75.4295 182.92 71.1158 187.698 70.9874C192.476 70.859 196.509 74.9673 196.629 80.0771L199.102 188.871C199.222 194.032 195.381 198.294 190.603 198.423ZM231.249 243.435L231.249 272.706L224.239 272.706L224.239 243.435L231.249 243.435ZM215.356 243.435L215.356 272.706L208.345 272.706L208.345 243.435L215.356 243.435ZM192.452 243.435L199.462 243.435L199.462 272.706L192.452 272.706L192.452 243.435Z" fill="#000A21"/>
</svg>
