<svg width="918" height="644" viewBox="0 0 918 644" fill="none" xmlns="http://www.w3.org/2000/svg">
<g opacity="0.42">
<path d="M593.434 106.967C594.352 106.967 595.096 106.224 595.096 105.306C595.096 104.388 594.352 103.645 593.434 103.645C592.517 103.645 591.773 104.388 591.773 105.306C591.773 106.224 592.517 106.967 593.434 106.967Z" fill="white"/>
<path d="M400.268 168.073C401.185 168.073 401.929 167.329 401.929 166.411C401.929 165.494 401.185 164.75 400.268 164.75C399.35 164.75 398.606 165.494 398.606 166.411C398.606 167.329 399.35 168.073 400.268 168.073Z" fill="white"/>
<path d="M619.356 259.467C620.273 259.467 621.017 258.724 621.017 257.806C621.017 256.888 620.273 256.145 619.356 256.145C618.438 256.145 617.694 256.888 617.694 257.806C617.694 258.724 618.438 259.467 619.356 259.467Z" fill="white"/>
<path d="M667.903 338.471C668.82 338.471 669.564 337.727 669.564 336.81C669.564 335.892 668.82 335.148 667.903 335.148C666.985 335.148 666.241 335.892 666.241 336.81C666.241 337.727 666.985 338.471 667.903 338.471Z" fill="white"/>
<path d="M572.031 223.326C572.031 224.241 571.284 224.987 570.369 224.987C569.454 224.987 568.708 224.241 568.708 223.326C568.708 222.41 569.454 221.664 570.369 221.664C571.284 221.664 572.031 222.41 572.031 223.326Z" fill="white"/>
<path d="M756.763 210.499C757.681 210.499 758.425 209.755 758.425 208.837C758.425 207.92 757.681 207.176 756.763 207.176C755.846 207.176 755.102 207.92 755.102 208.837C755.102 209.755 755.846 210.499 756.763 210.499Z" fill="white"/>
<path d="M528.2 60.0794C528.2 60.9946 527.454 61.7409 526.539 61.7409C525.623 61.7409 524.877 60.9946 524.877 60.0794C524.877 59.1642 525.623 58.418 526.539 58.418C527.454 58.418 528.2 59.1642 528.2 60.0794Z" fill="white"/>
<path d="M421.993 90.8177C421.993 91.7329 421.247 92.4791 420.332 92.4791C419.417 92.4791 418.671 91.7329 418.671 90.8177C418.671 89.9025 419.417 89.1562 420.332 89.1562C421.247 89.1562 421.993 89.9025 421.993 90.8177Z" fill="white"/>
<path d="M366.912 93.8581C367.83 93.8581 368.574 93.1142 368.574 92.1966C368.574 91.279 367.83 90.5352 366.912 90.5352C365.994 90.5352 365.251 91.279 365.251 92.1966C365.251 93.1142 365.994 93.8581 366.912 93.8581Z" fill="white"/>
<path d="M339.246 185.083C339.246 185.999 338.5 186.745 337.585 186.745C336.67 186.745 335.924 185.999 335.924 185.083C335.924 184.168 336.67 183.422 337.585 183.422C338.5 183.422 339.246 184.168 339.246 185.083Z" fill="white"/>
<path d="M371.826 237.741C372.744 237.741 373.487 236.997 373.487 236.079C373.487 235.162 372.744 234.418 371.826 234.418C370.908 234.418 370.165 235.162 370.165 236.079C370.165 236.997 370.908 237.741 371.826 237.741Z" fill="white"/>
<path d="M254.245 358.38C254.245 359.295 253.499 360.042 252.583 360.042C251.668 360.042 250.922 359.295 250.922 358.38C250.922 357.465 251.668 356.719 252.583 356.719C253.499 356.719 254.245 357.465 254.245 358.38Z" fill="white"/>
<path d="M266.214 326.15C266.214 327.065 265.468 327.811 264.553 327.811C263.637 327.811 262.891 327.065 262.891 326.15C262.891 325.235 263.637 324.488 264.553 324.488C265.468 324.488 266.214 325.235 266.214 326.15Z" fill="white"/>
<path d="M198.797 506.966C198.797 507.881 198.051 508.628 197.135 508.628C196.22 508.628 195.474 507.881 195.474 506.966C195.474 506.051 196.22 505.305 197.135 505.305C198.065 505.305 198.797 506.051 198.797 506.966Z" fill="white"/>
<path d="M225.281 452.548C225.281 453.463 224.535 454.21 223.619 454.21C222.704 454.21 221.958 453.463 221.958 452.548C221.958 451.633 222.704 450.887 223.619 450.887C224.549 450.887 225.281 451.633 225.281 452.548Z" fill="white"/>
<path d="M242.515 608.12C243.433 608.12 244.177 607.376 244.177 606.458C244.177 605.541 243.433 604.797 242.515 604.797C241.598 604.797 240.854 605.541 240.854 606.458C240.854 607.376 241.598 608.12 242.515 608.12Z" fill="white"/>
<path d="M184.423 642.204C184.423 643.12 183.676 643.866 182.761 643.866C181.846 643.866 181.1 643.12 181.1 642.204C181.1 641.289 181.846 640.543 182.761 640.543C183.676 640.543 184.423 641.289 184.423 642.204Z" fill="white"/>
<path d="M472.36 625.368C472.36 626.284 471.613 627.03 470.698 627.03C469.783 627.03 469.037 626.284 469.037 625.368C469.037 624.453 469.783 623.707 470.698 623.707C471.613 623.721 472.36 624.453 472.36 625.368Z" fill="white"/>
<path d="M582.718 612.189C582.718 613.104 581.972 613.85 581.057 613.85C580.141 613.85 579.395 613.104 579.395 612.189C579.395 611.274 580.141 610.527 581.057 610.527C581.972 610.527 582.718 611.274 582.718 612.189Z" fill="white"/>
<path d="M608.034 547.251C608.034 548.167 607.288 548.913 606.373 548.913C605.457 548.913 604.711 548.167 604.711 547.251C604.711 546.336 605.457 545.59 606.373 545.59C607.288 545.604 608.034 546.336 608.034 547.251Z" fill="white"/>
<path d="M488.254 531.439C488.254 532.354 487.508 533.1 486.592 533.1C485.677 533.1 484.931 532.354 484.931 531.439C484.931 530.524 485.677 529.777 486.592 529.777C487.508 529.777 488.254 530.524 488.254 531.439Z" fill="white"/>
<path d="M477.555 492.634C477.555 493.549 476.809 494.296 475.893 494.296C474.978 494.296 474.232 493.549 474.232 492.634C474.232 491.719 474.978 490.973 475.893 490.973C476.809 490.973 477.555 491.719 477.555 492.634Z" fill="white"/>
<path d="M451.998 494.001C451.998 494.916 451.252 495.663 450.337 495.663C449.422 495.663 448.676 494.916 448.676 494.001C448.676 493.086 449.422 492.34 450.337 492.34C451.266 492.34 451.998 493.086 451.998 494.001Z" fill="white"/>
<path d="M763.295 515.487C764.213 515.487 764.957 514.743 764.957 513.826C764.957 512.908 764.213 512.164 763.295 512.164C762.377 512.164 761.634 512.908 761.634 513.826C761.634 514.743 762.377 515.487 763.295 515.487Z" fill="white"/>
<path d="M694.233 503.659C695.15 503.659 695.894 502.915 695.894 501.997C695.894 501.08 695.15 500.336 694.233 500.336C693.315 500.336 692.571 501.08 692.571 501.997C692.571 502.915 693.315 503.659 694.233 503.659Z" fill="white"/>
<path d="M769.081 448.65C769.081 449.565 768.335 450.311 767.42 450.311C766.504 450.311 765.758 449.565 765.758 448.65C765.758 447.735 766.504 446.988 767.42 446.988C768.335 447.002 769.081 447.749 769.081 448.65Z" fill="white"/>
<path d="M786.233 371.854C787.151 371.854 787.894 371.11 787.894 370.193C787.894 369.275 787.151 368.531 786.233 368.531C785.315 368.531 784.572 369.275 784.572 370.193C784.572 371.11 785.315 371.854 786.233 371.854Z" fill="white"/>
<path d="M750.384 346.51C751.302 346.51 752.046 345.767 752.046 344.849C752.046 343.931 751.302 343.188 750.384 343.188C749.467 343.188 748.723 343.931 748.723 344.849C748.723 345.767 749.467 346.51 750.384 346.51Z" fill="white"/>
<path d="M765.659 275.788C766.577 275.788 767.32 275.044 767.32 274.126C767.32 273.209 766.577 272.465 765.659 272.465C764.741 272.465 763.997 273.209 763.997 274.126C763.997 275.044 764.741 275.788 765.659 275.788Z" fill="white"/>
<path d="M774.799 275.815C775.717 275.815 776.461 275.071 776.461 274.154C776.461 273.236 775.717 272.492 774.799 272.492C773.882 272.492 773.138 273.236 773.138 274.154C773.138 275.071 773.882 275.815 774.799 275.815Z" fill="white"/>
<path d="M575.975 149.546C576.892 149.546 577.636 148.802 577.636 147.884C577.636 146.967 576.892 146.223 575.975 146.223C575.057 146.223 574.313 146.967 574.313 147.884C574.313 148.802 575.057 149.546 575.975 149.546Z" fill="white"/>
<path d="M450.986 202.823C451.903 202.823 452.647 202.079 452.647 201.161C452.647 200.244 451.903 199.5 450.986 199.5C450.068 199.5 449.324 200.244 449.324 201.161C449.324 202.079 450.068 202.823 450.986 202.823Z" fill="white"/>
<path d="M536.845 222.635C537.763 222.635 538.507 221.892 538.507 220.974C538.507 220.056 537.763 219.312 536.845 219.312C535.928 219.312 535.184 220.056 535.184 220.974C535.184 221.892 535.928 222.635 536.845 222.635Z" fill="white"/>
<path d="M243.753 222.451C243.753 223.366 243.006 224.112 242.091 224.112C241.176 224.112 240.43 223.366 240.43 222.451C240.43 221.535 241.176 220.789 242.091 220.789C243.006 220.803 243.753 221.535 243.753 222.451Z" fill="white"/>
<path d="M191.575 298.585C192.493 298.585 193.236 297.841 193.236 296.923C193.236 296.006 192.493 295.262 191.575 295.262C190.657 295.262 189.914 296.006 189.914 296.923C189.914 297.841 190.657 298.585 191.575 298.585Z" fill="white"/>
<path d="M173.327 352.888C173.327 353.803 172.58 354.549 171.665 354.549C170.75 354.549 170.004 353.803 170.004 352.888C170.004 351.973 170.75 351.227 171.665 351.227C172.58 351.227 173.327 351.973 173.327 352.888Z" fill="white"/>
<path d="M185.38 187.97C185.38 188.885 184.634 189.631 183.718 189.631C182.803 189.631 182.057 188.885 182.057 187.97C182.057 187.055 182.803 186.309 183.718 186.309C184.634 186.323 185.38 187.055 185.38 187.97Z" fill="white"/>
<path d="M194.811 59.263C194.811 60.1782 194.064 60.9245 193.149 60.9245C192.234 60.9245 191.488 60.1782 191.488 59.263C191.488 58.3478 192.234 57.6016 193.149 57.6016C194.064 57.6016 194.811 58.3478 194.811 59.263Z" fill="white"/>
<path d="M238.445 50.1823C239.363 50.1823 240.107 49.4384 240.107 48.5208C240.107 47.6032 239.363 46.8594 238.445 46.8594C237.528 46.8594 236.784 47.6032 236.784 48.5208C236.784 49.4384 237.528 50.1823 238.445 50.1823Z" fill="white"/>
<path d="M453.886 40.2005C453.886 41.1157 453.14 41.862 452.225 41.862C451.309 41.862 450.563 41.1157 450.563 40.2005C450.563 39.2853 451.309 38.5391 452.225 38.5391C453.14 38.5391 453.886 39.2853 453.886 40.2005Z" fill="white"/>
<path d="M387.301 57.4349C387.301 58.3501 386.555 59.0963 385.64 59.0963C384.725 59.0963 383.978 58.3501 383.978 57.4349C383.978 56.5197 384.725 55.7734 385.64 55.7734C386.569 55.7734 387.301 56.5197 387.301 57.4349Z" fill="white"/>
<path d="M578.62 39.1432C579.538 39.1432 580.281 38.3994 580.281 37.4818C580.281 36.5642 579.538 35.8203 578.62 35.8203C577.702 35.8203 576.958 36.5642 576.958 37.4818C576.958 38.3994 577.702 39.1432 578.62 39.1432Z" fill="white"/>
<path d="M562.879 89.3372C562.879 90.2524 562.133 90.9987 561.217 90.9987C560.302 90.9987 559.556 90.2524 559.556 89.3372C559.556 88.422 560.302 87.6758 561.217 87.6758C562.133 87.6758 562.879 88.422 562.879 89.3372Z" fill="white"/>
<path d="M530.452 145.561C531.37 145.561 532.114 144.817 532.114 143.9C532.114 142.982 531.37 142.238 530.452 142.238C529.535 142.238 528.791 142.982 528.791 143.9C528.791 144.817 529.535 145.561 530.452 145.561Z" fill="white"/>
<path d="M417.996 207.849C417.996 208.764 417.25 209.51 416.334 209.51C415.419 209.51 414.673 208.764 414.673 207.849C414.673 206.934 415.419 206.188 416.334 206.188C417.25 206.188 417.996 206.934 417.996 207.849Z" fill="white"/>
<path d="M378.235 233.01C379.153 233.01 379.896 232.267 379.896 231.349C379.896 230.431 379.153 229.688 378.235 229.688C377.317 229.688 376.573 230.431 376.573 231.349C376.573 232.267 377.317 233.01 378.235 233.01Z" fill="white"/>
<path d="M320.395 305.241C321.313 305.241 322.057 304.497 322.057 303.579C322.057 302.662 321.313 301.918 320.395 301.918C319.478 301.918 318.734 302.662 318.734 303.579C318.734 304.497 319.478 305.241 320.395 305.241Z" fill="white"/>
<path d="M309.862 340.034C310.78 340.034 311.524 339.29 311.524 338.372C311.524 337.455 310.78 336.711 309.862 336.711C308.945 336.711 308.201 337.455 308.201 338.372C308.201 339.29 308.945 340.034 309.862 340.034Z" fill="white"/>
<path d="M320.489 395.96C321.406 395.96 322.15 395.216 322.15 394.298C322.15 393.381 321.406 392.637 320.489 392.637C319.571 392.637 318.827 393.381 318.827 394.298C318.827 395.216 319.571 395.96 320.489 395.96Z" fill="white"/>
<path d="M339.485 436.876C339.485 437.791 338.739 438.538 337.823 438.538C336.908 438.538 336.162 437.791 336.162 436.876C336.162 435.961 336.908 435.215 337.823 435.215C338.753 435.229 339.485 435.961 339.485 436.876Z" fill="white"/>
<path d="M429.203 463.475C430.12 463.475 430.864 462.731 430.864 461.814C430.864 460.896 430.12 460.152 429.203 460.152C428.285 460.152 427.541 460.896 427.541 461.814C427.541 462.731 428.285 463.475 429.203 463.475Z" fill="white"/>
<path d="M501.098 474.131C502.016 474.131 502.759 473.388 502.759 472.47C502.759 471.552 502.016 470.809 501.098 470.809C500.18 470.809 499.437 471.552 499.437 472.47C499.437 473.388 500.18 474.131 501.098 474.131Z" fill="white"/>
<path d="M529.593 479.427C529.593 480.342 528.847 481.089 527.932 481.089C527.016 481.089 526.27 480.342 526.27 479.427C526.27 478.512 527.016 477.766 527.932 477.766C528.847 477.766 529.593 478.512 529.593 479.427Z" fill="white"/>
<path d="M610.427 455.971C611.344 455.971 612.088 455.227 612.088 454.31C612.088 453.392 611.344 452.648 610.427 452.648C609.509 452.648 608.765 453.392 608.765 454.31C608.765 455.227 609.509 455.971 610.427 455.971Z" fill="white"/>
<path d="M617.328 403.802C617.328 404.717 616.582 405.464 615.667 405.464C614.752 405.464 614.005 404.717 614.005 403.802C614.005 402.887 614.752 402.141 615.667 402.141C616.596 402.141 617.328 402.887 617.328 403.802Z" fill="white"/>
<path d="M597.913 309.424C598.83 309.424 599.574 308.681 599.574 307.763C599.574 306.845 598.83 306.102 597.913 306.102C596.995 306.102 596.251 306.845 596.251 307.763C596.251 308.681 596.995 309.424 597.913 309.424Z" fill="white"/>
<path d="M576.804 288.951C576.804 289.866 576.057 290.612 575.142 290.612C574.227 290.612 573.481 289.866 573.481 288.951C573.481 288.035 574.227 287.289 575.142 287.289C576.072 287.303 576.804 288.035 576.804 288.951Z" fill="white"/>
<path d="M575.51 250.557C576.427 250.557 577.171 249.813 577.171 248.896C577.171 247.978 576.427 247.234 575.51 247.234C574.592 247.234 573.848 247.978 573.848 248.896C573.848 249.813 574.592 250.557 575.51 250.557Z" fill="white"/>
<path d="M363.351 263.833C363.351 264.749 362.605 265.495 361.69 265.495C360.774 265.495 360.028 264.749 360.028 263.833C360.028 262.918 360.774 262.172 361.69 262.172C362.619 262.186 363.351 262.918 363.351 263.833Z" fill="white"/>
<path d="M355.522 291.865C355.522 292.78 354.776 293.526 353.86 293.526C352.945 293.526 352.199 292.78 352.199 291.865C352.199 290.949 352.945 290.203 353.86 290.203C354.776 290.203 355.522 290.949 355.522 291.865Z" fill="white"/>
<path d="M356.958 362.31C356.958 363.225 356.212 363.971 355.296 363.971C354.381 363.971 353.635 363.225 353.635 362.31C353.635 361.395 354.381 360.648 355.296 360.648C356.212 360.648 356.958 361.395 356.958 362.31Z" fill="white"/>
<path d="M555.389 437.202C556.307 437.202 557.05 436.458 557.05 435.54C557.05 434.623 556.307 433.879 555.389 433.879C554.471 433.879 553.728 434.623 553.728 435.54C553.728 436.458 554.471 437.202 555.389 437.202Z" fill="white"/>
<path d="M574.31 416.786C574.31 417.702 573.564 418.448 572.649 418.448C571.734 418.448 570.988 417.702 570.988 416.786C570.988 415.871 571.734 415.125 572.649 415.125C573.564 415.139 574.31 415.871 574.31 416.786Z" fill="white"/>
<path d="M590.109 406.366C591.026 406.366 591.77 405.622 591.77 404.704C591.77 403.787 591.026 403.043 590.109 403.043C589.191 403.043 588.447 403.787 588.447 404.704C588.447 405.622 589.191 406.366 590.109 406.366Z" fill="white"/>
<path d="M627.959 386.189C627.959 387.104 627.213 387.85 626.298 387.85C625.383 387.85 624.637 387.104 624.637 386.189C624.637 385.274 625.383 384.527 626.298 384.527C627.213 384.541 627.959 385.274 627.959 386.189Z" fill="white"/>
<path d="M650.301 351.622C650.301 352.538 649.555 353.284 648.64 353.284C647.725 353.284 646.978 352.538 646.978 351.622C646.978 350.707 647.725 349.961 648.64 349.961C649.555 349.975 650.301 350.707 650.301 351.622Z" fill="white"/>
<path d="M657.034 318.378C657.951 318.378 658.695 317.634 658.695 316.716C658.695 315.799 657.951 315.055 657.034 315.055C656.116 315.055 655.372 315.799 655.372 316.716C655.372 317.634 656.116 318.378 657.034 318.378Z" fill="white"/>
<path d="M661.692 296.427C661.692 297.342 660.946 298.089 660.031 298.089C659.116 298.089 658.369 297.342 658.369 296.427C658.369 295.512 659.116 294.766 660.031 294.766C660.946 294.78 661.692 295.512 661.692 296.427Z" fill="white"/>
<path d="M625.157 295.513C625.157 296.428 624.411 297.174 623.496 297.174C622.581 297.174 621.835 296.428 621.835 295.513C621.835 294.598 622.581 293.852 623.496 293.852C624.411 293.866 625.157 294.598 625.157 295.513Z" fill="white"/>
<path d="M639.375 258.921C640.292 258.921 641.036 258.177 641.036 257.259C641.036 256.342 640.292 255.598 639.375 255.598C638.457 255.598 637.713 256.342 637.713 257.259C637.713 258.177 638.457 258.921 639.375 258.921Z" fill="white"/>
<path d="M646.374 260.861C646.374 261.776 645.628 262.522 644.713 262.522C643.798 262.522 643.051 261.776 643.051 260.861C643.051 259.945 643.798 259.199 644.713 259.199C645.628 259.199 646.374 259.945 646.374 260.861Z" fill="white"/>
<path d="M691.361 336.783C691.361 337.698 690.615 338.444 689.7 338.444C688.785 338.444 688.038 337.698 688.038 336.783C688.038 335.867 688.785 335.121 689.7 335.121C690.615 335.121 691.361 335.867 691.361 336.783Z" fill="white"/>
<path d="M670.761 374.686C671.679 374.686 672.423 373.942 672.423 373.025C672.423 372.107 671.679 371.363 670.761 371.363C669.844 371.363 669.1 372.107 669.1 373.025C669.1 373.942 669.844 374.686 670.761 374.686Z" fill="white"/>
<path d="M669.521 370.954C669.521 371.87 668.775 372.616 667.86 372.616C666.944 372.616 666.198 371.87 666.198 370.954C666.198 370.039 666.944 369.293 667.86 369.293C668.775 369.293 669.521 370.039 669.521 370.954Z" fill="white"/>
<path d="M618.426 491.901C619.343 491.901 620.087 491.157 620.087 490.24C620.087 489.322 619.343 488.578 618.426 488.578C617.508 488.578 616.764 489.322 616.764 490.24C616.764 491.157 617.508 491.901 618.426 491.901Z" fill="white"/>
</g>
<path d="M372.489 153.768C373.406 153.768 374.15 153.024 374.15 152.107C374.15 151.189 373.406 150.445 372.489 150.445C371.571 150.445 370.827 151.189 370.827 152.107C370.827 153.024 371.571 153.768 372.489 153.768Z" fill="white"/>
<path d="M466.022 182.958C466.022 183.874 465.275 184.62 464.36 184.62C463.445 184.62 462.699 183.874 462.699 182.958C462.699 182.043 463.445 181.297 464.36 181.297C465.289 181.297 466.022 182.043 466.022 182.958Z" fill="white"/>
<path d="M360.551 221.776C361.469 221.776 362.213 221.032 362.213 220.115C362.213 219.197 361.469 218.453 360.551 218.453C359.634 218.453 358.89 219.197 358.89 220.115C358.89 221.032 359.634 221.776 360.551 221.776Z" fill="white"/>
<path d="M378.275 192.111C378.275 193.026 377.528 193.772 376.613 193.772C375.698 193.772 374.952 193.026 374.952 192.111C374.952 191.195 375.698 190.449 376.613 190.449C377.528 190.449 378.275 191.195 378.275 192.111Z" fill="white"/>
<path d="M561.555 234.63C561.555 235.545 560.808 236.292 559.893 236.292C558.978 236.292 558.232 235.545 558.232 234.63C558.232 233.715 558.978 232.969 559.893 232.969C560.808 232.969 561.555 233.715 561.555 234.63Z" fill="white"/>
<path d="M355.365 276.112C356.283 276.112 357.027 275.368 357.027 274.451C357.027 273.533 356.283 272.789 355.365 272.789C354.448 272.789 353.704 273.533 353.704 274.451C353.704 275.368 354.448 276.112 355.365 276.112Z" fill="white"/>
<path d="M350.452 334.021C350.452 334.936 349.706 335.682 348.791 335.682C347.876 335.682 347.129 334.936 347.129 334.021C347.129 333.106 347.876 332.359 348.791 332.359C349.72 332.359 350.452 333.106 350.452 334.021Z" fill="white"/>
<path d="M585.38 314.353C585.38 315.268 584.634 316.014 583.718 316.014C582.803 316.014 582.057 315.268 582.057 314.353C582.057 313.438 582.803 312.691 583.718 312.691C584.648 312.691 585.38 313.438 585.38 314.353Z" fill="white"/>
<path d="M601.148 269.421C602.066 269.421 602.81 268.677 602.81 267.759C602.81 266.842 602.066 266.098 601.148 266.098C600.231 266.098 599.487 266.842 599.487 267.759C599.487 268.677 600.231 269.421 601.148 269.421Z" fill="white"/>
<path d="M532.368 185.478C532.368 186.393 531.622 187.139 530.707 187.139C529.792 187.139 529.046 186.393 529.046 185.478C529.046 184.563 529.792 183.816 530.707 183.816C531.636 183.83 532.368 184.563 532.368 185.478Z" fill="white"/>
<path d="M561.318 139.253C562.235 139.253 562.979 138.509 562.979 137.591C562.979 136.674 562.235 135.93 561.318 135.93C560.4 135.93 559.656 136.674 559.656 137.591C559.656 138.509 560.4 139.253 561.318 139.253Z" fill="white"/>
<path d="M437.751 120.456C438.669 120.456 439.413 119.712 439.413 118.794C439.413 117.877 438.669 117.133 437.751 117.133C436.834 117.133 436.09 117.877 436.09 118.794C436.09 119.712 436.834 120.456 437.751 120.456Z" fill="white"/>
<path d="M439.381 149.63C439.381 150.545 438.635 151.292 437.719 151.292C436.804 151.292 436.058 150.545 436.058 149.63C436.058 148.715 436.804 147.969 437.719 147.969C438.649 147.983 439.381 148.715 439.381 149.63Z" fill="white"/>
<path d="M662.12 360.987C663.038 360.987 663.782 360.243 663.782 359.326C663.782 358.408 663.038 357.664 662.12 357.664C661.203 357.664 660.459 358.408 660.459 359.326C660.459 360.243 661.203 360.987 662.12 360.987Z" fill="white"/>
<path d="M637.18 449.509C637.18 450.424 636.434 451.171 635.518 451.171C634.603 451.171 633.857 450.424 633.857 449.509C633.857 448.594 634.603 447.848 635.518 447.848C636.448 447.862 637.18 448.608 637.18 449.509Z" fill="white"/>
<path d="M638.193 518.936C639.111 518.936 639.855 518.192 639.855 517.275C639.855 516.357 639.111 515.613 638.193 515.613C637.276 515.613 636.532 516.357 636.532 517.275C636.532 518.192 637.276 518.936 638.193 518.936Z" fill="white"/>
<path d="M520.542 573.173C520.542 574.088 519.795 574.835 518.88 574.835C517.965 574.835 517.219 574.088 517.219 573.173C517.219 572.258 517.965 571.512 518.88 571.512C519.81 571.512 520.542 572.258 520.542 573.173Z" fill="white"/>
<path d="M468.151 581.549C469.069 581.549 469.812 580.806 469.812 579.888C469.812 578.97 469.069 578.227 468.151 578.227C467.233 578.227 466.49 578.97 466.49 579.888C466.49 580.806 467.233 581.549 468.151 581.549Z" fill="white"/>
<path d="M444.069 537.592C444.987 537.592 445.731 536.849 445.731 535.931C445.731 535.013 444.987 534.27 444.069 534.27C443.152 534.27 442.408 535.013 442.408 535.931C442.408 536.849 443.152 537.592 444.069 537.592Z" fill="white"/>
<path d="M500.336 529.596C501.254 529.596 501.998 528.853 501.998 527.935C501.998 527.017 501.254 526.273 500.336 526.273C499.419 526.273 498.675 527.017 498.675 527.935C498.675 528.853 499.419 529.596 500.336 529.596Z" fill="white"/>
<path d="M491.365 497.029C491.365 497.944 490.619 498.69 489.703 498.69C488.788 498.69 488.042 497.944 488.042 497.029C488.042 496.113 488.788 495.367 489.703 495.367C490.619 495.367 491.365 496.113 491.365 497.029Z" fill="white"/>
<path d="M465.361 504.139C466.278 504.139 467.022 503.395 467.022 502.478C467.022 501.56 466.278 500.816 465.361 500.816C464.443 500.816 463.699 501.56 463.699 502.478C463.699 503.395 464.443 504.139 465.361 504.139Z" fill="white"/>
<path d="M239.868 447.241C240.786 447.241 241.53 446.497 241.53 445.579C241.53 444.662 240.786 443.918 239.868 443.918C238.951 443.918 238.207 444.662 238.207 445.579C238.207 446.497 238.951 447.241 239.868 447.241Z" fill="white"/>
<path d="M277.14 484.526C278.057 484.526 278.801 483.782 278.801 482.865C278.801 481.947 278.057 481.203 277.14 481.203C276.222 481.203 275.478 481.947 275.478 482.865C275.478 483.782 276.222 484.526 277.14 484.526Z" fill="white"/>
<path d="M391.553 445.579C391.553 446.495 390.807 447.241 389.892 447.241C388.977 447.241 388.23 446.495 388.23 445.579C388.23 444.664 388.977 443.918 389.892 443.918C390.821 443.932 391.553 444.664 391.553 445.579Z" fill="white"/>
<path d="M346.132 363.842C347.049 363.842 347.793 363.099 347.793 362.181C347.793 361.263 347.049 360.52 346.132 360.52C345.214 360.52 344.47 361.263 344.47 362.181C344.47 363.099 345.214 363.842 346.132 363.842Z" fill="white"/>
<path d="M269.352 359.294C269.352 360.209 268.606 360.956 267.691 360.956C266.776 360.956 266.029 360.209 266.029 359.294C266.029 358.379 266.776 357.633 267.691 357.633C268.606 357.647 269.352 358.393 269.352 359.294Z" fill="white"/>
<path d="M135.942 34.9622C135.942 35.8774 135.196 36.6237 134.28 36.6237C133.365 36.6237 132.619 35.8774 132.619 34.9622C132.619 34.047 133.365 33.3008 134.28 33.3008C135.21 33.3149 135.942 34.047 135.942 34.9622Z" fill="white"/>
<path d="M227.827 65.8099C227.827 66.7251 227.081 67.4713 226.165 67.4713C225.25 67.4713 224.504 66.7251 224.504 65.8099C224.504 64.8947 225.25 64.1484 226.165 64.1484C227.081 64.1484 227.827 64.8947 227.827 65.8099Z" fill="white"/>
<path d="M122.358 104.631C123.276 104.631 124.02 103.888 124.02 102.97C124.02 102.052 123.276 101.309 122.358 101.309C121.441 101.309 120.697 102.052 120.697 102.97C120.697 103.888 121.441 104.631 122.358 104.631Z" fill="white"/>
<path d="M138.423 76.6237C139.34 76.6237 140.084 75.8798 140.084 74.9622C140.084 74.0446 139.34 73.3008 138.423 73.3008C137.505 73.3008 136.761 74.0446 136.761 74.9622C136.761 75.8798 137.505 76.6237 138.423 76.6237Z" fill="white"/>
<path d="M323.348 117.486C323.348 118.401 322.601 119.147 321.686 119.147C320.771 119.147 320.025 118.401 320.025 117.486C320.025 116.57 320.771 115.824 321.686 115.824C322.615 115.824 323.348 116.57 323.348 117.486Z" fill="white"/>
<path d="M117.173 158.964C118.09 158.964 118.834 158.22 118.834 157.302C118.834 156.384 118.09 155.641 117.173 155.641C116.255 155.641 115.511 156.384 115.511 157.302C115.511 158.22 116.255 158.964 117.173 158.964Z" fill="white"/>
<path d="M110.616 218.538C111.534 218.538 112.277 217.794 112.277 216.876C112.277 215.959 111.534 215.215 110.616 215.215C109.698 215.215 108.955 215.959 108.955 216.876C108.955 217.794 109.698 218.538 110.616 218.538Z" fill="white"/>
<path d="M347.187 197.204C347.187 198.12 346.44 198.866 345.525 198.866C344.61 198.866 343.864 198.12 343.864 197.204C343.864 196.289 344.61 195.543 345.525 195.543C346.454 195.543 347.187 196.289 347.187 197.204Z" fill="white"/>
<path d="M364.617 150.615C364.617 151.53 363.87 152.276 362.955 152.276C362.04 152.276 361.294 151.53 361.294 150.615C361.294 149.699 362.04 148.953 362.955 148.953C363.87 148.967 364.617 149.699 364.617 150.615Z" fill="white"/>
<path d="M294.175 68.345C294.175 69.2602 293.429 70.0065 292.514 70.0065C291.599 70.0065 290.852 69.2602 290.852 68.345C290.852 67.4298 291.599 66.6836 292.514 66.6836C293.429 66.6836 294.175 67.4298 294.175 68.345Z" fill="white"/>
<path d="M324.772 20.4427C324.772 21.3579 324.026 22.1041 323.111 22.1041C322.196 22.1041 321.449 21.3579 321.449 20.4427C321.449 19.5275 322.196 18.7812 323.111 18.7812C324.026 18.7812 324.772 19.5275 324.772 20.4427Z" fill="white"/>
<path d="M201.202 1.66145C201.202 2.57665 200.456 3.3229 199.54 3.3229C198.625 3.3229 197.879 2.57665 197.879 1.66145C197.879 0.746244 198.625 0 199.54 0C200.456 0 201.202 0.746244 201.202 1.66145Z" fill="white"/>
<path d="M201.19 32.4974C201.19 33.4126 200.444 34.1588 199.529 34.1588C198.614 34.1588 197.867 33.4126 197.867 32.4974C197.867 31.5822 198.614 30.8359 199.529 30.8359C200.444 30.8359 201.19 31.5822 201.19 32.4974Z" fill="white"/>
<path d="M423.909 243.854C424.827 243.854 425.571 243.11 425.571 242.193C425.571 241.275 424.827 240.531 423.909 240.531C422.992 240.531 422.248 241.275 422.248 242.193C422.248 243.11 422.992 243.854 423.909 243.854Z" fill="white"/>
<path d="M398.984 332.372C398.984 333.288 398.238 334.034 397.323 334.034C396.408 334.034 395.662 333.288 395.662 332.372C395.662 331.457 396.408 330.711 397.323 330.711C398.238 330.711 398.984 331.457 398.984 332.372Z" fill="white"/>
<path d="M401.65 400.126C401.65 401.041 400.904 401.788 399.989 401.788C399.073 401.788 398.327 401.041 398.327 400.126C398.327 399.211 399.073 398.465 399.989 398.465C400.918 398.479 401.65 399.211 401.65 400.126Z" fill="white"/>
<path d="M280.685 457.686C281.603 457.686 282.346 456.942 282.346 456.025C282.346 455.107 281.603 454.363 280.685 454.363C279.767 454.363 279.024 455.107 279.024 456.025C279.024 456.942 279.767 457.686 280.685 457.686Z" fill="white"/>
<path d="M229.942 464.405C230.86 464.405 231.604 463.661 231.604 462.743C231.604 461.826 230.86 461.082 229.942 461.082C229.025 461.082 228.281 461.826 228.281 462.743C228.281 463.661 229.025 464.405 229.942 464.405Z" fill="white"/>
<path d="M207.525 418.798C207.525 419.713 206.778 420.46 205.863 420.46C204.948 420.46 204.202 419.713 204.202 418.798C204.202 417.883 204.948 417.137 205.863 417.137C206.778 417.137 207.525 417.883 207.525 418.798Z" fill="white"/>
<path d="M263.791 410.786C263.791 411.702 263.045 412.448 262.13 412.448C261.215 412.448 260.469 411.702 260.469 410.786C260.469 409.871 261.215 409.125 262.13 409.125C263.045 409.139 263.791 409.871 263.791 410.786Z" fill="white"/>
<path d="M253.172 379.88C253.172 380.795 252.426 381.542 251.511 381.542C250.595 381.542 249.849 380.795 249.849 379.88C249.849 378.965 250.595 378.219 251.511 378.219C252.426 378.233 253.172 378.965 253.172 379.88Z" fill="white"/>
<path d="M228.816 385.329C228.816 386.245 228.07 386.991 227.155 386.991C226.239 386.991 225.493 386.245 225.493 385.329C225.493 384.414 226.239 383.668 227.155 383.668C228.084 383.668 228.816 384.414 228.816 385.329Z" fill="white"/>
<path d="M3.32339 328.431C3.32339 329.346 2.57714 330.092 1.66194 330.092C0.746732 330.092 0.000488281 329.346 0.000488281 328.431C0.000488281 327.516 0.746732 326.77 1.66194 326.77C2.59122 326.77 3.32339 327.516 3.32339 328.431Z" fill="white"/>
<path d="M38.945 367.378C39.8626 367.378 40.6065 366.634 40.6065 365.716C40.6065 364.799 39.8626 364.055 38.945 364.055C38.0274 364.055 37.2836 364.799 37.2836 365.716C37.2836 366.634 38.0274 367.378 38.945 367.378Z" fill="white"/>
<path d="M153.361 328.431C153.361 329.346 152.614 330.092 151.699 330.092C150.784 330.092 150.038 329.346 150.038 328.431C150.038 327.516 150.784 326.77 151.699 326.77C152.614 326.784 153.361 327.53 153.361 328.431Z" fill="white"/>
<path d="M107.939 246.71C108.857 246.71 109.6 245.966 109.6 245.048C109.6 244.131 108.857 243.387 107.939 243.387C107.021 243.387 106.278 244.131 106.278 245.048C106.278 245.966 107.021 246.71 107.939 246.71Z" fill="white"/>
<path d="M31.1439 242.165C31.1439 243.081 30.3977 243.827 29.4825 243.827C28.5673 243.827 27.821 243.081 27.821 242.165C27.821 241.25 28.5673 240.504 29.4825 240.504C30.4118 240.504 31.1439 241.25 31.1439 242.165Z" fill="white"/>
<path d="M627.605 197.247C627.605 198.163 626.859 198.909 625.944 198.909C625.029 198.909 624.282 198.163 624.282 197.247C624.282 196.332 625.029 195.586 625.944 195.586C626.859 195.6 627.605 196.332 627.605 197.247Z" fill="white"/>
<path d="M719.477 228.095C719.477 229.01 718.73 229.756 717.815 229.756C716.9 229.756 716.154 229.01 716.154 228.095C716.154 227.18 716.9 226.434 717.815 226.434C718.744 226.434 719.477 227.18 719.477 228.095Z" fill="white"/>
<path d="M615.665 265.251C615.665 266.166 614.919 266.913 614.004 266.913C613.089 266.913 612.343 266.166 612.343 265.251C612.343 264.336 613.089 263.59 614.004 263.59C614.919 263.59 615.665 264.336 615.665 265.251Z" fill="white"/>
<path d="M631.73 237.247C631.73 238.163 630.984 238.909 630.068 238.909C629.153 238.909 628.407 238.163 628.407 237.247C628.407 236.332 629.153 235.586 630.068 235.586C630.984 235.586 631.73 236.332 631.73 237.247Z" fill="white"/>
<path d="M813.348 281.432C814.266 281.432 815.01 280.688 815.01 279.771C815.01 278.853 814.266 278.109 813.348 278.109C812.431 278.109 811.687 278.853 811.687 279.771C811.687 280.688 812.431 281.432 813.348 281.432Z" fill="white"/>
<path d="M610.482 319.587C610.482 320.502 609.736 321.249 608.82 321.249C607.905 321.249 607.159 320.502 607.159 319.587C607.159 318.672 607.905 317.926 608.82 317.926C609.736 317.926 610.482 318.672 610.482 319.587Z" fill="white"/>
<path d="M603.921 379.161C603.921 380.077 603.175 380.823 602.259 380.823C601.344 380.823 600.598 380.077 600.598 379.161C600.598 378.246 601.344 377.5 602.259 377.5C603.175 377.5 603.921 378.246 603.921 379.161Z" fill="white"/>
<path d="M838.849 359.49C838.849 360.405 838.102 361.151 837.187 361.151C836.272 361.151 835.526 360.405 835.526 359.49C835.526 358.574 836.272 357.828 837.187 357.828C838.102 357.828 838.849 358.574 838.849 359.49Z" fill="white"/>
<path d="M854.604 314.561C855.521 314.561 856.265 313.817 856.265 312.9C856.265 311.982 855.521 311.238 854.604 311.238C853.686 311.238 852.942 311.982 852.942 312.9C852.942 313.817 853.686 314.561 854.604 314.561Z" fill="white"/>
<path d="M784.175 232.292C785.093 232.292 785.837 231.548 785.837 230.63C785.837 229.713 785.093 228.969 784.175 228.969C783.258 228.969 782.514 229.713 782.514 230.63C782.514 231.548 783.258 232.292 784.175 232.292Z" fill="white"/>
<path d="M814.771 184.389C815.688 184.389 816.432 183.645 816.432 182.728C816.432 181.81 815.688 181.066 814.771 181.066C813.853 181.066 813.109 181.81 813.109 182.728C813.109 183.645 813.853 184.389 814.771 184.389Z" fill="white"/>
<path d="M692.852 163.947C692.852 164.862 692.105 165.608 691.19 165.608C690.275 165.608 689.529 164.862 689.529 163.947C689.529 163.031 690.275 162.285 691.19 162.285C692.12 162.285 692.852 163.031 692.852 163.947Z" fill="white"/>
<path d="M692.836 194.783C692.836 195.698 692.09 196.444 691.175 196.444C690.259 196.444 689.513 195.698 689.513 194.783C689.513 193.867 690.259 193.121 691.175 193.121C692.104 193.121 692.836 193.867 692.836 194.783Z" fill="white"/>
<path d="M915.571 406.139C916.489 406.139 917.232 405.395 917.232 404.478C917.232 403.56 916.489 402.816 915.571 402.816C914.653 402.816 913.91 403.56 913.91 404.478C913.91 405.395 914.653 406.139 915.571 406.139Z" fill="white"/>
<path d="M890.635 494.661C890.635 495.577 889.889 496.323 888.973 496.323C888.058 496.323 887.312 495.577 887.312 494.661C887.312 493.746 888.058 493 888.973 493C889.889 493 890.635 493.746 890.635 494.661Z" fill="white"/>
<path d="M891.648 564.073C892.566 564.073 893.31 563.329 893.31 562.411C893.31 561.494 892.566 560.75 891.648 560.75C890.731 560.75 889.987 561.494 889.987 562.411C889.987 563.329 890.731 564.073 891.648 564.073Z" fill="white"/>
<path d="M773.995 618.31C773.995 619.225 773.249 619.971 772.334 619.971C771.418 619.971 770.672 619.225 770.672 618.31C770.672 617.395 771.418 616.648 772.334 616.648C773.263 616.663 773.995 617.395 773.995 618.31Z" fill="white"/>
<path d="M723.249 625.029C723.249 625.944 722.503 626.69 721.588 626.69C720.673 626.69 719.926 625.944 719.926 625.029C719.926 624.113 720.673 623.367 721.588 623.367C722.517 623.381 723.249 624.113 723.249 625.029Z" fill="white"/>
<path d="M697.525 582.745C698.442 582.745 699.186 582.001 699.186 581.083C699.186 580.166 698.442 579.422 697.525 579.422C696.607 579.422 695.863 580.166 695.863 581.083C695.863 582.001 696.607 582.745 697.525 582.745Z" fill="white"/>
<path d="M753.791 574.733C754.709 574.733 755.453 573.989 755.453 573.072C755.453 572.154 754.709 571.41 753.791 571.41C752.874 571.41 752.13 572.154 752.13 573.072C752.13 573.989 752.874 574.733 753.791 574.733Z" fill="white"/>
<path d="M744.82 542.165C744.82 543.081 744.074 543.827 743.158 543.827C742.243 543.827 741.497 543.081 741.497 542.165C741.497 541.25 742.243 540.504 743.158 540.504C744.074 540.518 744.82 541.25 744.82 542.165Z" fill="white"/>
<path d="M718.816 549.276C719.733 549.276 720.477 548.532 720.477 547.615C720.477 546.697 719.733 545.953 718.816 545.953C717.898 545.953 717.154 546.697 717.154 547.615C717.154 548.532 717.898 549.276 718.816 549.276Z" fill="white"/>
<path d="M493.323 492.378C494.241 492.378 494.984 491.634 494.984 490.716C494.984 489.799 494.241 489.055 493.323 489.055C492.405 489.055 491.661 489.799 491.661 490.716C491.661 491.634 492.405 492.378 493.323 492.378Z" fill="white"/>
<path d="M532.254 528.001C532.254 528.916 531.508 529.663 530.593 529.663C529.678 529.663 528.931 528.916 528.931 528.001C528.931 527.086 529.678 526.34 530.593 526.34C531.508 526.34 532.254 527.086 532.254 528.001Z" fill="white"/>
<path d="M645.008 490.716C645.008 491.631 644.262 492.378 643.347 492.378C642.432 492.378 641.685 491.631 641.685 490.716C641.685 489.801 642.432 489.055 643.347 489.055C644.276 489.069 645.008 489.801 645.008 490.716Z" fill="white"/>
<path d="M599.587 408.995C600.505 408.995 601.248 408.251 601.248 407.333C601.248 406.416 600.505 405.672 599.587 405.672C598.669 405.672 597.925 406.416 597.925 407.333C597.925 408.251 598.669 408.995 599.587 408.995Z" fill="white"/>
<path d="M522.805 404.447C522.805 405.362 522.059 406.108 521.144 406.108C520.229 406.108 519.482 405.362 519.482 404.447C519.482 403.531 520.229 402.785 521.144 402.785C522.059 402.785 522.805 403.531 522.805 404.447Z" fill="white"/>
<path d="M391.368 216.634C391.368 217.549 390.622 218.296 389.707 218.296C388.791 218.296 388.045 217.549 388.045 216.634C388.045 215.719 388.791 214.973 389.707 214.973C390.636 214.973 391.368 215.719 391.368 216.634Z" fill="white"/>
<path d="M426.33 185.603C426.33 186.518 425.584 187.264 424.669 187.264C423.754 187.264 423.007 186.518 423.007 185.603C423.007 184.688 423.754 183.941 424.669 183.941C425.598 183.955 426.33 184.688 426.33 185.603Z" fill="white"/>
<path d="M400.691 205.905C401.609 205.905 402.353 205.161 402.353 204.243C402.353 203.326 401.609 202.582 400.691 202.582C399.774 202.582 399.03 203.326 399.03 204.243C399.03 205.161 399.774 205.905 400.691 205.905Z" fill="white"/>
<path d="M482.005 175.001C482.005 175.916 481.259 176.663 480.344 176.663C479.429 176.663 478.682 175.916 478.682 175.001C478.682 174.086 479.429 173.34 480.344 173.34C481.273 173.354 482.005 174.086 482.005 175.001Z" fill="white"/>
<path d="M517.88 205.708C517.88 206.624 517.133 207.37 516.218 207.37C515.303 207.37 514.557 206.624 514.557 205.708C514.557 204.793 515.303 204.047 516.218 204.047C517.133 204.047 517.88 204.793 517.88 205.708Z" fill="white"/>
<path d="M386.3 133.775C386.3 134.69 385.554 135.436 384.639 135.436C383.723 135.436 382.977 134.69 382.977 133.775C382.977 132.86 383.723 132.113 384.639 132.113C385.554 132.127 386.3 132.86 386.3 133.775Z" fill="white"/>
<path d="M307.636 199.346C308.554 199.346 309.298 198.602 309.298 197.685C309.298 196.767 308.554 196.023 307.636 196.023C306.718 196.023 305.975 196.767 305.975 197.685C305.975 198.602 306.718 199.346 307.636 199.346Z" fill="white"/>
<path d="M620.974 575.353C620.974 576.268 620.227 577.014 619.312 577.014C618.397 577.014 617.651 576.268 617.651 575.353C617.651 574.438 618.397 573.691 619.312 573.691C620.227 573.691 620.974 574.452 620.974 575.353Z" fill="white"/>
</svg>
