<svg width="90" height="90" viewBox="0 0 90 90" fill="none" xmlns="http://www.w3.org/2000/svg">
<circle cx="45" cy="45" r="45" fill="white"/>
<path d="M63.8621 44.8026C63.8621 45.7664 63.3708 45.9235 62.1521 45.9235C60.8543 45.9235 60.6191 45.7071 60.4808 44.7245C60.2256 42.2278 58.5346 40.1048 55.7037 39.8686C54.7995 39.7894 54.5841 39.4553 54.5841 38.3356C54.5841 37.2937 54.7412 36.8015 55.5468 36.8015C60.4609 36.8214 63.8621 40.773 63.8621 44.8026ZM71.0181 44.8026C71.0181 37.3126 65.9466 29.3906 54.2291 29.3906H30.9543C30.4819 29.3906 30.1873 29.6268 30.1873 30.0587C30.1873 30.2949 30.3643 30.5114 30.5215 30.6289C31.3664 31.2972 32.6246 32.0443 34.2764 32.8697C35.8885 33.6763 37.1467 34.2069 38.4049 34.718C38.9357 34.9345 39.1323 35.1696 39.1323 35.4653C39.1323 35.8784 38.8368 36.1334 38.2664 36.1334H19.7885C19.2378 36.1334 18.9819 36.4871 18.9819 36.8411C18.9819 37.1355 19.0796 37.3916 19.3357 37.6477C20.8302 39.2202 23.228 41.1071 26.7082 43.2894C29.7543 45.196 33.5291 47.2599 36.5369 48.695C37.0478 48.9311 37.2049 49.2059 37.2049 49.5015C37.1861 49.8356 36.9302 50.1103 36.3401 50.1103H27.8676C27.396 50.1103 27.1204 50.3664 27.1204 50.7597C27.1204 50.9752 27.2972 51.251 27.5334 51.4674C29.4599 53.2168 32.5467 55.1234 36.6544 56.873C42.1401 59.2125 47.7028 60.6081 53.9543 60.6081C65.8082 60.6081 71.0181 51.7422 71.0181 44.8026ZM55.5466 55.4377C49.728 55.4377 44.8719 50.7004 44.8719 44.8026C44.8719 38.984 49.728 34.3247 55.5466 34.3247C61.5234 34.3247 66.1819 38.984 66.1819 44.8026C66.162 50.7003 61.5039 55.4377 55.5466 55.4377Z" fill="#FF642D"/>
</svg>
