<svg width="570" height="569" viewBox="0 0 570 569" fill="none" xmlns="http://www.w3.org/2000/svg">
<path d="M504.369 214.683L488.784 174.585L519.987 113.674L454.628 48.3148L394.463 82.4713L355.825 66.887L337.219 0H240.657L224.326 65.3591L181.24 80.9435L123.317 47.5339L55.7165 115.881L92.1139 173.804L69.0939 215.396L0 233.969V328.323L69.0939 346.896L87.6661 386.247L54.9696 447.905L122.57 515.505L181.24 479.108L225.073 502.128L242.898 568.981L354.535 564.261L338 460.502C314.233 467.326 293.76 468.107 267.073 464.304C183.345 452.353 118.224 382.75 111.942 298.445C103.76 188.981 192.716 98.0896 301.535 103.047C392.766 107.189 467.666 180.12 474.253 271.215C476.086 296.544 475 313.282 467.394 335.623L563.446 353.652L569.762 231.762L504.369 214.683Z" fill="#EDF9F9"/>
<path d="M460.194 400.27L431.64 373.277L393.987 384.516L384.887 422.747L413.441 449.739L451.095 438.501L460.194 400.27ZM407.975 426.923C399.453 418.876 399.079 405.465 407.126 396.942C415.173 388.42 428.584 388.047 437.107 396.094C445.629 404.14 446.002 417.552 437.955 426.074C429.875 434.596 416.463 434.97 407.975 426.923Z" fill="white"/>
<path d="M398.093 336.573L464.573 401.185C464.573 401.185 458.869 329.375 443.047 313.179C427.428 297.188 356.739 289.786 356.739 289.786L356.501 290.024C349.778 284.863 343.09 279.702 336.673 274.168C332.021 270.161 327.335 266.189 322.684 262.148C296.269 239.23 269.752 216.346 242.521 194.379C239.669 192.07 234.78 189.625 231.249 191.9C227.65 194.209 226.326 197.672 221.165 197.366C214.171 196.959 212.847 188.98 206.735 187.52C202.932 186.603 201.133 188.64 198.485 190.847C195.87 193.02 192.679 194.005 189.182 193.36C183.511 192.307 180.829 186.875 176.212 183.989C173.767 182.461 162.155 183.548 165.109 196.823C165.55 198.826 169.353 200.66 170.745 201.984C172.545 203.749 173.563 205.345 173.122 208.061C172.714 210.438 171.492 212.611 170.881 214.954C168.233 225.208 178.792 231.455 185.447 237.159C220.622 267.275 247.988 292.909 282.042 327.609C286.728 332.363 294.096 340.036 301.056 347.336C301.735 356.367 306.998 419.01 321.869 433.61C338.404 449.805 412.387 453.269 412.387 453.269L346.994 387.57L398.093 336.573ZM295.691 314.775C292.398 318.238 286.83 318.374 283.367 315.081L209.689 244.9C206.226 241.607 206.09 236.039 209.383 232.575C212.677 229.112 218.245 228.976 221.708 232.27L295.386 302.45C298.883 305.778 298.985 311.312 295.691 314.775ZM354.192 315.794L373.545 335.147L368.588 340.104L349.235 320.751L354.192 315.794ZM342.954 327.032L362.307 346.385L357.35 351.342L337.997 331.989L342.954 327.032ZM326.758 343.228L331.715 338.27L351.068 357.624L346.111 362.581L326.758 343.228Z" fill="#000A21"/>
</svg>
