<svg width="68" height="51" viewBox="0 0 68 51" fill="none" xmlns="http://www.w3.org/2000/svg">
<circle cx="25.1306" cy="25.1306" r="24.1451" stroke="url(#paint0_linear_243_12390)" stroke-width="1.97102"/>
<circle cx="42.8691" cy="25.1306" r="25.1306" fill="url(#paint1_linear_243_12390)"/>
<path d="M48.9276 18.2907C49.2419 18.422 49.4917 18.6718 49.623 18.9861L49.6244 18.9889C49.6926 19.1435 49.7306 19.3102 49.7349 19.4791L49.7342 19.4798V29.7591L49.7349 29.7598C49.7356 29.9307 49.7019 30.1004 49.6368 30.2584C49.5718 30.4161 49.4764 30.5596 49.3558 30.6803C49.2349 30.8011 49.0912 30.897 48.9332 30.962C48.7753 31.027 48.606 31.06 48.4353 31.0594H48.4339C48.2632 31.0601 48.0939 31.027 47.936 30.962C47.7781 30.897 47.6342 30.8011 47.5134 30.6803C47.3926 30.5595 47.2967 30.4157 47.2317 30.2577C47.1667 30.0997 47.1336 29.9306 47.1343 29.7598L47.1336 29.7591L47.144 22.9857L47.1447 22.5997L38.0421 31.7023C37.7993 31.945 37.4703 32.0814 37.1271 32.0814C36.7839 32.0814 36.4549 31.9449 36.2121 31.7023C35.9695 31.4596 35.8331 31.1305 35.833 30.7873C35.833 30.4441 35.9687 30.1144 36.2114 29.8717L45.3141 20.7691L44.9287 20.7704L38.1546 20.7801C37.81 20.78 37.4793 20.6433 37.2355 20.3996C36.9917 20.1558 36.8543 19.8247 36.8543 19.4798C36.8543 19.135 36.9917 18.8039 37.2355 18.56C37.3562 18.4394 37.4998 18.3443 37.6574 18.279C37.8151 18.2137 37.984 18.1796 38.1546 18.1796H48.4311C48.6013 18.1833 48.7691 18.2206 48.9249 18.2893L48.9276 18.2907Z" fill="white" stroke="#2378DA" stroke-width="0.318752"/>
<defs>
<linearGradient id="paint0_linear_243_12390" x1="-16.1984" y1="37.1117" x2="97.9042" y2="-14.676" gradientUnits="userSpaceOnUse">
<stop stop-color="#2378DA"/>
<stop offset="0.951841" stop-color="#042F61"/>
</linearGradient>
<linearGradient id="paint1_linear_243_12390" x1="1.54017" y1="37.1117" x2="115.643" y2="-14.676" gradientUnits="userSpaceOnUse">
<stop stop-color="#2378DA"/>
<stop offset="0.951841" stop-color="#042F61"/>
</linearGradient>
</defs>
</svg>
