<svg width="36" height="36" viewBox="0 0 36 36" fill="none" xmlns="http://www.w3.org/2000/svg">
<path d="M18.8008 6.03902L31.5906 15.6335C32.6098 16.4015 34.0567 16.2253 34.8054 15.2306C35.554 14.2421 35.3275 12.8005 34.3021 12.0261L29.6152 8.50689V2.30575C29.6152 1.6699 29.0993 1.15996 28.4702 1.15996H25.57C24.9346 1.15996 24.4251 1.67619 24.4251 2.30575V4.61622L18.8008 0.391899C18.1025 -0.130633 17.1462 -0.130633 16.4479 0.391899L0.940361 12.0261C-0.0787978 12.7942 -0.305278 14.2359 0.437073 15.2306C1.18571 16.219 2.63267 16.4015 3.65183 15.6335L16.4416 6.03902C17.14 5.51649 18.0962 5.51649 18.7945 6.03902H18.8008Z" fill="#4C5364"/>
<path d="M21.2995 16.2271C21.0542 15.9816 20.6515 15.9816 20.4062 16.2271L14.8574 21.7798H16.6378L21.2995 17.1148C21.5449 16.8693 21.5449 16.4726 21.2995 16.2271Z" fill="#4C5364"/>
<path d="M16.5304 17.4512C16.5304 16.702 15.9264 16.0977 15.1778 16.0977C14.4291 16.0977 13.8252 16.702 13.8252 17.4512C13.8252 18.2004 14.4291 18.8048 15.1778 18.8048C15.9264 18.8048 16.5304 18.2004 16.5304 17.4512Z" fill="#4C5364"/>
<path d="M18.834 21.7774H21.2624C21.0485 21.3241 20.5829 21.0156 20.0482 21.0156C19.5134 21.0156 19.0479 21.3241 18.834 21.7774Z" fill="#4C5364"/>
<path d="M17.6238 12.3665C21.7886 12.3665 25.1669 15.7472 25.1669 19.9148C25.1669 20.5633 25.0788 21.1865 24.9215 21.7846H31.5398L31.5209 17.0378C31.2818 16.9307 31.0491 16.7985 30.8289 16.6411L18.0391 7.04671C17.8818 6.93338 17.7245 6.9082 17.6176 6.9082C17.5106 6.9082 17.3533 6.93338 17.196 7.04671L4.40623 16.6411C4.19862 16.7985 3.97843 16.9182 3.75195 17.0252L3.79599 29.6667C3.79599 31.0013 4.87806 32.0842 6.21178 32.0842H11.7731V24.6806C10.7099 23.3774 10.0745 21.7217 10.0745 19.9085C10.0745 15.7409 13.4528 12.3602 17.6176 12.3602L17.6238 12.3665Z" fill="#4C5364"/>
<path d="M24.5639 26.5703H22.815C22.6074 26.5703 22.4375 26.7403 22.4375 26.948V28.5156H24.9351V26.948C24.9351 26.7403 24.7652 26.5703 24.5576 26.5703H24.5639Z" fill="#4C5364"/>
<path d="M33.7789 23.0469H14.4966C13.6914 23.0469 13.0371 23.7016 13.0371 24.5074V33.7997C13.0371 34.6055 13.6914 35.2603 14.4966 35.2603H33.7789C34.5841 35.2603 35.2384 34.6055 35.2384 33.7997V24.5074C35.2384 23.7016 34.5841 23.0469 33.7789 23.0469ZM20.102 26.5976H18.8375V32.3391C18.8375 32.6854 18.5544 32.9687 18.2084 32.9687C17.8624 32.9687 17.5793 32.6854 17.5793 32.3391V26.5976H16.3148C15.9688 26.5976 15.6857 26.3143 15.6857 25.968C15.6857 25.6218 15.9688 25.3385 16.3148 25.3385H20.102C20.448 25.3385 20.7311 25.6218 20.7311 25.968C20.7311 26.3143 20.448 26.5976 20.102 26.5976ZM26.1981 32.358C26.1981 32.7043 25.915 32.9876 25.569 32.9876C25.223 32.9876 24.9399 32.7043 24.9399 32.358V29.7831H22.4423V32.358C22.4423 32.7043 22.1592 32.9876 21.8132 32.9876C21.4672 32.9876 21.1841 32.7043 21.1841 32.358V26.9564C21.1841 26.0562 21.9202 25.3196 22.8198 25.3196H24.5687C25.4683 25.3196 26.2044 26.0562 26.2044 26.9564V32.358H26.1981ZM32.2564 32.0118C32.4389 32.3077 32.3445 32.698 32.0488 32.8743C31.9482 32.9372 31.8349 32.9687 31.7217 32.9687C31.5078 32.9687 31.3002 32.8617 31.1807 32.6665L29.784 30.3686L28.3874 32.6665C28.2679 32.8617 28.0603 32.9687 27.8464 32.9687C27.7331 32.9687 27.6199 32.9372 27.5192 32.8743C27.2236 32.6917 27.1292 32.3077 27.3116 32.0118L29.048 29.1536L27.3116 26.2954C27.1292 25.9995 27.2236 25.6092 27.5192 25.4329C27.8149 25.2566 28.205 25.3448 28.3811 25.6407L29.7777 27.9385L31.1744 25.6407C31.3568 25.3448 31.7406 25.2503 32.0362 25.4329C32.3319 25.6155 32.4263 25.9995 32.2439 26.2954L30.5075 29.1536L32.2439 32.0118H32.2564Z" fill="#4C5364"/>
</svg>
