<svg width="67" height="69" viewBox="0 0 67 69" fill="none" xmlns="http://www.w3.org/2000/svg">
<path d="M58.3615 1.85156H51.0526C50.1596 1.85156 49.3207 2.19877 48.6897 2.82976L45.2312 6.28932C44.5573 6.96325 45.0457 8.10642 45.9838 8.10642C46.7581 8.10642 46.7399 7.64325 50.195 4.335C50.8161 3.71389 50.9703 4.09764 58.3615 3.98052C58.9499 3.98052 59.426 3.50442 59.426 2.91604C59.426 2.32767 58.9499 1.85156 58.3615 1.85156Z" fill="#2378DA"/>
<path d="M57.8262 20.8605C58.4136 20.8605 58.8907 20.3844 58.8907 19.796C58.8907 19.2087 58.4146 18.7315 57.8262 18.7315L50.958 18.7305C50.3707 18.7305 49.8936 19.2066 49.8936 19.7949C49.8936 20.3823 50.3697 20.8594 50.958 20.8594L57.8262 20.8605Z" fill="#2378DA"/>
<path d="M49.2224 35.448C49.8503 36.0634 50.6798 36.4023 51.5593 36.4023H58.363C58.9514 36.4023 59.4275 35.9262 59.4275 35.3379C59.4275 34.7495 58.9514 34.2734 58.363 34.2734C51.5329 34.1605 51.3297 34.5336 50.712 33.9272L47.4833 30.7681C47.0643 30.3564 46.3907 30.3658 45.978 30.7847C45.5674 31.2047 45.5747 31.8783 45.9947 32.2899L49.2224 35.448Z" fill="#2378DA"/>
<path d="M21.6001 7.79456C22.0159 7.37875 22.0159 6.70513 21.6001 6.28932L18.1416 2.8308C17.521 2.20812 16.6592 1.85156 15.7777 1.85156H8.46975C7.88138 1.85156 7.40527 2.32767 7.40527 2.91604C7.40527 3.50442 7.88138 3.98052 8.46975 3.98052H15.7777C16.0978 3.98052 16.4097 4.10942 16.6353 4.335L20.0948 7.79456C20.5106 8.21036 21.1842 8.21039 21.6001 7.79456Z" fill="#2378DA"/>
<path d="M15.8761 18.7305L9.00686 18.7315C8.41849 18.7315 7.94238 19.2087 7.94238 19.796C7.94238 20.3844 8.41953 20.8605 9.00686 20.8605L15.8761 20.8594C16.4645 20.8594 16.9406 20.3823 16.9406 19.7949C16.9406 19.2066 16.4634 18.7305 15.8761 18.7305Z" fill="#2378DA"/>
<path d="M15.2737 36.4023C16.1542 36.4023 16.9837 36.0634 17.6106 35.4491L20.8393 32.2899C21.2593 31.8783 21.2666 31.2047 20.856 30.7847C20.4454 30.3658 19.7717 30.3564 19.3507 30.7681C16.2278 33.6811 16.1287 34.2734 15.2737 34.2734H7.96682C7.37845 34.2734 6.90234 34.7495 6.90234 35.3379C6.90234 35.9262 7.37845 36.4023 7.96682 36.4023H15.2737Z" fill="#2378DA"/>
<path d="M2.91861 0C1.30669 0 0 1.30669 0 2.91848C0 4.53028 1.30669 5.83697 2.91861 5.83697C4.53041 5.83697 5.8371 4.53028 5.8371 2.91848C5.8371 1.30669 4.53041 0 2.91861 0Z" fill="#2378DA"/>
<path d="M2.91861 32.418C1.30669 32.418 0 33.7247 0 35.3365C0 36.9482 1.30669 38.2549 2.91861 38.2549C4.53041 38.2549 5.8371 36.9482 5.8371 35.3365C5.8371 33.7247 4.53041 32.418 2.91861 32.418Z" fill="#2378DA"/>
<path d="M63.9206 0C62.3086 0 61.002 1.30669 61.002 2.91848C61.002 4.53028 62.3086 5.83697 63.9206 5.83697C65.5324 5.83697 66.8391 4.53028 66.8391 2.91848C66.8391 1.30669 65.5324 0 63.9206 0Z" fill="#2378DA"/>
<path d="M63.9206 32.418C62.3086 32.418 61.002 33.7247 61.002 35.3365C61.002 36.9482 62.3086 38.2549 63.9206 38.2549C65.5324 38.2549 66.8391 36.9482 66.8391 35.3365C66.8391 33.7247 65.5324 32.418 63.9206 32.418Z" fill="#2378DA"/>
<path d="M58.5286 47.4919C57.6058 45.0394 55.7336 43.0614 53.335 42.0062L46.3067 38.9137C45.2236 38.4371 44.0088 38.4844 42.9078 38.9179C35.2725 41.9235 27.4209 40.1795 24.3352 38.9569C23.2802 38.5389 22.1216 38.54 21.083 38.9969L14.2455 42.0062C11.8469 43.0614 9.9747 45.0394 9.05185 47.4919L7.36327 62.3226C7.0106 65.4202 9.43323 68.1348 12.5508 68.1348H55.0297C58.1472 68.1348 60.57 65.4202 60.2172 62.3221L58.5286 47.4919ZM37.8679 45.0633C37.3185 45.7874 36.8235 46.5781 36.1923 47.2055C35.6505 47.7435 35.6832 48.3247 35.7726 48.9641C36.2702 52.5171 36.7767 56.3259 37.284 59.9142C37.3465 60.3566 37.0324 60.7434 36.6224 60.7434H31.8679C31.456 60.7434 31.142 60.341 31.2075 59.8971C32.0688 54.0512 32.2939 52.247 32.7645 49.1283C32.8783 48.3746 32.8975 47.7269 32.3215 47.128C31.7401 46.524 31.2661 45.7963 30.7421 45.1257C30.181 44.4073 30.3074 43.9176 31.1381 43.653C31.451 43.5539 31.3662 43.552 36.7175 43.5802C36.982 43.5818 37.2593 43.6078 37.5081 43.6972C38.2564 43.9659 38.3656 44.4073 37.8679 45.0633Z" fill="#2378DA"/>
<path d="M43.7168 23.47C43.8815 23.0255 44.2436 22.6632 44.721 22.5645L46.7623 22.1034C47.3549 21.9547 47.7665 21.4447 47.7665 20.8355V18.7281C47.7665 18.1355 47.3549 17.6084 46.7623 17.4769L44.721 17.0158C44.2436 16.9009 43.8815 16.5553 43.7168 16.1108C43.515 15.4627 42.9836 14.8053 43.4863 14.0195L44.6058 12.2412C44.9185 11.7307 44.8363 11.0726 44.4248 10.6609L42.9265 9.16228C42.4986 8.73446 41.8401 8.66844 41.3298 8.98138L39.5683 10.1006C39.1567 10.348 38.6464 10.3646 38.2019 10.1666C37.9715 10.0512 37.7245 9.95294 37.4776 9.87028C37.0332 9.68886 36.6709 9.32706 36.5721 8.86598L36.0947 6.80798C35.963 6.23202 35.4527 5.82031 34.8437 5.82031H32.7364C32.1437 5.82031 31.617 6.23202 31.4853 6.80798L31.0243 8.86598C30.7944 9.78572 29.9324 9.8891 29.3781 10.1666C28.9335 10.3646 28.4398 10.348 28.0282 10.1006L26.2503 8.98138C25.7398 8.66844 25.0814 8.73446 24.6534 9.16228L23.1718 10.6609C22.7438 11.0726 22.6614 11.7307 22.9907 12.2412L24.1101 14.0195C24.3571 14.4312 24.3736 14.9246 24.176 15.3695C23.8321 16.1063 23.7385 16.8042 22.8589 17.0158L20.8177 17.4769C20.2415 17.6084 19.8135 18.1355 19.8135 18.7281V20.8355C19.8135 21.4447 20.2415 21.9547 20.8177 22.1034L22.8589 22.5645C23.3364 22.6632 23.6986 23.0255 23.8632 23.47C23.962 23.7169 24.0607 23.9638 24.176 24.2107C24.3736 24.6391 24.3571 25.1496 24.1101 25.5613L22.9907 27.3391C22.6614 27.8329 22.7438 28.5076 23.1718 28.9193L24.6534 30.418C25.0814 30.8458 25.7398 30.9118 26.2503 30.5989L28.0281 29.4792C28.8026 28.9843 29.4519 29.4923 30.1025 29.71C30.5634 29.8743 30.909 30.2532 31.0243 30.7143L31.4853 32.7557C31.617 33.3483 32.1437 33.76 32.7364 33.76H34.8437C35.4527 33.76 35.963 33.3483 36.0947 32.7557L36.5721 30.7143C36.6709 30.2532 37.0332 29.8743 37.4776 29.71C37.7245 29.6273 37.9715 29.5286 38.2019 29.4137C38.6464 29.2162 39.1567 29.2162 39.5683 29.4792L41.3298 30.5989C41.8401 30.9118 42.4986 30.8458 42.9265 30.418L44.4248 28.9193C44.8363 28.5076 44.9185 27.8329 44.6058 27.3391L43.4863 25.5613C43.2229 25.1496 43.2229 24.6391 43.4206 24.2107C43.5193 23.9638 43.6346 23.7169 43.7168 23.47ZM33.793 27.3167C29.6361 27.3167 26.2664 23.9467 26.2664 19.7891C26.2664 15.6315 29.6361 12.2615 33.793 12.2615C37.9499 12.2615 41.3197 15.6315 41.3197 19.7891C41.3197 23.9467 37.9499 27.3167 33.793 27.3167Z" fill="#2378DA"/>
<path d="M33.0574 13.9147C30.3553 14.4874 29.2018 17.6091 30.8796 19.8031C31.2345 20.2631 31.541 20.7548 31.8878 21.2309C32.0835 21.5346 32.0652 21.6541 32.0815 22.0136C32.0815 22.0214 32.0815 22.0292 32.0895 22.0376C32.0976 22.1665 32.2024 22.2636 32.3395 22.2636H35.195C35.324 22.2636 35.445 22.1665 35.453 22.0376V22.0053C35.453 21.8305 35.449 21.606 35.5337 21.4648C35.921 20.9003 36.3 20.3275 36.7033 19.7709C38.7903 16.9121 36.2332 13.2328 33.0574 13.9147Z" fill="#2378DA"/>
<path d="M35.7604 22.8477H31.7919C31.6224 22.8477 31.4854 22.9454 31.4854 23.0592V23.6554C31.4854 23.7557 31.5953 23.8669 31.7919 23.8669C35.4377 23.8015 36.075 24.0237 36.075 23.6554V23.0592C36.075 22.9454 35.9297 22.8477 35.7604 22.8477Z" fill="#2378DA"/>
<path d="M35.2046 24.3945H32.3527C32.2325 24.3945 32.1392 24.5 32.1539 24.6191C32.155 24.6284 32.1562 24.6383 32.1574 24.6477C32.4256 26.4767 35.1311 26.4795 35.4001 24.6477C35.4012 24.6383 35.4024 24.6284 35.4036 24.6191C35.4183 24.5 35.325 24.3945 35.2046 24.3945Z" fill="#2378DA"/>
</svg>
