<svg width="90" height="90" viewBox="0 0 90 90" fill="none" xmlns="http://www.w3.org/2000/svg">
<circle cx="45" cy="45" r="45" fill="white"/>
<path d="M45.0016 18.7324C30.5162 18.7324 18.7324 30.5157 18.7324 45C18.7324 59.4854 30.5167 71.2698 45.0011 71.2698C59.4849 71.2698 71.2681 59.4854 71.2681 45C71.2687 30.5162 59.4854 18.7324 45.0016 18.7324ZM21.3833 45C21.3833 41.5767 22.1175 38.3253 23.4282 35.3889L34.6945 66.2562C26.8166 62.4273 21.3833 54.3485 21.3833 45ZM45.0016 68.6194C42.6832 68.6194 40.4456 68.2793 38.3297 67.657L45.4154 47.0662L52.6764 66.955C52.7234 67.0723 52.7807 67.1793 52.8446 67.2803C50.3897 68.1439 47.7519 68.6194 45.0016 68.6194ZM48.2557 33.927C49.6773 33.8522 50.9596 33.7021 50.9596 33.7021C52.2315 33.5514 52.0825 31.6817 50.8084 31.7565C50.8084 31.7565 46.9832 32.0562 44.5131 32.0562C42.193 32.0562 38.292 31.7565 38.292 31.7565C37.019 31.6817 36.8705 33.6273 38.143 33.7021C38.143 33.7021 39.3483 33.8522 40.6197 33.927L44.2991 44.0092L39.1305 59.51L30.5315 33.9275C31.9552 33.8533 33.2348 33.7026 33.2348 33.7026C34.5067 33.5525 34.3566 31.6817 33.083 31.7581C33.083 31.7581 29.2595 32.0578 26.7888 32.0578C26.345 32.0578 25.8226 32.0464 25.269 32.0294C29.491 25.6168 36.7509 21.3833 45.0016 21.3833C51.1512 21.3833 56.7488 23.7339 60.9501 27.5831C60.848 27.5776 60.7492 27.564 60.6433 27.564C58.3243 27.564 56.6779 29.5849 56.6779 31.7559C56.6779 33.7015 57.7997 35.349 58.9969 37.2946C59.896 38.8679 60.9441 40.8894 60.9441 43.8083C60.9441 45.8303 60.1678 48.1755 59.1464 51.4432L56.7909 59.3157L48.2557 33.927ZM56.8744 65.4155L64.0885 44.5578C65.4374 41.1891 65.8845 38.4951 65.8845 36.098C65.8845 35.2295 65.8277 34.4221 65.7251 33.6693C67.5702 37.0337 68.62 40.8948 68.6189 45.0011C68.6183 53.7136 63.8952 61.3213 56.8744 65.4155Z" fill="#28799E"/>
</svg>
