<svg width="49" height="49" viewBox="0 0 49 49" fill="none" xmlns="http://www.w3.org/2000/svg">
<path d="M24.125 0C25.5126 0.000259845 26.6376 1.12509 26.6377 2.5127V18.0576L37.6289 7.06641C38.6103 6.08503 40.2022 6.08503 41.1836 7.06641C42.1645 8.04781 42.1648 9.63888 41.1836 10.6201L30.1924 21.6113H45.7363C47.1239 21.6115 48.2488 22.7364 48.249 24.124C48.249 25.5118 47.1241 26.6376 45.7363 26.6377H30.1914L41.1826 37.6289C42.164 38.6103 42.164 40.2012 41.1826 41.1826C40.2012 42.1639 38.6103 42.164 37.6289 41.1826L26.6377 30.1914V45.7363C26.6376 47.1239 25.5126 48.2488 24.125 48.249C22.7372 48.249 21.6115 47.1241 21.6113 45.7363V30.1924L10.6201 41.1836C9.63887 42.1648 8.04779 42.1645 7.06641 41.1836C6.08503 40.2022 6.08503 38.6103 7.06641 37.6289L18.0576 26.6377H2.5127C1.12493 26.6376 -6.06624e-08 25.5118 0 24.124C0.000262629 22.7365 1.1251 21.6115 2.5127 21.6113H18.0576L7.06543 10.6191C6.08451 9.63775 6.08426 8.04667 7.06543 7.06543C8.04681 6.08405 9.63874 6.08405 10.6201 7.06543L21.6113 18.0566V2.5127C21.6115 1.12493 22.7372 0 24.125 0Z" fill="white"/>
</svg>
