<svg width="70" height="70" viewBox="0 0 70 70" fill="none" xmlns="http://www.w3.org/2000/svg">
<path d="M68.1584 29.3307L60.9314 26.5334C60.4092 24.7916 59.7078 23.1018 58.8424 21.4953L61.976 14.4051C62.1359 14.0441 62.0566 13.6217 61.7777 13.3414L55.9808 7.54453C55.7019 7.26562 55.2795 7.18633 54.9172 7.34629L47.8269 10.4799C46.2219 9.61445 44.5306 8.91309 42.7902 8.39082L39.9929 1.16387C39.8508 0.794727 39.4953 0.552734 39.1002 0.552734H30.9025C30.5074 0.552734 30.1533 0.796094 30.0097 1.16387L27.2125 8.39082C25.472 8.91309 23.7808 9.61445 22.1758 10.4799L15.0842 7.34629C14.7232 7.18633 14.2994 7.26562 14.0205 7.54453L8.22361 13.3414C7.9447 13.6203 7.86541 14.0428 8.02537 14.4051L11.159 21.4953C10.2935 23.099 9.59353 24.7902 9.0699 26.5334L1.84294 29.3307C1.4738 29.4729 1.23181 29.8283 1.23181 30.2234V38.4211C1.23181 38.8162 1.47517 39.1703 1.84294 39.3139L9.0699 42.1111C9.59216 43.8516 10.2935 45.5414 11.159 47.1479L8.02537 54.2395C7.86541 54.6004 7.9447 55.0229 8.22361 55.3031L14.0205 61.1C14.2994 61.3789 14.7232 61.4582 15.0842 61.2982L22.1744 58.1646C23.7795 59.0301 25.4693 59.7301 27.2125 60.2537L30.0097 67.4807C30.1519 67.8498 30.5074 68.0918 30.9025 68.0918H39.1002C39.4953 68.0918 39.8494 67.8484 39.9929 67.4807L42.7902 60.2537C44.5306 59.7314 46.2205 59.0301 47.8269 58.1646L54.9185 61.2982C55.2795 61.4582 55.7033 61.3789 55.9822 61.1L61.7791 55.3031C62.058 55.0242 62.1373 54.6018 61.9773 54.2395L58.8437 47.1492C59.7092 45.5455 60.4092 43.8543 60.9328 42.1111L68.1597 39.3139C68.5289 39.1717 68.7709 38.8162 68.7709 38.4211V30.2234C68.7709 29.8283 68.5275 29.4742 68.1597 29.3307H68.1584ZM66.8554 37.7648L59.7994 40.4951C59.5177 40.6045 59.3045 40.8383 59.2238 41.1295C58.6865 43.0436 57.9195 44.8947 56.942 46.6324C56.7943 46.8949 56.7793 47.2121 56.901 47.4883L59.9607 54.4117L55.0908 59.2816L48.166 56.2219C47.8898 56.1002 47.5726 56.1152 47.3101 56.2629C45.5711 57.2404 43.7199 58.0088 41.8086 58.5447C41.5187 58.6268 41.2836 58.84 41.1742 59.1203L38.4426 66.1777H31.556L28.8244 59.1217C28.715 58.84 28.4812 58.6268 28.19 58.5461C26.276 58.0088 24.4248 57.2418 22.6871 56.2643C22.4246 56.1166 22.1074 56.1016 21.8312 56.2232L14.9078 59.283L10.0379 54.4131L13.0976 47.4883C13.2193 47.2121 13.2043 46.8949 13.0566 46.6324C12.0791 44.8934 11.3107 43.0422 10.7748 41.1309C10.6927 40.841 10.4795 40.6059 10.1992 40.4965L3.14177 37.7648V30.8783L10.1978 28.1467C10.4795 28.0373 10.6927 27.8035 10.7734 27.5123C11.3107 25.5969 12.0777 23.7457 13.0552 22.0094C13.2029 21.7469 13.2179 21.4297 13.0963 21.1535L10.0365 14.2301L14.9064 9.36016L21.8312 12.4199C22.1074 12.5416 22.4246 12.5266 22.6871 12.3789C24.4261 11.4014 26.2773 10.633 28.1886 10.0971C28.4785 10.015 28.7136 9.80176 28.823 9.52148L31.5547 2.46406H38.4412L41.1728 9.52148C41.2822 9.80312 41.516 10.0164 41.8072 10.0971C43.7199 10.633 45.5711 11.4014 47.3088 12.3789C47.5713 12.5266 47.8885 12.5416 48.1646 12.4199L55.0894 9.36016L59.9594 14.2301L56.8996 21.1535C56.7779 21.4297 56.7929 21.7469 56.9406 22.0094C57.9181 23.7484 58.6865 25.5996 59.2224 27.5123C59.3045 27.8021 59.5177 28.0373 59.798 28.1467L66.8541 30.8783V37.7648H66.8554ZM35 14.9205C24.3017 14.9205 15.5982 23.624 15.5982 34.3223C15.5982 38.2488 16.7658 42.0318 18.9738 45.2611C21.015 48.2471 23.8164 50.5809 27.099 52.0451V53.2141C27.099 57.4633 30.5566 60.9223 34.8072 60.9223H35.1941C39.4447 60.9223 42.9023 57.4647 42.9023 53.2141V52.0438C49.8968 48.9225 54.4031 41.9963 54.4031 34.3223C54.4031 23.624 45.6996 14.9205 35.0013 14.9205H35ZM40.9869 53.2141C40.9869 56.4092 38.3879 59.0082 35.1927 59.0082H34.8058C31.6107 59.0082 29.0117 56.4092 29.0117 53.2141V52.0766H40.9869V53.2141ZM35.957 50.1625V37.0648L38.7174 38.7369C39.0468 38.9365 39.4638 38.9188 39.7756 38.6932C40.0873 38.4662 40.2322 38.0752 40.1447 37.7006L39.1521 33.4691L42.4429 30.6295C42.7342 30.3779 42.8463 29.976 42.7273 29.6096C42.6084 29.2432 42.2816 28.9834 41.8974 28.952L37.5662 28.5883L35.8818 24.5811C35.7328 24.2256 35.3842 23.9945 35 23.9945C34.6158 23.9945 34.2672 24.2256 34.1181 24.5811L32.4338 28.5883L28.1025 28.952C27.7183 28.9848 27.3916 29.2432 27.2726 29.6096C27.1537 29.976 27.2658 30.3779 27.557 30.6295L30.8478 33.4691L29.8552 37.7006C29.7677 38.0752 29.9127 38.4676 30.2244 38.6932C30.3912 38.8148 30.5894 38.8764 30.7877 38.8764C30.9586 38.8764 31.1308 38.8299 31.2826 38.7383L34.0429 37.0662V50.1639H31.1664C31.1336 48.4754 29.9783 46.8033 27.7265 45.1914C24.3031 42.7414 22.2592 38.7232 22.2592 34.4439C22.2592 27.2266 27.974 21.3531 35 21.3531C42.026 21.3531 47.7408 27.2252 47.7408 34.4439C47.7408 38.7232 45.6968 42.7414 42.2734 45.1914C40.0217 46.8033 38.8664 48.4754 38.8336 50.1639H35.957V50.1625ZM32.5363 32.3973L30.5306 30.6664L33.1707 30.4449C33.5261 30.4148 33.8351 30.1906 33.9732 29.8625L35 27.4207L36.0267 29.8625C36.1648 30.1906 36.4738 30.4148 36.8293 30.4449L39.4693 30.6664L37.4636 32.3973C37.1943 32.6297 37.0754 32.9934 37.1574 33.3406L37.7617 35.9205L35.4949 34.5479C35.19 34.3633 34.8086 34.3633 34.5037 34.5479L32.2369 35.9205L32.8412 33.3406C32.9232 32.9934 32.8043 32.6311 32.5349 32.3973H32.5363ZM42.2802 50.224C42.175 50.1844 42.0629 50.1625 41.9439 50.1625H40.7476C40.79 49.1344 41.6978 47.9559 43.3863 46.7459C47.3101 43.9377 49.6535 39.3371 49.6535 34.4412C49.6535 26.1684 43.0801 19.4363 34.9986 19.4363C26.9172 19.4363 20.3437 26.167 20.3437 34.4412C20.3437 39.3371 22.6871 43.9363 26.6109 46.7459C28.2994 47.9545 29.2086 49.133 29.2496 50.1625H28.0533C27.933 50.1625 27.8195 50.1857 27.7142 50.2254C21.4922 47.3789 17.5095 41.2143 17.5095 34.3223C17.5095 24.6795 25.3545 16.8346 34.9972 16.8346C44.64 16.8346 52.4849 24.6795 52.4849 34.3223C52.4849 41.1814 48.4914 47.3775 42.2775 50.224H42.2802Z" fill="url(#paint0_linear_243_12877)"/>
<defs>
<linearGradient id="paint0_linear_243_12877" x1="-20.5349" y1="50.422" x2="132.792" y2="-19.1683" gradientUnits="userSpaceOnUse">
<stop stop-color="#2378DA"/>
<stop offset="0.951841" stop-color="#042F61"/>
</linearGradient>
</defs>
</svg>
