<svg width="68" height="67" viewBox="0 0 68 67" fill="none" xmlns="http://www.w3.org/2000/svg">
<path d="M17.601 18.8154H19.3174C19.6086 22.2869 21.1199 25.5432 23.5833 28.0065C26.0468 30.4698 29.3031 31.981 32.7747 32.2721V33.989C32.7746 34.1485 32.806 34.3063 32.867 34.4536C32.928 34.6009 33.0174 34.7348 33.1301 34.8475C33.2428 34.9602 33.3767 35.0496 33.524 35.1106C33.6713 35.1716 33.8291 35.203 33.9886 35.2029C35.5801 35.1391 35.1503 33.3266 35.2025 32.2721C38.674 31.981 41.9303 30.4698 44.3938 28.0065C46.8572 25.5432 48.3686 22.2869 48.6598 18.8154H50.3761C50.5356 18.8154 50.6934 18.784 50.8407 18.723C50.988 18.6621 51.1219 18.5726 51.2346 18.4599C51.3473 18.3472 51.4367 18.2134 51.4977 18.0661C51.5587 17.9188 51.5901 17.7609 51.59 17.6015C51.5262 16.0103 49.7144 16.4397 48.6597 16.3876C48.3685 12.916 46.8572 9.65978 44.3938 7.19644C41.9303 4.73311 38.674 3.2219 35.2025 2.93086V1.21389C35.2025 1.05447 35.1711 0.896603 35.1101 0.749308C35.0492 0.602013 34.9597 0.468178 34.847 0.355449C34.7343 0.24272 34.6004 0.153307 34.4532 0.0923176C34.3059 0.0313284 34.148 -4.1425e-05 33.9886 4.1055e-08C32.397 0.063863 32.8269 1.87639 32.7747 2.93089C29.3031 3.22191 26.0468 4.73311 23.5833 7.19644C21.1199 9.65977 19.6085 12.916 19.3174 16.3876H17.601C17.2833 16.3939 16.9807 16.5246 16.7582 16.7516C16.5357 16.9785 16.4111 17.2837 16.4111 17.6015C16.4111 17.9193 16.5357 18.2244 16.7582 18.4514C16.9807 18.6783 17.2833 18.809 17.601 18.8154ZM21.7452 18.8154H25.617C25.8812 20.6197 26.7203 22.2908 28.0098 23.5803C29.2992 24.8698 30.9703 25.7089 32.7747 25.973V29.8443C29.9463 29.5601 27.3031 28.3068 25.293 26.2969C23.2829 24.2869 22.0295 21.6437 21.7452 18.8154ZM29.7222 16.3876H28.0702C28.3101 15.2301 28.8833 14.1681 29.7192 13.3323C30.5551 12.4965 31.6172 11.9234 32.7747 11.6837V13.3351C32.7747 13.657 32.9026 13.9658 33.1302 14.1934C33.3579 14.4211 33.6666 14.549 33.9886 14.549C34.3105 14.549 34.6193 14.4211 34.8469 14.1934C35.0746 13.9658 35.2025 13.657 35.2025 13.3351V11.6837C36.36 11.9234 37.4221 12.4965 38.258 13.3323C39.0939 14.1681 39.667 15.2301 39.9069 16.3876C38.8544 16.4305 37.103 16.0349 37.0411 17.6015C37.0411 17.7609 37.0724 17.9188 37.1334 18.0661C37.1944 18.2134 37.2838 18.3472 37.3965 18.4599C37.5093 18.5727 37.6431 18.6621 37.7904 18.7231C37.9377 18.784 38.0956 18.8154 38.255 18.8154H39.9069C39.6672 19.9729 39.094 21.0351 38.2581 21.871C37.4222 22.7069 36.36 23.2801 35.2025 23.5198C35.1594 22.4676 35.5553 20.716 33.9886 20.654C33.8291 20.654 33.6713 20.6853 33.524 20.7463C33.3767 20.8073 33.2428 20.8967 33.1301 21.0095C33.0174 21.1222 32.928 21.256 32.867 21.4033C32.806 21.5506 32.7746 21.7085 32.7747 21.8679V23.5198C31.6171 23.2801 30.5549 22.7069 29.719 21.871C28.8831 21.0351 28.31 19.973 28.0702 18.8154H29.7222C30.0402 18.8095 30.3433 18.6791 30.5662 18.452C30.789 18.225 30.9139 17.9196 30.9139 17.6015C30.9139 17.2834 30.789 16.9779 30.5662 16.7509C30.3433 16.5239 30.0402 16.3934 29.7222 16.3876ZM35.2025 29.8443V25.973C37.0068 25.7089 38.6779 24.8698 39.9674 23.5803C41.2569 22.2908 42.096 20.6197 42.3601 18.8154H46.232C45.9476 21.6437 44.6942 24.2869 42.6841 26.2969C40.674 28.3068 38.0309 29.5601 35.2025 29.8443ZM46.232 16.3876H42.3601C42.096 14.5833 41.2568 12.9123 39.9673 11.6229C38.6778 10.3335 37.0068 9.49446 35.2025 9.23046V5.35865C38.0309 5.64284 40.674 6.8961 42.6841 8.90609C44.6942 10.9161 45.9476 13.5592 46.232 16.3876ZM32.7747 5.35865V9.23046C30.9703 9.49447 29.2993 10.3335 28.0098 11.6229C26.7203 12.9123 25.8812 14.5833 25.617 16.3876H21.7452C22.0295 13.5592 23.2829 10.9161 25.293 8.9061C27.3031 6.8961 29.9463 5.64284 32.7747 5.35865Z" fill="#2378DA"/>
<path d="M64.3364 50.6346C63.5955 49.9016 62.768 49.2616 61.8722 48.7288C62.6849 47.4297 63.1141 45.9275 63.1104 44.3952C63.107 42.1985 62.232 40.0929 60.6775 38.5407C59.1231 36.9885 57.0162 36.1166 54.8195 36.1164C48.4914 35.936 44.3295 43.5065 47.779 48.741C45.7744 49.9218 44.1439 51.6445 43.0748 53.7109C42.4406 53.1515 41.7605 52.6462 41.0418 52.2006C41.8544 50.9015 42.2836 49.3993 42.2799 47.8669C42.2799 45.6681 41.4064 43.5592 39.8516 42.0044C38.2968 40.4496 36.1879 39.5761 33.989 39.5761C31.7902 39.5761 29.6813 40.4496 28.1265 42.0044C26.5716 43.5592 25.6981 45.6681 25.6981 47.8669C25.6984 49.406 26.1329 50.9137 26.9515 52.2169C26.2191 52.6467 25.5333 53.1515 24.9052 53.723C23.8522 51.6416 22.2157 49.9121 20.1957 48.7458C23.6574 43.5155 19.4832 35.9326 13.1585 36.1167C6.82803 35.9346 2.63657 43.5103 6.1182 48.7411C4.25426 49.8322 2.70864 51.3925 1.63521 53.2666C0.561783 55.1408 -0.001996 57.2634 5.30968e-06 59.4232C0.00259793 60.4462 0.410127 61.4266 1.13349 62.1499C1.85685 62.8733 2.8372 63.2808 3.86019 63.2834H20.8685C20.9462 64.1587 21.3309 64.9784 21.9544 65.5976C22.3097 65.9636 22.7353 66.254 23.2057 66.4514C23.6761 66.6488 24.1815 66.7491 24.6916 66.7462H43.2865C44.2387 66.7431 45.1561 66.3875 45.8618 65.7481C46.5674 65.1087 47.0114 64.2307 47.1082 63.2834H64.1179C70.7312 62.6566 67.5746 53.5728 64.3364 50.6346ZM2.84052 60.4186C2.70824 60.289 2.6035 60.1341 2.53258 59.963C2.46166 59.792 2.42602 59.6084 2.42779 59.4232C2.42883 57.6172 2.91923 55.8451 3.84687 54.2955C4.77451 52.7459 6.10472 51.4765 7.6961 50.6225C9.19981 51.9518 11.1375 52.6857 13.1445 52.6862C15.1516 52.6866 17.0896 51.9535 18.5939 50.6249C20.6759 51.7108 22.2938 53.5146 23.1478 55.702C22.0507 57.2341 21.3189 58.997 21.0087 60.8556H3.86019C3.66922 60.8574 3.47997 60.8195 3.30443 60.7443C3.1289 60.669 2.97092 60.5581 2.84052 60.4186ZM43.2864 64.3185H24.6916C24.3125 64.314 23.9501 64.1614 23.6821 63.8932C23.414 63.6251 23.2615 63.2627 23.2572 62.8835C23.2582 61.0753 23.7533 59.3018 24.6891 57.7546C25.6248 56.2073 26.9656 54.9453 28.5666 54.1048C30.0765 55.4074 32.0047 56.1232 33.9989 56.1213C35.9931 56.1193 37.92 55.3997 39.4273 54.0941C40.2985 54.5473 41.0961 55.1298 41.7928 55.8218C43.4164 57.0131 46.6592 63.9923 43.2864 64.3185ZM64.1179 60.8556H46.9709C46.6663 58.9897 45.9343 57.2194 44.8322 55.6832C45.7056 53.5167 47.3149 51.7276 49.3771 50.6305C50.8907 51.9371 52.8233 52.6563 54.8228 52.657C56.8223 52.6578 58.7554 51.94 60.2699 50.6345C61.1409 51.0813 61.9357 51.6631 62.6248 52.3584C64.2416 53.5487 67.4864 60.5059 64.1179 60.8556Z" fill="#2378DA"/>
</svg>
