<svg width="34" height="32" viewBox="0 0 34 32" fill="none" xmlns="http://www.w3.org/2000/svg">
<path d="M29.0344 18.4419C28.7298 18.4412 28.428 18.3849 28.1438 18.2756C27.6462 18.5229 27.1348 18.741 26.6119 18.9288C26.4176 19.3624 26.1014 19.7302 25.7019 19.9874C25.3024 20.2446 24.8367 20.3801 24.3616 20.3775H22.9484C22.4723 20.3778 22.0062 20.2399 21.6068 19.9807C21.2074 19.7214 20.8918 19.3519 20.6981 18.9169C20.1648 18.7515 19.648 18.5368 19.1544 18.2756C18.7095 18.4474 18.2242 18.4855 17.758 18.3853C17.2918 18.2851 16.865 18.0509 16.53 17.7116L15.5384 16.7141C15.1947 16.3794 14.9581 15.9501 14.8588 15.4808C14.7594 15.0114 14.8017 14.5231 14.9803 14.0778C14.7247 13.5855 14.5044 13.0755 14.3213 12.5519C13.8872 12.3582 13.519 12.0422 13.2616 11.6425C13.0043 11.2429 12.8691 10.7769 12.8725 10.3016V8.88844C12.8707 8.41423 13.0059 7.94959 13.2619 7.55038C13.5178 7.15118 13.8836 6.8344 14.3153 6.63813C14.5079 6.11627 14.7279 5.60493 14.9744 5.10625C14.7993 4.66273 14.758 4.17766 14.8556 3.71094H1.78125C1.30893 3.71125 0.856045 3.89902 0.522064 4.233C0.188083 4.56698 0.000314566 5.01987 0 5.49219V23.3641C0.000314566 23.8364 0.188083 24.2893 0.522064 24.6233C0.856045 24.9572 1.30893 25.145 1.78125 25.1453H29.7825C30.2548 25.145 30.7077 24.9572 31.0417 24.6233C31.3757 24.2893 31.5634 23.8364 31.5638 23.3641V16.9278C30.8869 17.6255 30.0954 18.509 29.0344 18.4419ZM6.11563 19.7422C6.19708 19.8261 6.25216 19.932 6.27408 20.0469C6.29599 20.1618 6.28377 20.2806 6.23892 20.3886C6.19408 20.4966 6.11858 20.5891 6.02175 20.6546C5.92492 20.7202 5.811 20.756 5.69406 20.7575C5.61547 20.7574 5.53769 20.7416 5.46529 20.711C5.3929 20.6804 5.32735 20.6357 5.2725 20.5794L3.27156 18.5784C3.16032 18.4663 3.0979 18.3148 3.0979 18.1569C3.0979 17.9989 3.16032 17.8474 3.27156 17.7353L5.2725 15.7344C5.38352 15.6226 5.5344 15.5594 5.69196 15.5589C5.84952 15.5583 6.00085 15.6204 6.11266 15.7314C6.22446 15.8424 6.28759 15.9933 6.28814 16.1509C6.2887 16.3084 6.22664 16.4598 6.11563 16.5716L4.53031 18.1569L6.11563 19.7422ZM10.2778 16.2984L9.28031 20.3063C9.24173 20.459 9.14405 20.5902 9.00876 20.6709C8.87347 20.7516 8.71166 20.7753 8.55891 20.7367C8.40616 20.6981 8.27499 20.6005 8.19426 20.4652C8.11354 20.3299 8.08986 20.1681 8.12844 20.0153L9.12594 16.0075C9.16452 15.8548 9.2622 15.7236 9.39749 15.6429C9.53278 15.5621 9.6946 15.5385 9.84734 15.577C10.0001 15.6156 10.1313 15.7133 10.212 15.8486C10.2927 15.9839 10.3164 16.1457 10.2778 16.2984ZM15.1347 18.5784L13.1338 20.5794C13.0789 20.6357 13.0134 20.6804 12.941 20.711C12.8686 20.7416 12.7908 20.7574 12.7122 20.7575C12.5953 20.756 12.4813 20.7202 12.3845 20.6546C12.2877 20.5891 12.2122 20.4966 12.1673 20.3886C12.1225 20.2806 12.1103 20.1618 12.1322 20.0469C12.1541 19.932 12.2092 19.8261 12.2906 19.7422L13.8759 18.1569L12.2906 16.5716C12.2356 16.5166 12.1919 16.4514 12.1621 16.3796C12.1323 16.3077 12.117 16.2307 12.117 16.153C12.117 16.0752 12.1323 15.9982 12.1621 15.9264C12.1919 15.8546 12.2356 15.7893 12.2906 15.7344C12.4027 15.6231 12.5543 15.5607 12.7122 15.5607C12.8701 15.5607 13.0216 15.6231 13.1338 15.7344L15.1347 17.7353C15.2459 17.8474 15.3084 17.9989 15.3084 18.1569C15.3084 18.3148 15.2459 18.4663 15.1347 18.5784ZM18.4538 28.3753C18.2989 27.7062 18.239 27.0186 18.2756 26.3328H13.2881C13.3243 27.0186 13.2643 27.7061 13.11 28.3753C6.745 28.7553 4.45906 30.4178 4.35219 30.495C4.22621 30.5887 4.14261 30.7286 4.11979 30.8839C4.09696 31.0393 4.13677 31.1973 4.23047 31.3233C4.32417 31.4493 4.46407 31.5329 4.6194 31.5557C4.77473 31.5785 4.93277 31.5387 5.05875 31.445C5.08844 31.4272 7.32688 29.8538 13.5613 29.5391C14.9376 29.4678 16.6262 29.4678 18.0025 29.5391C24.2369 29.8538 26.4753 31.4272 26.4991 31.445C26.625 31.5395 26.7834 31.5801 26.9393 31.5578C27.0952 31.5355 27.2358 31.4522 27.3303 31.3263C27.4248 31.2003 27.4654 31.0419 27.4431 30.886C27.4208 30.7301 27.3375 30.5895 27.2116 30.495C27.1047 30.4178 24.8188 28.7553 18.4538 28.3753Z" fill="#000A21"/>
<path d="M32.0803 7.61189C32.0633 7.61251 32.0467 7.60764 32.0328 7.59801C32.0189 7.58838 32.0084 7.5745 32.0031 7.55845C31.7554 6.68707 31.4233 5.84193 31.0115 5.03502C31.2195 4.79216 31.3278 4.47954 31.3146 4.16006C31.3013 3.84059 31.1676 3.53798 30.9403 3.31314L29.9428 2.31564C29.7181 2.08627 29.4148 1.95073 29.0941 1.9364C28.7733 1.92208 28.4591 2.03003 28.2149 2.23845C27.4068 1.82933 26.562 1.49734 25.6915 1.24689C25.6755 1.24143 25.6617 1.23099 25.6521 1.2171C25.6425 1.20321 25.6375 1.18659 25.6381 1.1697C25.6105 0.850246 25.4641 0.552766 25.2277 0.336151C24.9913 0.119536 24.6821 -0.000424914 24.3615 1.48088e-05H22.9484C22.6319 -0.00151223 22.3263 0.115109 22.0913 0.327054C21.8563 0.539 21.7088 0.831015 21.6778 1.14595C21.6806 1.16699 21.6762 1.18836 21.6655 1.20666C21.6547 1.22495 21.6381 1.23912 21.6184 1.24689C20.7638 1.45406 19.9466 1.79256 19.1959 2.25033C19.1808 2.25856 19.1635 2.26184 19.1465 2.25971C19.1294 2.25758 19.1135 2.25014 19.1009 2.23845C18.8569 2.03046 18.5434 1.92224 18.223 1.93545C17.9027 1.94866 17.5991 2.08232 17.3731 2.3097L16.3756 3.31314C16.1475 3.53728 16.0128 3.83945 15.9984 4.1589C15.9841 4.47835 16.0913 4.79137 16.2984 5.03502C15.8883 5.84269 15.5563 6.68767 15.3068 7.55845C15.3022 7.57495 15.2919 7.58931 15.2778 7.59907C15.2638 7.60882 15.2467 7.61336 15.2296 7.61189C14.9102 7.63942 14.6127 7.78588 14.3961 8.02229C14.1795 8.25869 14.0595 8.56781 14.0599 8.88845V10.3016C14.0588 10.6218 14.1787 10.9307 14.3956 11.1663C14.6125 11.4019 14.9104 11.5469 15.2296 11.5722C15.247 11.573 15.2638 11.5791 15.2776 11.5897C15.2914 11.6003 15.3016 11.615 15.3068 11.6316C15.5566 12.5004 15.8886 13.3433 16.2984 14.1491C16.0912 14.3938 15.984 14.7078 15.9983 15.0281C16.0126 15.3485 16.1473 15.6516 16.3756 15.8769L17.3731 16.8744C17.5983 17.1026 17.9015 17.2374 18.2218 17.2517C18.5422 17.266 18.8562 17.1588 19.1009 16.9516C19.1136 16.94 19.1295 16.9327 19.1465 16.9306C19.1635 16.9285 19.1808 16.9316 19.1959 16.9397C19.9466 17.3975 20.7638 17.736 21.6184 17.9431C21.6552 17.9479 21.6831 18.0001 21.6778 18.0441C21.7098 18.3586 21.8576 18.65 22.0924 18.8617C22.3272 19.0735 22.6322 19.1905 22.9484 19.19H24.3615C24.6821 19.1905 24.9913 19.0705 25.2277 18.8539C25.4641 18.6373 25.6105 18.3398 25.6381 18.0203C25.6375 18.0034 25.6423 17.9868 25.652 17.9728C25.6616 17.9589 25.6755 17.9485 25.6915 17.9431C26.5623 17.6936 27.4072 17.3616 28.2149 16.9516C28.4591 17.16 28.7733 17.268 29.0941 17.2536C29.4148 17.2393 29.7181 17.1038 29.9428 16.8744L30.9403 15.8769C31.1676 15.6508 31.3013 15.3473 31.3145 15.0269C31.3277 14.7066 31.2195 14.3931 31.0115 14.1491C31.4215 13.3434 31.7535 12.5004 32.0031 11.6316C32.0092 11.6155 32.0196 11.6014 32.0332 11.5909C32.0469 11.5804 32.0631 11.574 32.0803 11.5722C32.3999 11.548 32.6985 11.4033 32.9156 11.1675C33.1327 10.9316 33.2522 10.6221 33.2499 10.3016V8.88845C33.2515 8.5675 33.1319 8.25777 32.9151 8.02113C32.6982 7.78449 32.4001 7.63835 32.0803 7.61189ZM23.6549 14.9388C22.2383 14.9369 20.8802 14.3733 19.8784 13.3715C18.8767 12.3698 18.3131 11.0117 18.3112 9.59501C18.6009 2.50801 28.7101 2.51039 28.9987 9.59501C28.9968 11.0117 28.4332 12.3698 27.4315 13.3715C26.4297 14.3733 25.0716 14.9369 23.6549 14.9388Z" fill="#000A21"/>
</svg>
