<svg width="73" height="71" viewBox="0 0 73 71" fill="none" xmlns="http://www.w3.org/2000/svg">
<path d="M8.73793 10.8627C10.1697 10.8495 11.5384 10.2714 12.5461 9.25424C13.5539 8.23708 14.1193 6.86314 14.1193 5.43128C14.1193 3.99943 13.5539 2.6255 12.5461 1.60837C11.5383 0.591247 10.1696 0.0132076 8.7378 0C7.306 0.0132415 5.93735 0.591313 4.92958 1.60846C3.9218 2.62561 3.35643 3.99956 3.35645 5.43141C3.35646 6.86327 3.92187 8.2372 4.92967 9.25432C5.93747 10.2715 7.30613 10.8495 8.73793 10.8627Z" fill="#2378DA"/>
<path d="M69.3595 10.6954C68.6069 11.5494 67.681 12.2334 66.6436 12.7019C65.6061 13.1704 64.4809 13.4127 63.3425 13.4127C62.2042 13.4127 61.0789 13.1704 60.0415 12.7018C59.0041 12.2333 58.0782 11.5493 57.3256 10.6953C56.4674 11.509 55.7841 12.489 55.3172 13.5755C54.8503 14.662 54.6096 15.8322 54.6099 17.0148V20.0265C54.6109 20.7909 54.9149 21.5236 55.4554 22.0641C55.9958 22.6045 56.7286 22.9086 57.4929 22.9095H62.0491V34.7504H58.381C58.2115 34.7487 58.0434 34.7809 57.8865 34.8449C57.7296 34.909 57.587 35.0038 57.4672 35.1236C57.3473 35.2435 57.2526 35.386 57.1885 35.5429C57.1244 35.6998 57.0923 35.8679 57.0939 36.0374V50.9286C57.0933 51.0978 57.1262 51.2654 57.1907 51.4218C57.2552 51.5782 57.35 51.7203 57.4696 51.84C57.5892 51.9596 57.7313 52.0544 57.8878 52.1189C58.0442 52.1833 58.2118 52.2162 58.381 52.2156H62.0491V60.3627H54.3396C54.5018 60.2726 54.6429 60.1491 54.7537 60.0003C54.8645 59.8516 54.9425 59.681 54.9823 59.4998C55.0222 59.3187 55.0231 59.1311 54.9849 58.9496C54.9468 58.7681 54.8705 58.5967 54.7612 58.4469C54.6518 58.2971 54.5118 58.1722 54.3505 58.0806C54.1893 57.989 54.0104 57.9327 53.8257 57.9155C53.641 57.8983 53.4548 57.9205 53.2793 57.9807C53.1039 58.0409 52.9432 58.1378 52.8081 58.2648L50.5042 60.5815C50.345 60.6945 50.213 60.8417 50.1179 61.0123C50.0228 61.1829 49.9671 61.3726 49.9548 61.5675C49.9424 61.7625 49.9738 61.9577 50.0466 62.1389C50.1195 62.3201 50.2319 62.4828 50.3756 62.615L52.8081 65.0475C52.9251 65.1676 53.0653 65.2627 53.2202 65.3268C53.3751 65.391 53.5414 65.423 53.7091 65.4208C53.9998 65.4138 54.2801 65.3115 54.507 65.1297C54.734 64.9478 54.8949 64.6965 54.965 64.4143C55.0352 64.1321 55.0108 63.8347 54.8955 63.5678C54.7802 63.3008 54.5804 63.0791 54.3269 62.9368H63.3362C63.5057 62.9384 63.6738 62.9063 63.8307 62.8422C63.9876 62.7781 64.1302 62.6834 64.25 62.5635C64.3699 62.4437 64.4646 62.3011 64.5287 62.1442C64.5928 61.9873 64.6249 61.8192 64.6233 61.6497V52.2156H68.3042C68.6452 52.2146 68.972 52.0787 69.2132 51.8375C69.4543 51.5964 69.5902 51.2696 69.5913 50.9286V36.0374C69.5919 35.8682 69.559 35.7006 69.4945 35.5442C69.43 35.3878 69.3352 35.2457 69.2156 35.126C69.096 35.0064 68.9539 34.9116 68.7974 34.8471C68.641 34.7827 68.4734 34.7498 68.3042 34.7504H64.6232V22.9095H69.1922C69.9565 22.9086 70.6893 22.6045 71.2298 22.0641C71.7702 21.5236 72.0743 20.7909 72.0752 20.0265V17.0148C72.0755 15.8323 71.8349 14.662 71.368 13.5755C70.9011 12.489 70.2177 11.5091 69.3595 10.6954ZM64.6232 47.2476H62.0491C61.7077 47.2476 61.3804 47.112 61.139 46.8707C60.8976 46.6293 60.762 46.3019 60.762 45.9606C60.762 45.6192 60.8976 45.2919 61.139 45.0505C61.3804 44.8091 61.7077 44.6735 62.0491 44.6735H64.6232C64.9605 44.6796 65.282 44.8178 65.5185 45.0585C65.7549 45.2992 65.8874 45.6232 65.8874 45.9606C65.8874 46.298 65.7549 46.6219 65.5185 46.8626C65.282 47.1033 64.9605 47.2416 64.6232 47.2476ZM65.9102 40.9925C65.9108 41.1617 65.8779 41.3293 65.8135 41.4857C65.749 41.6421 65.6542 41.7843 65.5346 41.9039C65.4149 42.0235 65.2728 42.1183 65.1164 42.1828C64.96 42.2472 64.7924 42.2801 64.6232 42.2795H62.0491C61.7077 42.2795 61.3804 42.1439 61.139 41.9026C60.8976 41.6612 60.762 41.3338 60.762 40.9925C60.762 40.6511 60.8976 40.3238 61.139 40.0824C61.3804 39.841 61.7077 39.7054 62.0491 39.7054H64.6232C64.7924 39.7049 64.96 39.7378 65.1164 39.8022C65.2728 39.8667 65.415 39.9615 65.5346 40.0811C65.6542 40.2008 65.749 40.3429 65.8135 40.4993C65.8779 40.6557 65.9108 40.8233 65.9102 40.9925Z" fill="#2378DA"/>
<path d="M63.3356 10.8627C64.7696 10.8528 66.1415 10.2762 67.152 9.2587C68.1625 8.24119 68.7296 6.86533 68.7296 5.43129C68.7296 3.99725 68.1624 2.62141 67.1519 1.60392C66.1414 0.586423 64.7694 0.00985686 63.3354 0C61.9014 0.00988744 60.5295 0.586483 59.519 1.604C58.5085 2.62151 57.9414 3.99737 57.9414 5.43141C57.9414 6.86545 58.5086 8.24129 59.5191 9.25878C60.5296 10.2763 61.9015 10.8528 63.3356 10.8627Z" fill="#2378DA"/>
<path d="M49.6537 22.2448C50.1865 22.0984 50.6564 21.781 50.9912 21.3415C51.3261 20.9021 51.5073 20.3648 51.5071 19.8123V17.3669C51.5073 16.8144 51.326 16.2771 50.9912 15.8376C50.6563 15.3982 50.1865 15.0808 49.6537 14.9344L47.0024 14.2136C46.965 14.1084 46.922 14.0053 46.8737 13.9047L48.1994 11.5752C48.474 11.0926 48.5836 10.5336 48.5116 9.98307C48.4395 9.43254 48.1898 8.92055 47.8004 8.52485L46.0629 6.8002C45.6696 6.41157 45.1608 6.16126 44.6129 6.08697C44.0651 6.01269 43.5079 6.11846 43.0254 6.38835L40.6315 7.75262C40.5414 7.71401 40.4385 7.6754 40.3355 7.63678L39.6276 5.04982C39.4801 4.51662 39.1629 4.04602 38.7239 3.70927C38.285 3.37253 37.7483 3.18799 37.1951 3.18359H34.7497C34.1949 3.18772 33.6565 3.37193 33.2155 3.70851C32.7744 4.04508 32.4547 4.5158 32.3043 5.04982L31.5836 7.68827C31.4806 7.72688 31.3776 7.77836 31.2747 7.81697L28.9451 6.49131C28.4626 6.22144 27.9054 6.11569 27.3576 6.18997C26.8098 6.26425 26.3009 6.51455 25.9077 6.90317L24.183 8.62781C23.7893 9.01798 23.5355 9.52728 23.461 10.0766C23.3865 10.6258 23.4956 11.1843 23.7712 11.6652L25.1354 14.0592C25.0872 14.1554 25.0442 14.2542 25.0067 14.3552L22.4198 15.0759C21.887 15.2224 21.4171 15.5397 21.0823 15.9792C20.7474 16.4187 20.5662 16.956 20.5664 17.5085V19.9538C20.5662 20.5063 20.7475 21.0436 21.0823 21.4831C21.4171 21.9226 21.887 22.2399 22.4198 22.3864L25.0711 23.12C25.1085 23.2209 25.1515 23.3198 25.1998 23.416L23.8741 25.7584C23.6 26.2389 23.4905 26.7958 23.5626 27.3443C23.6346 27.8927 23.8842 28.4025 24.2731 28.7959L26.0106 30.5205C26.4039 30.9091 26.9127 31.1594 27.4606 31.2337C28.0084 31.308 28.5656 31.2022 29.0481 30.9323L31.442 29.568C31.5449 29.6066 31.635 29.6453 31.738 29.6839L32.4459 32.2708C32.5934 32.804 32.9106 33.2746 33.3496 33.6114C33.7885 33.9481 34.3252 34.1327 34.8784 34.1371H37.3238C37.8775 34.1345 38.4151 33.9507 38.8544 33.6137C39.2937 33.2766 39.6105 32.805 39.7563 32.2708L40.4899 29.6195C40.5929 29.5809 40.683 29.5294 40.786 29.4908L43.1284 30.8293C43.6092 31.1054 44.1678 31.2147 44.7172 31.1402C45.2666 31.0657 45.7759 30.8116 46.1658 30.4175L47.8905 28.6928C48.2846 28.3029 48.5386 27.7936 48.6131 27.2442C48.6876 26.6948 48.5783 26.1362 48.3023 25.6554L46.9381 23.2616C46.9863 23.1653 47.0293 23.0665 47.0668 22.9655L49.6537 22.2448ZM36.0367 25.9644C26.3861 25.6554 26.4015 11.6608 36.0369 11.3564C45.6742 11.6622 45.6851 25.6568 36.0367 25.9644Z" fill="#2378DA"/>
<path d="M36.0379 13.9336C29.8149 14.0918 29.803 23.233 36.0381 23.3934C42.274 23.2321 42.2597 14.0909 36.0379 13.9336Z" fill="#2378DA"/>
<path d="M43.3626 53.9623C42.4803 55.0557 41.3642 55.9374 40.0964 56.5428C38.8285 57.1482 37.4411 57.4618 36.0362 57.4605C34.6312 57.4592 33.2444 57.1432 31.9776 56.5356C30.7109 55.9279 29.5963 55.0442 28.716 53.9492C27.5186 54.7802 26.5398 55.8883 25.863 57.1792C25.1862 58.47 24.8315 59.9053 24.8291 61.3628V68.0426C24.8289 68.428 24.9047 68.8097 25.0521 69.1658C25.1995 69.5219 25.4157 69.8455 25.6882 70.118C25.9607 70.3905 26.2843 70.6067 26.6404 70.7541C26.9965 70.9015 27.3782 70.9773 27.7636 70.9771H44.315C44.7004 70.9773 45.0821 70.9015 45.4382 70.7541C45.7943 70.6067 46.1179 70.3905 46.3904 70.118C46.6629 69.8455 46.8791 69.5219 47.0265 69.1658C47.1739 68.8097 47.2497 68.428 47.2495 68.0426V61.3628C47.2485 59.9069 46.8943 58.4729 46.2173 57.184C45.5403 55.895 44.5607 54.7895 43.3626 53.9623Z" fill="#2378DA"/>
<path d="M40.9783 52.7772C41.7416 51.9697 42.2956 50.9876 42.5919 49.9167C42.8882 48.8457 42.9177 47.7185 42.6779 46.6335C42.438 45.5485 41.9362 44.5387 41.2161 43.6924C40.4961 42.8461 39.5798 42.1889 38.5472 41.7784C37.5146 41.3678 36.3972 41.2164 35.2926 41.3373C34.1881 41.4581 33.1299 41.8476 32.2105 42.4718C31.2912 43.0959 30.5386 43.9356 30.0186 44.9176C29.4987 45.8997 29.227 46.9941 29.2275 48.1052C29.2439 49.46 29.6624 50.7794 30.4299 51.896C31.1974 53.0125 32.2793 53.8758 33.5383 54.3764C34.7974 54.877 36.1767 54.9922 37.5014 54.7075C38.826 54.4228 40.0362 53.7509 40.9783 52.7772Z" fill="#2378DA"/>
<path d="M21.9185 60.9417C21.7578 60.7189 19.5031 58.5319 19.2671 58.2647C19.1319 58.1379 18.9713 58.0412 18.7959 57.9812C18.6205 57.9211 18.4344 57.899 18.2498 57.9163C18.0653 57.9336 17.8865 57.9899 17.7254 58.0815C17.5642 58.1731 17.4243 58.2979 17.3151 58.4476C17.2058 58.5973 17.1295 58.7686 17.0914 58.95C17.0533 59.1314 17.0541 59.3188 17.0939 59.4998C17.1336 59.6809 17.2114 59.8514 17.322 60.0002C17.4327 60.1489 17.5736 60.2724 17.7356 60.3626H10.0261V52.2155H13.6941C13.8633 52.2161 14.031 52.1832 14.1874 52.1188C14.3438 52.0543 14.4859 51.9595 14.6055 51.8399C14.7252 51.7202 14.8199 51.5781 14.8844 51.4217C14.9489 51.2653 14.9818 51.0977 14.9812 50.9285V36.0373C14.9829 35.8678 14.9507 35.6997 14.8866 35.5428C14.8225 35.3859 14.7278 35.2434 14.6079 35.1235C14.4881 35.0037 14.3456 34.9089 14.1886 34.8448C14.0317 34.7807 13.8636 34.7486 13.6941 34.7503H10.0261V22.9094H14.5823C15.3466 22.9085 16.0794 22.6044 16.6198 22.064C17.1603 21.5235 17.4643 20.7908 17.4653 20.0264V17.0147C17.4656 15.8322 17.2249 14.6619 16.758 13.5754C16.2911 12.4889 15.6078 11.509 14.7496 10.6953C14.0057 11.5598 13.083 12.2526 12.0453 12.7259C11.0076 13.1992 9.87959 13.4417 8.73907 13.4367C7.59774 13.4351 6.46992 13.1897 5.43113 12.7169C4.39233 12.2441 3.46652 11.5549 2.71567 10.6953C1.85751 11.509 1.17413 12.4889 0.707225 13.5754C0.24032 14.6619 -0.000316023 15.8322 3.11479e-07 17.0147V20.0264C0.000926743 20.7908 0.304967 21.5235 0.845432 22.064C1.3859 22.6044 2.11866 22.9085 2.88299 22.9094H7.45202V34.7503H3.77106C3.60187 34.7497 3.43425 34.7826 3.27783 34.847C3.12141 34.9115 2.9793 35.0063 2.85967 35.1259C2.74004 35.2456 2.64525 35.3877 2.58078 35.5441C2.51631 35.7005 2.48342 35.8681 2.48401 36.0373V50.9285C2.48502 51.2695 2.62095 51.5963 2.8621 51.8374C3.10325 52.0786 3.43002 52.2145 3.77106 52.2155H7.45202V61.6496C7.45034 61.8191 7.48249 61.9872 7.54657 62.1441C7.61066 62.301 7.7054 62.4436 7.82525 62.5634C7.9451 62.6833 8.08765 62.778 8.24456 62.8421C8.40147 62.9062 8.56958 62.9383 8.73907 62.9367H17.7484C17.5751 63.0435 17.4275 63.1872 17.3162 63.3576C17.2048 63.528 17.1324 63.7209 17.1041 63.9224C17.0759 64.124 17.0924 64.3294 17.1526 64.5238C17.2128 64.7183 17.3152 64.8971 17.4524 65.0474C17.5715 65.1667 17.7129 65.2613 17.8686 65.3258C18.0243 65.3904 18.1912 65.4236 18.3597 65.4236C18.5283 65.4236 18.6951 65.3904 18.8508 65.3258C19.0065 65.2613 19.1479 65.1667 19.267 65.0474L21.6996 62.6149C21.9289 62.4075 22.0769 62.1252 22.117 61.8186C22.1571 61.512 22.0867 61.2011 21.9185 60.9417ZM7.45202 39.6153H10.0261C10.3675 39.6153 10.6948 39.7509 10.9362 39.9923C11.1776 40.2337 11.3132 40.561 11.3132 40.9024C11.3132 41.2437 11.1776 41.5711 10.9362 41.8124C10.6948 42.0538 10.3675 42.1894 10.0261 42.1894H7.45202C7.11466 42.1834 6.79315 42.0451 6.55671 41.8044C6.32027 41.5637 6.18779 41.2398 6.18779 40.9024C6.18779 40.565 6.32027 40.241 6.55671 40.0003C6.79315 39.7596 7.11466 39.6213 7.45202 39.6153ZM7.45202 47.3376C7.11466 47.3316 6.79316 47.1933 6.55672 46.9526C6.32028 46.7119 6.18781 46.3879 6.18782 46.0505C6.18784 45.7131 6.32032 45.3892 6.55678 45.1485C6.79323 44.9078 7.11473 44.7695 7.45209 44.7635H10.0261C10.3675 44.7635 10.6948 44.8991 10.9362 45.1405C11.1776 45.3818 11.3132 45.7092 11.3132 46.0506C11.3132 46.3919 11.1776 46.7193 10.9362 46.9606C10.6948 47.202 10.3675 47.3376 10.0261 47.3376H7.45202Z" fill="#2378DA"/>
</svg>
