<svg width="72" height="75" viewBox="0 0 72 75" fill="none" xmlns="http://www.w3.org/2000/svg">
<path fill-rule="evenodd" clip-rule="evenodd" d="M38.9196 28.2533C30.0142 28.2533 22.7687 35.4981 22.7687 44.4045C22.7687 53.3106 30.0142 60.5554 38.9196 60.5554C42.8855 60.5554 46.5217 59.1175 49.336 56.7366L55.5458 62.8239L55.3639 63.0114C54.7586 63.6352 54.7736 64.6411 55.3976 65.2463L64.945 74.5109C65.5688 75.1161 66.5745 75.1013 67.1799 74.4773L70.627 70.9249C71.2325 70.3011 71.2171 69.2956 70.5932 68.69L61.0458 59.4255C60.4221 58.8201 59.4161 58.8354 58.8109 59.4591L58.6001 59.6764L52.2748 53.4768C54.0386 50.8895 55.0705 47.7654 55.0705 44.4045C55.0705 35.4983 47.8245 28.2533 38.9196 28.2533ZM47.6424 0L63.0137 4.32021V37.711H56.2951C54.6742 33.5171 51.5768 30.0524 47.6423 27.957V0H47.6424ZM57.7292 23.1731V18.3696H52.9262V23.1731H57.7292ZM57.7292 13.5677V8.76403H52.9262V13.5677H57.7292ZM29.8008 11.2638V28.1744C32.4975 26.6521 35.6088 25.7827 38.9196 25.7827C41.1124 25.7827 43.2169 26.1658 45.1713 26.8635V6.94349L29.8008 11.2638ZM35.0845 18.3696H39.8876V23.1731H35.0845V18.3696ZM27.3306 29.8407C24.7628 31.888 22.7464 34.5979 21.5436 37.711H11.9584V11.2638L27.3304 6.94334V29.8407H27.3306ZM22.0461 23.1731V18.3696H17.243V23.1731H22.0461ZM57.4978 43.1693C57.4315 42.1486 57.2837 41.1512 57.0578 40.1815H63.0137V43.1693H57.4978ZM0 9.62269H9.4882V37.711H0V9.62269ZM9.4882 4.74787V7.15204H0V4.74787H9.4882ZM0 43.1693V40.1815H9.4882V43.1693H0ZM11.9584 40.1815H20.7815C20.5557 41.1512 20.4078 42.1488 20.3401 43.1693H11.9584V40.1815ZM38.9196 33.1556C45.1222 33.1556 50.1679 38.2021 50.1679 44.4045C50.1679 50.6068 45.122 55.6531 38.9196 55.6531C32.7171 55.6531 27.6706 50.6072 27.6706 44.4045C27.6708 38.2018 32.7169 33.1556 38.9196 33.1556Z" fill="#2378DA"/>
</svg>
