<svg width="254" height="62" viewBox="0 0 254 62" fill="none" xmlns="http://www.w3.org/2000/svg">
<path d="M29.7601 15.6357C29.7601 13.915 28.3665 12.5215 26.6459 12.5215H14.6655C6.56489 12.5215 0 19.0864 0 27.187C0 33.951 5.48417 39.4328 12.2458 39.4328H19.3961C26.7336 39.4328 32.6846 45.3815 32.6846 52.7214C32.6846 53.8543 33.6042 54.7738 34.7371 54.7738H43.2169C44.4517 54.7738 45.4542 53.7713 45.4542 52.5365C45.4542 42.1038 36.998 33.6453 26.5653 33.6429H17.064C12.4946 33.6382 8.79032 29.9339 8.79032 25.3621C8.79032 21.6649 11.7884 18.6669 15.4879 18.6693L26.634 18.7498C28.3618 18.7593 29.7648 17.361 29.7648 15.6357H29.7601Z" fill="url(#paint0_linear_243_13079)"/>
<path d="M30.618 0H3.03122C1.358 0 0 1.358 0 3.03122C0 4.70444 1.358 6.06245 3.03122 6.06245H24.3731C29.3192 6.06245 33.3293 10.0725 33.3293 15.0187C33.3293 19.9649 29.3192 23.9749 24.3731 23.9749H18.9221C17.3484 23.9749 16.0757 25.25 16.0757 26.8213C16.0757 28.395 17.3508 29.6676 18.9221 29.6676H30.6204C38.8135 29.6676 45.4542 23.0269 45.4542 14.8338C45.4542 6.64074 38.8135 0 30.6204 0H30.618Z" fill="white"/>
<path d="M81.2914 19.2775L93.3428 29.843H87.1524L75.3498 19.3605H72.7499V29.843H68.1284V0.955078H83.0262C84.8417 0.955078 86.4793 1.3485 87.9369 2.1306C89.3944 2.91507 90.5296 4.0029 91.3426 5.39172C92.1531 6.7829 92.5607 8.38503 92.5607 10.2004C92.5607 12.0159 92.1555 13.5303 91.3426 14.9049C90.5296 16.2819 89.43 17.3531 88.0412 18.1233C86.6523 18.8936 85.1047 19.2799 83.3983 19.2799H81.2938L81.2914 19.2775ZM72.7476 15.0684H82.8983C84.4103 15.0684 85.6285 14.6205 86.5504 13.727C87.4724 12.8335 87.9321 11.6438 87.9321 10.1578C87.9321 8.6718 87.47 7.44176 86.5504 6.5459C85.6285 5.65241 84.4103 5.20449 82.8983 5.20449H72.7476V15.0684Z" fill="url(#paint1_linear_243_13079)"/>
<path d="M102.42 28.5156C100.687 27.5676 99.3102 26.2665 98.2935 24.6146C97.2744 22.9627 96.7672 21.1212 96.7672 19.0854C96.7672 17.0495 97.2768 15.1725 98.2935 13.5348C99.3102 11.8995 100.709 10.6126 102.481 9.67648C104.256 8.7427 106.231 8.27344 108.404 8.27344C110.577 8.27344 112.428 8.71426 114.12 9.59353C115.813 10.4752 117.147 11.691 118.123 13.2457C119.1 14.8004 119.588 16.54 119.588 18.4668C119.588 19.2655 119.505 20.0357 119.339 20.7776H101.017C101.346 22.3726 102.178 23.6737 103.515 24.6786C104.849 25.6835 106.368 26.1859 108.074 26.1859C110.826 26.1859 112.888 25.3066 114.265 23.5433H118.846C117.993 25.3872 116.685 26.9135 114.926 28.1245C113.165 29.3356 110.895 29.94 108.117 29.94C106.055 29.94 104.154 29.466 102.422 28.5156H102.42ZM115.296 17.3505C115.213 16.3599 114.855 15.4593 114.222 14.6487C113.589 13.8382 112.765 13.1983 111.746 12.729C110.727 12.2621 109.613 12.0275 108.404 12.0275C106.506 12.0275 104.882 12.5228 103.534 13.5135C102.185 14.5042 101.346 15.784 101.017 17.3505H115.296Z" fill="url(#paint2_linear_243_13079)"/>
<path d="M126.046 28.0815C124.354 26.8443 123.508 25.2612 123.508 23.3344H127.8C127.8 24.216 128.288 24.9223 129.264 25.4603C130.241 25.9959 131.623 26.266 133.412 26.266C135.201 26.266 136.431 26.0314 137.27 25.5645C138.109 25.0976 138.529 24.4909 138.529 23.7491C138.529 23.0073 138.24 22.4361 137.661 22.0356C137.083 21.6374 136.121 21.327 134.772 21.1089L131.016 20.5307C126.257 19.8434 123.877 17.8336 123.877 14.5061C123.877 12.6623 124.662 11.1644 126.228 10.0079C127.797 8.8513 130.065 8.27539 133.037 8.27539C134.962 8.27539 136.642 8.56453 138.071 9.14281C139.5 9.72109 140.595 10.5056 141.351 11.4938C142.107 12.4845 142.487 13.5984 142.487 14.8355H138.235C138.206 14.0108 137.718 13.3235 136.77 12.7736C135.822 12.2238 134.576 11.9489 133.035 11.9489C131.495 11.9489 130.229 12.1693 129.404 12.6101C128.579 13.0509 128.167 13.6695 128.167 14.4658C128.167 15.1271 128.449 15.6413 129.013 16.0134C129.577 16.3855 130.478 16.6676 131.717 16.8595L135.514 17.4378C137.908 17.7957 139.716 18.4782 140.941 19.4807C142.164 20.4856 142.778 21.8816 142.778 23.6709C142.778 25.4602 141.987 27.0197 140.406 28.1905C138.823 29.3613 136.491 29.9443 133.41 29.9443C130.329 29.9443 127.736 29.3257 126.044 28.0886L126.046 28.0815Z" fill="url(#paint3_linear_243_13079)"/>
<path d="M152.623 28.535C150.848 27.5988 149.452 26.3072 148.436 24.6553C147.417 23.0034 146.909 21.1477 146.909 19.0834C146.909 17.0192 147.419 15.1706 148.436 13.5329C149.452 11.8976 150.851 10.6107 152.623 9.67453C154.399 8.74075 156.359 8.27148 158.503 8.27148C160.648 8.27148 162.604 8.74075 164.364 9.67453C166.125 10.6107 167.514 11.8976 168.533 13.5329C169.55 15.1706 170.06 17.0192 170.06 19.0834C170.06 21.1477 169.55 23.0034 168.533 24.6553C167.514 26.3048 166.125 27.5988 164.364 28.535C162.604 29.4711 160.651 29.938 158.503 29.938C156.356 29.938 154.396 29.4711 152.623 28.535ZM162.156 25.1506C163.27 24.5723 164.149 23.7547 164.796 22.6953C165.443 21.6359 165.765 20.432 165.765 19.0834C165.765 17.7349 165.44 16.538 164.796 15.4929C164.149 14.4477 163.27 13.6372 162.156 13.0589C161.042 12.4806 159.824 12.1915 158.503 12.1915C157.183 12.1915 155.925 12.4806 154.809 13.0589C153.695 13.6372 152.813 14.4477 152.168 15.4929C151.521 16.538 151.199 17.7373 151.199 19.0834C151.199 20.4296 151.529 21.6359 152.19 22.6953C152.851 23.7547 153.737 24.5723 154.851 25.1506C155.965 25.7289 157.183 26.018 158.503 26.018C159.824 26.018 161.042 25.7289 162.156 25.1506Z" fill="url(#paint4_linear_243_13079)"/>
<path d="M180.293 29.4856H175.961V0.597656H180.293V29.4856Z" fill="url(#paint5_linear_243_13079)"/>
<path d="M192.138 28.7839C190.678 28.0136 189.538 26.8926 188.714 25.4208C187.889 23.9491 187.476 22.1953 187.476 20.1594V8.72656H191.769V19.8276C191.769 21.6715 192.333 23.1361 193.461 24.224C194.589 25.3118 196.006 25.8545 197.712 25.8545C198.869 25.8545 199.933 25.601 200.91 25.0914C201.886 24.5842 202.656 23.8685 203.22 22.9466C203.784 22.0246 204.066 20.9866 204.066 19.83V8.72893H208.399V29.4878H204.645L204.19 27.3405H203.943C203.256 28.0278 202.313 28.6345 201.116 29.1559C199.919 29.6773 198.592 29.9404 197.134 29.9404C195.264 29.9404 193.598 29.5565 192.141 28.7839H192.138Z" fill="url(#paint6_linear_243_13079)"/>
<path d="M222.181 29.4861C220.723 29.4861 219.574 29.095 218.735 28.3105C217.896 27.5261 217.476 26.4619 217.476 25.1134V12.6923H213.679V8.72962H217.476V2.70508H221.768V8.72962H227.34V12.6923H221.768V24.0825C221.768 24.9357 222.249 25.3623 223.214 25.3623H227.34V29.4884H222.181V29.4861Z" fill="url(#paint7_linear_243_13079)"/>
<path d="M236.832 28.5156C235.099 27.5676 233.722 26.2665 232.706 24.6146C231.687 22.9627 231.179 21.1212 231.179 19.0854C231.179 17.0495 231.689 15.1725 232.706 13.5348C233.722 11.8995 235.121 10.6126 236.894 9.67648C238.669 8.7427 240.643 8.27344 242.816 8.27344C244.989 8.27344 246.84 8.71426 248.533 9.59353C250.225 10.4752 251.559 11.691 252.535 13.2457C253.512 14.8004 254 16.54 254 18.4668C254 19.2655 253.917 20.0357 253.751 20.7776H235.429C235.758 22.3726 236.59 23.6737 237.927 24.6786C239.261 25.6835 240.78 26.1859 242.487 26.1859C245.238 26.1859 247.3 25.3066 248.677 23.5433H253.258C252.405 25.3872 251.097 26.9135 249.338 28.1245C247.577 29.3356 245.307 29.94 242.529 29.94C240.467 29.94 238.567 29.466 236.834 28.5156H236.832ZM249.706 17.3505C249.623 16.3599 249.265 15.4593 248.632 14.6487C247.999 13.8382 247.175 13.1983 246.155 12.729C245.136 12.2621 244.022 12.0275 242.814 12.0275C240.915 12.0275 239.292 12.5228 237.943 13.5135C236.595 14.5042 235.756 15.784 235.426 17.3505H249.706Z" fill="url(#paint8_linear_243_13079)"/>
<path d="M68.0901 55.1048V34.5H75.302C77.4397 34.5 79.3689 34.9313 81.0872 35.7964C82.803 36.6614 84.1492 37.8772 85.1185 39.4462C86.0902 41.0175 86.5761 42.8021 86.5761 44.8048C86.5761 46.8074 86.0902 48.592 85.1185 50.1609C84.1468 51.7299 82.803 52.9481 81.0872 53.8107C79.3689 54.6758 77.4421 55.1071 75.302 55.1071H68.0901V55.1048ZM75.302 53.3391C77.0487 53.3391 78.6437 52.986 80.0846 52.2797C81.528 51.5735 82.6608 50.5733 83.4832 49.2769C84.308 47.9805 84.7204 46.4898 84.7204 44.8024C84.7204 43.1149 84.308 41.6242 83.4832 40.3278C82.6585 39.0314 81.5256 38.0313 80.0846 37.325C78.6413 36.6188 77.0487 36.2656 75.302 36.2656H69.9458V53.3367H75.302V53.3391Z" fill="white"/>
<path d="M93.347 36.915H91.2875V34.8555H93.347V36.915ZM93.1977 55.1047H91.432V40.387H93.1977V55.1047Z" fill="white"/>
<path d="M100.469 59.8576C99.2533 58.9049 98.5566 57.7127 98.3788 56.2813H100.263C100.479 57.2624 101.019 58.0635 101.882 58.6797C102.744 59.2983 103.963 59.6064 105.531 59.6064C107.181 59.6064 108.484 59.1798 109.447 58.3266C110.409 57.4734 110.89 56.2907 110.89 54.7787V51.7759H110.743C110.155 52.6196 109.35 53.2879 108.328 53.7785C107.307 54.2691 106.219 54.5156 105.06 54.5156C103.744 54.5156 102.524 54.2051 101.396 53.5889C100.268 52.9704 99.3695 52.1172 98.7035 51.027C98.0352 49.9391 97.7034 48.6973 97.7034 47.3037C97.7034 45.9101 98.0375 44.6683 98.7035 43.5804C99.3695 42.4902 100.268 41.637 101.396 41.0185C102.524 40.3999 103.747 40.0918 105.06 40.0918C106.216 40.0918 107.307 40.3383 108.328 40.8265C109.347 41.3171 110.153 41.9854 110.743 42.8291H110.89L111.155 40.3857H112.658V54.7787C112.658 56.7813 112.021 58.3645 110.745 59.5329C109.47 60.6989 107.733 61.2843 105.536 61.2843C103.339 61.2843 101.69 60.808 100.474 59.8576H100.469ZM108.048 52.1456C108.921 51.6858 109.613 51.0317 110.125 50.188C110.634 49.3443 110.89 48.3821 110.89 47.3037C110.89 46.2254 110.634 45.2631 110.125 44.4194C109.615 43.5757 108.923 42.9239 108.048 42.4618C107.174 42.002 106.219 41.7698 105.178 41.7698C104.138 41.7698 103.18 42.002 102.308 42.4618C101.436 42.9239 100.744 43.5757 100.235 44.4194C99.725 45.2631 99.469 46.2254 99.469 47.3037C99.469 48.3821 99.7226 49.3443 100.235 50.188C100.744 51.0317 101.436 51.6835 102.308 52.1456C103.18 52.6078 104.138 52.8376 105.178 52.8376C106.219 52.8376 107.174 52.6078 108.048 52.1456Z" fill="white"/>
<path d="M120.162 36.915H118.102V34.8555H120.162V36.915ZM120.015 55.1047H118.249V40.387H120.015V55.1047Z" fill="white"/>
<path d="M129.461 55.1052C128.637 55.1052 127.994 54.8848 127.535 54.4416C127.072 54.0007 126.843 53.3964 126.843 52.6309V42.0631H124.193V40.3851H126.843V36.2637H128.608V40.3851H132.817V42.0631H128.608V52.3062C128.608 52.6996 128.71 52.9817 128.916 53.1594C129.122 53.3372 129.44 53.4248 129.874 53.4248H132.817V55.1028H129.461V55.1052Z" fill="white"/>
<path d="M137.498 54.1909C136.498 53.3851 135.997 52.2973 135.997 50.9227C135.997 49.5481 136.479 48.3915 137.441 47.5668C138.403 46.7444 139.797 46.332 141.621 46.332H147.509V45.7727C147.509 44.4763 147.106 43.4856 146.302 42.8007C145.496 42.1134 144.39 41.7698 142.977 41.7698C141.565 41.7698 140.524 42.0352 139.74 42.5637C138.955 43.0946 138.474 43.7914 138.296 44.654H136.531C136.59 43.8317 136.87 43.0756 137.37 42.3883C137.87 41.701 138.59 41.1464 139.533 40.7246C140.474 40.3027 141.624 40.0918 142.977 40.0918C144.899 40.0918 146.43 40.5919 147.57 41.592C148.708 42.5921 149.277 43.9857 149.277 45.7727V55.1034H147.746L147.48 52.8661H147.302C146.771 53.6316 146.018 54.2454 145.037 54.7052C144.055 55.1674 142.937 55.3973 141.681 55.3973C139.894 55.3973 138.503 54.9967 137.5 54.1909H137.498ZM146.004 52.321C147.004 51.3896 147.504 50.1667 147.504 48.657V48.01H141.439C140.261 48.01 139.353 48.2707 138.716 48.7897C138.078 49.3111 137.758 50.0221 137.758 50.9251C137.758 51.828 138.107 52.4703 138.804 52.9704C139.5 53.4704 140.467 53.7217 141.702 53.7217C143.565 53.7217 144.999 53.2571 145.999 52.3234L146.004 52.321Z" fill="white"/>
<path d="M156.719 55.1048H154.953V34.5H156.719V55.1048Z" fill="white"/>
<path d="M164.165 54.796C163.165 54.3931 162.409 53.848 161.899 53.1631C161.39 52.4758 161.134 51.7008 161.134 50.8381H162.9C162.9 51.6818 163.331 52.3738 164.194 52.9142C165.056 53.4546 166.244 53.7247 167.756 53.7247C169.268 53.7247 170.301 53.4996 171.038 53.0469C171.775 52.5966 172.143 51.9875 172.143 51.222C172.143 50.5158 171.891 49.9707 171.391 49.5891C170.891 49.2075 170.062 48.9279 168.903 48.7501L165.988 48.3093C162.966 47.8377 161.454 46.4939 161.454 44.2779C161.454 43.0218 161.963 42.0122 162.985 41.2467C164.006 40.4812 165.497 40.0996 167.459 40.0996C168.716 40.0996 169.82 40.2963 170.77 40.6874C171.723 41.0808 172.453 41.6259 172.963 42.3203C173.472 43.0171 173.728 43.7968 173.728 44.6595H171.962C171.962 43.8371 171.55 43.1498 170.725 42.6C169.901 42.0501 168.813 41.7752 167.457 41.7752C166.101 41.7752 165.009 41.9932 164.293 42.4293C163.577 42.8654 163.219 43.4721 163.219 44.2471C163.219 44.868 163.471 45.3681 163.971 45.7449C164.471 46.1241 165.251 46.3896 166.31 46.546L169.225 46.9868C170.794 47.2049 171.967 47.6552 172.742 48.3354C173.517 49.0179 173.903 49.9707 173.903 51.1959C173.903 52.4212 173.384 53.4522 172.344 54.2343C171.304 55.0164 169.773 55.4051 167.753 55.4051C166.36 55.4051 165.163 55.2036 164.163 54.8031L164.165 54.796Z" fill="white"/>
<defs>
<linearGradient id="paint0_linear_243_13079" x1="-14.6492" y1="43.7196" x2="85.8407" y2="-5.34587" gradientUnits="userSpaceOnUse">
<stop stop-color="#2378DA"/>
<stop offset="0.951841" stop-color="#042F61"/>
</linearGradient>
<linearGradient id="paint1_linear_243_13079" x1="60.0022" y1="22.2852" x2="119.671" y2="-1.35282" gradientUnits="userSpaceOnUse">
<stop stop-color="#2378DA"/>
<stop offset="0.951841" stop-color="#042F61"/>
</linearGradient>
<linearGradient id="paint2_linear_243_13079" x1="89.4125" y1="24.2715" x2="140.27" y2="-0.0406941" gradientUnits="userSpaceOnUse">
<stop stop-color="#2378DA"/>
<stop offset="0.951841" stop-color="#042F61"/>
</linearGradient>
<linearGradient id="paint3_linear_243_13079" x1="117.297" y1="24.2752" x2="162.665" y2="5.96313" gradientUnits="userSpaceOnUse">
<stop stop-color="#2378DA"/>
<stop offset="0.951841" stop-color="#042F61"/>
</linearGradient>
<linearGradient id="paint4_linear_243_13079" x1="139.449" y1="24.2696" x2="190.762" y2="-0.61498" gradientUnits="userSpaceOnUse">
<stop stop-color="#2378DA"/>
<stop offset="0.951841" stop-color="#042F61"/>
</linearGradient>
<linearGradient id="paint5_linear_243_13079" x1="174.564" y1="21.9278" x2="186.371" y2="21.1242" gradientUnits="userSpaceOnUse">
<stop stop-color="#2378DA"/>
<stop offset="0.951841" stop-color="#042F61"/>
</linearGradient>
<linearGradient id="paint6_linear_243_13079" x1="180.734" y1="24.3904" x2="228.454" y2="3.02927" gradientUnits="userSpaceOnUse">
<stop stop-color="#2378DA"/>
<stop offset="0.951841" stop-color="#042F61"/>
</linearGradient>
<linearGradient id="paint7_linear_243_13079" x1="209.277" y1="22.4813" x2="244.775" y2="14.2636" gradientUnits="userSpaceOnUse">
<stop stop-color="#2378DA"/>
<stop offset="0.951841" stop-color="#042F61"/>
</linearGradient>
<linearGradient id="paint8_linear_243_13079" x1="223.825" y1="24.2715" x2="274.682" y2="-0.0407173" gradientUnits="userSpaceOnUse">
<stop stop-color="#2378DA"/>
<stop offset="0.951841" stop-color="#042F61"/>
</linearGradient>
</defs>
</svg>
