<svg width="53" height="53" viewBox="0 0 53 53" fill="none" xmlns="http://www.w3.org/2000/svg">
<path d="M21.6999 24.0633C21.6999 23.6158 21.3337 23.25 20.8866 23.25H5.11606C4.66055 23.25 4.30273 23.6158 4.30273 24.0633C4.30273 24.5105 4.66055 24.8767 5.11606 24.8767H20.8866C21.3337 24.8767 21.6999 24.5105 21.6999 24.0633Z" fill="#2378DA"/>
<path d="M29.6543 36.5534C29.199 36.5534 28.841 36.9196 28.841 37.3667C28.841 41.7423 25.2787 45.2967 20.9031 45.2967C16.1532 45.2967 12.3549 41.0839 13.0544 36.1956C13.7927 31.0956 19.1935 28.0375 24.0099 30.0714L23.6602 30.6651C23.2454 31.3724 23.7498 32.2509 24.571 32.2592L27.7106 32.2755C28.5239 32.2755 29.0364 31.397 28.6377 30.6893L27.0762 27.9567C26.6776 27.249 25.661 27.241 25.2462 27.9483L24.8314 28.656C23.6114 28.0949 22.2695 27.8101 20.9031 27.8101C15.5107 27.8101 11.1512 32.2997 11.3545 37.7329C11.5415 42.6454 15.6002 46.72 20.5128 46.9154C25.9618 47.1266 30.4677 42.7673 30.4677 37.3667C30.4677 36.9196 30.1017 36.5534 29.6543 36.5534Z" fill="#2378DA"/>
<path d="M51.2977 29.8909L47.36 24.5217C46.8151 23.814 45.8066 23.6679 45.0908 24.2127L45.0725 24.2266L44.4728 23.432C45.2455 22.6187 45.8799 21.7076 46.384 20.7235C47.0592 19.3979 47.4658 17.942 47.5877 16.4131C47.97 11.3786 45.034 6.8402 40.6258 4.96931C40.0645 2.13895 37.5512 0 34.5582 0H6.18136C2.77357 0 0 2.77357 0 6.18136V45.8715C0 49.2797 2.77357 52.0529 6.18136 52.0529C16.7465 52.0466 36.4875 52.0349 47.0592 52.0287C48.6858 52.0287 50.0033 50.711 50.0033 49.0843V40.7152C50.0033 39.0885 48.6858 37.7708 47.0592 37.7708H40.7477V26.0507C40.9348 25.9697 41.1137 25.8882 41.2926 25.7989L41.9097 26.6186L41.8863 26.6364C41.1788 27.1734 41.0404 28.19 41.5773 28.8973L45.5151 34.2665C46.7621 35.9122 49.0371 36.1487 50.5903 34.9742C52.1857 33.7633 52.5054 31.4741 51.2977 29.8909ZM40.1133 42.3013V38.9829C40.2137 38.9829 43.7612 38.9829 43.6758 38.9829V42.3013L42.0734 41.5206C41.9809 41.4675 41.816 41.4632 41.7155 41.5206C41.6299 41.5623 40.0129 42.3502 40.1133 42.3013ZM39.1211 37.7708H36.7299C35.1033 37.7708 33.7856 39.0885 33.7856 40.7152V49.0843C33.7856 49.5641 33.8996 50.0279 34.1029 50.4262H6.18136C3.66811 50.4262 1.62665 48.385 1.62665 45.8715V6.18136C1.62665 3.66831 3.66811 1.62665 6.18136 1.62665H34.5582C36.4208 1.62665 38.0312 2.74895 38.7388 4.35932C38.1858 4.22946 37.6163 4.1401 37.0308 4.0992C34.8918 3.93677 32.8422 4.36766 31.0529 5.2624H5.11586C4.66034 5.2624 4.30253 5.62816 4.30253 6.07572C4.30253 6.52289 4.66034 6.88905 5.11586 6.88905H28.6293C27.2709 8.06019 26.1893 9.54864 25.5141 11.2567H5.11586C4.66034 11.2567 4.30253 11.6225 4.30253 12.07C4.30253 12.5172 4.66034 12.8834 5.11586 12.8834H24.9935C24.8553 13.4608 24.7659 14.0462 24.7171 14.6562C24.652 15.5426 24.6845 16.4131 24.8146 17.259H5.11586C4.66034 17.259 4.30253 17.6168 4.30253 18.0723C4.30253 18.5195 4.66034 18.8856 5.11586 18.8856H25.1889C26.5308 23.2692 30.443 26.6039 35.2741 26.978C36.5389 27.0464 37.6809 27.0069 39.1211 26.6285V37.7708ZM35.4041 25.3513C29.9945 24.9311 25.9185 20.2039 26.3356 14.7864C26.7089 9.73124 30.9685 5.69328 36.1442 5.69328C41.6822 5.69328 46.3489 10.2936 45.9611 16.2908C45.5461 21.6083 40.9492 25.7783 35.4041 25.3513Z" fill="#2378DA"/>
<path d="M43.7157 16.1192C44.0431 11.8375 40.7598 8.19165 36.648 7.88866C32.4514 7.57661 28.7519 10.7015 28.417 14.9564C28.0527 19.9649 32.3758 23.6578 36.8269 23.1628C40.517 22.8244 43.4256 19.846 43.7076 16.1192H43.7157ZM38.6082 14.1757C38.5372 14.2578 35.6335 17.6182 35.8184 17.4043C35.5981 17.6691 35.1976 17.677 34.9643 17.4778C34.8817 17.4075 33.2877 16.0519 33.3865 16.1359C33.1344 15.9159 33.102 15.5338 33.3216 15.2733C33.541 15.0215 33.9233 14.989 34.1836 15.2086L35.2898 16.1518L37.6809 13.3786C37.9005 13.1264 38.2909 13.0939 38.5431 13.3135C38.7953 13.541 38.8276 13.9235 38.6082 14.1757Z" fill="#2378DA"/>
</svg>
