<svg width="71" height="66" viewBox="0 0 71 66" fill="none" xmlns="http://www.w3.org/2000/svg">
<path fill-rule="evenodd" clip-rule="evenodd" d="M35.1741 0C50.8447 0 63.4197 12.9356 62.9724 28.6187C62.9703 28.6981 62.9051 28.7609 62.8257 28.7609H60.9239C60.8828 28.7609 60.8474 28.7459 60.8188 28.7164C60.7902 28.687 60.7765 28.6512 60.7776 28.6102C60.84 26.5767 60.6651 24.5753 60.2655 22.63C60.2504 22.5567 60.1836 22.5071 60.1092 22.5137L59.752 22.5456C59.7426 22.5465 59.7345 22.5465 59.7251 22.5455C58.7407 22.4517 57.9162 22.1617 57.2583 21.6677C55.7957 20.5694 55.9686 18.9686 54.3749 18.0452C52.8018 17.1339 51.2473 18.2968 49.3917 16.8544C46.2346 14.4006 49.6901 11.3941 48.861 6.21248C48.854 6.1693 48.8314 6.1349 48.7943 6.11157C44.8491 3.62996 40.1795 2.19412 35.1742 2.19412C32.6297 2.19412 30.1719 2.56532 27.8521 3.25611C27.8261 3.26388 27.8055 3.27646 27.7869 3.29631C20.8673 10.654 27.3587 9.08167 26.2224 14.9557C25.8917 16.6651 24.2552 18.5379 23.4882 20.374C22.9117 21.7538 22.7517 24.4805 20.8742 24.6982L18.9312 24.9235C17.8242 25.0519 16.813 24.2875 16.6347 23.1875L16.2356 20.7267C16.1237 20.0374 15.6928 19.4996 15.0444 19.2401L14.8053 19.1444C14.1681 18.8895 13.4995 18.9739 12.9454 19.3787C12.0463 20.0356 11.1931 20.7224 10.3837 21.4377C10.3607 21.458 10.3463 21.4817 10.3387 21.5114C9.8292 23.5266 9.55825 25.6368 9.55825 27.8103C9.55825 28.0777 9.56255 28.3444 9.57065 28.6099C9.57198 28.6509 9.55808 28.6868 9.52946 28.7163C9.50085 28.7457 9.46545 28.7608 9.42442 28.7608H7.5226C7.44353 28.7608 7.37802 28.6977 7.37587 28.6185C6.92858 12.9356 19.5034 0 35.1741 0ZM0.00231662 31.1269L7.60345e-07 33.9794C-0.000660916 34.6791 0.430587 35.2736 1.0959 35.4905L6.23911 37.1664C6.2899 37.1829 6.3253 37.2221 6.33671 37.2744C6.75439 39.1911 7.35768 41.0385 8.12836 42.7957C8.14987 42.8447 8.14424 42.8973 8.11265 42.9405L4.93578 47.3052C4.52405 47.871 4.52355 48.6054 4.93429 49.1718L8.46797 54.0441C8.87887 54.6105 9.5771 54.8381 10.2428 54.6224L15.3949 52.9531C15.4457 52.9368 15.4975 52.9475 15.5373 52.9831C16.9801 54.2677 18.5503 55.4124 20.2265 56.3963C20.2724 56.4233 20.2987 56.4693 20.2986 56.5225L20.2941 61.9236C20.2934 62.6232 20.7249 63.2179 21.39 63.4347L27.1127 65.2995C27.778 65.5162 28.4766 65.2899 28.8885 64.7242L32.0731 60.3485C32.1045 60.3055 32.1525 60.2838 32.2056 60.2891C34.1321 60.4779 36.0804 60.478 38.007 60.2898C38.0601 60.2847 38.1083 60.3063 38.1397 60.3495L41.3118 64.723C41.7225 65.2894 42.4211 65.5169 43.0867 65.3013L48.8125 63.4462C49.4782 63.2305 49.9104 62.6366 49.9111 61.9369L49.9155 56.5265C49.9155 56.4732 49.9418 56.4274 49.9878 56.4005C51.6642 55.417 53.2347 54.2727 54.6778 52.9885C54.7177 52.953 54.7696 52.9422 54.8204 52.9588L59.9609 54.6338C60.6261 54.8507 61.325 54.624 61.7367 54.0585L65.2785 49.1922C65.6902 48.6264 65.6909 47.892 65.2802 47.3254L62.1053 42.9479C62.0738 42.9047 62.0682 42.8521 62.0897 42.8033C62.8607 41.0461 63.4652 39.1992 63.883 37.2825C63.8945 37.2302 63.93 37.191 63.9808 37.1745L69.1181 35.51C69.7837 35.2943 70.2159 34.7005 70.2164 34.0007L70.2188 31.1271C70.2189 31.0465 70.1531 30.9807 70.0725 30.9807H54.5603C54.4801 30.9807 54.4149 31.0457 54.4144 31.1259C54.3362 41.7212 45.7228 50.2862 35.1092 50.2862C24.4956 50.2862 15.8824 41.7212 15.8043 31.1259C15.8038 31.0459 15.7385 30.9807 15.6584 30.9807H0.148547C0.0679878 30.9807 0.00231662 31.0464 0.00231662 31.1269ZM52.0046 31.384C52.0498 31.3752 52.0923 31.3866 52.1274 31.4166C52.1624 31.4465 52.1803 31.4864 52.1788 31.5324C51.8498 41.9468 42.3387 49.6057 32.1284 47.8002C32.0706 47.7901 32.027 47.7492 32.0122 47.6925C31.9975 47.6356 32.0162 47.5787 32.062 47.5418C36.6405 43.8557 41.7857 40.9971 47.3362 38.7729C47.8971 38.5481 48.1695 37.9109 47.9447 37.35C47.7199 36.789 47.0827 36.5166 46.5218 36.7414C41.0967 38.9153 36.0365 41.6854 31.4915 45.2047C31.4356 45.2481 31.3588 45.2458 31.3057 45.1991C31.2528 45.1528 31.2399 45.0775 31.2748 45.0165C35.5899 37.4451 42.7319 33.1715 52.0046 31.384ZM18.2136 31.384C24.2686 32.5512 29.4145 34.779 33.4585 38.2922C33.4898 38.3193 33.5066 38.3542 33.5086 38.3956C33.5106 38.4369 33.4972 38.4733 33.4686 38.5033C31.7874 40.2739 30.3048 42.312 29.0532 44.646L28.1065 46.411C28.0698 46.4795 27.9863 46.5072 27.916 46.4745C22.2351 43.8327 18.25 38.1595 18.0396 31.5322C18.0381 31.4862 18.056 31.4462 18.0911 31.4162C18.126 31.3865 18.1685 31.3752 18.2136 31.384ZM44.15 12.3636C44.15 11.4773 43.4271 10.7544 42.5408 10.7544H40.723C39.8367 10.7544 39.1138 11.4773 39.1138 12.3636L39.116 33.6691C39.116 33.7243 39.1443 33.7716 39.1929 33.7978C39.2415 33.8239 39.2966 33.8214 39.3428 33.7911C41.0433 32.6708 42.0648 32.2628 44.0577 31.4721C44.1146 31.4496 44.15 31.3974 44.15 31.3362V12.3636ZM32.0956 19.5501V34.4183C32.0956 34.4684 32.1186 34.5115 32.1601 34.5395C33.2132 35.2488 34.101 35.9401 35.0657 36.7831C35.1211 36.8316 35.2027 36.8316 35.2581 36.7831C35.6245 36.463 36.4807 35.7297 36.947 35.3403C36.9814 35.3115 36.9995 35.273 36.9995 35.228V19.5499C36.9995 18.6636 36.2766 17.9407 35.3903 17.9407H33.7046C32.8185 17.9409 32.0956 18.6637 32.0956 19.5501ZM30.2525 26.1878C30.2525 25.3015 29.5296 24.5786 28.6433 24.5786H27.6776C26.7913 24.5786 26.0684 25.3015 26.0684 26.1878V31.2596C26.0684 31.3206 26.1038 31.3727 26.1605 31.3954C27.4907 31.9262 28.7857 32.5361 30.035 33.2342C30.0815 33.2602 30.1344 33.2597 30.1804 33.2327C30.2264 33.2057 30.2527 33.1599 30.2527 33.1065V26.1878H30.2525Z" fill="#2378DA"/>
</svg>
