<svg width="70" height="73" viewBox="0 0 70 73" fill="none" xmlns="http://www.w3.org/2000/svg">
<path d="M69.9286 49.8916C68.8234 43.438 63.2029 38.5264 56.435 38.5264C51.3901 38.5264 46.9833 41.2559 44.6084 45.3184L48.9998 49.7102L48.5399 50.7459H55.2657V57.6214H48.9721V56.8956L46.6523 56.0027C46.3581 54.7659 45.8678 53.5845 45.2014 52.5021L46.211 50.2286L43.5311 47.5484L41.2572 48.5583C40.175 47.8919 38.9942 47.4016 37.7579 47.1075L36.8647 44.7869H33.0747L32.1816 47.1075C30.9452 47.4018 29.7644 47.892 28.6823 48.5583L26.4084 47.5484L23.7284 50.2286L24.7382 52.5025C24.0719 53.5848 23.5817 54.7659 23.2875 56.0024L20.9672 56.8956V57.6214H14.6737V50.7459H21.3996L20.9398 49.7103L25.331 45.3184C22.9561 41.2559 18.5495 38.5264 13.5046 38.5264C6.73653 38.5264 1.11592 43.4381 0.010831 49.8917C-0.0660476 50.3406 0.27596 50.7459 0.731384 50.7459H12.3354V58.7908C12.3354 59.4366 12.8589 59.9602 13.5046 59.9602H20.9674V60.6859L23.2872 61.5791C23.5816 62.8158 24.0716 63.9972 24.7381 65.0796L23.7284 67.3531L26.4084 70.0333L28.6823 69.0233C29.7644 69.6897 30.9451 70.1798 32.1816 70.474L33.0747 72.7947H36.8647L37.7576 70.4746C38.9942 70.1804 40.1755 69.6901 41.2578 69.0236L43.5309 70.0333L46.2109 67.3531L45.2009 65.079C45.8673 63.9968 46.3573 62.8158 46.6515 61.5793L48.9719 60.6861V59.9603H56.4348C57.0806 59.9603 57.6041 59.4367 57.6041 58.7909V50.7461H69.2081C69.6635 50.7458 70.0055 50.3405 69.9286 49.8916ZM34.9697 66.4121C30.7606 66.4121 27.3492 63.0003 27.3492 58.7908C27.3492 54.5811 30.7606 51.1693 34.9697 51.1693C39.1787 51.1693 42.5903 54.5811 42.5903 58.7908C42.5901 63.0003 39.1787 66.4121 34.9697 66.4121ZM49.5126 30.1414C49.5126 26.3178 52.6118 23.2181 56.435 23.2181C60.258 23.2181 63.3574 26.3178 63.3574 30.1414C63.3574 33.965 60.2582 37.0646 56.435 37.0646C52.6118 37.0646 49.5126 33.9649 49.5126 30.1414ZM46.4913 11.2449C46.171 10.6874 46.3633 9.97565 46.9208 9.65524L48.8775 8.52546C49.435 8.20504 50.1466 8.39726 50.467 8.95492C50.7873 9.51243 50.5951 10.2241 50.0376 10.5446L48.0808 11.6743C47.5234 11.9948 46.8117 11.8025 46.4913 11.2449ZM19.4724 8.95477C19.7927 8.39726 20.5044 8.20504 21.0618 8.52531L23.0186 9.65509C23.576 9.9755 23.7682 10.6872 23.448 11.2447C23.1276 11.8022 22.416 11.9945 21.8585 11.6742L19.9018 10.5444C19.3443 10.224 19.152 9.51228 19.4724 8.95477ZM38.8552 17.3962H37.7953V16.3363C37.7953 15.7557 38.2747 15.2764 38.8552 15.2764C39.4358 15.2764 39.915 15.7558 39.915 16.3363C39.915 16.9167 39.4358 17.3962 38.8552 17.3962ZM25.5957 3.99099C25.2754 3.43348 25.4676 2.72176 26.0251 2.40135C26.5826 2.08093 27.2942 2.2733 27.6146 2.83081L28.7444 4.78779C29.0648 5.34529 28.8724 6.05702 28.315 6.37743C27.7575 6.69784 27.0459 6.50562 26.7255 5.94797L25.5957 3.99099ZM33.8004 3.4291V1.16939C33.8004 0.523596 34.3239 0 34.9697 0C35.6154 0 36.1389 0.523596 36.1389 1.16939V3.4291C36.1389 4.07489 35.6154 4.59849 34.9697 4.59849C34.3239 4.59849 33.8004 4.07489 33.8004 3.4291ZM35.4569 19.735V29.129H34.4825V19.735H35.4569ZM29.2421 29.129C28.7805 21.2753 25.3772 21.5939 25.3772 16.2657C25.3772 10.9673 29.6719 6.67212 34.9697 6.67212C40.2674 6.67212 44.5621 10.9673 44.5621 16.2657C44.5621 21.5937 41.1588 21.2753 40.6973 29.129H37.7953V19.735H38.8552C40.7266 19.735 42.2535 18.2079 42.2535 16.3363C42.2535 14.4647 40.7266 12.9376 38.8552 12.9376C36.9838 12.9376 35.4569 14.4647 35.4569 16.3363V17.3962H34.4825V16.3363C34.4825 14.4647 32.9556 12.9376 31.0842 12.9376C29.2128 12.9376 27.6859 14.4647 27.6859 16.3363C27.6859 18.2079 29.2128 19.735 31.0842 19.735H32.1441V29.129H29.2421ZM6.58204 30.1414C6.58204 26.3178 9.6813 23.2181 13.5045 23.2181C17.3276 23.2181 20.4269 26.3178 20.4269 30.1414C20.4269 33.965 17.3276 37.0646 13.5045 37.0646C9.6813 37.0646 6.58204 33.9649 6.58204 30.1414ZM32.144 16.3361V17.396H31.0841C30.5035 17.396 30.0243 16.9166 30.0243 16.3361C30.0243 15.7555 30.5035 15.2762 31.0841 15.2762C31.6646 15.2762 32.144 15.7555 32.144 16.3361ZM41.1951 4.78325L42.3249 2.82628C42.6477 2.26877 43.3614 2.0786 43.9188 2.40149C44.4763 2.72439 44.6664 3.43816 44.3436 3.99567L43.2138 5.95265C42.8909 6.51016 42.1772 6.70033 41.6198 6.37743C41.0625 6.05453 40.8722 5.34076 41.1951 4.78325ZM32.3995 38.3858V36.8267C31.5195 36.8267 30.8008 36.1589 30.8008 35.2677L30.8007 33.7088C29.9435 33.7088 29.2419 33.0073 29.2419 32.1498V31.4676H40.6971V32.1498C40.6971 33.0073 39.9957 33.7088 39.1383 33.7088V35.2677C39.1383 36.1591 38.4198 36.8267 37.5397 36.8267V38.3858C37.5397 39.2432 36.8383 39.9447 35.9809 39.9447H33.958C33.1009 39.9447 32.3995 39.2432 32.3995 38.3858Z" fill="#2378DA"/>
</svg>
