<svg width="39" height="36" viewBox="0 0 39 36" fill="none" xmlns="http://www.w3.org/2000/svg">
<path fill-rule="evenodd" clip-rule="evenodd" d="M19.0829 0C27.5846 0 34.4069 7.01792 34.1642 15.5264C34.1631 15.5695 34.1277 15.6036 34.0846 15.6036H33.0528C33.0306 15.6036 33.0114 15.5954 32.9958 15.5794C32.9803 15.5635 32.9729 15.5441 32.9735 15.5218C33.0073 14.4186 32.9125 13.3328 32.6957 12.2774C32.6875 12.2376 32.6512 12.2107 32.6108 12.2143L32.4171 12.2316C32.412 12.2321 32.4076 12.2321 32.4025 12.2315C31.8684 12.1806 31.4211 12.0233 31.0642 11.7553C30.2707 11.1594 30.3645 10.291 29.4999 9.79003C28.6464 9.29563 27.8031 9.92653 26.7963 9.14396C25.0835 7.81269 26.9582 6.18159 26.5084 3.37044C26.5046 3.34701 26.4923 3.32835 26.4722 3.31569C24.3318 1.96935 21.7984 1.19037 19.083 1.19037C17.7025 1.19037 16.3691 1.39175 15.1105 1.76653C15.0964 1.77075 15.0852 1.77757 15.0752 1.78834C11.3211 5.78007 14.8428 4.92705 14.2264 8.11387C14.047 9.04129 13.1591 10.0573 12.743 11.0534C12.4302 11.802 12.3434 13.2814 11.3248 13.3995L10.2707 13.5217C9.67013 13.5913 9.12152 13.1766 9.02478 12.5798L8.80823 11.2448C8.74756 10.8708 8.51378 10.5791 8.16198 10.4383L8.0323 10.3864C7.6866 10.2481 7.32385 10.2939 7.02321 10.5135C6.53545 10.8698 6.07255 11.2425 5.63343 11.6305C5.62096 11.6415 5.61315 11.6544 5.60902 11.6705C5.33261 12.7638 5.18561 13.9087 5.18561 15.0878C5.18561 15.2329 5.18794 15.3776 5.19234 15.5216C5.19306 15.5439 5.18552 15.5634 5.16999 15.5793C5.15447 15.5953 5.13526 15.6035 5.113 15.6035H4.08121C4.03832 15.6035 4.00278 15.5693 4.00161 15.5263C3.75894 7.01792 10.5811 0 19.0829 0ZM0.00125683 16.8872L4.12508e-07 18.4347C-0.000358565 18.8144 0.233605 19.1369 0.594557 19.2546L3.38489 20.1638C3.41244 20.1727 3.43164 20.194 3.43784 20.2224C3.66444 21.2622 3.99174 22.2645 4.40986 23.2178C4.42152 23.2444 4.41847 23.2729 4.40133 23.2964L2.67779 25.6644C2.45442 25.9713 2.45415 26.3698 2.67698 26.677L4.5941 29.3204C4.81703 29.6277 5.19584 29.7511 5.55697 29.6341L8.35215 28.7285C8.3797 28.7196 8.40779 28.7255 8.42942 28.7447C9.21217 29.4417 10.064 30.0627 10.9734 30.5965C10.9983 30.6112 11.0126 30.6361 11.0125 30.665L11.0101 33.5952C11.0097 33.9748 11.2438 34.2974 11.6047 34.4151L14.7094 35.4267C15.0703 35.5443 15.4493 35.4215 15.6728 35.1146L17.4005 32.7407C17.4176 32.7174 17.4436 32.7056 17.4724 32.7085C18.5176 32.8109 19.5746 32.811 20.6198 32.7088C20.6486 32.7061 20.6748 32.7178 20.6918 32.7412L22.4127 35.114C22.6356 35.4213 23.0146 35.5447 23.3757 35.4277L26.4821 34.4213C26.8432 34.3042 27.0777 33.982 27.0781 33.6024L27.0805 30.6672C27.0805 30.6383 27.0948 30.6134 27.1197 30.5988C28.0292 30.0652 28.8812 29.4444 29.6642 28.7477C29.6858 28.7284 29.714 28.7226 29.7415 28.7316L32.5304 29.6403C32.8913 29.758 33.2705 29.635 33.4938 29.3282L35.4154 26.6881C35.6387 26.3812 35.6391 25.9827 35.4163 25.6753L33.6938 23.3004C33.6767 23.277 33.6737 23.2484 33.6854 23.222C34.1037 22.2686 34.4316 21.2666 34.6583 20.2268C34.6645 20.1984 34.6838 20.1771 34.7113 20.1682L37.4984 19.2651C37.8595 19.1481 38.094 18.8259 38.0943 18.4463L38.0956 16.8873C38.0957 16.8436 38.0599 16.8079 38.0162 16.8079H29.6005C29.5569 16.8079 29.5216 16.8431 29.5213 16.8867C29.4789 22.6349 24.8059 27.2816 19.0477 27.2816C13.2895 27.2816 8.61662 22.6349 8.57426 16.8867C8.57399 16.8432 8.53854 16.8079 8.49511 16.8079H0.0805907C0.0368852 16.8079 0.00125683 16.8435 0.00125683 16.8872ZM28.2139 17.0267C28.2384 17.0219 28.2615 17.0281 28.2805 17.0443C28.2995 17.0606 28.3092 17.0822 28.3084 17.1072C28.1299 22.7573 22.9699 26.9124 17.4305 25.9329C17.3992 25.9274 17.3755 25.9052 17.3675 25.8745C17.3595 25.8436 17.3697 25.8127 17.3945 25.7927C19.8785 23.7929 22.6699 22.2421 25.6811 21.0354C25.9855 20.9134 26.1333 20.5677 26.0113 20.2634C25.8894 19.959 25.5437 19.8112 25.2393 19.9332C22.2961 21.1126 19.5508 22.6155 17.085 24.5248C17.0547 24.5483 17.013 24.547 16.9842 24.5217C16.9555 24.4966 16.9485 24.4558 16.9674 24.4227C19.3085 20.315 23.1832 17.9964 28.2139 17.0267ZM9.88139 17.0267C13.1664 17.6599 15.9582 18.8686 18.1521 20.7746C18.1691 20.7893 18.1783 20.8082 18.1793 20.8306C18.1804 20.8531 18.1731 20.8728 18.1576 20.8891C17.2455 21.8497 16.4412 22.9554 15.7622 24.2216L15.2485 25.1792C15.2286 25.2164 15.1833 25.2314 15.1452 25.2137C12.0632 23.7804 9.90113 20.7026 9.78698 17.1071C9.78617 17.0821 9.79586 17.0604 9.81489 17.0442C9.83382 17.028 9.85689 17.0219 9.88139 17.0267ZM23.9526 6.70758C23.9526 6.22673 23.5604 5.83455 23.0795 5.83455H22.0933C21.6125 5.83455 21.2203 6.22673 21.2203 6.70758L21.2215 18.2664C21.2215 18.2964 21.2368 18.322 21.2632 18.3362C21.2896 18.3504 21.3195 18.349 21.3445 18.3326C22.2671 17.7248 22.8213 17.5035 23.9025 17.0745C23.9334 17.0623 23.9526 17.0339 23.9526 17.0007V6.70758ZM17.4127 10.6064V18.6728C17.4127 18.7 17.4252 18.7234 17.4477 18.7386C18.019 19.1234 18.5007 19.4985 19.0241 19.9558C19.0542 19.9821 19.0984 19.9821 19.1285 19.9558C19.3272 19.7822 19.7918 19.3843 20.0448 19.1731C20.0634 19.1575 20.0732 19.1365 20.0732 19.1121V10.6063C20.0732 10.1255 19.681 9.73331 19.2002 9.73331H18.2857C17.8049 9.7334 17.4127 10.1256 17.4127 10.6064ZM16.4128 14.2076C16.4128 13.7268 16.0206 13.3346 15.5398 13.3346H15.0158C14.535 13.3346 14.1428 13.7268 14.1428 14.2076V16.9592C14.1428 16.9923 14.162 17.0205 14.1928 17.0328C14.9144 17.3208 15.617 17.6517 16.2948 18.0304C16.32 18.0445 16.3487 18.0443 16.3737 18.0296C16.3986 18.015 16.4129 17.9901 16.4129 17.9612V14.2076H16.4128Z" fill="white"/>
</svg>
