<svg width="31" height="35" viewBox="0 0 31 35" fill="none" xmlns="http://www.w3.org/2000/svg">
<path fill-rule="evenodd" clip-rule="evenodd" d="M22.371 11.4639L18.9178 21.8284C18.8661 21.9769 18.8445 22.1343 18.8541 22.2912C18.8637 22.4482 18.9044 22.6017 18.9738 22.7428C19.0433 22.8839 19.14 23.0098 19.2585 23.1133C19.377 23.2167 19.5149 23.2955 19.6641 23.3452C19.8133 23.3949 19.9709 23.4145 20.1277 23.4028C20.2845 23.3911 20.4375 23.3483 20.5777 23.2771C20.7179 23.2058 20.8425 23.1073 20.9443 22.9875C21.0461 22.8676 21.1232 22.7288 21.1709 22.5789L24.6241 12.2144C24.6758 12.0659 24.6974 11.9085 24.6878 11.7516C24.6782 11.5946 24.6375 11.4411 24.5681 11.3C24.4986 11.1589 24.4019 11.0329 24.2834 10.9295C24.1649 10.8261 24.027 10.7473 23.8778 10.6976C23.7286 10.6479 23.571 10.6283 23.4142 10.64C23.2574 10.6517 23.1044 10.6944 22.9642 10.7657C22.8241 10.837 22.6994 10.9355 22.5976 11.0553C22.4958 11.1752 22.4188 11.314 22.371 11.4639ZM25.3936 14.4073L28.0077 17.0214L25.3936 19.6355C25.2833 19.7458 25.1958 19.8767 25.1361 20.0209C25.0764 20.165 25.0457 20.3194 25.0457 20.4754C25.0457 20.6314 25.0764 20.7859 25.1361 20.93C25.1958 21.0741 25.2833 21.2051 25.3936 21.3154C25.5039 21.4257 25.6349 21.5132 25.779 21.5729C25.9231 21.6326 26.0776 21.6633 26.2336 21.6633C26.3896 21.6633 26.544 21.6326 26.6882 21.5729C26.8323 21.5132 26.9632 21.4257 27.0735 21.3154L30.5268 17.8606C30.6371 17.7504 30.7246 17.6196 30.7843 17.4756C30.844 17.3316 30.8747 17.1773 30.8747 17.0214C30.8747 16.8655 30.844 16.7112 30.7843 16.5672C30.7246 16.4232 30.6371 16.2924 30.5268 16.1822L27.0735 12.7274C26.9632 12.6171 26.8323 12.5296 26.6882 12.4699C26.544 12.4102 26.3896 12.3795 26.2336 12.3795C26.0776 12.3795 25.9231 12.4102 25.779 12.4699C25.6349 12.5296 25.5039 12.6171 25.3936 12.7274C25.2833 12.8377 25.1958 12.9687 25.1361 13.1128C25.0764 13.2569 25.0457 13.4114 25.0457 13.5674C25.0457 13.7233 25.0764 13.8778 25.1361 14.0219C25.1958 14.1661 25.2833 14.297 25.3936 14.4073ZM16.4684 12.7274L13.0151 16.1822C12.9048 16.2924 12.8173 16.4232 12.7576 16.5672C12.6979 16.7112 12.6672 16.8655 12.6672 17.0214C12.6672 17.1773 12.6979 17.3316 12.7576 17.4756C12.8173 17.6196 12.9048 17.7504 13.0151 17.8606L16.4684 21.3154C16.5787 21.4257 16.7096 21.5132 16.8537 21.5729C16.9979 21.6326 17.1523 21.6633 17.3083 21.6633C17.4643 21.6633 17.6188 21.6326 17.7629 21.5729C17.907 21.5132 18.038 21.4257 18.1483 21.3154C18.2586 21.2051 18.3461 21.0741 18.4058 20.93C18.4655 20.7859 18.4962 20.6314 18.4962 20.4754C18.4962 20.3194 18.4655 20.165 18.4058 20.0209C18.3461 19.8767 18.2586 19.7458 18.1483 19.6355L15.5342 17.0214L18.1483 14.4073C18.2586 14.297 18.3461 14.1661 18.4058 14.0219C18.4655 13.8778 18.4962 13.7233 18.4962 13.5674C18.4962 13.4114 18.4655 13.2569 18.4058 13.1128C18.3461 12.9687 18.2586 12.8377 18.1483 12.7274C18.038 12.6171 17.907 12.5296 17.7629 12.4699C17.6188 12.4102 17.4643 12.3795 17.3083 12.3795C17.1523 12.3795 16.9979 12.4102 16.8537 12.4699C16.7096 12.5296 16.5787 12.6171 16.4684 12.7274Z" fill="#000A21"/>
<path fill-rule="evenodd" clip-rule="evenodd" d="M22.9583 22.2205L22.6717 23.0787C22.4922 23.616 22.1523 24.0854 21.6978 24.4236C21.2433 24.7618 20.696 24.9526 20.1298 24.9702C19.5635 24.9878 19.0055 24.8314 18.5308 24.522C18.0562 24.2127 17.6878 23.7653 17.4752 23.2402C17.0839 23.2641 16.692 23.2046 16.3254 23.0657C15.9589 22.9268 15.626 22.7115 15.3488 22.4343L11.8956 18.9794C11.6381 18.7224 11.4339 18.4171 11.2945 18.081C11.1551 17.7449 11.0834 17.3847 11.0834 17.0208C11.0834 16.657 11.1551 16.2968 11.2945 15.9607C11.4339 15.6246 11.6381 15.3193 11.8956 15.0623L15.3488 11.6074C15.7237 11.2323 16.1983 10.9725 16.7164 10.8591C17.2344 10.7457 17.7741 10.7833 18.2715 10.9675C18.7688 11.1518 19.2028 11.4748 19.5219 11.8984C19.8411 12.3219 20.0319 12.8282 20.0719 13.357L20.8699 10.963C21.0244 10.499 21.299 10.0842 21.6659 9.76074C22.0327 9.4373 22.4786 9.21677 22.9583 9.12158V4.35417C22.9583 3.19992 22.4992 2.09158 21.6837 1.27458C20.8664 0.458843 19.7589 0.000484841 18.6042 0H4.35417C3.19992 0 2.09158 0.459167 1.27458 1.27458C0.458843 2.09194 0.000484841 3.1994 0 4.35417V29.6875C0 30.8418 0.459167 31.9501 1.27458 32.7671C2.09193 33.5828 3.1994 34.0412 4.35417 34.0417H18.6042C19.7584 34.0417 20.8667 33.5825 21.6837 32.7671C22.4995 31.9497 22.9578 30.8423 22.9583 29.6875V22.2205ZM8.3125 30.0833H14.6458C14.9608 30.0833 15.2628 29.9582 15.4855 29.7355C15.7082 29.5128 15.8333 29.2108 15.8333 28.8958C15.8333 28.5809 15.7082 28.2788 15.4855 28.0561C15.2628 27.8334 14.9608 27.7083 14.6458 27.7083H8.3125C7.99755 27.7083 7.69551 27.8334 7.47281 28.0561C7.25011 28.2788 7.125 28.5809 7.125 28.8958C7.125 29.2108 7.25011 29.5128 7.47281 29.7355C7.69551 29.9582 7.99755 30.0833 8.3125 30.0833ZM17.8125 2.375H5.14583L6.13225 4.84025C6.30854 5.28106 6.6129 5.65892 7.00605 5.92506C7.39919 6.19121 7.86308 6.33341 8.33783 6.33333H14.6205C15.0953 6.33341 15.5591 6.19121 15.9523 5.92506C16.3454 5.65892 16.6498 5.28106 16.8261 4.84025L17.8125 2.375Z" fill="#000A21"/>
</svg>
