<svg width="90" height="90" viewBox="0 0 90 90" fill="none" xmlns="http://www.w3.org/2000/svg">
<circle cx="45" cy="45" r="45" fill="white"/>
<path d="M45.1093 56.6246H31.4899L28.7075 65.2282C28.6342 65.5577 28.3414 65.7773 28.0119 65.7408H21.1289C20.7261 65.7408 20.6163 65.5211 20.7261 65.0818L32.5149 31.1431C32.6248 30.777 32.7346 30.3743 32.881 29.9349C33.0274 29.1661 33.1006 28.3607 33.1006 27.5551C33.0641 27.372 33.2105 27.1891 33.3936 27.1523H33.5034H42.8759C43.1688 27.1523 43.3152 27.2622 43.3518 27.4453L56.7149 65.1549C56.8248 65.5577 56.7149 65.7406 56.3489 65.7406H48.6971C48.4408 65.7772 48.1845 65.5942 48.1113 65.3378L45.1093 56.6246ZM33.6133 49.1924H42.9126L38.2263 33.9255L33.6133 49.1924Z" fill="#FF9A00"/>
<path d="M64.6982 33.4123C63.49 33.4489 62.3184 32.973 61.4397 32.1309C60.5976 31.2156 60.1583 30.0075 60.195 28.7626C60.1584 27.5178 60.6343 26.3462 61.513 25.5041C62.3917 24.662 63.5633 24.2227 64.7715 24.2227C66.1993 24.2227 67.2976 24.662 68.103 25.5041C68.9084 26.3828 69.3478 27.5544 69.3112 28.7626C69.3478 30.0073 68.9084 31.2155 68.0298 32.1309C67.1878 33.0095 65.9429 33.4854 64.6982 33.4123Z" fill="#FF9A00"/>
<path d="M60.5962 65.1917V37.0009C60.5962 36.6348 60.7426 36.4883 61.0721 36.4883H68.3211C68.6506 36.4883 68.797 36.6714 68.797 37.0009V65.1917C68.797 65.5944 68.6506 65.7774 68.3211 65.7774H61.1454C60.7791 65.7774 60.5962 65.5577 60.5962 65.1917Z" fill="#FF9A00"/>
</svg>
