<svg width="70" height="70" viewBox="0 0 70 70" fill="none" xmlns="http://www.w3.org/2000/svg">
<path d="M58.6161 1.28797C57.9234 0.741647 57.0142 0.668776 56.2432 1.09739L53.1244 2.83208C52.6406 3.10114 52.3325 3.57145 52.2795 4.12256C52.2698 4.22264 52.2718 4.32108 52.2795 4.41829L50.6389 5.33075C48.4684 6.53784 46.1434 6.74606 43.7283 5.95008C40.8307 4.9951 37.7196 5.53419 34.482 7.55284L34.265 7.68819C31.6304 5.95924 29.3446 6.15598 26.9313 6.36516C24.4628 6.57926 21.9104 6.80048 18.554 4.91266L17.7188 4.4429C17.7285 4.33776 17.7312 4.23112 17.7207 4.12256C17.6675 3.57159 17.3595 3.10114 16.8758 2.83208L13.7568 1.09739C12.9858 0.668639 12.0765 0.74151 11.3839 1.28797C6.34198 5.26471 3.53583 12.3271 4.71161 18.0809C4.85517 18.7831 5.31604 19.3466 5.97585 19.6269L8.42134 20.6654C8.63407 20.7558 8.85515 20.8005 9.07444 20.8005C9.38931 20.8005 9.70048 20.7083 9.97843 20.5265C10.1113 20.4394 10.2266 20.3358 10.3265 20.2212L16.3168 23.3091L18.1742 25.3078L17.9986 25.6117C17.1143 27.1434 17.641 29.109 19.1726 29.9933C19.773 30.3399 20.4397 30.47 21.0818 30.4073C20.4362 31.8828 20.991 33.6449 22.4178 34.4688C23.5297 35.1108 24.8701 35.0091 25.8597 34.3194C26.0965 35.0459 26.5914 35.6909 27.3037 36.1022C28.0424 36.5287 28.9067 36.641 29.7366 36.4187C30.1555 36.3064 30.5393 36.116 30.8715 35.86C31.1258 36.5814 31.6217 37.1809 32.2878 37.5655C32.7786 37.8489 33.3247 37.9937 33.8795 37.9935C34.1596 37.9935 34.4421 37.9566 34.7207 37.882C35.5508 37.6595 36.2429 37.1302 36.6693 36.3915L36.8076 36.1521L37.6811 36.6433C38.4472 37.0856 39.1198 37.2353 39.6792 37.2353C40.3341 37.2353 40.8338 37.0302 41.1469 36.8493C42.0335 36.3375 42.5843 35.3773 42.5843 34.3436C42.5843 34.2783 42.5822 34.2135 42.5779 34.1493C42.8332 34.2159 43.0931 34.2485 43.3513 34.2485C44.4168 34.2485 45.4546 33.6959 46.0246 32.7087C46.4032 32.0528 46.5206 31.2946 46.3682 30.5541C46.4449 30.5596 46.5217 30.563 46.5983 30.563C47.7175 30.563 48.8075 29.9825 49.4062 28.9456C49.821 28.2273 49.9404 27.3915 49.7476 26.582C49.8043 26.585 49.8611 26.5876 49.9181 26.5876C50.2004 26.5876 50.4849 26.5505 50.7655 26.4753C51.6023 26.2509 52.3004 25.7166 52.7312 24.9704C53.0685 24.3862 53.2045 23.7347 53.1471 23.0958L59.5872 20.1162C59.7033 20.2744 59.8488 20.4136 60.0215 20.5266C60.2991 20.7085 60.6104 20.8006 60.9253 20.8006C61.1446 20.8006 61.3658 20.7559 61.5785 20.6655L64.024 19.627C64.684 19.3467 65.1449 18.7832 65.2883 18.0809C66.4641 12.3273 63.6579 5.26499 58.6158 1.28811L58.6161 1.28797ZM9.22976 19.3824C9.13939 19.4416 9.05476 19.449 8.95577 19.4069L6.51028 18.3684C6.25995 18.2622 6.10546 18.0732 6.05104 17.807C4.97302 12.5317 7.5719 6.03594 12.2305 2.36149C12.486 2.15997 12.8081 2.13413 13.0923 2.29231L16.2112 4.027C16.3039 4.0784 16.3497 4.14854 16.3599 4.25409C16.37 4.3595 16.3383 4.43702 16.2572 4.50538C11.8053 8.25366 9.42075 13.3146 9.36169 19.1413C9.3606 19.2491 9.31985 19.3235 9.22989 19.3826L9.22976 19.3824ZM19.8564 28.8093C18.9775 28.302 18.6754 27.1742 19.1827 26.2953L20.9967 23.1534C21.2406 22.7309 21.6379 22.4277 22.1154 22.2999C22.5926 22.1718 23.0883 22.2357 23.5108 22.4798C24.3897 22.9872 24.692 24.1149 24.1845 24.9939V24.9942L22.3709 28.1356C22.3709 28.1356 22.3709 28.1357 22.3708 28.1358C21.8634 29.0147 20.7355 29.317 19.8566 28.8095L19.8564 28.8093ZM25.6156 32.6112C25.1083 33.49 23.9805 33.7922 23.1017 33.2848C22.2228 32.7774 21.9205 31.6497 22.4279 30.7707L23.2715 29.3096L25.3701 25.6746C25.8783 24.7979 27.0048 24.4968 27.8826 25.0038C28.3058 25.2482 28.6094 25.6452 28.7371 26.1221C28.8648 26.5987 28.8005 27.0943 28.5563 27.5176L26.0072 31.9328L25.6155 32.6112H25.6156ZM30.5016 34.2444C29.9942 35.1234 28.8663 35.4256 27.9874 34.9181C27.1096 34.4112 26.807 33.2855 27.312 32.4071L29.74 28.2016C29.74 28.2016 29.7403 28.2011 29.7404 28.2008L29.7411 28.1996C29.9852 27.7779 30.3819 27.4755 30.8587 27.3478C31.3361 27.2201 31.8317 27.2838 32.2543 27.5277C33.1331 28.0351 33.4353 29.1629 32.9279 30.0418V30.0421L31.1146 33.1831C31.1146 33.1831 31.1143 33.1835 31.1142 33.1836C31.1138 33.1843 31.1134 33.1851 31.113 33.1858L30.5018 34.2443L30.5016 34.2444ZM35.4856 35.7077C35.2417 36.1302 34.8444 36.4334 34.3671 36.5613C33.8899 36.6892 33.3941 36.6253 32.9716 36.3814C32.5482 36.1369 32.2449 35.7399 32.1172 35.263C31.9899 34.788 32.0532 34.2943 32.2953 33.872L34.1128 30.7238C34.3569 30.3022 34.7536 29.9996 35.2304 29.8719C35.7077 29.7438 36.2033 29.8078 36.6259 30.0518C37.5047 30.5592 37.807 31.687 37.2996 32.5659L35.4856 35.7077ZM40.4637 35.6651C39.9022 35.9892 39.1567 35.9161 38.3582 35.4552L37.4914 34.9678L38.4836 33.2494C38.7101 32.857 38.8434 32.4362 38.8916 32.0125C38.9491 32.1312 39.0415 32.2344 39.1645 32.3054L40.3781 33.006C40.9194 33.3189 41.2176 33.7938 41.2176 34.3436C41.2176 34.8821 40.9217 35.4009 40.4637 35.6652V35.6651ZM51.5474 24.2867C51.2992 24.7165 50.8959 25.0247 50.4118 25.1544C49.9275 25.2842 49.4241 25.2188 48.9944 24.9707L44.9214 22.6191C44.5942 22.4303 44.1764 22.5423 43.9876 22.8693C43.7988 23.1963 43.9108 23.6143 44.2378 23.8031L47.5382 25.7087C47.5382 25.7087 47.5383 25.7087 47.5385 25.7088C47.9676 25.9565 48.2754 26.3599 48.4053 26.8447C48.5352 27.3295 48.4702 27.8327 48.2225 28.2618C47.7072 29.1541 46.5619 29.4611 45.6695 28.9458L41.802 26.7129C41.475 26.5242 41.0571 26.6362 40.8683 26.9631C40.6794 27.2901 40.7916 27.7081 41.1184 27.8969L44.2135 29.6838C44.6068 29.9109 44.8891 30.2808 45.0082 30.7253C45.1273 31.1698 45.0678 31.6312 44.8408 32.0247C44.3683 32.8429 43.3181 33.1243 42.4999 32.6519L41.0621 31.8219L41.0607 31.8211L39.8479 31.1208C39.5209 30.932 39.1029 31.0441 38.9141 31.371C38.9091 31.3796 38.9066 31.3891 38.9021 31.3978C38.8218 30.3794 38.259 29.4155 37.3095 28.8673C36.5708 28.4407 35.7068 28.3286 34.8766 28.5508C34.7506 28.5846 34.628 28.6253 34.5088 28.6729C34.3747 27.7299 33.8248 26.8555 32.9379 26.3433C32.0511 25.8313 31.0192 25.7922 30.1357 26.1471C30.1174 26.0203 30.0913 25.8937 30.0576 25.7677C29.8353 24.9383 29.3057 24.2463 28.566 23.8194C27.6798 23.3076 26.6483 23.2684 25.7651 23.6229C25.6304 22.6806 25.0807 21.807 24.1943 21.2954C23.4556 20.8688 22.5916 20.7566 21.7614 20.9789C20.9312 21.2013 20.2392 21.7307 19.8127 22.4694L18.8895 24.0686L17.2371 22.2906C17.1832 22.2327 17.1198 22.1846 17.0495 22.1482L10.7346 18.893C10.8545 13.5574 12.9759 9.09749 17.0441 5.63167L17.8838 6.10389C21.6084 8.1987 24.4991 7.94809 27.0495 7.72688C29.1201 7.54751 30.9438 7.38946 32.9644 8.4988L26.2805 12.6661C25.5392 13.1284 25.1018 13.815 25.0492 14.5996C24.9912 15.4615 25.4153 16.3778 26.1558 16.9909C28.8251 19.2013 31.2163 18.033 33.5289 16.9033C34.9738 16.1974 36.4678 15.4675 38.1367 15.4576H38.172C39.9995 15.4576 41.4578 16.3012 43.0009 17.194L50.833 21.7158C51.1127 21.9199 51.3082 22.1074 51.4466 22.3041C51.8686 22.9039 51.9073 23.6636 51.5478 24.2865L51.5474 24.2867ZM52.5644 21.5176C52.3312 21.186 52.026 20.8903 51.6044 20.5868C51.5858 20.5735 51.5666 20.5611 51.5469 20.5497L43.6855 16.0108C42.0535 15.0666 40.3665 14.0906 38.1724 14.0906C38.1579 14.0906 38.143 14.0906 38.1284 14.0906C36.1478 14.1023 34.4374 14.9378 32.9286 15.6749C30.7434 16.7425 29.0173 17.5858 27.0277 15.9379C26.6258 15.6052 26.3847 15.1158 26.4131 14.6912C26.4362 14.3472 26.635 14.0563 27.0037 13.8263L35.2054 8.71276C38.1231 6.89372 40.771 6.41465 43.3003 7.24837C46.093 8.16889 48.7856 7.92567 51.3033 6.5254L52.9381 5.61622C56.9841 9.05538 59.1104 13.4752 59.2627 18.7598L52.7308 21.782C52.6794 21.6923 52.625 21.6037 52.5644 21.5176ZM63.9491 17.8069C63.8947 18.0731 63.7402 18.262 63.4899 18.3682L61.0444 19.4068C60.945 19.449 60.8606 19.4414 60.7705 19.3823C60.6803 19.3232 60.6396 19.2489 60.6385 19.141C60.5794 13.3143 58.1949 8.25325 53.7429 4.5051C53.6617 4.43674 53.6301 4.35923 53.6402 4.25381C53.6505 4.14827 53.6963 4.07827 53.7889 4.02673L56.9077 2.29204C57.031 2.2234 57.1616 2.1895 57.2906 2.1895C57.4589 2.1895 57.6249 2.24719 57.7694 2.36122C62.4281 6.03567 65.027 12.5315 63.949 17.8067L63.9491 17.8069ZM60.7165 38.1586L55.9613 37.2209L54.9786 34.8516C54.8341 34.503 54.434 34.3375 54.0857 34.4819L48.2449 36.9009C48.0773 36.9703 47.9443 37.1034 47.8748 37.271C47.8054 37.4386 47.8055 37.6267 47.8748 37.7943C48.5683 39.467 48.9199 41.2399 48.9199 43.0636C48.9199 50.6556 42.7433 56.8322 35.1514 56.8322C27.5594 56.8322 21.3828 50.6556 21.3828 43.0636C21.3828 41.2398 21.7345 39.4668 22.4279 37.7943C22.4974 37.6267 22.4974 37.4386 22.4279 37.271C22.3584 37.1034 22.2254 36.9703 22.0578 36.9009L16.2172 34.4821C15.8688 34.3377 15.4688 34.5031 15.3243 34.8517L14.3415 37.2209L9.58632 38.1586C9.26599 38.2217 9.03493 38.5027 9.03493 38.8292V47.2982C9.03493 47.6248 9.26585 47.9057 9.58632 47.9688L14.3415 48.9064L16.3069 53.6444L13.6057 57.6724C13.4239 57.9437 13.4592 58.3056 13.6901 58.5365L19.6785 64.525C19.9094 64.7558 20.2714 64.7914 20.5425 64.6094L24.5706 61.9083L29.3085 63.8736L30.2462 68.6288C30.3093 68.9491 30.5903 69.1802 30.9168 69.1802H39.3858C39.7124 69.1802 39.9933 68.9493 40.0564 68.6288L40.994 63.8736L45.732 61.9083L49.7599 64.6094C50.031 64.7912 50.3929 64.756 50.624 64.525L56.6124 58.5365C56.8433 58.3056 56.8786 57.9437 56.6967 57.6724L53.9956 53.6444L55.9609 48.9064L60.7161 47.9688C61.0365 47.9057 61.2675 47.6247 61.2675 47.2982V38.8292C61.2675 38.5025 61.0366 38.2217 60.7161 38.1586H60.7165ZM59.9007 46.7363L55.3379 47.636C55.1137 47.6802 54.9264 47.8336 54.8387 48.0447L52.5928 53.459C52.5051 53.6704 52.529 53.9116 52.6564 54.1016L55.2486 57.9672L50.0549 63.161L46.1895 60.5688C45.9994 60.4413 45.7583 60.4173 45.5469 60.5051L40.1324 62.751C39.9213 62.8386 39.7678 63.0259 39.7236 63.2501L38.8239 67.813H31.4788L30.5791 63.2501C30.5349 63.0259 30.3815 62.8386 30.1703 62.751L24.7559 60.5051C24.5446 60.4173 24.3034 60.4413 24.1134 60.5687L20.2479 63.161L15.0542 57.9672L17.6464 54.1016C17.7739 53.9116 17.7978 53.6704 17.71 53.459L15.4641 48.0447C15.3765 47.8336 15.1892 47.6802 14.965 47.636L10.4021 46.7363V39.3912L14.965 38.4915C15.1892 38.4473 15.3765 38.2939 15.4641 38.0827L16.3253 36.0065L20.9172 37.9082C20.3186 39.5582 20.0156 41.2891 20.0156 43.0636C20.0156 51.4095 26.8055 58.1993 35.1514 58.1993C43.4972 58.1993 50.2871 51.4095 50.2871 43.0636C50.2871 41.2891 49.9841 39.5583 49.3854 37.9082L53.9774 36.0065L54.8386 38.0827C54.9261 38.2938 55.1135 38.4473 55.3377 38.4915L59.9006 39.3912V46.7363H59.9007ZM44.8 43.0638C44.8 41.786 44.5535 40.5435 44.0672 39.371C43.9226 39.0224 43.5229 38.8566 43.1741 39.0013L35.1514 42.324L27.1286 39.0013C26.7802 38.8569 26.3802 39.0224 26.2355 39.371C25.7492 40.5436 25.5027 41.7861 25.5027 43.0638C25.5027 48.384 29.8311 52.7123 35.1512 52.7123C40.4714 52.7123 44.7997 48.3839 44.7997 43.0638H44.8ZM26.87 43.0638C26.87 42.1972 27.002 41.35 27.2628 40.5366L34.8898 43.6954C35.0573 43.7647 35.2456 43.7647 35.4129 43.6954L43.0399 40.5366C43.3008 41.35 43.4327 42.1972 43.4327 43.0638C43.4327 47.6302 39.7178 51.3451 35.1514 51.3451C30.5849 51.3451 26.87 47.6302 26.87 43.0638Z" fill="url(#paint0_linear_243_12884)"/>
<defs>
<linearGradient id="paint0_linear_243_12884" x1="-15.2492" y1="51.2957" x2="128.41" y2="-6.99113" gradientUnits="userSpaceOnUse">
<stop stop-color="#2378DA"/>
<stop offset="0.951841" stop-color="#042F61"/>
</linearGradient>
</defs>
</svg>
