<svg width="38" height="36" viewBox="0 0 38 36" fill="none" xmlns="http://www.w3.org/2000/svg">
<path d="M32.7409 20.7971C32.3975 20.7963 32.0572 20.7328 31.7366 20.6096C31.1756 20.8884 30.5988 21.1343 30.0092 21.3461C29.7901 21.8351 29.4336 22.2498 28.983 22.5399C28.5325 22.8299 28.0074 22.9828 27.4716 22.9798H25.8781C25.3411 22.9801 24.8156 22.8246 24.3652 22.5323C23.9148 22.2399 23.5588 21.8233 23.3405 21.3327C22.739 21.1462 22.1562 20.9041 21.5996 20.6096C21.098 20.8032 20.5507 20.8462 20.025 20.7332C19.4993 20.6202 19.018 20.3562 18.6402 19.9735L17.5221 18.8487C17.1345 18.4713 16.8677 17.9872 16.7557 17.4579C16.6436 16.9286 16.6913 16.378 16.8927 15.8759C16.6044 15.3207 16.3561 14.7456 16.1495 14.1551C15.66 13.9367 15.2448 13.5804 14.9546 13.1297C14.6645 12.679 14.512 12.1535 14.5158 11.6175V10.024C14.5138 9.48926 14.6662 8.96531 14.9549 8.51514C15.2435 8.06497 15.656 7.70775 16.1428 7.48642C16.36 6.89795 16.6081 6.32133 16.886 5.75899C16.6886 5.25885 16.6421 4.71185 16.7521 4.18555H2.00865C1.47603 4.1859 0.965328 4.39764 0.588711 4.77426C0.212093 5.15088 0.000354724 5.66158 0 6.19419V26.3476C0.000354724 26.8802 0.212093 27.3909 0.588711 27.7675C0.965328 28.1442 1.47603 28.3559 2.00865 28.3563H33.5846C34.1172 28.3559 34.6279 28.1442 35.0045 27.7675C35.3811 27.3909 35.5929 26.8802 35.5932 26.3476V19.0897C34.8299 19.8764 33.9374 20.8727 32.7409 20.7971ZM6.89635 22.2634C6.9882 22.358 7.05032 22.4774 7.07503 22.607C7.09974 22.7365 7.08596 22.8705 7.03539 22.9923C6.98482 23.114 6.89968 23.2183 6.79049 23.2923C6.6813 23.3662 6.55283 23.4066 6.42097 23.4083C6.33235 23.4082 6.24464 23.3904 6.163 23.3559C6.08136 23.3214 6.00744 23.2709 5.94559 23.2074L3.68921 20.9511C3.56377 20.8246 3.49338 20.6538 3.49338 20.4757C3.49338 20.2976 3.56377 20.1267 3.68921 20.0003L5.94559 17.7439C6.07078 17.6178 6.24093 17.5466 6.41861 17.546C6.59628 17.5454 6.76693 17.6154 6.89301 17.7406C7.01908 17.8658 7.09027 18.0359 7.09089 18.2136C7.09152 18.3913 7.02154 18.5619 6.89635 18.688L5.10866 20.4757L6.89635 22.2634ZM11.5899 18.38L10.465 22.8994C10.4215 23.0717 10.3114 23.2196 10.1588 23.3106C10.0063 23.4017 9.82379 23.4284 9.65155 23.3849C9.4793 23.3414 9.33139 23.2312 9.24035 23.0786C9.14932 22.9261 9.12262 22.7436 9.16612 22.5714L10.291 18.0519C10.3345 17.8797 10.4446 17.7317 10.5972 17.6407C10.7497 17.5497 10.9322 17.523 11.1045 17.5665C11.2767 17.61 11.4246 17.7201 11.5157 17.8727C11.6067 18.0253 11.6334 18.2077 11.5899 18.38ZM17.0668 20.9511L14.8104 23.2074C14.7486 23.2709 14.6747 23.3214 14.593 23.3559C14.5114 23.3904 14.4237 23.4082 14.335 23.4083C14.2032 23.4066 14.0747 23.3662 13.9655 23.2923C13.8563 23.2183 13.7712 23.114 13.7206 22.9923C13.6701 22.8705 13.6563 22.7365 13.681 22.607C13.7057 22.4774 13.7678 22.358 13.8597 22.2634L15.6474 20.4757L13.8597 18.688C13.7976 18.626 13.7483 18.5525 13.7147 18.4715C13.6811 18.3905 13.6639 18.3036 13.6639 18.2159C13.6639 18.1283 13.6811 18.0414 13.7147 17.9604C13.7483 17.8794 13.7976 17.8059 13.8597 17.7439C13.9861 17.6185 14.1569 17.5481 14.335 17.5481C14.5131 17.5481 14.684 17.6185 14.8104 17.7439L17.0668 20.0003C17.1922 20.1267 17.2626 20.2976 17.2626 20.4757C17.2626 20.6538 17.1922 20.8246 17.0668 20.9511ZM20.8096 31.9986C20.635 31.2441 20.5674 30.4687 20.6087 29.6954H14.9845C15.0252 30.4687 14.9576 31.244 14.7836 31.9986C7.60607 32.4271 5.02831 34.3019 4.90779 34.3889C4.76573 34.4946 4.67146 34.6523 4.64572 34.8275C4.61998 35.0026 4.66488 35.1809 4.77054 35.3229C4.87619 35.465 5.03396 35.5592 5.20912 35.585C5.38428 35.6107 5.5625 35.5658 5.70456 35.4602C5.73803 35.4401 8.26223 33.6658 15.2925 33.3109C16.8445 33.2306 18.7487 33.2306 20.3007 33.3109C27.331 33.6658 29.8552 35.4401 29.882 35.4602C30.024 35.5667 30.2026 35.6125 30.3784 35.5874C30.5542 35.5622 30.7128 35.4683 30.8193 35.3263C30.9259 35.1842 30.9716 35.0056 30.9465 34.8298C30.9214 34.6541 30.8275 34.4954 30.6854 34.3889C30.5649 34.3019 27.9871 32.4271 20.8096 31.9986Z" fill="#4C5364"/>
<path d="M36.1763 8.58363C36.1572 8.58433 36.1384 8.57884 36.1227 8.56798C36.1071 8.55711 36.0953 8.54147 36.0892 8.52337C35.8099 7.54075 35.4354 6.58772 34.9711 5.67779C35.2056 5.40393 35.3277 5.0514 35.3128 4.69114C35.2979 4.33088 35.1471 3.98964 34.8907 3.7361L33.7659 2.61126C33.5126 2.35261 33.1705 2.19976 32.8089 2.18361C32.4472 2.16745 32.0929 2.28919 31.8175 2.52422C30.9063 2.06286 29.9535 1.68849 28.9719 1.40607C28.9539 1.39992 28.9383 1.38814 28.9275 1.37248C28.9166 1.35681 28.9111 1.33807 28.9117 1.31903C28.8806 0.958789 28.7155 0.623333 28.4489 0.379064C28.1823 0.134796 27.8337 -0.00047916 27.4721 1.66993e-05H25.8786C25.5218 -0.00170529 25.1771 0.129804 24.9121 0.368807C24.6471 0.60781 24.4808 0.937104 24.4458 1.29225C24.4489 1.31597 24.4441 1.34007 24.4319 1.3607C24.4198 1.38133 24.4011 1.3973 24.3788 1.40607C23.4152 1.63968 22.4937 2.0214 21.6471 2.53761C21.6301 2.54689 21.6106 2.55059 21.5914 2.54818C21.5721 2.54578 21.5541 2.5374 21.5399 2.52422C21.2648 2.28967 20.9112 2.16764 20.55 2.18254C20.1888 2.19743 19.8465 2.34816 19.5916 2.60456L18.4667 3.7361C18.2095 3.98885 18.0576 4.3296 18.0414 4.68983C18.0253 5.05006 18.1461 5.40304 18.3797 5.67779C17.9173 6.58858 17.5429 7.54143 17.2615 8.52337C17.2563 8.54198 17.2447 8.55817 17.2289 8.56917C17.213 8.58017 17.1937 8.58529 17.1745 8.58363C16.8142 8.61467 16.4788 8.77983 16.2345 9.04642C15.9903 9.31301 15.855 9.66159 15.8555 10.0232V11.6167C15.8542 11.9778 15.9894 12.3261 16.234 12.5918C16.4785 12.8575 16.8145 13.021 17.1745 13.0495C17.1941 13.0504 17.213 13.0573 17.2286 13.0693C17.2441 13.0813 17.2556 13.0977 17.2615 13.1165C17.5432 14.0962 17.9176 15.0468 18.3797 15.9554C18.146 16.2313 18.0251 16.5854 18.0413 16.9466C18.0574 17.3079 18.2094 17.6497 18.4667 17.9037L19.5916 19.0286C19.8456 19.286 20.1874 19.4379 20.5487 19.454C20.9099 19.4702 21.264 19.3493 21.5399 19.1156C21.5542 19.1026 21.5722 19.0944 21.5914 19.092C21.6106 19.0896 21.63 19.0932 21.6471 19.1022C22.4937 19.6184 23.4152 20.0002 24.3788 20.2338C24.4203 20.2391 24.4518 20.2981 24.4458 20.3476C24.482 20.7023 24.6486 21.0309 24.9134 21.2696C25.1781 21.5084 25.5221 21.6403 25.8786 21.6398H27.4721C27.8337 21.6403 28.1823 21.5051 28.4489 21.2608C28.7155 21.0165 28.8806 20.6811 28.9117 20.3208C28.911 20.3018 28.9165 20.283 28.9273 20.2673C28.9382 20.2516 28.9538 20.2398 28.9719 20.2338C29.9539 19.9524 30.9067 19.578 31.8175 19.1156C32.0929 19.3507 32.4472 19.4724 32.8089 19.4562C33.1705 19.4401 33.5126 19.2872 33.7659 19.0286L34.8907 17.9037C35.1472 17.6488 35.2979 17.3065 35.3128 16.9453C35.3277 16.5841 35.2056 16.2305 34.9711 15.9554C35.4334 15.0469 35.8078 14.0962 36.0892 13.1165C36.0961 13.0983 36.1079 13.0825 36.1233 13.0706C36.1386 13.0588 36.157 13.0515 36.1763 13.0495C36.5368 13.0222 36.8734 12.8591 37.1183 12.5931C37.3631 12.3272 37.4979 11.9782 37.4953 11.6167V10.0232C37.497 9.66123 37.3622 9.31197 37.1177 9.04512C36.8732 8.77826 36.537 8.61347 36.1763 8.58363ZM26.6754 16.8459C25.0779 16.8437 23.5464 16.2082 22.4168 15.0786C21.2871 13.9489 20.6516 12.4175 20.6494 10.8199C20.9762 2.82819 32.3759 2.83087 32.7013 10.8199C32.6992 12.4175 32.0636 13.9489 30.934 15.0786C29.8044 16.2082 28.2729 16.8437 26.6754 16.8459Z" fill="#4C5364"/>
</svg>
