<svg width="90" height="90" viewBox="0 0 90 90" fill="none" xmlns="http://www.w3.org/2000/svg">
<circle cx="45" cy="45" r="45" fill="white"/>
<path d="M62.7213 57.0471C62.6124 56.2356 62.4667 55.4026 62.2876 54.5531C62.8641 54.3518 63.4248 54.1404 63.966 53.9178C69.561 51.6163 72.6424 48.3772 72.6424 44.7974C72.6424 41.2174 69.5614 37.9786 63.9659 35.6769C63.3761 35.4343 62.7635 35.2048 62.1318 34.9876C62.2647 34.3112 62.376 33.6459 62.4634 32.9945C63.2677 26.9982 62.0033 22.7102 58.903 20.9202C55.8027 19.1303 51.457 20.1793 46.6663 23.874C46.1459 24.2754 45.6253 24.7044 45.106 25.1577C44.6021 24.7194 44.0969 24.3035 43.592 23.914C38.8014 20.2194 34.4556 19.1702 31.3552 20.9602C28.2549 22.7502 26.9905 27.0382 27.7949 33.0344C27.8727 33.6143 27.9699 34.2056 28.0839 34.8056C27.2585 35.0751 26.4645 35.3654 25.7072 35.6769C20.1122 37.9784 17.0308 41.2175 17.0308 44.7974C17.0308 47.6738 19.0193 50.3295 22.7032 52.4564C23.6042 52.9766 24.6075 53.4655 25.7072 53.9178C26.4154 54.2091 27.1562 54.4818 27.9243 54.7364C27.7663 55.5086 27.6361 56.2669 27.5368 57.0072C26.7325 63.0033 27.9969 67.2914 31.0972 69.0813C34.1975 70.8713 38.5432 69.8223 43.3339 66.1275C43.9254 65.6714 44.517 65.1795 45.1067 64.6566C45.7113 65.1944 46.3178 65.6997 46.9242 66.1674C47.866 66.8937 48.7905 67.5178 49.6919 68.0382C53.3753 70.1648 56.6701 70.5593 59.1609 69.1211C62.2613 67.3313 63.5257 63.0432 62.7213 57.0471ZM65.3593 39.9647C67.9387 41.454 69.3838 43.1614 69.3839 44.7972C69.3839 46.9379 66.9573 49.1638 62.7264 50.9042C62.3233 51.07 61.9078 51.229 61.4823 51.382C60.8447 49.2194 60.0126 46.9831 59.0047 44.7279C59.972 42.4999 60.7651 40.2952 61.3666 38.1668C62.895 38.7093 64.2358 39.3161 65.3593 39.9647ZM44.8365 53.9355C43.1452 53.9354 41.514 53.8696 39.9519 53.7465C39.0636 52.4546 38.1903 51.0753 37.3442 49.6098C36.4108 47.9931 35.5648 46.3638 34.8138 44.7453C35.487 43.3342 36.2428 41.8926 37.0863 40.4317C38.0311 38.7952 39.0099 37.2656 40.0056 35.846C41.5798 35.7227 43.1954 35.6592 44.8365 35.6592C46.7228 35.6592 48.5333 35.742 50.2578 35.8939C51.2517 37.3115 52.2287 38.838 53.1719 40.4716C53.9925 41.8929 54.7452 43.3238 55.4255 44.7487C54.6939 46.3208 53.8587 47.9332 52.9138 49.5698C52.0704 51.0307 51.1998 52.406 50.3144 53.6946C48.5373 53.8535 46.7033 53.9355 44.8365 53.9355ZM47.7578 57.1287C46.8752 58.2207 45.989 59.2261 45.11 60.1404C44.2389 59.232 43.3609 58.2344 42.4864 57.1515C43.2639 57.1791 44.0476 57.194 44.8365 57.194C45.819 57.1939 46.7936 57.1715 47.7578 57.1287ZM35.734 53.2528C34.3587 53.037 33.0562 52.7752 31.8339 52.4749C32.1861 51.2568 32.6137 49.9867 33.1181 48.6764C33.5631 49.5329 34.031 50.3881 34.5222 51.239C34.9166 51.9222 35.3213 52.5934 35.734 53.2528ZM33.1613 40.7924C32.6951 39.5362 32.2933 38.2986 31.9602 37.0913C33.1742 36.7967 34.4441 36.5454 35.7595 36.3394C35.248 37.1422 34.7486 37.9636 34.2643 38.8025C33.8826 39.4636 33.5152 40.1275 33.1613 40.7924ZM42.5967 32.4393C43.4356 31.4245 44.2762 30.4888 45.1096 29.6352C45.9505 30.4942 46.799 31.4376 47.6456 32.4609C46.718 32.4214 45.7809 32.4008 44.8366 32.4008C44.0848 32.4007 43.338 32.4141 42.5967 32.4393ZM54.5372 36.4396C55.8466 36.6612 57.0879 36.9242 58.2524 37.223C57.9297 38.3717 57.5398 39.5676 57.0804 40.8014C56.7315 40.1469 56.3697 39.4934 55.9939 38.8424C55.5216 38.0245 55.0353 37.2232 54.5372 36.4396ZM57.1213 48.6727C57.6007 49.9148 58.018 51.1403 58.3698 52.3389C57.1578 52.6541 55.885 52.9249 54.564 53.1493C54.9629 52.5103 55.3541 51.8603 55.7359 51.1991C56.2203 50.3601 56.6819 49.5171 57.1213 48.6727ZM57.2738 23.7422C59.3149 24.9206 59.984 28.7689 58.9979 34.0559C56.8277 33.5026 54.4903 33.0809 52.0431 32.802C50.5779 30.8221 49.0439 29.0088 47.4797 27.4059C51.5654 23.9084 55.2327 22.5637 57.2738 23.7422ZM32.9844 23.7821C34.4014 22.9641 36.6016 23.3616 39.1818 24.8513C40.3052 25.4999 41.5011 26.3577 42.7352 27.4102C41.1926 28.9952 39.68 30.7845 38.2342 32.7361C35.7771 32.9909 33.4244 33.3884 31.2327 33.9175C31.1525 33.4725 31.0824 33.0332 31.0244 32.6012C30.4162 28.0669 31.1306 24.8525 32.9844 23.7821ZM24.3139 49.6299C21.7345 48.1404 20.2893 46.4332 20.2892 44.7974C20.2893 42.6567 22.7158 40.4308 26.9467 38.6904C27.5496 38.4423 28.1785 38.2087 28.8305 37.9894C29.4353 40.1719 30.2441 42.4373 31.2362 44.7273C30.2011 47.0477 29.3512 49.3483 28.7091 51.5682C27.0119 50.991 25.535 50.335 24.3139 49.6299ZM32.7264 66.2594C30.6457 65.0581 29.9913 61.082 31.0621 55.636C33.2796 56.1803 35.6654 56.5886 38.1588 56.8503C39.6321 58.8788 41.1786 60.7408 42.7587 62.3891C38.5777 66.0393 34.8071 67.4607 32.7264 66.2594ZM57.5317 66.2993C55.4441 67.5046 51.6555 66.0699 47.4579 62.3929C49.0595 60.7268 50.6268 58.8405 52.1188 56.7839C54.5982 56.4981 56.9644 56.0659 59.1568 55.4983C59.2929 56.1726 59.405 56.8342 59.4916 57.4802C60.1 62.0146 59.3856 65.229 57.5317 66.2993Z" fill="#00D8FF"/>
<path d="M42.4842 49.362C44.8921 50.7522 47.9711 49.9272 49.3613 47.5193C50.7515 45.1114 49.9265 42.0324 47.5186 40.6422C45.1107 39.252 42.0317 40.077 40.6415 42.4849C39.2513 44.8928 40.0763 47.9718 42.4842 49.362Z" fill="#00D8FF"/>
</svg>
