<svg width="74" height="59" viewBox="0 0 74 59" fill="none" xmlns="http://www.w3.org/2000/svg">
<path fill-rule="evenodd" clip-rule="evenodd" d="M2.03768 46.3594V4.87755C2.03768 2.19418 4.23116 0 6.91451 0H66.812C69.4947 0 71.6889 2.19493 71.6889 4.87755V46.3595H67.175V28.8426H64.3381C63.4233 31.1814 61.1476 32.838 58.485 32.838C55.8223 32.838 53.5466 31.1814 52.6317 28.8426H57.4002C58.6586 28.8426 59.6883 27.8128 59.6883 26.5542C59.6883 25.2955 58.6586 24.2658 57.4002 24.2658H52.6317C53.5465 21.9269 55.8222 20.2703 58.485 20.2703C61.1476 20.2703 63.4233 21.9269 64.3381 24.2658H67.175V4.87755C67.175 4.68673 67.0031 4.51439 66.8122 4.51439H6.91451C6.72282 4.51439 6.55154 4.68599 6.55154 4.87755V24.2658H9.38844C10.3032 21.9269 12.5789 20.2703 15.2416 20.2703C17.9044 20.2703 20.1799 21.9269 21.0949 24.2658H16.3263C15.0678 24.2658 14.0383 25.2955 14.0383 26.5542C14.0383 27.8128 15.0679 28.8426 16.3263 28.8426H21.0949C20.1801 31.1814 17.9044 32.838 15.2416 32.838C12.5789 32.838 10.3032 31.1814 9.38844 28.8426H6.55154V46.3595H2.03768V46.3594ZM0 48.5938H27.29V53.6154C27.29 54.2323 27.7901 54.7326 28.4071 54.7326H45.3192C45.9361 54.7326 46.4363 54.2323 46.4363 53.6154V48.5938H73.7266V51.2263C73.7266 55.3022 70.3922 58.637 66.3168 58.637H7.40974C3.33438 58.637 0 55.3022 0 51.2263V48.5938ZM29.5243 48.5938V52.4982H44.2021V48.5938H29.5243ZM44.4519 16.8746C44.1747 16.5974 43.721 16.5973 43.4437 16.8746L43.1104 17.208C42.4163 17.9022 41.4276 18.099 40.5207 17.7233C39.6138 17.3476 39.0538 16.5092 39.0538 15.5275V15.056C39.0538 14.6638 38.733 14.3429 38.3408 14.3429H35.3858C34.9938 14.3429 34.6729 14.6638 34.6729 15.056V15.5275C34.6729 16.5092 34.1129 17.3474 33.206 17.7231C32.2991 18.099 31.3104 17.9022 30.6162 17.208L30.2829 16.8746C30.0055 16.5973 29.5518 16.5973 29.2747 16.8746L27.1851 18.9644C26.908 19.2416 26.908 19.6954 27.1851 19.9727L27.5185 20.3061C28.2125 21.0002 28.4093 21.989 28.0337 22.8961C27.658 23.8031 26.8198 24.3632 25.8381 24.3632H25.3667C24.9745 24.3632 24.6537 24.684 24.6537 25.0762V28.0316C24.6537 28.4238 24.9745 28.7445 25.3667 28.7445H25.8381C26.8198 28.7445 27.6579 29.3046 28.0337 30.2118C28.4093 31.1188 28.2127 32.1076 27.5185 32.8018L27.1851 33.1351C26.9078 33.4125 26.9078 33.8662 27.1851 34.1434L29.2747 36.2332C29.5518 36.5106 30.0055 36.5106 30.2829 36.2332L30.6162 35.8998C31.3104 35.2057 32.2991 35.0089 33.2058 35.3846C34.1128 35.7603 34.6729 36.5986 34.6729 37.5803V38.0517C34.6729 38.4439 34.9938 38.7648 35.3858 38.7648H38.3408C38.733 38.7648 39.0538 38.4439 39.0538 38.0517V37.5803C39.0538 36.5985 39.6138 35.7601 40.5207 35.3844C41.4276 35.0088 42.4163 35.2054 43.1104 35.8995L43.4437 36.2329C43.721 36.5103 44.1747 36.5103 44.4519 36.2329L46.5414 34.1432C46.8187 33.8659 46.8187 33.4122 46.5414 33.1348L46.2081 32.8015C45.514 32.1073 45.3173 31.1184 45.6929 30.2115C46.0685 29.3045 46.9068 28.7442 47.8885 28.7442H48.3599C48.752 28.7442 49.0727 28.4234 49.0727 28.0313V25.0759C49.0727 24.6837 48.7519 24.3629 48.3599 24.3629H47.8885C46.9068 24.3629 46.0687 23.8028 45.6929 22.8958C45.3173 21.9887 45.5139 21 46.2081 20.3058L46.5414 19.9724C46.8187 19.6951 46.8187 19.2413 46.5414 18.9641L44.4519 16.8746ZM33.3225 27.4094L35.0791 29.3658C35.6285 29.9764 36.569 30.0259 37.1795 29.4764C37.2471 29.4155 37.3079 29.3499 37.3616 29.2803L40.4272 25.7034C40.9605 25.08 40.8877 24.1421 40.2642 23.6085C39.6409 23.0751 38.7032 23.1481 38.1697 23.7715L36.1595 26.1169L35.5332 25.4194C34.9838 24.8089 34.0434 24.7594 33.4328 25.3089C32.8225 25.8583 32.773 26.7988 33.3225 27.4094ZM36.8631 20.5194C33.5307 20.5194 30.8292 23.2212 30.8292 26.5541C30.8292 29.8869 33.5307 32.5887 36.8631 32.5887C40.1956 32.5887 42.8971 29.8869 42.8971 26.5541C42.8971 23.2212 40.1957 20.5194 36.8631 20.5194Z" fill="#2378DA"/>
</svg>
