<svg width="30" height="38" viewBox="0 0 30 38" fill="none" xmlns="http://www.w3.org/2000/svg">
<path d="M12.1494 15.5618H14.2299L13.1896 13.1484L12.1494 15.5618Z" fill="#4C5364"/>
<path d="M22.718 19.2234C23.0509 18.6409 23.3005 18.0168 23.5086 17.351H24.8401C25.1729 17.351 25.4642 17.0598 25.4642 16.7269V13.0237C25.4642 12.6908 25.1729 12.3995 24.8401 12.3995H23.5086C23.3005 11.7338 23.0509 11.1096 22.718 10.5271L23.675 9.57011C23.7998 9.44528 23.8415 9.27885 23.8415 9.11241C23.8415 8.94597 23.7582 8.77954 23.675 8.65471L21.0536 6.03333C20.804 5.78368 20.4295 5.78368 20.1798 6.03333L19.2228 6.99034C18.6403 6.65747 18.0162 6.40782 17.3504 6.19977V4.86828C17.3504 4.53541 17.0592 4.24414 16.7263 4.24414H13.0231C12.6902 4.24414 12.3989 4.53541 12.3989 4.86828V6.24138C11.7332 6.40782 11.1091 6.69908 10.5265 7.03195L9.56952 6.07494C9.31986 5.82529 8.94538 5.82529 8.69573 6.07494L6.07435 8.69632C5.82469 8.94597 5.82469 9.32046 6.07435 9.57011L7.03136 10.5271C6.69849 11.1096 6.44883 11.7338 6.24079 12.3995H4.90929C4.57642 12.3995 4.28516 12.6908 4.28516 13.0237V16.7269C4.28516 17.0598 4.57642 17.351 4.90929 17.351H6.24079C6.44883 18.0168 6.69849 18.6409 7.03136 19.2234L6.07435 20.1804C5.82469 20.4301 5.82469 20.8046 6.07435 21.0542L8.69573 23.6756C8.82055 23.8004 8.98699 23.842 9.15343 23.842C9.31986 23.842 9.4863 23.7588 9.61113 23.6756L10.5681 22.7186C11.1507 23.0515 11.7748 23.3011 12.4405 23.5092V24.8407C12.4405 25.1735 12.7318 25.4648 13.0647 25.4648H16.7679C17.1008 25.4648 17.392 25.1735 17.392 24.8407V23.5092C18.0578 23.3011 18.6819 23.0515 19.2644 22.7186L20.2215 23.6756C20.3463 23.8004 20.5127 23.842 20.6792 23.842C20.8456 23.842 21.012 23.7588 21.1369 23.6756L23.7582 21.0542C23.8831 20.9294 23.9247 20.763 23.9247 20.5965C23.9247 20.4301 23.8415 20.2637 23.7582 20.1388L22.718 19.2234ZM16.1854 18.5161C15.8525 18.6409 15.5196 18.5161 15.3532 18.1832L14.7707 16.8101H11.6084L11.0258 18.1832C10.9426 18.4329 10.693 18.5577 10.4433 18.5577C10.3601 18.5577 10.2769 18.5577 10.1937 18.5161C9.86078 18.3913 9.73595 18.0168 9.86078 17.6839L12.607 11.3177C12.6902 11.1096 12.9399 10.9432 13.1895 10.9432C13.4392 10.9432 13.6472 11.1096 13.772 11.3177L16.5182 17.7255C16.6431 18.0168 16.5182 18.3913 16.1854 18.5161ZM19.6389 17.9335C19.6389 18.2664 19.3477 18.5577 19.0148 18.5577C18.6819 18.5577 18.3907 18.2664 18.3907 17.9335V11.5673C18.3907 11.2345 18.6819 10.9432 19.0148 10.9432C19.3477 10.9432 19.6389 11.2345 19.6389 11.5673V17.9335Z" fill="#4C5364"/>
<path d="M29.7089 14.8545C29.7089 6.65746 23.0515 0 14.8545 0C6.65746 0 0 6.65746 0 14.8545C0 19.5979 2.20528 23.9669 6.03333 26.8379C6.53264 27.2124 6.90712 27.5036 7.19838 27.8365C6.40781 28.2526 5.86689 29.0432 5.86689 30.0002C5.86689 31.3317 6.94873 32.4135 8.28022 32.4135H8.44666V34.3275C8.44666 36.0751 9.86137 37.4898 11.609 37.4898H18.0584C19.806 37.4898 21.2207 36.0751 21.2207 34.3275V32.4135H21.4287C22.7602 32.4135 23.842 31.3317 23.842 30.0002C23.842 29.0432 23.3011 28.2526 22.5105 27.8365C22.8018 27.5453 23.1763 27.2124 23.6756 26.8379C27.5036 23.9669 29.7089 19.5979 29.7089 14.8545ZM19.9724 34.2859C19.9724 35.3262 19.0986 36.2 18.0584 36.2H11.609C10.5687 36.2 9.69493 35.3262 9.69493 34.2859V32.3719H19.9308V34.2859H19.9724ZM21.0958 27.5869H8.61309C8.197 27.0459 7.65608 26.505 6.78229 25.8393C3.24551 23.2179 1.24827 19.1818 1.24827 14.8545C1.24827 7.36482 7.32321 1.24827 14.8545 1.24827C22.3857 1.24827 28.4607 7.36482 28.4607 14.8545C28.4607 19.1818 26.4218 23.1763 22.9266 25.8393C22.0945 26.505 21.5119 27.0043 21.0958 27.5869Z" fill="#4C5364"/>
</svg>
