<svg width="90" height="90" viewBox="0 0 90 90" fill="none" xmlns="http://www.w3.org/2000/svg">
<circle cx="45" cy="45" r="45" fill="white"/>
<path d="M50.4327 18.6133C74.4527 34.9654 66.6937 53.0743 66.6937 53.0743C66.6937 53.0743 73.3692 60.6995 70.6366 67.3853C70.6366 67.3853 67.7964 62.7437 63.1681 62.7437C58.5291 62.7437 55.7506 67.3853 46.7051 67.3853C26.112 67.3853 16.7063 50.2159 16.7063 50.2159C34.9717 62.6462 47.734 53.8329 47.734 53.8329C39.3643 48.9879 21.553 26.1345 21.553 26.1345C36.9426 39.0555 43.4865 42.4777 43.4865 42.4777C39.619 39.4025 28.6033 23.4357 28.6033 23.4357C37.577 32.3476 55.1758 44.9766 55.1758 44.9766C60.0212 30.9679 50.4329 18.6133 50.4329 18.6133H50.4327Z" fill="url(#paint0_linear_806_2400)"/>
<defs>
<linearGradient id="paint0_linear_806_2400" x1="48.8426" y1="18.4161" x2="41.0546" y2="67.8216" gradientUnits="userSpaceOnUse">
<stop stop-color="#F9B13D"/>
<stop offset="1" stop-color="#E63830"/>
</linearGradient>
</defs>
</svg>
