<svg width="34" height="34" viewBox="0 0 34 34" fill="none" xmlns="http://www.w3.org/2000/svg">
<g clip-path="url(#clip0_243_13674)">
<path d="M0.00780838 14.8126C-0.0660354 15.4069 0.397414 15.9316 0.996265 15.9316H5.04877C5.28435 15.9316 5.51229 15.848 5.69212 15.6959C5.87196 15.5437 5.99204 15.3327 6.03105 15.1004C6.811 10.4556 10.4556 6.81093 15.1004 6.03106C15.3328 5.99205 15.5437 5.87195 15.6959 5.6921C15.8481 5.51226 15.9316 5.2843 15.9316 5.04871V0.996204C15.9316 0.397353 15.407 -0.0660964 14.8126 0.00774735C11.0759 0.472126 7.54591 2.19995 4.87293 4.87287C2.20001 7.54585 0.472187 11.0759 0.00780838 14.8126ZM23.3469 25.9436C21.4563 27.2935 19.2395 28.0069 16.936 28.0069C11.5159 28.0069 6.92973 24.1228 6.03112 18.7713C5.99211 18.539 5.87202 18.328 5.69219 18.1758C5.51236 18.0237 5.28441 17.9402 5.04884 17.9402H0.996265C0.397414 17.9402 -0.0660354 18.4648 0.00780838 19.059V19.0591C1.06639 27.5768 8.34392 34 16.936 34C20.7637 34 24.3835 32.7576 27.4042 30.4071C27.877 30.0392 27.9204 29.3403 27.4968 28.9166L24.63 26.0499C24.4633 25.8832 24.2429 25.781 24.008 25.7615C23.773 25.7421 23.5388 25.8066 23.3469 25.9436ZM18.7714 6.03106C24.1228 6.92967 28.0071 11.5158 28.0071 16.936C28.0071 19.2394 27.2935 21.4562 25.9437 23.3468C25.8067 23.5387 25.7422 23.7729 25.7617 24.0079C25.7812 24.2428 25.8833 24.4632 26.05 24.6299L28.9169 27.4968C29.3405 27.9204 30.0394 27.8769 30.4073 27.4042L30.4074 27.4041C32.7577 24.3836 34 20.7637 34 16.936C34 8.34386 27.5768 1.06633 19.0592 0.00774735H19.0591C18.4648 -0.0660964 17.9402 0.397353 17.9402 0.996204V5.04871C17.9402 5.2843 18.0237 5.51226 18.1759 5.69211C18.328 5.87196 18.539 5.99205 18.7714 6.03106Z" fill="#000A21"/>
<path d="M17.5993 10.0918H16.2704C15.7203 10.0918 15.2743 10.5378 15.2743 11.0879V22.7089H18.5954V11.0879C18.5954 10.5378 18.1494 10.0918 17.5993 10.0918ZM20.5876 22.7089H22.9126C23.4627 22.7089 23.9087 22.2629 23.9087 21.7128V13.7441C23.9087 13.194 23.4627 12.748 22.9126 12.748H20.5876V22.7089ZM13.2821 15.4042H10.9596C10.4095 15.4042 9.9635 15.8502 9.9635 16.4003V21.7128C9.9635 22.2629 10.4095 22.7089 10.9596 22.7089H13.2821V15.4042Z" fill="#000A21"/>
</g>
<defs>
<clipPath id="clip0_243_13674">
<rect width="34" height="34" fill="white"/>
</clipPath>
</defs>
</svg>
