<svg width="70" height="79" viewBox="0 0 70 79" fill="none" xmlns="http://www.w3.org/2000/svg">
<path fill-rule="evenodd" clip-rule="evenodd" d="M69.9986 43.6836V47.6547C69.9986 48.9058 69.1827 49.9712 67.9723 50.2931L62.9856 51.6304C62.3782 53.7747 61.5214 55.869 60.4107 57.8547L62.9901 62.3246C63.6157 63.408 63.4435 64.7362 62.555 65.6203L56.9383 71.237C56.0497 72.1255 54.726 72.3024 53.6381 71.6721L49.1728 69.0927C47.1827 70.2034 45.0928 71.0601 42.9485 71.6721L41.6112 76.6543C41.2848 77.8692 40.2241 78.6807 38.9683 78.6807H31.026C29.7703 78.6807 28.7095 77.8692 28.3876 76.6543L27.0503 71.6721C24.906 71.0647 22.8116 70.2034 20.826 69.0927L16.3561 71.6721C15.2726 72.3022 13.9445 72.1255 13.0559 71.237L7.43921 65.6203C6.55531 64.7362 6.37843 63.408 7.00853 62.3201L9.58795 57.8548C8.47728 55.8692 7.61593 53.7748 7.00853 51.6306L2.0264 50.2933C0.811457 49.9669 0 48.9061 0 47.6548V43.6838H17.222C17.222 53.4983 25.1824 61.4587 34.9969 61.4587C44.8115 61.4587 52.7719 53.4982 52.7719 43.6838L69.9986 43.6836Z" fill="#2378DA"/>
<path d="M40.7998 30.8125C44.0815 31.9793 46.2049 34.1174 46.2051 37.0684V42.2158H23.7891V37.0684C23.7892 34.1179 25.9122 31.9793 29.1973 30.8125C32.6386 33.3667 37.3582 33.3661 40.7998 30.8125ZM63.5938 26.3926C66.8755 27.5592 68.9989 29.6936 68.999 32.6484V37.7959H50.1279V37.0684C50.1279 34.2145 48.9809 31.897 47.166 30.1436C48.0035 28.4813 49.7227 27.2015 51.9912 26.3955C55.4325 28.946 60.152 28.9465 63.5938 26.3926ZM6.4043 26.3926C9.84571 28.9466 14.5645 28.946 18.0059 26.3965C20.2748 27.2024 21.9943 28.4812 22.832 30.1436C21.0175 31.8969 19.8712 34.2148 19.8711 37.0684V37.7959H1V32.6484L1.00684 32.3613C1.14027 29.5552 3.23015 27.5209 6.4043 26.3926ZM34.9971 17.1475C38.2206 17.1475 40.8291 19.7597 40.8291 22.9795C40.829 26.1992 38.2206 28.8105 34.9971 28.8105C31.7737 28.8105 29.1662 26.1991 29.166 22.9795C29.166 19.7602 31.7778 17.1476 34.9971 17.1475ZM12.208 12.7275C15.4274 12.7275 18.04 15.3402 18.04 18.5596C18.0399 21.7788 15.4273 24.3906 12.208 24.3906C8.98888 24.3905 6.37713 21.7787 6.37695 18.5596C6.37695 15.3399 8.98458 12.7277 12.208 12.7275ZM57.791 12.7275C61.0102 12.7277 63.6221 15.3403 63.6221 18.5596C63.6219 21.7787 61.0101 24.3904 57.791 24.3906C54.5718 24.3906 51.9592 21.7788 51.959 18.5596C51.959 15.3402 54.5716 12.7275 57.791 12.7275ZM36.042 4.68262L36.2764 5.19434L36.8359 5.25879L39.3271 5.54688L37.4805 7.24219L37.0645 7.62305L37.1768 8.17676L37.6729 10.6338L35.4883 9.40137L34.9971 9.12402L34.5059 9.40137L32.3232 10.6328L32.8223 8.17773L32.9346 7.62402L32.5176 7.24219L30.6709 5.54688L33.1631 5.25879L33.7227 5.19434L33.957 4.68164L34.998 2.40332L36.042 4.68262Z" stroke="#2378DA" stroke-width="2"/>
</svg>
