<svg width="53" height="55" viewBox="0 0 53 55" fill="none" xmlns="http://www.w3.org/2000/svg">
<path d="M9.90908 33.938H1.101C0.956418 33.938 0.813247 33.9665 0.679667 34.0218C0.546087 34.0772 0.424714 34.1583 0.322478 34.2605C0.220241 34.3627 0.139144 34.4841 0.0838165 34.6177C0.0284893 34.7513 1.59187e-05 34.8945 2.15786e-05 35.039V41.59C2.44361e-05 41.882 0.116024 42.1621 0.322501 42.3686C0.528979 42.5751 0.809023 42.691 1.10103 42.6911H9.90911C10.2011 42.691 10.4812 42.5751 10.6876 42.3686C10.8941 42.1621 11.0101 41.882 11.0101 41.59V35.039C11.0101 34.8945 10.9816 34.7513 10.9263 34.6177C10.871 34.4841 10.7899 34.3627 10.6876 34.2605C10.5854 34.1583 10.464 34.0772 10.3304 34.0218C10.1968 33.9665 10.0537 33.938 9.90908 33.938ZM7.35474 39.41H6.60606V40.1587C6.60606 40.4507 6.49006 40.7307 6.28358 40.9372C6.0771 41.1437 5.79706 41.2597 5.50506 41.2597C5.21305 41.2597 4.93301 41.1437 4.72653 40.9372C4.52005 40.7307 4.40405 40.4507 4.40405 40.1587V39.41H3.6553C3.3633 39.41 3.08326 39.294 2.87678 39.0875C2.6703 38.8811 2.5543 38.601 2.5543 38.309C2.5543 38.017 2.6703 37.7369 2.87678 37.5305C3.08326 37.324 3.3633 37.208 3.6553 37.208H4.40405V36.4703C4.40405 36.1783 4.52005 35.8983 4.72653 35.6918C4.93301 35.4853 5.21305 35.3693 5.50506 35.3693C5.79706 35.3693 6.0771 35.4853 6.28358 35.6918C6.49006 35.8983 6.60606 36.1783 6.60606 36.4703V37.208H7.35474C7.6437 37.2126 7.91927 37.3306 8.12199 37.5366C8.32471 37.7426 8.43832 38.02 8.43832 38.309C8.43832 38.598 8.32471 38.8754 8.12199 39.0814C7.91927 39.2874 7.6437 39.4054 7.35474 39.41ZM9.90908 44.8931H1.101C0.956418 44.8931 0.813245 44.9216 0.679663 44.9769C0.546081 45.0322 0.424706 45.1133 0.322468 45.2156C0.220229 45.3178 0.139129 45.4392 0.0838 45.5728C0.0284709 45.7063 -4.24449e-06 45.8495 4.74548e-10 45.9941V51.6423C2.85801e-06 52.3518 0.281879 53.0324 0.78362 53.5341C1.28536 54.0358 1.96587 54.3177 2.67544 54.3177H9.90906C10.2011 54.3177 10.4811 54.2017 10.6876 53.9952C10.8941 53.7888 11.0101 53.5087 11.0101 53.2167V45.9941C11.0101 45.8495 10.9816 45.7063 10.9263 45.5727C10.8709 45.4392 10.7898 45.3178 10.6876 45.2155C10.5854 45.1133 10.464 45.0322 10.3304 44.9769C10.1968 44.9215 10.0537 44.8931 9.90908 44.8931ZM7.65196 50.1889C7.85209 50.3977 7.96244 50.6766 7.95938 50.9658C7.95631 51.255 7.84006 51.5315 7.63555 51.736C7.43104 51.9405 7.15456 52.0567 6.86536 52.0598C6.57617 52.0628 6.29729 51.9524 6.08851 51.7523L5.50506 51.1578L4.92149 51.7524C4.71418 51.9597 4.433 52.0761 4.13981 52.0761C3.84662 52.0761 3.56544 51.9597 3.35812 51.7524C3.15081 51.545 3.03434 51.2639 3.03434 50.9707C3.03434 50.6775 3.15081 50.3963 3.35812 50.189L3.95265 49.6054L3.35812 49.0219C3.15224 48.8143 3.03699 48.5336 3.0376 48.2412C3.0382 47.9488 3.15462 47.6686 3.36136 47.4618C3.56811 47.255 3.84834 47.1386 4.14073 47.138C4.43313 47.1373 4.71386 47.2526 4.92149 47.4584L5.50506 48.053L6.08855 47.4584C6.29619 47.2526 6.57692 47.1373 6.86931 47.138C7.1617 47.1386 7.44194 47.255 7.64868 47.4618C7.85543 47.6686 7.97184 47.9488 7.97245 48.2412C7.97306 48.5336 7.85781 48.8143 7.65192 49.0219L7.0574 49.6054L7.65196 50.1889ZM23.1211 44.8931H14.3131C14.1685 44.8931 14.0253 44.9215 13.8917 44.9769C13.7581 45.0322 13.6368 45.1133 13.5345 45.2155C13.4323 45.3178 13.3512 45.4391 13.2959 45.5727C13.2405 45.7063 13.2121 45.8495 13.2121 45.9941V53.2167C13.2121 53.5087 13.3281 53.7887 13.5345 53.9952C13.741 54.2017 14.0211 54.3177 14.3131 54.3177H21.5466C22.2562 54.3177 22.9367 54.0358 23.4385 53.534C23.9402 53.0323 24.2221 52.3518 24.2221 51.6422V45.9941C24.2221 45.8495 24.1937 45.7063 24.1383 45.5727C24.083 45.4392 24.0019 45.3178 23.8997 45.2155C23.7974 45.1133 23.6761 45.0322 23.5425 44.9769C23.4089 44.9215 23.2657 44.8931 23.1211 44.8931ZM19.8181 51.1908C19.8135 51.4798 19.6955 51.7553 19.4895 51.958C19.2835 52.1608 19.0061 52.2744 18.7171 52.2744C18.4281 52.2744 18.1507 52.1608 17.9447 51.958C17.7388 51.7553 17.6207 51.4798 17.6161 51.1908C17.6139 51.0448 17.6407 50.8998 17.695 50.7642C17.7494 50.6287 17.8301 50.5053 17.9326 50.4013C18.035 50.2972 18.1572 50.2146 18.2918 50.1582C18.4265 50.1018 18.5711 50.0728 18.7171 50.0728C18.8632 50.0728 19.0077 50.1018 19.1424 50.1582C19.2771 50.2146 19.3992 50.2972 19.5017 50.4013C19.6042 50.5053 19.6849 50.6287 19.7392 50.7642C19.7936 50.8998 19.8204 51.0448 19.8181 51.1908ZM19.8181 48.0419C19.8135 48.3309 19.6955 48.6065 19.4895 48.8092C19.2835 49.0119 19.0061 49.1255 18.7171 49.1255C18.4281 49.1255 18.1507 49.0118 17.9447 48.8091C17.7387 48.6064 17.6207 48.3308 17.6161 48.0419C17.6139 47.8959 17.6407 47.7509 17.695 47.6153C17.7494 47.4798 17.8301 47.3564 17.9326 47.2524C18.035 47.1483 18.1572 47.0657 18.2919 47.0093C18.4266 46.9529 18.5711 46.9239 18.7172 46.9239C18.8632 46.9239 19.0077 46.9529 19.1424 47.0093C19.2771 47.0657 19.3993 47.1484 19.5017 47.2524C19.6042 47.3564 19.6849 47.4798 19.7392 47.6154C19.7936 47.7509 19.8204 47.8959 19.8181 48.0419ZM23.1211 33.938H14.3131C14.1685 33.938 14.0253 33.9665 13.8917 34.0218C13.7581 34.0772 13.6368 34.1583 13.5345 34.2605C13.4323 34.3627 13.3512 34.4841 13.2959 34.6177C13.2405 34.7513 13.2121 34.8945 13.2121 35.039V41.59C13.2121 41.882 13.3281 42.1621 13.5345 42.3686C13.741 42.5751 14.0211 42.691 14.3131 42.6911H23.1211C23.4131 42.691 23.6932 42.5751 23.8997 42.3686C24.1061 42.1621 24.2221 41.882 24.2222 41.59V35.039C24.2222 34.8945 24.1937 34.7513 24.1384 34.6177C24.083 34.4841 24.0019 34.3627 23.8997 34.2605C23.7974 34.1583 23.6761 34.0772 23.5425 34.0218C23.4089 33.9665 23.2657 33.938 23.1211 33.938ZM20.4017 39.41H17.0325C16.7436 39.4054 16.468 39.2874 16.2653 39.0814C16.0626 38.8754 15.949 38.598 15.949 38.309C15.949 38.02 16.0626 37.7426 16.2653 37.5366C16.468 37.3306 16.7436 37.2126 17.0326 37.208H20.4017C20.6906 37.2126 20.9662 37.3306 21.1689 37.5366C21.3716 37.7426 21.4853 38.02 21.4853 38.309C21.4853 38.598 21.3716 38.8754 21.1689 39.0814C20.9662 39.2874 20.6906 39.4054 20.4017 39.41ZM24.2222 26.3962V30.635C24.2222 30.927 24.1062 31.2071 23.8997 31.4135C23.6932 31.62 23.4131 31.736 23.1211 31.736H1.10103C0.809023 31.736 0.528979 31.62 0.322501 31.4135C0.116024 31.2071 2.44361e-05 30.927 2.15786e-05 30.635V26.3961C2.44361e-05 25.6865 0.2819 25.006 0.783642 24.5043C1.28538 24.0025 1.96589 23.7207 2.67546 23.7207H21.5467C21.898 23.7207 22.2459 23.7899 22.5705 23.9243C22.8952 24.0588 23.1901 24.2558 23.4385 24.5043C23.687 24.7527 23.8841 25.0477 24.0185 25.3723C24.153 25.6969 24.2222 26.0448 24.2222 26.3962ZM49.8754 7.39126C48.412 7.37896 35.374 7.40007 34.3279 7.3912L28.2404 7.39126C27.9574 7.39119 27.6771 7.44687 27.4156 7.55514C27.1542 7.6634 26.9166 7.82213 26.7165 8.02224C26.5164 8.22236 26.3576 8.45994 26.2494 8.72142C26.1411 8.98289 26.0854 9.26314 26.0855 9.54614V22.4323C26.0845 22.7156 26.1396 22.9963 26.2475 23.2581C26.3555 23.52 26.5142 23.758 26.7145 23.9583C26.9148 24.1586 27.1527 24.3172 27.4146 24.4252C27.6765 24.5331 27.9571 24.5882 28.2404 24.5872C33.4108 24.5874 44.5771 24.5871 49.8754 24.5872C50.1584 24.5873 50.4386 24.5316 50.7001 24.4233C50.9616 24.3151 51.1992 24.1564 51.3993 23.9562C51.5994 23.7561 51.7581 23.5185 51.8664 23.2571C51.9747 22.9956 52.0303 22.7153 52.0303 22.4323V9.54614C52.0286 8.97515 51.801 8.42802 51.3973 8.02427C50.9935 7.62051 50.4464 7.39294 49.8754 7.39126ZM49.8754 22.4323H28.2404V15.0734H49.8754V22.4323ZM49.8754 12.9185H28.2404V9.54614C32.8655 9.54647 45.0936 9.54608 49.8754 9.54614V12.9185ZM8.95418 21.301V11.9273H17.132C17.4174 11.9264 17.691 11.8126 17.8929 11.6108C18.0948 11.4089 18.2085 11.1353 18.2094 10.8498V2.1549H34.3279V5.23638C34.3321 5.51937 34.4475 5.78934 34.6491 5.98797C34.8507 6.1866 35.1224 6.29793 35.4054 6.29792C35.6884 6.29792 35.9601 6.18656 36.1617 5.98792C36.3633 5.78928 36.4786 5.5193 36.4828 5.23631V1.07747C36.4833 0.935838 36.4558 0.795511 36.4018 0.664567C36.3478 0.533623 36.2685 0.414652 36.1683 0.314504C36.0682 0.214356 35.9492 0.135011 35.8183 0.0810386C35.6873 0.0270666 35.547 -0.000465868 35.4054 2.67311e-05H17.132C16.9866 -0.00101036 16.8426 0.02814 16.709 0.0856332C16.5755 0.143126 16.4554 0.22771 16.3562 0.334033L7.09141 10.1165C6.90379 10.3146 6.79923 10.577 6.79923 10.8499V21.301C6.80459 21.5833 6.92046 21.8521 7.12193 22.0498C7.32341 22.2475 7.59441 22.3583 7.87668 22.3583C8.15895 22.3583 8.42995 22.2475 8.63143 22.0498C8.83291 21.8521 8.94883 21.5832 8.95418 21.301ZM16.0545 3.78183V9.77241H10.3764L16.0545 3.78183ZM36.4828 26.7421V43.9057C36.4833 44.0474 36.4558 44.1877 36.4018 44.3186C36.3478 44.4496 36.2685 44.5686 36.1683 44.6687C36.0682 44.7688 35.9492 44.8482 35.8183 44.9022C35.6873 44.9561 35.547 44.9837 35.4054 44.9832H26.6242C26.3422 44.9775 26.0736 44.8616 25.8762 44.6601C25.6787 44.4587 25.5681 44.1878 25.5681 43.9058C25.5681 43.6237 25.6787 43.3528 25.8761 43.1514C26.0736 42.9499 26.3421 42.8339 26.6241 42.8283H34.3279V26.7421C34.3328 26.4596 34.4485 26.1904 34.6501 25.9924C34.8516 25.7944 35.1228 25.6834 35.4053 25.6834C35.6879 25.6834 35.9591 25.7944 36.1606 25.9924C36.3621 26.1904 36.4778 26.4596 36.4828 26.7421Z" fill="#2378DA"/>
</svg>
