<svg width="90" height="90" viewBox="0 0 90 90" fill="none" xmlns="http://www.w3.org/2000/svg">
<circle cx="45" cy="45" r="45" fill="white"/>
<mask id="mask0_2005_402" style="mask-type:luminance" maskUnits="userSpaceOnUse" x="19" y="36" width="52" height="18">
<path d="M69.9868 47.9843C69.9233 47.9843 69.7961 48.0479 69.7961 48.1751C69.2885 49.6354 68.5901 50.5245 68.0179 50.5245C67.7 50.5245 67.5738 50.143 67.5738 49.5718C67.5738 48.1115 68.4629 45.0001 68.907 43.6034C68.9706 43.4127 68.9706 43.2855 68.9706 43.1593C68.9706 42.7779 68.7163 42.5245 68.2086 42.5245C67.6374 42.5245 66.939 42.7789 66.3668 43.8577C66.1761 42.905 65.4777 42.461 64.5886 42.461C63.5088 42.461 62.4935 43.1593 61.668 44.2392C60.8425 45.319 59.8262 45.6995 59.1278 45.5088C59.6355 44.1756 59.8898 43.2229 59.8898 42.5245C59.8898 41.3811 59.3186 40.6828 58.4295 40.6828C57.0327 40.6828 56.2708 42.0159 56.2708 43.4136C56.2708 44.4935 56.7784 45.5723 57.7947 46.1445C56.9056 48.1761 55.5724 50.0179 55.1274 50.0179C54.4926 50.0179 54.3018 46.9065 54.3654 44.6206C54.3654 43.3511 54.4926 43.2875 54.4926 42.906C54.4926 42.6517 54.3654 42.5245 53.7942 42.5245C52.461 42.5245 52.016 43.668 51.9524 45.0011C51.9524 45.5088 51.8252 46.0174 51.6981 46.4614C51.1269 48.493 49.9835 50.0179 49.2215 50.0179C48.84 50.0179 48.7775 49.6364 48.7775 49.1923C48.7775 47.732 49.603 45.8902 49.603 44.3663C49.603 43.2229 49.0953 42.5245 48.1427 42.5245C47.0628 42.5245 45.5389 43.8577 44.2058 46.3343C44.6498 44.4289 44.8406 42.5881 43.5074 42.5881C43.1895 42.5881 42.9362 42.6517 42.6819 42.7789C42.4911 42.8424 42.364 43.0332 42.4276 43.2229C42.5547 45.2544 40.7765 50.3983 39.1254 50.3983C38.8076 50.3983 38.6814 50.0804 38.6814 49.5728C38.6814 48.1125 39.5705 45.0647 40.0146 43.6044C40.0781 43.4136 40.0781 43.2865 40.0781 43.0967C40.0781 42.7153 39.8238 42.5255 39.3162 42.5255C38.745 42.5255 38.0466 42.7799 37.4744 43.8587C37.2837 42.906 36.5853 42.462 35.6962 42.462C34.1723 42.462 32.5212 44.0494 31.8229 46.081C30.8702 48.8119 28.8387 51.4782 26.1713 51.4782C23.7583 51.4782 22.4888 49.4466 22.4888 46.2717C22.1709 41.7636 25.5365 38.0164 28.0131 38.0164C29.2191 38.0164 29.7913 38.7784 29.7913 39.9218C29.7913 41.3185 29.0294 42.0169 29.0294 42.5255C29.0294 42.7163 29.1565 42.8434 29.4109 42.8434C30.4907 42.8434 31.7603 41.5738 31.7603 39.7956C31.7603 38.0174 30.3635 36.875 27.887 36.875C23.7593 36.872 19.5681 40.9997 19.5681 46.3333C19.5681 50.5881 21.6632 53.1272 25.2832 53.1272C27.7598 53.1272 29.9185 51.2219 31.0619 48.936C31.1891 50.7778 32.0146 51.7931 33.3478 51.7931C34.4912 51.7931 35.4429 51.0947 36.1412 49.8877C36.3955 51.1573 37.1575 51.7295 38.0466 51.7295C39.1264 51.7295 40.0155 51.0311 40.9037 49.7606C40.9037 50.7768 41.0944 51.6659 41.9835 51.6659C42.365 51.6659 42.8726 51.6024 42.9362 51.2219C43.8253 47.4757 46.1111 44.4279 46.7459 44.4279C46.9367 44.4279 47.0002 44.6187 47.0002 44.872C47.0002 45.8882 46.3019 47.9834 46.3019 49.3165C46.3019 50.7768 46.9367 51.7295 48.2072 51.7295C49.604 51.7295 51.0643 50.0149 51.9534 47.4747C52.2713 49.8241 52.9061 51.7295 53.9223 51.7295C55.1283 51.7295 57.3516 49.1258 58.6848 46.3959C59.1924 46.4595 60.0179 46.4595 60.7163 45.8882C60.3984 46.7138 60.2087 47.6029 60.2087 48.492C60.2087 51.0321 61.4147 51.7305 62.4945 51.7305C63.6379 51.7305 64.5896 51.0321 65.288 49.8251C65.5423 50.905 66.1135 51.6669 67.1934 51.6669C68.908 51.6669 70.4319 49.8887 70.4319 48.492C70.3673 48.2387 70.1766 47.9843 69.9868 47.9843ZM34.363 50.3973C33.6647 50.3973 33.4103 49.699 33.4103 48.6827C33.4103 46.9045 34.6163 43.8567 35.9505 43.8567C36.5217 43.8567 36.7124 44.5551 36.7124 45.3806C36.7124 47.1588 35.57 50.3973 34.363 50.3973ZM58.1116 45.0001C57.6675 44.4925 57.5404 43.8567 57.5404 43.2219C57.5404 42.46 57.7947 41.8888 58.1116 41.8888C58.4295 41.8888 58.5556 42.2067 58.5556 42.6507C58.5566 43.3491 58.3023 44.4289 58.1116 45.0001ZM63.5098 50.3973C62.8114 50.3973 62.5571 49.5718 62.5571 48.6827C62.5571 46.9681 63.7631 43.8567 65.0973 43.8567C65.6685 43.8567 65.8592 44.5551 65.8592 45.3806C65.8592 47.1588 64.7158 50.3973 63.5098 50.3973Z" fill="white"/>
</mask>
<g mask="url(#mask0_2005_402)">
<path d="M70.5581 35.9805H19.3774V53.9503H70.5581V35.9805Z" fill="url(#paint0_linear_2005_402)"/>
</g>
<defs>
<linearGradient id="paint0_linear_2005_402" x1="30.3394" y1="29.3805" x2="56.1423" y2="56.8715" gradientUnits="userSpaceOnUse">
<stop stop-color="#00C4CC"/>
<stop offset="0.9122" stop-color="#7A28EB"/>
<stop offset="1" stop-color="#7A28EB"/>
</linearGradient>
</defs>
</svg>
