<svg width="71" height="73" viewBox="0 0 71 73" fill="none" xmlns="http://www.w3.org/2000/svg">
<path d="M4.18236 47.9988C2.1149 38.7011 4.29419 28.9725 10.254 21.445C14.62 15.9302 20.7794 11.9024 27.8489 10.2444C28.4795 10.0975 29.11 10.4896 29.2569 11.1204C29.4038 11.7512 29.0117 12.3816 28.3809 12.5285C21.8311 14.0647 16.1279 17.7922 12.0884 22.8943C6.58869 29.8407 4.55572 38.9029 6.46629 47.4943C6.60557 48.125 6.20726 48.7493 5.57661 48.8886C4.94597 49.0279 4.32178 48.6296 4.18236 47.9988ZM70.2055 71.0462C69.2232 65.7619 64.589 61.7605 59.0199 61.7605C53.4508 61.7605 48.8166 65.7619 47.8343 71.0464C47.7497 71.5 48.0945 71.9143 48.5559 71.9143L69.484 71.9142C69.9453 71.9142 70.29 71.5 70.2055 71.0462ZM11.1984 61.7605C5.6293 61.7605 0.99509 65.7619 0.012801 71.0464C-0.0717349 71.5 0.273013 71.9143 0.734438 71.9143L21.6625 71.9142C22.1239 71.9142 22.4687 71.5 22.3841 71.0462C21.4016 65.7619 16.7673 61.7605 11.1984 61.7605ZM5.44555 54.54C5.44555 57.7172 8.02111 60.2929 11.1984 60.2929C14.3755 60.2929 16.9512 57.7172 16.9512 54.54C16.9512 51.3629 14.3755 48.7872 11.1984 48.7872C8.02125 48.7872 5.44555 51.3629 5.44555 54.54ZM61.1667 27.5932C62.2337 29.6482 63.0644 31.8407 63.6225 34.1347C64.681 38.4852 64.7244 43.1209 63.752 47.4942C63.6127 48.1248 64.011 48.7492 64.6417 48.8884C65.2723 49.0277 65.8966 48.6294 66.0359 47.9988C67.0929 43.2458 67.0499 38.3215 65.8974 33.5844C65.2924 31.0982 64.3967 28.7306 63.249 26.52C62.9527 25.945 62.2462 25.7192 61.6713 26.0155C61.0964 26.3118 60.8704 27.0183 61.1667 27.5932ZM36.2832 28.328V26.1641C36.2832 25.5157 35.7575 24.99 35.1091 24.99C34.4607 24.99 33.935 25.5157 33.935 26.1641V28.328C33.935 28.9764 34.4607 29.5021 35.1091 29.5021C35.7575 29.5021 36.2832 28.9764 36.2832 28.328ZM29.6238 52.9375H32.3487V43.9964H31.3881C29.5659 43.9964 28.0793 42.5098 28.0793 40.6876C28.0793 38.8654 29.5659 37.3787 31.3881 37.3787C33.2103 37.3787 34.6969 38.8654 34.6969 40.6876V41.6482H35.5215V40.6876C35.5215 39.0337 36.7557 37.6265 38.3914 37.4079L39.0649 34.8942L40.6593 33.2998C39.1174 32.1289 37.1946 31.4335 35.1091 31.4335C30.0355 31.4335 25.9226 35.5465 25.9226 40.6201C25.9226 45.722 29.1818 45.417 29.6238 52.9375ZM28.7629 31.1983C29.3227 30.8766 29.5157 30.162 29.1941 29.6022L28.1122 27.7282C27.7906 27.1684 27.0759 26.9755 26.5161 27.297C25.9564 27.6187 25.7634 28.3333 26.0849 28.8931L27.1669 30.7671C27.4886 31.3269 28.2032 31.5198 28.7629 31.1983ZM41.1699 36.1096L40.1411 39.9492C39.9945 40.4966 40.4923 40.9946 41.0399 40.8479L44.8796 39.819L41.1699 36.1096ZM44.3737 68.9455C38.4046 70.9297 31.8134 70.9296 25.8444 68.9455C25.2313 68.7429 24.5702 69.0755 24.3676 69.6885C24.1651 70.3016 24.4977 70.9627 25.1106 71.1653C31.588 73.3183 38.6301 73.3186 45.1076 71.1653C45.7204 70.9627 46.0532 70.3014 45.8505 69.6885C45.6478 69.0756 44.9868 68.7428 44.3737 68.9455ZM30.4274 40.6876C30.4274 41.2136 30.8621 41.6482 31.3881 41.6482H32.3487V40.6876C32.3487 40.1616 31.9141 39.7269 31.3881 39.7269C30.8621 39.7269 30.4274 40.1616 30.4274 40.6876ZM34.6969 52.9375H35.5215V43.9964H34.6969V52.9375ZM43.0515 30.7671L44.1335 28.8931C44.4552 28.3333 44.262 27.6187 43.7023 27.297C43.1425 26.9753 42.4279 27.1684 42.1062 27.7282L41.0243 29.6022C40.7027 30.162 40.8957 30.8766 41.4555 31.1983C42.0152 31.5198 42.7298 31.3269 43.0515 30.7671ZM34.1403 63.3624H36.0778C36.8988 63.3624 37.5705 62.6907 37.5705 61.8697V60.3767C38.4134 60.3767 39.1014 59.7375 39.1014 58.8839V57.3911C39.9225 57.3911 40.5941 56.7195 40.5941 55.8983V55.2854H29.6235V55.8983C29.6235 56.7193 30.2954 57.3911 31.1163 57.3911L31.1164 58.8839C31.1164 59.7374 31.8046 60.3767 32.6473 60.3767V61.8697C32.6478 62.6907 33.3195 63.3624 34.1403 63.3624ZM35.1091 11.5055C38.2863 11.5055 40.862 8.92984 40.862 5.7527C40.862 2.5757 38.2863 0 35.1091 0C31.932 0 29.3563 2.5757 29.3563 5.75284C29.3564 8.92998 31.932 11.5055 35.1091 11.5055ZM46.2947 22.2591C45.3124 16.9745 40.6782 12.9732 35.1091 12.9732C29.54 12.9732 24.9058 16.9745 23.9235 22.2591C23.839 22.7127 24.1838 23.127 24.6452 23.127L45.5732 23.1269C46.0345 23.127 46.3793 22.7127 46.2947 22.2591ZM23.6953 34.2432L21.8213 33.1613C21.2615 32.837 20.5449 33.028 20.2207 33.5877C19.8965 34.1475 20.0874 34.8641 20.6472 35.1884L22.5212 36.2703C23.081 36.5945 23.7976 36.4036 24.1218 35.8438C24.446 35.284 24.2551 34.5674 23.6953 34.2432ZM59.02 48.7872C55.8429 48.7872 53.2672 51.3629 53.2672 54.54C53.2672 57.7172 55.8427 60.2929 59.02 60.2929C62.1972 60.2929 64.7729 57.7172 64.7729 54.54C64.7729 51.3629 62.1972 48.7872 59.02 48.7872ZM53.4091 23.8704L42.8299 34.4494L46.5395 38.159L57.1187 27.58L53.4091 23.8704ZM38.1627 41.6482C38.0343 41.4195 37.9361 41.1762 37.8696 40.9245V41.6482H38.1627ZM58.7789 25.9196L60.5832 24.1153C61.4346 23.2639 61.4346 21.8753 60.5832 21.024L59.9649 20.4057C59.1135 19.5543 57.7248 19.5543 56.8736 20.4057L55.0693 22.21L58.7789 25.9196ZM41.8374 12.5283C46.3652 13.59 50.5836 15.7287 54.124 18.7433C54.6153 19.1613 55.3525 19.1017 55.7705 18.6104C56.1885 18.119 56.1289 17.3818 55.6376 16.9638C51.8067 13.7019 47.2695 11.3936 42.3695 10.2444C41.7389 10.0975 41.1085 10.4896 40.9616 11.1204C40.8147 11.7512 41.2067 12.3814 41.8374 12.5283ZM44.1263 42.4515L41.6473 43.1158C41.4189 43.177 41.1873 43.211 40.9568 43.2191C40.3812 43.7036 39.6387 43.9964 38.8302 43.9964H37.8696V52.9375H40.5943C40.9757 46.451 43.4525 45.7857 44.1263 42.4515Z" fill="#2378DA"/>
</svg>
