<svg width="90" height="90" viewBox="0 0 90 90" fill="none" xmlns="http://www.w3.org/2000/svg">
<circle cx="45" cy="45" r="45" fill="white"/>
<path fill-rule="evenodd" clip-rule="evenodd" d="M66.7267 63.0315C66.7446 66.334 64.0811 69.0232 60.7804 69.0409C60.5351 69.0429 60.2876 69.0291 60.0443 68.9994C56.9811 68.5462 54.7373 65.8808 54.8124 62.786V27.2037C54.7392 24.1049 56.9891 21.4396 60.0541 20.9903C63.3329 20.6065 66.3031 22.9532 66.687 26.2321C66.7147 26.4735 66.7286 26.7149 66.7265 26.9582V63.0313L66.7267 63.0315Z" fill="#F9AB00"/>
<path fill-rule="evenodd" clip-rule="evenodd" d="M29.233 57.1344C32.5237 57.1344 35.1911 59.8018 35.1911 63.0925C35.1911 66.3833 32.5237 69.0506 29.233 69.0506C25.9422 69.0506 23.2749 66.3833 23.2749 63.0925C23.2749 59.8018 25.9422 57.1344 29.233 57.1344ZM44.9089 39.078C41.6024 39.26 39.0378 42.0323 39.115 45.3428V61.3451C39.115 65.6886 41.0265 68.3243 43.8265 68.8863C47.0579 69.5413 50.2061 67.4536 50.8611 64.2223C50.9422 63.8265 50.9817 63.4249 50.9797 63.0212V45.0659C50.9856 41.7633 48.3144 39.0819 45.0118 39.0762C44.9782 39.0762 44.9425 39.0762 44.9089 39.0782V39.078Z" fill="#E37400"/>
</svg>
