<svg width="71" height="70" viewBox="0 0 71 70" fill="none" xmlns="http://www.w3.org/2000/svg">
<path fill-rule="evenodd" clip-rule="evenodd" d="M4.38028 39.925H9.1367C9.92927 39.925 10.5756 40.5714 10.5756 41.3639V53.4014C10.5756 54.194 9.92927 54.8404 9.1367 54.8404H4.38028C3.58771 54.8404 2.94134 54.194 2.94134 53.4014V41.3639C2.94134 40.5714 3.58771 39.925 4.38028 39.925ZM18.1196 22.8602H0.863365C0.388514 22.8602 0 23.2487 0 23.7235V26.3492C0 26.824 0.388514 27.2125 0.863365 27.2125H18.1196C18.5944 27.2125 18.9829 26.824 18.9829 26.3492V23.7235C18.9829 23.2485 18.5944 22.8602 18.1196 22.8602ZM18.6976 6.48718L12.8535 3.90975V0.639609C12.8535 0.287788 12.5657 0 12.2139 0C9.92726 0 8.05649 1.87077 8.05649 4.15725V4.33136C4.97744 5.20969 2.121 9.77789 2.121 14.1491V20.5579H16.8615V19.3306C16.8615 19.2015 16.8143 19.0904 16.7212 19.0009L12.9945 15.4161V12.7577C14.17 12.7941 15.7505 12.3976 16.3901 11.3131H20.0273C20.2791 11.3131 20.4846 11.1078 20.4846 10.8558C20.4849 9.07123 20.6675 7.40163 18.6976 6.48718ZM54.5329 42.5928C55.5303 42.8302 56.483 43.2257 57.3561 43.7632L59.1906 42.9485L61.3527 45.1107L60.5381 46.9446C61.076 47.8177 61.4714 48.7708 61.7087 49.7685L63.5805 50.489V53.5467L61.7083 54.2674C61.4708 55.2648 61.0754 56.2176 60.5378 57.0906L61.3526 58.9251L59.1904 61.0874L57.3565 60.2728C56.4833 60.8107 55.5303 61.2061 54.5326 61.4434L53.8121 63.315H50.7543L50.0337 61.4428C49.0362 61.2054 48.0837 60.8099 47.2105 60.2724L45.376 61.0871L43.2137 58.9249L44.0283 57.091C43.4906 56.2178 43.095 55.2647 42.8576 54.2671L40.9859 53.5466V50.4888L42.8579 49.7684C43.0953 48.7708 43.4907 47.818 44.0284 46.9449L43.2137 45.1105L45.3759 42.9482L47.2104 43.763C48.0835 43.2254 49.0362 42.8299 50.0336 42.5925L50.7542 40.7205H53.8119L54.5329 42.5928ZM52.2834 46.6853C49.338 46.6853 46.9506 49.0726 46.9506 52.018C46.9506 54.9634 49.338 57.3507 52.2834 57.3507C55.2289 57.3507 57.6161 54.9634 57.6161 52.018C57.6161 49.0726 55.2289 46.6853 52.2834 46.6853ZM44.4203 38.4971C50.5542 34.9255 58.3229 35.9459 63.3393 40.9622C68.3934 46.0163 69.38 53.8519 65.7409 59.9864C65.6403 59.4355 65.1482 59.0271 64.5719 59.0474C63.9386 59.0697 63.4433 59.6012 63.4657 60.2345L63.5739 63.2479C63.5464 64.0204 64.2825 64.61 65.0383 64.3951L68.0163 63.5454C68.6271 63.3715 68.9815 62.7352 68.8077 62.1244C68.6578 61.5975 68.1638 61.2616 67.6389 61.2905C71.8981 54.2484 70.7989 45.1663 64.967 39.3345C59.2218 33.5892 50.2929 32.4201 43.2691 36.5097C42.7203 36.8275 42.5331 37.5302 42.8509 38.079C43.1688 38.6277 43.8714 38.815 44.4203 38.4971ZM36.9278 42.7456C32.6686 49.7878 33.7679 58.8698 39.5998 64.7017C45.3449 70.4468 54.2733 71.6161 61.297 67.5269C61.8458 67.2091 62.033 66.5064 61.7152 65.9576C61.3973 65.4088 60.6947 65.2216 60.1459 65.5395C54.012 69.1105 46.2438 68.0901 41.2275 63.074C36.1734 58.0198 35.1867 50.1838 38.8261 44.0494C38.9265 44.6006 39.4186 45.0092 39.9951 44.9889C40.6284 44.9666 41.1236 44.4351 41.1013 43.8018L40.9931 40.7884C41.0206 40.0159 40.2845 39.4261 39.5287 39.6412L36.5507 40.4909C35.9397 40.6648 35.5854 41.3011 35.7593 41.9119C35.9092 42.4386 36.4029 42.7745 36.9278 42.7456ZM44.7701 11.6197C44.1368 11.6744 43.5791 11.2052 43.5245 10.572C43.4698 9.93877 43.9391 9.38103 44.5722 9.3265L49.1867 8.92187C49.9377 8.85711 50.5464 9.53068 50.4201 10.2644L49.9133 14.7981C49.8438 15.4289 49.276 15.8839 48.6451 15.8143C48.0143 15.7448 47.5593 15.1769 47.629 14.5461L47.7772 13.2201L35.9242 25.1744C35.6298 25.47 35.1841 25.594 34.7595 25.4577L21.1585 21.0496L20.4596 21.5938C20.1091 21.209 19.6651 20.9107 19.1641 20.7351V19.6955L20.2283 18.8668C20.539 18.6241 20.9357 18.5668 21.2848 18.6786L34.7922 23.0557L46.2607 11.4892L44.7701 11.6197ZM10.287 29.5146L7.46451 31.7124C6.96534 32.1022 6.24457 32.0137 5.85462 31.5145C5.46481 31.0154 5.55331 30.2946 6.05247 29.9047L6.55351 29.5146H10.287ZM46.9075 20.4584H51.664C52.4566 20.4584 53.103 21.1048 53.103 21.8974V31.7994C50.5035 31.6947 47.91 32.0898 45.4685 32.9608V21.8974C45.4685 21.1048 46.1149 20.4584 46.9075 20.4584ZM32.7317 33.6548H37.4883C38.2809 33.6548 38.9274 34.3013 38.9272 35.0939V37.4188L35.919 38.277C34.0897 38.7989 33.0243 40.712 33.5449 42.5419C33.6371 42.8662 33.7745 43.1685 33.9489 43.4429C32.5689 46.3952 31.9216 49.6501 32.0678 52.9248C32.0951 53.5385 32.1503 54.1476 32.2318 54.7508C31.6845 54.547 31.2928 54.0186 31.2928 53.4017C31.2928 46.0499 31.2928 42.4459 31.2928 35.0942C31.2928 34.3013 31.9392 33.6548 32.7317 33.6548ZM18.556 30.4729H23.3126C24.1051 30.4729 24.7515 31.1193 24.7515 31.9118V53.4016C24.7515 54.1941 24.1051 54.8405 23.3126 54.8405H18.556C17.7634 54.8405 17.1171 54.1941 17.1171 53.4016V31.9118C17.1171 31.1193 17.7634 30.4729 18.556 30.4729Z" fill="#2378DA"/>
</svg>
