<svg width="36" height="36" viewBox="0 0 36 36" fill="none" xmlns="http://www.w3.org/2000/svg">
<path d="M0.00812548 15.5356C-0.0693225 16.1589 0.416747 16.7092 1.04483 16.7092H5.29513C5.5422 16.7092 5.78127 16.6216 5.96989 16.462C6.1585 16.3024 6.28444 16.0811 6.32536 15.8375C7.14337 10.966 10.9659 7.14337 15.8374 6.32543C16.0811 6.28451 16.3023 6.15856 16.4619 5.96993C16.6215 5.7813 16.7091 5.54222 16.7091 5.29513V1.04483C16.7091 0.416747 16.1589 -0.0693225 15.5355 0.00812548C11.6165 0.49517 7.91416 2.30733 5.11071 5.11071C2.30733 7.91416 0.49517 11.6165 0.00812548 15.5356ZM24.4864 27.2098C22.5035 28.6256 20.1784 29.3739 17.7626 29.3739C12.0779 29.3739 7.2679 25.3003 6.32543 19.6875C6.28451 19.4438 6.15857 19.2226 5.96995 19.063C5.78134 18.9034 5.54227 18.8158 5.2952 18.8158H1.04483C0.416747 18.8158 -0.0693225 19.366 0.00812548 19.9893V19.9894C1.11838 28.9228 8.75111 35.6595 17.7626 35.6595C21.7771 35.6595 25.5735 34.3564 28.7417 31.8913C29.2376 31.5054 29.2831 30.7723 28.8388 30.328L25.8321 27.3214C25.6573 27.1465 25.4261 27.0393 25.1797 27.0189C24.9333 26.9985 24.6876 27.0662 24.4864 27.2098ZM19.6875 6.32543C25.3002 7.2679 29.374 12.0779 29.374 17.7626C29.374 20.1784 28.6256 22.5034 27.2099 24.4864C27.0662 24.6876 26.9986 24.9332 27.019 25.1797C27.0394 25.4261 27.1466 25.6572 27.3214 25.8321L30.3282 28.8389C30.7725 29.2832 31.5056 29.2376 31.8914 28.7417L31.8915 28.7417C34.3565 25.5737 35.6595 21.7771 35.6595 17.7626C35.6595 8.75111 28.9228 1.11838 19.9894 0.00812548H19.9893C19.366 -0.0693225 18.8157 0.416747 18.8157 1.04483V5.29513C18.8157 5.54222 18.9033 5.78131 19.0629 5.96993C19.2225 6.15856 19.4438 6.28451 19.6875 6.32543Z" fill="#4C5364"/>
<path d="M18.4577 10.584H17.0639C16.487 10.584 16.0192 11.0517 16.0192 11.6287V23.8169H19.5024V11.6287C19.5024 11.0517 19.0347 10.584 18.4577 10.584ZM21.5918 23.8169H24.0303C24.6073 23.8169 25.075 23.3491 25.075 22.7722V14.4145C25.075 13.8376 24.6073 13.3698 24.0303 13.3698H21.5918V23.8169ZM13.9298 16.1557H11.4939C10.917 16.1557 10.4492 16.6235 10.4492 17.2004V22.7722C10.4492 23.3491 10.917 23.8169 11.4939 23.8169H13.9298V16.1557Z" fill="#4C5364"/>
</svg>
