<svg width="53" height="50" viewBox="0 0 53 50" fill="none" xmlns="http://www.w3.org/2000/svg">
<path d="M45.4756 28.8406C44.9987 28.8396 44.5259 28.7515 44.0807 28.5806C43.3015 28.9673 42.5003 29.3083 41.6814 29.602C41.377 30.2801 40.8819 30.8553 40.2561 31.2576C39.6303 31.6599 38.901 31.8718 38.1568 31.8677H35.9434C35.1976 31.8681 34.4677 31.6525 33.8421 31.2471C33.2165 30.8417 32.7221 30.2638 32.4188 29.5834C31.5835 29.3247 30.774 28.989 30.0009 28.5806C29.3041 28.8491 28.544 28.9087 27.8138 28.752C27.0836 28.5953 26.4151 28.2291 25.8904 27.6984L24.3374 26.1384C23.799 25.615 23.4285 24.9437 23.2728 24.2096C23.1172 23.4756 23.1834 22.712 23.4632 22.0156C23.0628 21.2456 22.7178 20.4481 22.4309 19.6292C21.751 19.3263 21.1743 18.8321 20.7713 18.207C20.3683 17.582 20.1565 16.8532 20.1618 16.1099V13.8999C20.159 13.1582 20.3707 12.4316 20.7716 11.8073C21.1725 11.183 21.7455 10.6875 22.4216 10.3806C22.7233 9.56445 23.0679 8.76477 23.4539 7.98487C23.1797 7.29126 23.1151 6.53264 23.2679 5.80273H2.78992C2.05014 5.80323 1.3408 6.09688 0.817692 6.61919C0.294588 7.14151 0.000492695 7.84978 0 8.58845V36.5384C0.000492695 37.2771 0.294588 37.9854 0.817692 38.5077C1.3408 39.03 2.05014 39.3236 2.78992 39.3241H46.6474C47.3872 39.3236 48.0965 39.03 48.6196 38.5077C49.1427 37.9854 49.4368 37.2771 49.4373 36.5384V26.4727C48.3772 27.5638 47.1375 28.9455 45.4756 28.8406ZM9.57871 30.8741C9.70629 31.0054 9.79257 31.171 9.82689 31.3507C9.86121 31.5303 9.84207 31.7161 9.77183 31.885C9.7016 32.0539 9.58334 32.1986 9.43168 32.3011C9.28001 32.4037 9.10158 32.4596 8.91843 32.462C8.79534 32.4618 8.67351 32.4371 8.56012 32.3893C8.44673 32.3415 8.34406 32.2715 8.25815 32.1834L5.12415 29.0541C4.94992 28.8788 4.85215 28.6418 4.85215 28.3949C4.85215 28.1479 4.94992 27.9109 5.12415 27.7356L8.25815 24.6063C8.43204 24.4314 8.66837 24.3327 8.91515 24.3318C9.16193 24.331 9.39895 24.428 9.57406 24.6016C9.74918 24.7753 9.84805 25.0112 9.84892 25.2577C9.8498 25.5041 9.7526 25.7407 9.57871 25.9156L7.09569 28.3949L9.57871 30.8741ZM16.0978 25.4884L14.5355 31.7563C14.475 31.9952 14.322 32.2003 14.1101 32.3266C13.8982 32.4528 13.6448 32.4898 13.4056 32.4295C13.1663 32.3692 12.9609 32.2164 12.8344 32.0048C12.708 31.7932 12.6709 31.5402 12.7313 31.3013L14.2937 25.0334C14.3541 24.7945 14.5071 24.5894 14.719 24.4632C14.9309 24.3369 15.1843 24.2999 15.4236 24.3602C15.6628 24.4206 15.8683 24.5733 15.9947 24.7849C16.1212 24.9965 16.1582 25.2495 16.0978 25.4884ZM23.705 29.0541L20.571 32.1834C20.4851 32.2715 20.3824 32.3415 20.269 32.3893C20.1556 32.4371 20.0338 32.4618 19.9107 32.462C19.7276 32.4596 19.5491 32.4037 19.3975 32.3011C19.2458 32.1986 19.1275 32.0539 19.0573 31.885C18.9871 31.7161 18.9679 31.5303 19.0022 31.3507C19.0366 31.171 19.1228 31.0054 19.2504 30.8741L21.7335 28.3949L19.2504 25.9156C19.1642 25.8297 19.0958 25.7276 19.0492 25.6153C19.0025 25.503 18.9785 25.3825 18.9785 25.2609C18.9785 25.1393 19.0025 25.0189 19.0492 24.9066C19.0958 24.7942 19.1642 24.6922 19.2504 24.6063C19.426 24.4323 19.6633 24.3347 19.9107 24.3347C20.1581 24.3347 20.3954 24.4323 20.571 24.6063L23.705 27.7356C23.8792 27.9109 23.977 28.1479 23.977 28.3949C23.977 28.6418 23.8792 28.8788 23.705 29.0541ZM28.9035 44.3756C28.6611 43.3291 28.5671 42.2538 28.6245 41.1813H20.8128C20.8694 42.2538 20.7755 43.329 20.5338 44.3756C10.5645 44.9698 6.98409 47.5698 6.8167 47.6906C6.61938 47.8371 6.48845 48.0559 6.45269 48.2988C6.41694 48.5417 6.4793 48.7889 6.62605 48.9859C6.77281 49.1829 6.99193 49.3137 7.23522 49.3494C7.47852 49.3851 7.72605 49.3228 7.92336 49.1763C7.96986 49.1484 11.4759 46.6877 21.2406 46.1956C23.3962 46.0841 26.0411 46.0841 28.1968 46.1956C37.9615 46.6877 41.4675 49.1484 41.5047 49.1763C41.702 49.324 41.95 49.3875 42.1942 49.3526C42.4383 49.3178 42.6586 49.1876 42.8066 48.9906C42.9546 48.7935 43.0182 48.5459 42.9833 48.3021C42.9484 48.0583 42.8179 47.8383 42.6206 47.6906C42.4532 47.5698 38.8728 44.9698 28.9035 44.3756Z" fill="#1E6CC6"/>
<path d="M50.2462 11.9043C50.2197 11.9053 50.1936 11.8976 50.1718 11.8826C50.15 11.8675 50.1337 11.8458 50.1253 11.8207C49.7373 10.458 49.2171 9.13624 48.5722 7.8743C48.898 7.4945 49.0676 7.00559 49.0469 6.50596C49.0262 6.00633 48.8167 5.53308 48.4606 5.18145L46.8983 3.62145C46.5464 3.26274 46.0713 3.05076 45.569 3.02836C45.0666 3.00595 44.5745 3.17478 44.192 3.50073C42.9263 2.8609 41.603 2.3417 40.2397 1.95002C40.2146 1.94149 40.193 1.92516 40.1779 1.90343C40.1628 1.8817 40.1551 1.85572 40.156 1.82931C40.1128 1.32971 39.8834 0.864475 39.5132 0.525709C39.1429 0.186943 38.6587 -0.000664527 38.1565 2.31596e-05H35.9432C35.4475 -0.002365 34.9688 0.180019 34.6007 0.511483C34.2326 0.842947 34.0017 1.29963 33.953 1.79216C33.9574 1.82507 33.9507 1.85849 33.9338 1.8871C33.9169 1.91571 33.891 1.93786 33.86 1.95002C32.5216 2.27401 31.2416 2.80341 30.0658 3.51931C30.0421 3.53218 30.0151 3.53731 29.9884 3.53398C29.9617 3.53064 29.9367 3.51902 29.917 3.50073C29.5348 3.17545 29.0437 3.00621 28.542 3.02687C28.0402 3.04753 27.5648 3.25657 27.2107 3.61216L25.6484 5.18145C25.2912 5.53198 25.0801 6.00456 25.0577 6.50414C25.0353 7.00373 25.2031 7.49326 25.5275 7.8743C24.8852 9.13744 24.3652 10.4589 23.9744 11.8207C23.9672 11.8465 23.9511 11.869 23.9291 11.8842C23.907 11.8995 23.8803 11.9066 23.8535 11.9043C23.3532 11.9473 22.8873 12.1764 22.548 12.5461C22.2087 12.9158 22.0208 13.3993 22.0215 13.9007V16.1107C22.0197 16.6116 22.2075 17.0946 22.5472 17.4631C22.8869 17.8316 23.3535 18.0583 23.8535 18.0979C23.8808 18.0991 23.907 18.1087 23.9286 18.1253C23.9503 18.1419 23.9663 18.1647 23.9744 18.1907C24.3656 19.5494 24.8857 20.8677 25.5275 22.1279C25.2029 22.5106 25.035 23.0016 25.0575 23.5026C25.0799 24.0036 25.2909 24.4777 25.6484 24.83L27.2107 26.39C27.5636 26.7469 28.0384 26.9577 28.5402 26.98C29.0419 27.0024 29.5336 26.8348 29.917 26.5107C29.9368 26.4927 29.9618 26.4812 29.9884 26.4779C30.015 26.4746 30.0421 26.4795 30.0658 26.4921C31.2416 27.208 32.5216 27.7374 33.86 28.0614C33.9177 28.0689 33.9614 28.1506 33.953 28.2193C34.0033 28.7112 34.2347 29.1669 34.6025 29.498C34.9702 29.8292 35.448 30.0121 35.9432 30.0114H38.1565C38.6587 30.0121 39.1429 29.8245 39.5132 29.4857C39.8834 29.147 40.1128 28.6817 40.156 28.1821C40.155 28.1557 40.1626 28.1296 40.1777 28.1079C40.1928 28.0861 40.2145 28.0698 40.2397 28.0614C41.6035 27.6712 42.9269 27.1519 44.192 26.5107C44.5745 26.8367 45.0666 27.0055 45.569 26.9831C46.0713 26.9607 46.5464 26.7487 46.8983 26.39L48.4606 24.83C48.8167 24.4765 49.0261 24.0018 49.0468 23.5008C49.0675 22.9998 48.898 22.5094 48.5722 22.1279C49.2143 20.8679 49.7344 19.5495 50.1253 18.1907C50.1348 18.1656 50.1511 18.1435 50.1725 18.1271C50.1939 18.1107 50.2194 18.1006 50.2462 18.0979C50.7468 18.06 51.2144 17.8338 51.5545 17.4649C51.8946 17.0961 52.0818 16.6121 52.0782 16.1107V13.9007C52.0806 13.3988 51.8933 12.9144 51.5537 12.5443C51.2141 12.1742 50.7472 11.9457 50.2462 11.9043ZM37.0498 23.3629C34.831 23.3599 32.7038 22.4785 31.1348 20.9119C29.5658 19.3452 28.6831 17.2213 28.6801 15.0057C29.1339 3.92231 44.9676 3.92602 45.4196 15.0057C45.4166 17.2213 44.5339 19.3452 42.9649 20.9119C41.3959 22.4785 39.2687 23.3599 37.0498 23.3629Z" fill="#1E6CC6"/>
</svg>
