<svg width="1441" height="1610" viewBox="0 0 1441 1610" fill="none" xmlns="http://www.w3.org/2000/svg">
<path d="M1154.76 113.945C1188.12 133.895 1220.05 156.191 1250.24 180.657C1367.81 276.067 1486.47 429.192 1423 588.255C1386.87 678.793 1305.08 741.842 1225.81 798.633C1114.54 878.36 1017.43 972.988 949.505 1093.11C916.683 1151.15 896.662 1215.44 876.57 1278.7C833.008 1415.93 771.808 1545.73 624.301 1591.28C540.911 1617.03 450.871 1613.22 365.17 1596.76C251.411 1574.85 136.336 1526.67 67.7034 1433.36C17.1715 1364.65 -3.41824 1276.78 0.457886 1191.58C12.9753 915.13 236.048 732.099 382.203 520.192C439.99 436.411 460.899 333.213 482.52 235.563C493.295 186.916 505.244 136.953 534.439 96.5913C565.626 53.456 614.416 25.1496 665.872 11.5298C717.329 -2.08996 771.523 -2.01884 824.473 3.42196C940.971 15.3704 1054.3 53.9539 1154.76 113.945Z" fill="url(#paint0_linear_2010_744)"/>
<defs>
<linearGradient id="paint0_linear_2010_744" x1="1805.52" y1="-43.1721" x2="985.173" y2="3205.7" gradientUnits="userSpaceOnUse">
<stop stop-color="#2378DA"/>
<stop offset="1" stop-color="#042F61"/>
</linearGradient>
</defs>
</svg>
