<svg xmlns="http://www.w3.org/2000/svg" viewBox="0 0 660 1180"><rect width="660" height="1180" rx="56" fill="#0b0b0b"/><circle cx="510" cy="150" r="210" fill="#ff9900" opacity=".18"/><g fill="none" stroke="#ff9900" stroke-width="12"><path d="M164 445c-65 0-116-47-116-108 0-58 47-105 107-108 24-83 100-139 190-139 101 0 185 73 199 168 52 13 90 58 90 111 0 64-55 116-122 116H164z"/><path d="M174 690h312M174 780h240M174 870h278"/></g><g fill="#fff" opacity=".12"><rect x="104" y="635" width="452" height="92" rx="24"/><rect x="104" y="745" width="452" height="92" rx="24"/><rect x="104" y="855" width="452" height="92" rx="24"/></g><text x="330" y="1070" text-anchor="middle" fill="#fff" font-family="Arial" font-size="58" font-weight="700">AWS CLOUD</text></svg>
